<svg version="1.1" xmlns="http://www.w3.org/2000/svg" xmlns:xlink="http://www.w3.org/1999/xlink" width="193.12902" height="110.61918" viewBox="0,0,193.12902,110.61918"><g transform="translate(-121.7527,-235.3485)"><g data-paper-data="{&quot;isPaintingLayer&quot;:true}" fill-rule="nonzero" stroke-linejoin="miter" stroke-miterlimit="10" stroke-dasharray="" stroke-dashoffset="0" style="mix-blend-mode: normal"><path d="M187.38193,291.4993v-25.33648h92.66667v25.33648z" fill="#ff0000" stroke="#000000" stroke-width="2.5" stroke-linecap="butt"/><path d="M282.80087,270.32134c0,5.54571 -21.54684,10.04139 -48.12621,10.04139c-26.57938,0 -48.12621,-4.49568 -48.12621,-10.04139c0,-5.54571 21.54684,-10.04139 48.12621,-10.04139c26.57938,0 48.12621,4.49568 48.12621,10.04139z" fill="#ffffff" stroke="#000000" stroke-width="2.5" stroke-linecap="butt"/><path d="M276.6992,258.75629c2.98542,0.58724 3.52811,3.10621 -3.80545,5.43201c-11.37171,3.60648 -33.72299,7.34907 -33.72299,7.34907c0,0 -2.59005,-1.53385 -3.89839,-1.53385c-2.10305,0 -6.35035,1.64592 -6.35035,1.64592c0,0 -19.54794,-3.03193 -31.99832,-6.61798c-7.56217,-2.17811 -12.08521,-5.37023 -9.23066,-5.88054c31.58283,-5.64596 20.48166,6.24846 46.759,6.24846c26.27734,0 21.32866,-10.7105 42.24716,-6.6431z" fill="#ff0000" stroke="#000000" stroke-width="2.5" stroke-linecap="butt"/><path d="M225.37755,297.59532v-13.40145h16.81683v13.40145z" fill="#ffffff" stroke="#000000" stroke-width="2.5" stroke-linecap="butt"/><path d="M222.57474,284.48452v-4.76322h22.96933v4.76322z" fill="#f3ff00" stroke="#000000" stroke-width="2.5" stroke-linecap="butt"/><path d="M284.37317,275.62704v-3.50791h16.6801v3.50791z" fill="#f3ff00" stroke="#000000" stroke-width="2.5" stroke-linecap="butt"/><path d="M313.63172,265.41026c0,3.75364 -9.12068,6.79658 -20.3716,6.79658c-11.25093,0 -20.3716,-3.04293 -20.3716,-6.79658c0,-3.75364 9.12068,-6.79657 20.3716,-6.79657c11.25093,0 20.3716,3.04293 20.3716,6.79657z" fill="#ffffff" stroke="#000000" stroke-width="2.5" stroke-linecap="butt"/><path d="M198.84896,267.7174c-4.00858,3.52662 -15.82723,5.38366 -26.39768,4.14781c-10.57046,-1.23585 -15.8899,-5.09659 -11.88132,-8.62321c4.00858,-3.52662 15.82723,-5.38366 26.39768,-4.14781c10.57046,1.23585 15.88991,5.09658 11.88132,8.62321z" fill="#ffffff" stroke="#000000" stroke-width="2.5" stroke-linecap="butt"/><path d="M234.21892,277.05326l36.43481,0.62212l15.56519,-2.24566h12.51008l-5.5824,5.03418l-54.4176,0.43794z" fill="#ffffff" stroke="#000000" stroke-width="2.5" stroke-linecap="butt"/><path d="M160.93907,274.43967l3.74616,-3.29575l15.67127,1.83221l-3.74616,3.29575z" fill="#f3ff00" stroke="#000000" stroke-width="2.5" stroke-linecap="butt"/><path d="M140.16016,294.83272l22.96863,-20.20705l11.75346,1.37416l-22.96863,20.20705z" fill="#ffffff" stroke="#000000" stroke-width="2.5" stroke-linecap="butt"/><g fill="#000000" stroke="none" stroke-width="0.5" stroke-linecap="butt"><path d="M249.03411,271.18906c-0.12978,-0.49946 1.42756,-0.54108 1.42756,-0.54108c2.11153,-0.05634 3.96408,-0.14239 6.06111,-0.06759c0.80949,0.02887 1.79214,-0.08059 2.43009,0.08181c2.22243,0.56574 1.25461,1.99039 -1.32847,2.28797c-2.53157,0.29164 -3.84531,-0.41826 -5.81518,-0.6798l-0.03431,-0.01091l-0.00704,0.00452l-1.63664,-0.26245c-0.52859,-0.08036 -0.89414,-0.25306 -0.89414,-0.45314c0,-0.03831 0.0134,-0.07563 0.03879,-0.11147c-0.12488,-0.06247 -0.21459,-0.14331 -0.24176,-0.24786z"/><path d="M254.4462,273.8873c0,0.50119 -1.56274,0.50119 -1.56274,0.50119c-0.55564,0 -2.7782,0 -3.33384,0c0,0 -1.56274,0 -1.56274,-0.50119c0,-0.50119 1.56274,-0.50119 1.56274,-0.50119c0.55564,0 1.11128,0 1.66692,0h1.66692c0,0 1.56274,0 1.56274,0.50119z"/><path d="M262.78081,273.95412c0,0.50119 -1.56274,0.50119 -1.56274,0.50119c-1.11128,0 -2.84766,0 -3.95894,0c0,0 -1.56274,0 -1.56274,-0.50119c0,-0.50119 1.56274,-0.50119 1.56274,-0.50119c1.11128,0 2.22256,0 3.33384,0h0.6251c0,0 1.56274,0 1.56274,0.50119z"/><path d="M255.48803,275.29064c0,0.50119 -1.56274,0.50119 -1.56274,0.50119l-1.23566,-0.00387c-1.17262,-0.04702 -2.34643,-0.091 -3.52095,-0.13285c0,0 -1.55318,-0.05535 -1.38061,-0.55348c0.17258,-0.49813 1.72576,-0.44278 1.72576,-0.44278c1.1887,0.04237 2.37668,0.08689 3.56347,0.13446l0.84799,-0.00387c0,0 1.56274,0 1.56274,0.50119z"/></g><path d="M208.56072,324.90656v-28.49515h16.40666v28.49515z" fill="#ffffff" stroke="#000000" stroke-width="2.5" stroke-linecap="butt"/><path d="M240.14355,324.90656v-28.75825h16.40666v28.75825z" fill="#ffffff" stroke="#000000" stroke-width="2.5" stroke-linecap="butt"/><path d="M220.56784,266.58377v-7.77734h29v7.77734z" fill="#000000" stroke="none" stroke-width="0" stroke-linecap="butt"/><path d="M157.81307,302.98725c-3.68531,3.24221 -14.17795,4.99309 -23.43597,3.91068c-9.25802,-1.0824 -13.7756,-4.5882 -10.09029,-7.83041c3.68531,-3.24221 14.17794,-4.99309 23.43597,-3.91068c9.25802,1.0824 13.7756,4.5882 10.09029,7.83041z" fill="#ff0000" stroke="#000000" stroke-width="2.5" stroke-linecap="butt"/><path d="M248.69219,278.13768c0,3.45093 -7.80461,6.24846 -17.43208,6.24846c-9.62747,0 -17.43208,-2.79753 -17.43208,-6.24846c0,-3.45093 7.80461,-6.24846 17.43208,-6.24846c9.62747,0 17.43208,2.79753 17.43208,6.24846z" fill="#ff0000" stroke="#000000" stroke-width="2.5" stroke-linecap="butt"/><g stroke="#000000" stroke-width="2.5"><path d="M222.16317,268.78947v-4.57019h26.5v4.57019z" fill="#ffffff" stroke-linecap="butt"/><path d="M216.20044,269.59061v-18.84201l6.44026,-0.01164l-0.47752,17.81133l26.39099,0.01132l0.01265,-17.43878l6.13362,0.02867v18.44111c0,0 -12.81416,1.28286 -19.1759,1.28286c-6.46977,0 -19.3241,-1.28286 -19.3241,-1.28286z" fill="#ffffff" stroke-linecap="butt"/><path d="M229.41317,268.53923l0.25,-4.40983" fill="none" stroke-linecap="round"/><path d="M240.41317,268.2987l0.25,-4.40983" fill="none" stroke-linecap="round"/></g><path d="M262.29253,297.92419c0,3.59623 -12.94647,6.51156 -28.91674,6.51156c-15.97027,0 -28.91674,-2.91532 -28.91674,-6.51156c0,-3.59623 14.17697,-1.90743 30.14724,-1.90743c15.97027,0 27.68624,-1.68881 27.68624,1.90743z" fill="#00a1ff" stroke="#000000" stroke-width="2.5" stroke-linecap="butt"/><path d="M203.63872,298.91079v-3.28866h58.65382v3.28866z" fill="#f3ff00" stroke="#000000" stroke-width="2.5" stroke-linecap="butt"/><g fill="#ff0000" stroke="#000000" stroke-width="2.5" stroke-linecap="butt"><path d="M229.58333,333.18231c0,5.978 -10.85709,10.82413 -24.25,10.82413c-13.39291,0 -24.25,-4.84613 -24.25,-10.82413c0,-5.978 -2.64627,-9.62177 25.25,-9.70163c26.89075,-0.07698 23.25,3.72363 23.25,9.70163z"/><path d="M232.08334,339.9975c0,5.84516 -10.75253,4.32965 -25.25001,4.32965c-14.49748,0 -27.25,1.5155 -27.25,-4.32965c0,-5.84516 11.75252,-10.58359 26.25,-10.58359c14.49748,0 26.25001,4.73844 26.25001,10.58359z" data-paper-data="{&quot;origPos&quot;:null}"/></g><g fill="#ff0000" stroke="#000000" stroke-width="2.5" stroke-linecap="butt"><path d="M283.08334,333.39611c0,5.978 -10.8571,10.82413 -24.25,10.82413c-13.39291,0 -24.25,-4.84613 -24.25,-10.82413c0,-5.978 -2.64628,-9.62177 25.25,-9.70163c26.89075,-0.07698 23.25,3.72363 23.25,9.70163z"/><path d="M285.58334,340.21131c0,5.84516 -10.75253,4.32965 -25.25001,4.32965c-14.49747,0 -27.25,1.5155 -27.25,-4.32965c0,-5.84516 11.75252,-10.58359 26.25,-10.58359c14.49748,0 26.25001,4.73844 26.25001,10.58359z" data-paper-data="{&quot;origPos&quot;:null}"/></g><path d="M223.06317,261.13507v-6.97555h25.75v6.97555z" fill="#ffffff" stroke="#000000" stroke-width="2.5" stroke-linecap="butt"/><path d="M230.06317,260.89454l0.25,-5.93323" fill="none" stroke="#000000" stroke-width="2.5" stroke-linecap="round"/><path d="M240.81317,254.96131v5.61251" fill="none" stroke="#000000" stroke-width="2.5" stroke-linecap="round"/><g stroke-width="2.5"><g stroke-linecap="butt"><path d="M268.95351,246.2014c0,5.30354 -14.50739,9.6029 -32.40316,9.6029c-17.89577,0 -32.40316,-4.29936 -32.40316,-9.6029c0,-5.30354 14.50739,-9.6029 32.40316,-9.6029c17.89577,0 32.40316,4.29936 32.40316,9.6029z" data-paper-data="{&quot;origPos&quot;:null}" fill="#ffffff" stroke="#000000"/><path d="M237.1656,250.8713c0,0.18622 0.95605,1.64613 0.41988,1.7176c-1.2566,0.16752 -3.2649,-1.31319 -4.36726,-1.05728c-0.92399,0.2145 -1.06447,1.18133 -2.20512,1.18133c-1.69897,0 0,-1.18779 0,-1.84165c0,-0.65386 1.37728,-1.18392 3.07625,-1.18392c1.69897,0 3.07625,0.53006 3.07625,1.18392z" fill="#000000" stroke="none"/></g><path d="M249.37383,242.09231l1.43013,7.0744l-8.02197,0.01801l1.58198,-6.99396z" data-paper-data="{&quot;origRot&quot;:0,&quot;index&quot;:null}" fill="#000000" stroke="none" stroke-linecap="butt"/><path d="M234.7046,240.85184c0,0 4.08708,-0.78928 6.97283,-0.78928c2.88575,0 7.58808,0.78928 7.58808,0.78928" data-paper-data="{&quot;origPos&quot;:null}" fill="none" stroke="#000000" stroke-linecap="round"/></g><path d="M217.53044,257.55407v-6.09358h3.75v6.09358z" fill="#ffffff" stroke="none" stroke-width="0" stroke-linecap="butt"/><path d="M250.23044,257.63424v-5.93323h3.15v5.93323z" fill="#ffffff" stroke="none" stroke-width="0" stroke-linecap="butt"/><path d="M232.55482,245.02088c1.28624,0.68753 -0.85749,1.10004 -0.85749,1.10004l-2.64282,0.42878c-4.9787,0.18916 -7.74188,-0.12384 -11.57721,-1.14179c0,0 -1.92055,-0.51329 -0.32009,-1.12924c1.60046,-0.61595 3.52101,-0.10266 3.52101,-0.10266c2.79294,0.7526 4.11331,0.93818 7.75612,0.7825l0.69051,-0.21265c0,0 2.14373,-0.41252 3.42997,0.27501z" fill="#000000" stroke="none" stroke-width="0.5" stroke-linecap="butt"/></g></g></svg>