<svg version="1.1" xmlns="http://www.w3.org/2000/svg" xmlns:xlink="http://www.w3.org/1999/xlink" width="34.54285" height="49.28124" viewBox="0,0,34.54285,49.28124"><g transform="translate(-302.73188,-155.35938)"><g data-paper-data="{&quot;isPaintingLayer&quot;:true}" fill="#000000" fill-rule="nonzero" stroke-linejoin="miter" stroke-miterlimit="10" stroke-dasharray="" stroke-dashoffset="0" style="mix-blend-mode: normal"><path d="M335.0987,175.1935c0,10.53987 -6.48184,19.08412 -14.47761,19.08412c-7.99576,0 -14.47761,-8.54425 -14.47761,-19.08412c0,-10.53987 6.48184,-19.08412 14.47761,-19.08412c7.99576,0 14.47761,8.54425 14.47761,19.08412z" stroke="#000000" stroke-width="1.5" stroke-linecap="butt"/><path d="M303.48189,179.47564l8.27558,-5.7984l9.29545,6.48113l9.16293,-7.10534l6.30227,6.42261c0,0 -0.15125,7.04296 -0.55741,9.77219c-1.91018,12.83569 -8.43762,14.64279 -15.96071,14.64279c-9.1227,0 -16.51812,-7.39541 -16.51812,-16.51811z" stroke="#000000" stroke-width="1.5" stroke-linecap="butt"/><path d="M334.85313,181.92404l-6.382,6.00659l-7.88365,-7.50824l-6.00659,6.382l-9.38529,-7.88365" stroke="#000000" stroke-width="2" stroke-linecap="round"/><path d="M305.90701,190.55851c0,-1.26576 1.02612,-2.29188 2.29188,-2.29188c1.26576,0 2.29188,1.02612 2.29188,2.29188c0,1.26576 -1.02611,2.29188 -2.29188,2.29188c-1.26576,0 -2.29188,-1.02611 -2.29188,-2.29188z" stroke="#000000" stroke-width="0.5" stroke-linecap="butt"/><path d="M318.2956,194.68804c0,-1.26576 1.02612,-2.29188 2.29188,-2.29188c1.26576,0 2.29188,1.02612 2.29188,2.29188c0,1.26576 -1.02611,2.29188 -2.29188,2.29188c-1.26576,0 -2.29188,-1.02611 -2.29188,-2.29188z" stroke="#000000" stroke-width="0.5" stroke-linecap="butt"/><path d="M330.68419,191.30932c0,-1.26576 1.02612,-2.29188 2.29188,-2.29188c1.26576,0 2.29188,1.02611 2.29188,2.29188c0,1.26576 -1.02611,2.29188 -2.29188,2.29188c-1.26576,0 -2.29188,-1.02612 -2.29188,-2.29188z" stroke="#000000" stroke-width="0.5" stroke-linecap="butt"/><path d="M320.6211,175.03089l-5.23359,-5.23359h10.46718z" stroke="#000000" stroke-width="1.5" stroke-linecap="butt"/><path d="M314.63297,165.05917c0,-0.69036 0.55964,-1.25 1.25,-1.25c0.69036,0 1.25,0.55964 1.25,1.25c0,0.69036 -0.55964,1.25 -1.25,1.25c-0.69036,0 -1.25,-0.55964 -1.25,-1.25z" stroke="#ff0000" stroke-width="3" stroke-linecap="butt"/><path d="M323.84599,165.05917c0,-0.69036 0.55964,-1.25 1.25,-1.25c0.69036,0 1.25,0.55964 1.25,1.25c0,0.69036 -0.55964,1.25 -1.25,1.25c-0.69036,0 -1.25,-0.55964 -1.25,-1.25z" stroke="#ff0000" stroke-width="3" stroke-linecap="butt"/></g></g></svg>