<svg version="1.1" xmlns="http://www.w3.org/2000/svg" xmlns:xlink="http://www.w3.org/1999/xlink" width="193.12902" height="231.61918" viewBox="0,0,193.12902,231.61918"><g transform="translate(-121.7527,-114.3485)"><g data-paper-data="{&quot;isPaintingLayer&quot;:true}" fill-rule="nonzero" stroke-linejoin="miter" stroke-miterlimit="10" stroke-dasharray="" stroke-dashoffset="0" style="mix-blend-mode: normal"><path d="M187.38193,231.94073v-53.69144h92.66667v53.69144z" fill="#ff0000" stroke="#000000" stroke-width="2.5" stroke-linecap="butt"/><path d="M282.80087,187.06176c0,11.75211 -21.54684,21.27906 -48.12621,21.27906c-26.57938,0 -48.12621,-9.52696 -48.12621,-21.27906c0,-11.75211 21.54684,-21.27906 48.12621,-21.27906c26.57938,0 48.12621,9.52696 48.12621,21.27906z" fill="#ffffff" stroke="#000000" stroke-width="2.5" stroke-linecap="butt"/><path d="M276.6992,162.55386c2.98542,1.24445 3.52811,6.58249 -3.80545,11.51117c-11.37171,7.64262 -33.72299,15.57367 -33.72299,15.57367c0,0 -2.59005,-3.25043 -3.89839,-3.25043c-2.10305,0 -6.35035,3.48793 -6.35035,3.48793c0,0 -19.54794,-6.42507 -31.99832,-14.0244c-7.56217,-4.61571 -12.08521,-11.38025 -9.23066,-12.46165c31.58283,-11.96455 20.48166,13.24134 46.759,13.24134c26.27734,0 21.32866,-22.697 42.24716,-14.07763z" fill="#ff0000" stroke="#000000" stroke-width="2.5" stroke-linecap="butt"/><path d="M225.37755,244.85903v-28.39948h16.81683v28.39948z" fill="#ffffff" stroke="#000000" stroke-width="2.5" stroke-linecap="butt"/><path d="M222.57474,217.07546v-10.09391h22.96933v10.09391z" fill="#f3ff00" stroke="#000000" stroke-width="2.5" stroke-linecap="butt"/><path d="M284.37317,198.30527v-7.43374h16.6801v7.43374z" fill="#f3ff00" stroke="#000000" stroke-width="2.5" stroke-linecap="butt"/><path d="M313.63172,176.65453c0,7.95448 -9.12068,14.40287 -20.3716,14.40287c-11.25093,0 -20.3716,-6.44838 -20.3716,-14.40287c0,-7.95448 9.12068,-14.40286 20.3716,-14.40286c11.25093,0 20.3716,6.44838 20.3716,14.40286z" fill="#ffffff" stroke="#000000" stroke-width="2.5" stroke-linecap="butt"/><path d="M198.84896,181.54366c-4.00858,7.47339 -15.82723,11.4087 -26.39768,8.78978c-10.57046,-2.61893 -15.8899,-10.80036 -11.88132,-18.27375c4.00858,-7.47338 15.82723,-11.4087 26.39768,-8.78977c10.57046,2.61893 15.88991,10.80035 11.88132,18.27374z" fill="#ffffff" stroke="#000000" stroke-width="2.5" stroke-linecap="butt"/><path d="M234.21892,201.32762l36.43481,1.31836l15.56519,-4.75886h12.51008l-5.5824,10.66811l-54.4176,0.92805z" fill="#ffffff" stroke="#000000" stroke-width="2.5" stroke-linecap="butt"/><path d="M160.93907,195.78906l3.74616,-6.98414l15.67127,3.8827l-3.74616,6.98414z" fill="#f3ff00" stroke="#000000" stroke-width="2.5" stroke-linecap="butt"/><path d="M140.16016,239.0047l22.96863,-42.82147l11.75346,2.91203l-22.96863,42.82147z" fill="#ffffff" stroke="#000000" stroke-width="2.5" stroke-linecap="butt"/><g fill="#000000" stroke="none" stroke-width="0.5" stroke-linecap="butt"><path d="M249.03411,188.90057c-0.12978,-1.05843 1.42756,-1.14663 1.42756,-1.14663c2.11153,-0.1194 3.96408,-0.30174 6.06111,-0.14323c0.80949,0.06119 1.79214,-0.17078 2.43009,0.17336c2.22243,1.19889 1.25461,4.2179 -1.32847,4.84851c-2.53157,0.61803 -3.84531,-0.88635 -5.81518,-1.44058l-0.03431,-0.02311l-0.00704,0.00958l-1.63664,-0.55616c-0.52859,-0.1703 -0.89414,-0.53627 -0.89414,-0.96026c0,-0.08119 0.0134,-0.16026 0.03879,-0.23622c-0.12488,-0.13239 -0.21459,-0.3037 -0.24176,-0.52525z"/><path d="M254.4462,194.61851c0,1.0621 -1.56274,1.0621 -1.56274,1.0621c-0.55564,0 -2.7782,0 -3.33384,0c0,0 -1.56274,0 -1.56274,-1.0621c0,-1.0621 1.56274,-1.0621 1.56274,-1.0621c0.55564,0 1.11128,0 1.66692,0h1.66692c0,0 1.56274,0 1.56274,1.0621z"/><path d="M262.78081,194.76012c0,1.0621 -1.56274,1.0621 -1.56274,1.0621c-1.11128,0 -2.84766,0 -3.95894,0c0,0 -1.56274,0 -1.56274,-1.0621c0,-1.0621 1.56274,-1.0621 1.56274,-1.0621c1.11128,0 2.22256,0 3.33384,0h0.6251c0,0 1.56274,0 1.56274,1.0621z"/><path d="M255.48803,197.59238c0,1.0621 -1.56274,1.0621 -1.56274,1.0621l-1.23566,-0.0082c-1.17262,-0.09964 -2.34643,-0.19284 -3.52095,-0.28152c0,0 -1.55318,-0.11729 -1.38061,-1.17289c0.17258,-1.0556 1.72576,-0.93832 1.72576,-0.93832c1.1887,0.08978 2.37668,0.18413 3.56347,0.28493l0.84799,-0.0082c0,0 1.56274,0 1.56274,1.0621z"/></g><path d="M208.56072,302.73523v-60.38508h16.40666v60.38508z" fill="#ffffff" stroke="#000000" stroke-width="2.5" stroke-linecap="butt"/><path d="M240.14355,302.73523v-60.94262h16.40666v60.94262z" fill="#ffffff" stroke="#000000" stroke-width="2.5" stroke-linecap="butt"/><path d="M220.56784,179.14135v-16.48123h29v16.48123z" fill="#000000" stroke="none" stroke-width="0" stroke-linecap="butt"/><path d="M157.81307,256.28526c-3.68531,6.87069 -14.17795,10.58103 -23.43597,8.28727c-9.25802,-2.29376 -13.7756,-9.72301 -10.09029,-16.5937c3.68531,-6.87069 14.17794,-10.58103 23.43597,-8.28727c9.25802,2.29376 13.7756,9.72301 10.09029,16.5937z" fill="#ff0000" stroke="#000000" stroke-width="2.5" stroke-linecap="butt"/><path d="M248.69219,203.62565c0,7.31299 -7.80461,13.24134 -17.43208,13.24134c-9.62747,0 -17.43208,-5.92835 -17.43208,-13.24134c0,-7.31299 7.80461,-13.24134 17.43208,-13.24134c9.62747,0 17.43208,5.92835 17.43208,13.24134z" fill="#ff0000" stroke="#000000" stroke-width="2.5" stroke-linecap="butt"/><g stroke="#000000" stroke-width="2.5"><path d="M222.16317,183.81553v-9.68485h26.5v9.68485z" fill="#ffffff" stroke-linecap="butt"/><path d="M216.20044,185.51324v-39.92876l6.44026,-0.02467l-0.47752,37.74461l26.39099,0.02399l0.01265,-36.95513l6.13362,0.06075v39.07921c0,0 -12.81416,2.71855 -19.1759,2.71855c-6.46977,0 -19.3241,-2.71855 -19.3241,-2.71855z" fill="#ffffff" stroke-linecap="butt"/><path d="M229.41317,183.28524l0.25,-9.34503" fill="none" stroke-linecap="round"/><path d="M240.41317,182.77551l0.25,-9.34503" fill="none" stroke-linecap="round"/></g><path d="M262.29253,245.55595c0,7.6209 -12.94647,13.79887 -28.91674,13.79887c-15.97027,0 -28.91674,-6.17796 -28.91674,-13.79887c0,-7.6209 14.17697,-4.0421 30.14724,-4.0421c15.97027,0 27.68624,-3.57881 27.68624,4.0421z" fill="#00a1ff" stroke="#000000" stroke-width="2.5" stroke-linecap="butt"/><path d="M203.63872,247.64668v-6.96912h58.65382v6.96912z" fill="#f3ff00" stroke="#000000" stroke-width="2.5" stroke-linecap="butt"/><g fill="#ff0000" stroke="#000000" stroke-width="2.5" stroke-linecap="butt"><path d="M229.58333,320.27266c0,12.6682 -10.85709,22.9378 -24.25,22.9378c-13.39291,0 -24.25,-10.2696 -24.25,-22.9378c0,-12.6682 -2.64627,-20.38983 25.25,-20.55907c26.89075,-0.16314 23.25,7.89087 23.25,20.55907z"/><path d="M232.08334,334.71498c0,12.38668 -10.75253,9.17512 -25.25001,9.17512c-14.49748,0 -27.25,3.21156 -27.25,-9.17512c0,-12.38668 11.75252,-22.42807 26.25,-22.42807c14.49748,0 26.25001,10.04139 26.25001,22.42807z" data-paper-data="{&quot;origPos&quot;:null}"/></g><g fill="#ff0000" stroke="#000000" stroke-width="2.5" stroke-linecap="butt"><path d="M283.08334,320.72575c0,12.6682 -10.8571,22.9378 -24.25,22.9378c-13.39291,0 -24.25,-10.2696 -24.25,-22.9378c0,-12.6682 -2.64628,-20.38983 25.25,-20.55907c26.89075,-0.16314 23.25,7.89087 23.25,20.55907z"/><path d="M285.58334,335.16807c0,12.38668 -10.75253,9.17512 -25.25001,9.17512c-14.49747,0 -27.25,3.21156 -27.25,-9.17512c0,-12.38668 11.75252,-22.42807 26.25,-22.42807c14.49748,0 26.25001,10.04139 26.25001,22.42807z" data-paper-data="{&quot;origPos&quot;:null}"/></g><path d="M223.06317,167.59482v-14.78214h25.75v14.78214z" fill="#ffffff" stroke="#000000" stroke-width="2.5" stroke-linecap="butt"/><path d="M230.06317,167.08509l0.25,-12.57331" fill="none" stroke="#000000" stroke-width="2.5" stroke-linecap="round"/><path d="M240.81317,154.51178v11.89367" fill="none" stroke="#000000" stroke-width="2.5" stroke-linecap="round"/><g stroke-width="2.5"><g stroke-linecap="butt"><path d="M268.95351,135.94835c0,11.23891 -14.50739,20.34985 -32.40316,20.34985c-17.89577,0 -32.40316,-9.11093 -32.40316,-20.34985c0,-11.23891 14.50739,-20.34985 32.40316,-20.34985c17.89577,0 32.40316,9.11093 32.40316,20.34985z" data-paper-data="{&quot;origPos&quot;:null}" fill="#ffffff" stroke="#000000"/><path d="M237.1656,145.8445c0,0.39463 0.95605,3.48837 0.41988,3.63983c-1.2566,0.355 -3.2649,-2.78283 -4.36726,-2.24052c-0.92399,0.45456 -1.06447,2.5034 -2.20512,2.5034c-1.69897,0 0,-2.51709 0,-3.90271c0,-1.38562 1.37728,-2.50889 3.07625,-2.50889c1.69897,0 3.07625,1.12327 3.07625,2.50889z" fill="#000000" stroke="none"/></g><path d="M249.37383,127.24063l1.43013,14.99161l-8.02197,0.03817l1.58198,-14.82115z" data-paper-data="{&quot;origRot&quot;:0,&quot;index&quot;:null}" fill="#000000" stroke="none" stroke-linecap="butt"/><path d="M234.7046,124.6119c0,0 4.08708,-1.67259 6.97283,-1.67259c2.88575,0 7.58808,1.67259 7.58808,1.67259" data-paper-data="{&quot;origPos&quot;:null}" fill="none" stroke="#000000" stroke-linecap="round"/></g><path d="M217.53044,160.00618v-12.91313h3.75v12.91313z" fill="#ffffff" stroke="none" stroke-width="0" stroke-linecap="butt"/><path d="M250.23044,160.17609v-12.57331h3.15v12.57331z" fill="#ffffff" stroke="none" stroke-width="0" stroke-linecap="butt"/><path d="M232.55482,133.44666c1.28624,1.45696 -0.85749,2.33114 -0.85749,2.33114l-2.64282,0.90865c-4.9787,0.40085 -7.74188,-0.26243 -11.57721,-2.41961c0,0 -1.92055,-1.08773 -0.32009,-2.39301c1.60046,-1.30528 3.52101,-0.21755 3.52101,-0.21755c2.79294,1.59486 4.11331,1.98813 7.75612,1.65822l0.69051,-0.45063c0,0 2.14373,-0.87418 3.42997,0.58278z" fill="#000000" stroke="none" stroke-width="0.5" stroke-linecap="butt"/></g></g></svg>