<svg version="1.1" xmlns="http://www.w3.org/2000/svg" xmlns:xlink="http://www.w3.org/1999/xlink" width="128.18321" height="150.09038" viewBox="0,0,128.18321,150.09038"><g transform="translate(-257.41787,-111.47219)"><g data-paper-data="{&quot;isPaintingLayer&quot;:true}" fill-rule="nonzero" stroke-linejoin="miter" stroke-miterlimit="10" stroke-dasharray="" stroke-dashoffset="0" style="mix-blend-mode: normal"><text transform="translate(271.25,220.39181) scale(0.5,0.38658)" font-size="40" xml:space="preserve" fill="#ffffff" fill-rule="nonzero" stroke="#000000" stroke-width="1" stroke-linecap="butt" stroke-linejoin="miter" stroke-miterlimit="10" stroke-dasharray="" stroke-dashoffset="0" font-family="Pixel" font-weight="normal" text-anchor="start" style="mix-blend-mode: normal"><tspan x="0" dy="0">Madness</tspan><tspan x="0" dy="48px">Combat </tspan><tspan x="0" dy="48px">Scratch</tspan></text><g stroke="#000000" stroke-linecap="round"><path d="M329.90215,164.73944l7.53755,0.23192l2.7831,1.8554l-0.11596,4.40657l-1.62347,0.46385l0.34789,0.81174l-1.97136,1.39155l-0.34789,1.62347l-1.50751,2.08732l-1.39155,-0.34789l-2.43521,-0.81174l-3.47887,-2.55117l-1.04366,-3.71079l1.27559,-3.82676z" fill="#c9c9c9" stroke-width="2.5"/><path d="M331.06177,169.95775l2.89906,0.46385" fill="none" stroke-width="0.5"/><path d="M333.03313,166.7108h1.15962" fill="none" stroke-width="0.5"/><path d="M337.55566,169.37794h1.15962" fill="none" stroke-width="1"/></g><path d="M313.72049,204.90661l-0.02597,-7.51263l7.72525,-1.44465l9.18199,2.78401l0.16711,1.73158l-2.39219,5.9983l-4.12236,0.7474l-6.67422,-2.15219z" fill="#666666" stroke="#000000" stroke-width="1.5" stroke-linecap="round"/><path d="M302.29592,204.8637l-0.02597,-7.51263l7.72525,-1.44465l9.18199,2.78401l0.16711,1.73158l-2.3922,5.9983l-4.12236,0.7474l-6.67422,-2.15219z" fill="#666666" stroke="#000000" stroke-width="1.5" stroke-linecap="round"/><path d="M331.80104,158.9371l0.68543,11.37478l-0.24987,17.73617l-1.31283,9.19868l0.84143,1.689l-31.35156,0.58166l0.88682,-24.35937l0.31302,-4.68946l1.42479,-4.03065l0.94998,-11.31266l0.72707,-6.96659l1.32614,-2.9554c0,0 13.58693,0.98931 17.14069,1.86618c1.82754,0.45093 5.12763,2.19813 5.12763,2.19813c0,0 0.98076,3.66407 2.02401,5.22338c0.90888,1.35847 1.46725,4.44616 1.46725,4.44616z" fill="#979797" stroke="#000000" stroke-width="1.5" stroke-linecap="round"/><path d="M300.49201,199.46288c0,0 0.25536,-21.35937 1.76588,-27.94515c1.17285,-5.11356 1.69764,-12.98704 2.40448,-18.40948c0.61759,-4.73783 1.49399,-7.39934 1.49399,-7.39934c0,0 8.03549,0.39584 11.8587,0.68975c3.92251,0.30155 10.09927,3.05382 10.09927,3.05382l3.34864,8.2197l-20.71103,-3.59987c0,0 -2.19586,21.0873 -2.33973,29.41639c-0.19035,11.01924 3.05759,16.10219 3.05759,16.10219z" fill="#787878" stroke="#787878" stroke-width="0.5" stroke-linecap="round"/><path d="M331.80104,158.93708l0.68543,11.37478l-0.24987,17.73617l-1.31283,9.19868l0.84143,1.689l-31.35156,0.58166l0.88683,-24.35937l0.31302,-4.68946l1.42479,-4.03065l0.94998,-11.31266l0.72707,-6.9666l1.32614,-2.9554c0,0 13.58693,0.98931 17.14069,1.86618c1.82753,0.45093 5.12763,2.19813 5.12763,2.19813c0,0 0.98076,3.66407 2.02401,5.22338c0.90888,1.35847 1.46725,4.44616 1.46725,4.44616z" fill="none" stroke="#000000" stroke-width="2.5" stroke-linecap="round"/><g stroke="#000000" stroke-linecap="round"><path d="M303.30202,167.22579l7.53755,0.23192l2.7831,1.8554l-0.11596,4.40657l-1.62347,0.46385l0.34789,0.81174l-1.97136,1.39155l-0.34789,1.62347l-1.50751,2.08732l-1.39155,-0.34789l-2.43521,-0.81174l-3.47887,-2.55117l-1.04366,-3.71079l1.27559,-3.82676z" fill="#c9c9c9" stroke-width="2.5"/><path d="M304.46164,172.44409l2.89906,0.46385" fill="none" stroke-width="0.5"/><path d="M307.59263,169.19715h-1.15962" fill="none" stroke-width="0.5"/><path d="M312.11516,171.86428h-1.15962" fill="none" stroke-width="1"/></g><path d="M302.83274,137.79633c-0.06724,-13.82039 8.80591,-25.04646 19.81872,-25.07413c11.01281,-0.02767 19.99495,11.15355 20.06219,24.97394c0.06724,13.82039 -8.80591,25.04646 -19.81872,25.07413c-11.01281,0.02767 -19.99495,-11.15355 -20.06219,-24.97394z" fill="#cbcbcb" stroke="#000000" stroke-width="2.5" stroke-linecap="butt"/><path d="M334.41003,122.70035c0,0 1.82502,9.5672 1.93026,14.19691c0.10072,4.4307 -1.31177,13.01053 -1.31177,13.01053" fill="none" stroke="#000000" stroke-width="1.5" stroke-linecap="round"/><path d="M303.6378,137.44492c-0.41927,-18.2183 13.1273,-23.26594 13.1273,-23.26594c0,0 -7.17069,9.56534 -6.70266,22.79271c0.14772,4.17468 0.81439,6.25045 2.04264,11.20807c2.07375,8.3704 9.09544,13.9761 9.09544,13.9761c0,0 -17.01959,-1.11026 -17.56272,-24.71094z" fill="#9e9e9e" stroke="#9e9e9e" stroke-width="0.5" stroke-linecap="round"/><path d="M302.83274,137.79633c-0.06723,-13.8204 8.80591,-25.04647 19.81871,-25.07413c11.01281,-0.02767 19.99496,11.15355 20.06219,24.97394c0.06724,13.8204 -8.80591,25.04646 -19.81872,25.07414c-11.01281,0.02767 -19.99495,-11.15355 -20.06219,-24.97394z" fill="none" stroke="#000000" stroke-width="1.5" stroke-linecap="butt"/><path d="M326.99674,136.71589l15.70228,0.09704" fill="none" stroke="#000000" stroke-width="1.5" stroke-linecap="round"/><text transform="translate(262.2191,192.56508) rotate(-27.11528) scale(0.28486,0.28486)" font-size="40" xml:space="preserve" fill="#ff0000" fill-rule="nonzero" stroke="#000000" stroke-width="1" stroke-linecap="butt" stroke-linejoin="miter" stroke-miterlimit="10" stroke-dasharray="" stroke-dashoffset="0" font-family="Marker" font-weight="normal" text-anchor="start" style="mix-blend-mode: normal"><tspan x="0" dy="0">(UNRELATED TO ACTUAL </tspan><tspan x="0" dy="48px">MADNESS COMBAT)</tspan></text></g></g></svg>