<svg version="1.1" xmlns="http://www.w3.org/2000/svg" xmlns:xlink="http://www.w3.org/1999/xlink" width="109.0246" height="96.09165" viewBox="0,0,109.0246,96.09165"><defs><linearGradient x1="318.31246" y1="133.2551" x2="318.31246" y2="168.59832" gradientUnits="userSpaceOnUse" id="color-1"><stop offset="0" stop-color="#ffbc57"/><stop offset="1" stop-color="#ff9700"/></linearGradient><linearGradient x1="340.91462" y1="145.87346" x2="340.91462" y2="199.31754" gradientUnits="userSpaceOnUse" id="color-2"><stop offset="0" stop-color="#ffae37"/><stop offset="1" stop-color="#ff9700"/></linearGradient></defs><g transform="translate(-265.47371,-131.74416)"><g data-paper-data="{&quot;isPaintingLayer&quot;:true}" fill-rule="nonzero" stroke-linejoin="miter" stroke-miterlimit="10" stroke-dasharray="" stroke-dashoffset="0" style="mix-blend-mode: normal"><path d="M273.26989,180.08504c0,-25.81973 20.93103,-46.75075 46.75076,-46.75075c25.81973,0 46.75076,20.93103 46.75076,46.75076c0,25.81973 -20.93103,46.75076 -46.75076,46.75076c-25.81973,0 -46.75076,-20.93103 -46.75076,-46.75075z" fill="#f2e1d8" stroke="#000000" stroke-width="2" stroke-linecap="butt"/><path d="M366.81269,180.7517l-22.33333,-0.66666" data-paper-data="{&quot;index&quot;:null}" fill="none" stroke="#000000" stroke-width="2" stroke-linecap="round"/><path d="M339.05219,199.55724c0,0 -1.4723,14.2783 -18.60441,14.87323c-14.63304,0.50815 -16.46597,-14.87323 -16.46597,-14.87323z" fill="#c54444" stroke="#000000" stroke-width="2" stroke-linecap="round"/><path d="M331.75813,210.24426c-3.41802,2.41762 -12.25813,3.25575 -12.25813,3.25575c0,0 2.51023,-7.78284 5.94536,-10.21257c3.39779,-2.40332 13.55464,-3.78743 13.55464,-3.78743c0,0 -3.82656,8.32854 -7.24187,10.74425z" fill="#ff79eb" stroke="#000000" stroke-width="2" stroke-linecap="round"/><path d="M273.63967,181.65645c0,0 2.74615,-5.09482 5.06136,-5.17517c3.54653,-0.12309 13.69504,0.21109 13.69504,0.21109" fill="none" stroke-opacity="0.90196" stroke="#ff0000" stroke-width="3" stroke-linecap="round"/><path d="M315.68674,180.4184l8.70934,-0.33334" fill="none" stroke="#00b209" stroke-width="4" stroke-linecap="round"/><path d="M325.72837,191.97752l-2.67221,-21.87197h24.90716l-2.44603,21.87197z" fill="none" stroke="#00b209" stroke-width="4" stroke-linecap="butt"/><path d="M294.4827,191.97752l-2.67221,-21.87197h25.13335l-2.67221,21.87197z" fill="none" stroke="#00b209" stroke-width="4" stroke-linecap="butt"/><path d="M359.85398,156.7517c0,0 -6.07147,7.21883 -12.67374,7.26243c-4.6397,0.03063 -8.69795,-7.3627 -14.74202,-6.52071c-3.92633,0.54697 -7.98733,5.9745 -11.97301,6.17927c-3.6934,0.18974 -7.98982,-0.9617 -11.35614,-0.56355c-7.43367,0.87921 -13.24318,5.40922 -16.98319,5.48617c-6.52621,0.13429 -15.35495,-4.27498 -15.35495,-4.27498c0,0 8.48262,-29.37763 43.07969,-31.06513c26.89151,-0.05664 40.00336,23.4965 40.00336,23.4965z" fill="url(#color-1)" stroke="#000000" stroke-width="2" stroke-linecap="round"/><path d="M351.01309,145.87346c0,0 11.39153,8.4907 14.24939,22.98463c1.63718,7.64016 -1.05676,24.57824 -1.05676,24.57824c0,0 -6.03529,5.76754 -9.38603,5.87923c-3.57784,0.11926 -11.44442,-5.18488 -11.44442,-5.18488l-27.33637,-30.57944" fill="url(#color-2)" stroke="#000000" stroke-width="2" stroke-linecap="round"/><path d="M269.067,198.7718c0,0 -3.59329,-8.14823 -3.59329,-11.73809c0,-3.74948 3.59329,-10.30078 3.59329,-10.30078h11.01944v22.03887z" fill="#232323" stroke="none" stroke-width="NaN" stroke-linecap="butt"/><path d="M359.88558,198.7718v-22.03887h11.01943c0,0 3.5933,6.5513 3.5933,10.30078c0,3.58986 -3.5933,11.73809 -3.5933,11.73809z" data-paper-data="{&quot;index&quot;:null}" fill="#232323" stroke="none" stroke-width="NaN" stroke-linecap="butt"/><path d="M275.05582,176.27183c0,0 5.06123,-42.28988 46.02217,-42.02644c38.26994,0.24614 43.8102,42.26599 43.8102,42.26599" data-paper-data="{&quot;index&quot;:null}" fill="none" stroke="#232323" stroke-width="5" stroke-linecap="round"/><path d="M364.16953,194.93896c0,0 -4.24624,12.87015 -8.26458,16.88849c-3.83877,3.83877 -19.64334,5.50972 -19.64334,5.50972" fill="none" stroke="#000000" stroke-width="1.5" stroke-linecap="round"/><path d="M328.23659,221.05023c-1.94244,-0.94497 -3.35375,-2.84275 -3.35375,-3.83285c0,-0.90265 1.22869,-2.21045 2.63509,-2.8279c1.4064,-0.61745 3.46192,-0.95821 5.98883,-0.95821c2.32762,0 7.18659,1.19777 7.18659,1.19777v5.70253c0,0 -4.53188,1.19777 -6.94704,1.19777c-2.45509,0 -3.56727,0.46587 -5.50971,-0.47911z" fill="#000000" stroke="#000000" stroke-width="0.5" stroke-linecap="butt"/><text transform="translate(282.10759,177.4841) scale(0.07962,0.07962)" font-size="40" xml:space="preserve" fill="#003aff" fill-rule="nonzero" stroke="none" stroke-width="1" stroke-linecap="butt" stroke-linejoin="miter" stroke-miterlimit="10" stroke-dasharray="" stroke-dashoffset="0" font-family="Serif" font-weight="normal" text-anchor="start" style="mix-blend-mode: normal"><tspan x="0" dy="0">DB&lt;3</tspan></text><path d="M310.47471,181.36898c0,0 -0.60084,1.79424 -6.12643,1.84827c-4.33476,0.04238 -6.51463,-1.1816 -6.51463,-1.1816" fill="none" stroke="#000000" stroke-width="3.5" stroke-linecap="round"/><path d="M296.49002,172.39789h12.79522" fill="none" stroke="#000000" stroke-width="2.5" stroke-linecap="round"/></g></g></svg>