<svg version="1.1" xmlns="http://www.w3.org/2000/svg" xmlns:xlink="http://www.w3.org/1999/xlink" width="69.00099" height="60.6925" viewBox="0,0,69.00099,60.6925"><defs><linearGradient x1="559.50018" y1="324.0002" x2="628.50042" y2="324.0002" gradientUnits="userSpaceOnUse" id="color-1"><stop offset="0.012" stop-color="#66b3e3"/><stop offset="1" stop-color="#1c75bc"/></linearGradient></defs><g transform="translate(-559.49951,-296.664)"><g data-paper-data="{&quot;isPaintingLayer&quot;:true}" fill-rule="nonzero" stroke="none" stroke-width="1" stroke-linecap="butt" stroke-linejoin="miter" stroke-miterlimit="10" stroke-dasharray="" stroke-dashoffset="0" style="mix-blend-mode: normal"><path d="M628.5005,342.731c0,4.752 -2.92227,8.605 -6.52469,8.605h-55.95237c-3.60318,0 -6.52393,-3.854 -6.52393,-8.605v-37.463c0,-4.752 2.92076,-8.604 6.52393,-8.604h55.95161c3.60469,0 6.52469,3.852 6.52469,8.604v37.463z" fill="url(#color-1)"/><path d="M624.92232,305.2695v37.462c0,2.862 -1.70974,5.19 -3.81404,5.19h-54.21729c-2.10209,0 -3.81331,-2.328 -3.81331,-5.19v-37.463c0,-2.862 1.71121,-5.19 3.81331,-5.19h54.21729c2.1043,0 3.81404,2.329 3.81404,5.191z" fill="#27aae1"/><text transform="translate(574.60239,341.0594) scale(1.15123,1.15123)" font-size="40" xml:space="preserve" fill="#000000" fill-rule="nonzero" stroke="none" stroke-width="1" stroke-linecap="butt" stroke-linejoin="miter" stroke-miterlimit="10" stroke-dasharray="" stroke-dashoffset="0" font-family="Marker" font-weight="normal" text-anchor="start" style="mix-blend-mode: normal"><tspan x="0" dy="0">?</tspan></text></g></g></svg>