<svg version="1.1" xmlns="http://www.w3.org/2000/svg" xmlns:xlink="http://www.w3.org/1999/xlink" width="145.83132" height="135.88289" viewBox="0,0,145.83132,135.88289"><g transform="translate(-244.08434,-127.36711)"><g data-paper-data="{&quot;isPaintingLayer&quot;:true}" fill-rule="nonzero" stroke="#000000" stroke-linejoin="miter" stroke-miterlimit="10" stroke-dasharray="" stroke-dashoffset="0" style="mix-blend-mode: normal"><text transform="translate(253.75,234) scale(0.5,0.5)" font-size="40" xml:space="preserve" fill="#ffffff" fill-rule="nonzero" stroke="#000000" stroke-width="1" stroke-linecap="butt" stroke-linejoin="miter" stroke-miterlimit="10" stroke-dasharray="" stroke-dashoffset="0" font-family="Pixel" font-weight="normal" text-anchor="start" style="mix-blend-mode: normal"><tspan x="0" dy="0">Survive The</tspan><tspan x="0" dy="48px">  Disasters</tspan></text><path d="M261.20136,211.38287v-82.76575h42.02615v82.76577z" fill="#ff0000" stroke-width="2.5" stroke-linecap="butt"/><path d="M260.77251,171.50092c0,3.78945 -3.45596,6.86141 -7.71909,6.86141c-4.26313,0 -7.71909,-3.07196 -7.71909,-6.86141c0,-3.78945 3.45596,-6.86141 7.71909,-6.86141c4.26313,0 7.71909,3.07196 7.71909,6.86141z" fill="#ffd499" stroke-width="2.5" stroke-linecap="butt"/><path d="M318.66566,171.50091c0,3.78945 -3.45594,6.86141 -7.71909,6.86141c-4.26313,0 -7.71908,-3.07196 -7.71908,-6.86141c0,-3.78945 3.45595,-6.8614 7.71908,-6.8614c4.26314,0 7.71909,3.07195 7.71909,6.8614z" fill="#ffd499" stroke-width="2.5" stroke-linecap="butt"/><path d="M261.20136,167.64137v-39.02426h42.02615v39.02427z" fill="#ffd499" stroke-width="2.5" stroke-linecap="butt"/><path d="M281.35675,143.6264v10.29212" fill="#ffd499" stroke-width="2.5" stroke-linecap="round"/><path d="M295.10885,153.94782v-10.29212" fill="#ffd499" stroke-width="2.5" stroke-linecap="round"/><path d="M330.77249,211.38289v-82.76577h42.02615v82.76575z" data-paper-data="{&quot;index&quot;:null}" fill="#0042ff" stroke-width="2.5" stroke-linecap="butt"/><path d="M380.94658,164.63951c4.26313,0 7.71909,3.07196 7.71909,6.86141c0,3.78945 -3.45596,6.86141 -7.71909,6.86141c-4.26313,0 -7.71909,-3.07196 -7.71909,-6.86141c0,-3.78945 3.45596,-6.86141 7.71909,-6.86141z" data-paper-data="{&quot;index&quot;:null}" fill="#ffd499" stroke-width="2.5" stroke-linecap="butt"/><path d="M323.05343,164.63951c4.26313,0 7.71909,3.07195 7.71909,6.8614c0,3.78945 -3.45596,6.86141 -7.71909,6.86141c-4.26314,0 -7.71909,-3.07196 -7.71909,-6.86141c0,-3.78945 3.45594,-6.8614 7.71909,-6.8614z" data-paper-data="{&quot;index&quot;:null}" fill="#ffd499" stroke-width="2.5" stroke-linecap="butt"/><path d="M330.77249,167.64139v-39.02428h42.02615v39.02426z" data-paper-data="{&quot;index&quot;:null}" fill="#ffd499" stroke-width="2.5" stroke-linecap="butt"/><path d="M352.64326,143.6264v10.29212" data-paper-data="{&quot;index&quot;:null}" fill="#ffd499" stroke-width="2.5" stroke-linecap="round"/><path d="M338.89115,153.94783v-10.29212" data-paper-data="{&quot;index&quot;:null}" fill="#ffd499" stroke-width="2.5" stroke-linecap="round"/></g></g></svg>