<svg version="1.1" xmlns="http://www.w3.org/2000/svg" xmlns:xlink="http://www.w3.org/1999/xlink" width="76.37557" height="41.19108" viewBox="0,0,76.37557,41.19108"><g transform="translate(-281.81222,-159.40446)"><g data-paper-data="{&quot;isPaintingLayer&quot;:true}" fill-rule="evenodd" stroke="none" stroke-width="1" stroke-linecap="butt" stroke-linejoin="miter" stroke-miterlimit="10" stroke-dasharray="" stroke-dashoffset="0" style="mix-blend-mode: normal"><g><path d="M299.50146,176.53387c1.03061,-1.87942 4.66811,-3.81944 8.60881,-2.66756c7.94201,2.24315 14.36827,3.94071 22.85581,1.03068c6.72954,-2.36442 10.79144,-8.97262 16.61142,-13.45886c7.1538,-5.45632 10.6701,1.09121 10.6095,7.57813c-0.12127,16.24769 -9.39702,25.03837 -20.24892,29.46408c-13.33766,5.45625 -38.86096,0.42433 -40.49791,-15.88395c-2.24315,-0.30314 -15.21701,-2.60689 -15.58082,-4.42564c-0.84867,-4.85005 9.94263,-10.30636 17.6421,-1.63688z" fill="#272525"/><path d="M284.83013,176.8976c1.03061,-1.63688 3.57683,-3.33443 5.69879,-3.0313c1.87935,0.30321 7.09313,2.48562 9.39695,4.42571c2.06122,-3.5163 17.27822,2.36435 26.67518,1.09121c12.97392,-1.81875 16.30836,-12.30698 23.76522,-16.00515c4.06197,-2.00062 5.03198,2.24315 4.91072,3.57697c-0.97001,19.40018 -12.30698,26.49338 -19.21831,29.1608c-9.09382,3.5163 -20.00646,0.12134 -28.5546,-4.06183c-1.69755,-0.84874 -4.97131,-3.0313 -6.18379,-4.48631c-1.94009,-2.30382 -2.06136,-2.91003 -2.18263,-5.69879c-0.0606,-0.54567 -15.21701,-3.5769 -14.30753,-4.97131z" fill="#fff63b"/><path d="M302.35082,181.56578c-0.6062,-0.24247 -0.30307,-1.03068 0.12127,-0.84874c17.58143,6.42626 34.37472,5.51685 43.58981,-5.51692c1.94002,-2.30375 4.24377,-6.9114 4.66818,-8.06328c0.42433,-1.15181 1.21255,-0.1212 0.72747,0.84881c-0.42433,1.03061 -0.72754,1.81875 -1.51561,3.21309c-6.36573,12.18578 -16.36889,22.06774 -47.59111,10.36703z" fill="#272525"/></g></g></g></svg>