<svg version="1.1" xmlns="http://www.w3.org/2000/svg" xmlns:xlink="http://www.w3.org/1999/xlink" width="258.36541" height="347.75115" viewBox="0,0,258.36541,347.75115"><g transform="translate(-191.5505,-0.88003)"><g data-paper-data="{&quot;isPaintingLayer&quot;:true}" fill-rule="nonzero" stroke-linejoin="miter" stroke-miterlimit="10" stroke-dasharray="" stroke-dashoffset="0" style="mix-blend-mode: normal"><text transform="translate(192.79324,295.68036) scale(0.62137,0.89003)" font-size="40" xml:space="preserve" fill="#ffffff" fill-rule="nonzero" stroke="#000000" stroke-width="2" stroke-linecap="butt" stroke-linejoin="miter" stroke-miterlimit="10" stroke-dasharray="" stroke-dashoffset="0" font-family="Marker" font-weight="normal" text-anchor="start" style="mix-blend-mode: normal"><tspan x="0" dy="0">Survive The Disasters</tspan></text><text transform="translate(261.5574,336.44516) scale(0.87043,0.87043)" font-size="40" xml:space="preserve" fill="#ffffff" fill-rule="nonzero" stroke="#000000" stroke-width="2" stroke-linecap="butt" stroke-linejoin="miter" stroke-miterlimit="10" stroke-dasharray="" stroke-dashoffset="0" font-family="Marker" font-weight="normal" text-anchor="start" style="mix-blend-mode: normal"><tspan x="0" dy="0">Scratch</tspan></text><text transform="translate(291.87224,198.54079) scale(5.00407,5.00407)" font-size="40" xml:space="preserve" fill="#ff0000" fill-rule="nonzero" stroke="#ff0000" stroke-width="5" stroke-linecap="butt" stroke-linejoin="miter" stroke-miterlimit="10" stroke-dasharray="" stroke-dashoffset="0" font-family="Handwriting" font-weight="normal" text-anchor="start" style="mix-blend-mode: normal"><tspan x="0" dy="0">!</tspan></text><path d="M255.49414,254.26879v-242.76569h123.26967v242.76574z" fill="#ff0000" stroke="#000000" stroke-width="10" stroke-linecap="butt"/><path d="M254.23625,137.28841c0,11.11509 -10.1369,20.12566 -22.64136,20.12566c-12.50446,0 -22.64136,-9.01057 -22.64136,-20.12566c0,-11.11509 10.1369,-20.12566 22.64136,-20.12566c12.50446,0 22.64136,9.01057 22.64136,20.12566z" fill="#ffd499" stroke="#000000" stroke-width="10" stroke-linecap="butt"/><path d="M424.04647,137.28837c0,11.11509 -10.13686,20.12566 -22.64136,20.12566c-12.50446,0 -22.64135,-9.01057 -22.64135,-20.12566c0,-11.11509 10.13689,-20.12562 22.64135,-20.12562c12.5045,0 22.64136,9.01053 22.64136,20.12562z" fill="#ffd499" stroke="#000000" stroke-width="10" stroke-linecap="butt"/><path d="M255.49414,125.96769v-114.46463h123.26967v114.46468z" fill="#ffd499" stroke="#000000" stroke-width="10" stroke-linecap="butt"/><path d="M314.61323,55.52779v30.18849" fill="#ffd499" stroke="#000000" stroke-width="10" stroke-linecap="round"/><path d="M354.95043,85.80225v-30.18849" fill="#ffd499" stroke="#000000" stroke-width="10" stroke-linecap="round"/></g></g></svg>