<svg version="1.1" xmlns="http://www.w3.org/2000/svg" xmlns:xlink="http://www.w3.org/1999/xlink" width="199.55356" height="154.03593" viewBox="0,0,199.55356,154.03593"><g transform="translate(-238.50775,-155.75595)"><g data-paper-data="{&quot;isPaintingLayer&quot;:true}" fill-rule="nonzero" stroke-linecap="butt" stroke-linejoin="miter" stroke-miterlimit="10" stroke-dasharray="" stroke-dashoffset="0" style="mix-blend-mode: normal"><path d="M242.34932,284.52882c0,-9.42471 7.64023,-17.06494 17.06494,-17.06494c9.42471,0 17.06494,7.64023 17.06494,17.06494c0,9.42471 -7.64023,17.06494 -17.06494,17.06494c-9.42471,0 -17.06494,-7.64023 -17.06494,-17.06494z" fill="#ffffff" stroke="none" stroke-width="0.5"/><path d="M395.24154,285.23303c0,-10.5467 8.54978,-19.09648 19.09648,-19.09648c10.5467,0 19.09648,8.54978 19.09648,19.09648c0,10.5467 -8.54978,19.09648 -19.09648,19.09648c-10.5467,0 -19.09648,-8.54978 -19.09648,-19.09648z" fill="#ffffff" stroke="none" stroke-width="0.5"/><path d="M353.50418,161.97799c34.5522,0 46.46819,32.09852 39.16584,61.30789c-2.06691,8.26764 -18.67607,27.34853 -25.93635,33.35617c-2.58534,2.13928 -9.07075,3.80495 -10.86998,6.24847c-2.72449,3.70009 -6.0498,7.03952 -10.23825,9.13374c-14.55158,7.27579 -29.92235,-0.72298 -42.76191,-6.63381c-1.34868,-0.62087 -3.12953,-0.2159 -4.31304,-1.11237c-3.74366,-2.83574 -10.62057,-9.76323 -14.02541,-13.07313c-2.65561,-2.58155 -2.5352,-6.98557 -3.30086,-10.60918c-0.42588,-2.01555 1.40865,-5.14545 1.58252,-7.12136c0.48658,-5.52972 -2.77447,-15.89211 -1.02029,-22.90884c3.76444,-15.05778 24.19883,-33.65297 37.56034,-40.33373l2.56566,-1.53939c3.11552,-1.94376 6.79586,-3.06688 10.73851,-3.06688c2.14664,0 4.21551,0.33295 6.15779,0.95c1.55466,0.1917 11.75568,-4.59757 14.69543,-4.59757z" fill="#ffffff" stroke="none" stroke-width="0.5"/><path d="M313.58919,223.54722c0,-2.24397 1.81911,-4.06308 4.06308,-4.06308c2.24397,0 4.06308,1.81911 4.06308,4.06308c0,2.24397 -1.81911,4.06308 -4.06308,4.06308c-2.24397,0 -4.06308,-1.81911 -4.06308,-4.06308z" fill="#000000" stroke="#ffffff" stroke-width="5"/><path d="M393.0408,215.98799l0.98502,1.31275c1.04962,-6.77954 0.80366,-13.82359 -0.30299,-20.77866c-0.05152,-0.18307 -0.1039,-0.36626 -0.15714,-0.54956c-2.59112,2.92808 -5.8387,4.95784 -10.72319,5.33018c-3.31908,0.25302 -7.98139,-0.79862 -10.72128,-3.46612c-7.31498,6.068 -14.05923,8.85456 -24.23351,7.5093c-4.605,-0.60888 -9.12316,-0.71393 -11.92976,-5.33413c-11.28758,8.22117 -31.56339,12.56231 -42.89141,2.94399c-0.45872,-0.38949 -0.87264,-0.8075 -1.24876,-1.24886c-0.51785,0.88315 -1.01216,1.77617 -1.48179,2.6784c-1.94505,4.34004 -3.11203,6.34666 -4.07299,9.84171c3.10323,0.52498 6.19911,1.27387 9.57722,1.97253c7.00969,1.44971 -1.55484,2.00511 5.55459,3.02168c0,0 0.54777,0.07866 1.20999,0.38008c1.74839,-8.13419 8.80741,-12.55611 17.06171,-10.74557c2.20786,0.48429 3.87072,-0.40948 5.62995,1.00979c1.86972,1.50839 3.89617,2.04203 5.21761,4.04825c1.37465,2.08699 2.07597,4.15083 2.24779,6.15675c1.49673,0.14798 3.00494,0.17128 4.49404,0.04567l3.36722,-0.94541c0,0 0.16629,-0.04328 0.4394,-0.07783c0.65112,-10.28824 12.3891,-14.91255 21.69029,-8.80592c2.98511,1.95985 4.82302,4.88756 5.75127,8.12637c2.88831,-0.75388 21.6792,-1.56297 24.53675,-2.42537zM337.84888,228.22064c-2.33884,0.15103 -4.70427,0.05893 -7.04051,-0.23698c-3.16701,5.52546 -9.52038,10.02814 -14.74993,12.46727l-3.57106,-0.59745c-2.25176,0.27156 -3.70184,-1.80773 -3.70184,-1.80773c-2.54578,-3.67426 -4.99468,-6.63054 -6.14315,-11.11596c-1.18941,0.50927 -2.40261,0.33506 -2.40261,0.33506c-7.25279,-1.04558 1.19479,-1.62559 -5.96532,-3.09145c-3.29296,-0.67416 -6.27512,-1.47753 -9.28848,-1.99881c-0.6329,13.62392 5.64201,31.35541 16.00415,38.9548c6.65156,4.87813 14.58144,5.55771 21.8654,8.68292c2.07654,0.89095 3.92422,2.25519 5.89688,3.3581c5.00958,0.50774 9.75768,0.80772 14.82451,-0.47902c8.41713,-2.13759 15.97408,-10.29554 22.27097,-15.79601c6.86802,-5.99937 14.49111,-11.93551 19.93746,-19.32453c2.97164,-4.03162 5.10006,-8.37022 6.52979,-12.89832c-2.43174,0.69911 -20.7908,1.36134 -23.24258,1.98569c-0.30905,2.22029 -1.06292,4.43682 -2.34654,6.24088c-1.39933,1.96666 -3.899,2.84629 -5.8485,4.26944l-2.85444,0.79662c0,0 -3.31237,0.36803 -4.27056,-2.56246c-2.23803,1.65037 -4.69374,-0.18272 -4.69374,-0.18272c-1.61886,-1.28839 -3.76376,-2.10835 -4.85662,-3.86516c-0.81528,-1.31059 -1.42539,-2.74432 -1.89569,-4.23053zM324.05604,222.48278c0.16634,-0.73194 0.43717,-1.29793 0.76821,-1.73432c-0.11307,-0.79802 -0.45991,-1.59123 -1.09684,-2.36525c-0.31749,-0.38582 -0.67022,-0.73771 -1.04197,-1.07121c-0.814,-0.73024 -1.71923,-1.3723 -2.54556,-2.08935c-0.86368,-0.74946 -1.55102,0.04599 -2.61441,-0.37456c-3.16303,-1.25093 -4.43024,1.58093 -5.17554,3.344c-2.63626,6.23621 -1.29833,8.88402 2.20703,13.92845c3.05041,-1.64972 7.53471,-4.61026 9.42128,-7.85319c-0.08809,-0.51153 -0.07713,-1.10272 0.07783,-1.78459zM354.41148,214.47519c-3.65429,-0.82962 -5.89652,2.33538 -5.09778,7.0679c0.29409,1.74251 0.54309,3.59875 1.49871,5.08525c0.67398,1.04842 2.07157,1.38647 3.10736,2.0797c0,0 0.91302,0.68154 1.41119,1.80628c0.90025,-0.52622 1.79474,-0.62562 1.79474,-0.62562l-0.83545,0.57229c1.30339,-0.8015 2.91773,-1.23989 3.91016,-2.40448c0.72568,-0.85157 0.86714,-2.11635 0.89554,-3.23481c0.02438,-0.96033 -1.85101,-6.57854 -2.05367,-7.71839c-0.70928,0.60447 -1.88046,-1.71297 -4.6308,-2.62812zM272.169,221.31419c-2.67,-3.06264 0.39262,-5.73263 0.39262,-5.73263l3.43017,-1.94017c0.69735,-0.05282 1.38177,-0.08454 2.05569,-0.09745c1.17464,-4.97524 2.50114,-7.14772 4.97332,-12.6974c1.41598,-2.7073 3.02157,-5.33864 4.79452,-7.8803c-0.13982,-0.43896 -0.28066,-0.87431 -0.42627,-1.30329c0,0 -1.28486,-3.85458 2.56972,-5.13942c1.18301,-0.39435 2.12397,-0.30457 2.86002,0.0093c14.14495,-16.40352 35.35038,-27.95634 56.2927,-30.13026c12.07723,-1.25369 26.41755,0.14907 35.74468,8.81178c5.04812,4.68852 9.02056,10.57882 12.0477,16.88875c0.7147,0.546 1.10716,1.16563 1.10716,1.16563l0.238,1.80797c1.36006,3.1921 2.49156,6.45784 3.41053,9.70114c2.64586,16.71756 0.94273,33.61839 -9.33642,47.61916c-5.78422,7.87841 -13.80128,14.21986 -21.11609,20.60691c-7.36303,6.42914 -15.68393,14.96756 -25.4566,17.51758c-4.98277,1.30017 -9.6955,1.35496 -14.54845,1.00942c-1.66055,0.91167 -3.57322,0.11892 -3.57322,0.11892c-0.40177,-0.16872 -0.79575,-0.35362 -1.18405,-0.55025c-0.1909,-0.01976 -0.38219,-0.0397 -0.57392,-0.05978l-5.00095,-0.84941c0,0 -3.39436,-0.58247 -3.39669,-3.79997c-7.20859,-2.73486 -14.76052,-3.84549 -21.28206,-8.70325c-12.38858,-9.22796 -19.91947,-29.05204 -19.34894,-45.32022c-1.1277,0.52599 -2.97946,0.89007 -4.67321,-1.05274zM276.65874,221.74013l0.20982,-0.00562c0.0002,-0.00421 0.00042,-0.00842 0.00062,-0.01263c-0.07,0.0058 -0.14014,0.01188 -0.21044,0.01825zM298.45023,196.86885c6.46144,5.09873 13.98186,2.78896 21.1066,1.2383c4.9192,-1.07064 8.11064,-1.46968 11.95365,-4.65376l1.76026,-3.42536c0.65989,-1.35172 2.04789,-2.28288 3.65336,-2.28288c1.7593,0 3.25744,1.11816 3.82253,2.68256l2.04638,5.27744c0.57507,0.46285 1.20877,0.83982 1.92172,1.09851c8.56254,3.10683 16.43225,-0.07622 22.88599,-5.58132l2.55321,-5.10635c0.65151,-1.37431 2.0515,-2.32473 3.67348,-2.32473c2.20806,0 4.00474,1.76133 4.06168,3.95565l0.13168,4.36705c1.04946,0.96158 3.27132,1.17599 4.28978,1.08c4.21293,-0.397 6.13582,-3.13169 7.88397,-6.32901c-2.66387,-5.83272 -6.25102,-11.33239 -10.79497,-15.62901c-7.49981,-7.09156 -19.7914,-7.75597 -29.4613,-6.74939c-19.83377,2.06455 -40.4055,13.68236 -53.09463,29.86023c0.47135,1.0971 1.01333,2.05392 1.60661,2.52207z" fill="#000000" stroke="#ffffff" stroke-width="0.5"/><path d="M265.05065,303.81941c-5.77689,1.97859 -11.06842,4.14566 -17.30045,1.60813c-14.06366,-5.72634 -9.95278,-29.12249 0.83771,-36.25053c7.76921,-5.13222 23.0887,-7.08921 29.71364,1.56019c1.86525,2.43523 1.8326,5.89748 2.14495,8.94903c1.10659,10.81114 -6.548,18.49942 -14.33679,24.15939c-0.35302,-0.00874 -0.70603,-0.01747 -1.05905,-0.02621zM253.14106,298.38425c0.05965,-0.27987 0.15016,-0.57444 0.27653,-0.88409c1.53541,-3.7618 5.2972,-2.22641 5.2972,-2.22641l0.07097,0.2662c1.3586,0.14741 2.71719,0.29483 4.07577,0.44224c0.1623,-0.04785 0.61822,-0.16699 1.20285,-0.19048c4.68532,-4.01098 8.43119,-9.12636 8.26548,-15.71185c-0.03863,-1.53508 0.31474,-3.33603 -0.60316,-4.56707c-3.57879,-4.79967 -14.64437,-2.2143 -18.4065,0.27026c-4.7408,3.1309 -6.62675,11.00357 -6.19217,16.1133c0.21525,2.53073 1.13353,5.14118 3.7209,6.01905c0.77829,0.26407 1.54106,0.41183 2.29208,0.46883z" fill="#000000" stroke="#ffffff" stroke-width="0.5"/><path d="M427.22282,307.31087c-1.05781,2.45103 -4.00771,2.22556 -4.00771,2.22556c-7.20594,-0.58164 -13.62146,0.73802 -20.63114,-2.20801c-17.70262,-7.44005 -17.69096,-30.68182 -3.84345,-42.01063c5.73619,-4.69284 13.6501,-5.95284 20.80544,-4.49556c5.75181,1.17143 7.88859,3.77249 11.95511,8.46627c3.70218,4.27326 4.29843,8.15738 6.19108,13.60263c0.63561,8.88411 -1.22382,14.77773 -6.73166,21.89921zM421.54705,301.35322c0.15038,-0.11424 0.2465,-0.17317 0.2465,-0.17317l2.76415,-1.3936c3.90399,-4.9319 5.65116,-9.01562 5.17713,-15.24738c-2.25564,-6.45502 -3.72144,-10.5963 -9.3466,-14.92394c-5.42829,-4.17618 -15.05828,-0.22628 -18.62585,4.52561c-5.79065,7.71298 -7.70607,16.86931 0.52867,23.94361c5.22592,4.48949 12.80317,3.23655 19.256,3.26888z" fill="#000000" stroke="#ffffff" stroke-width="0.5"/><path d="M348.8325,255.42975l0.14211,-0.00674c-6.00309,-2.87551 -0.27373,-6.81982 -18.57437,-7.89776c-10.98851,1.88608 -10.19973,7.49144 -13.54602,9.41442c0,0 -3.52955,2.01269 -5.54224,-1.51686c-2.01269,-3.52955 1.51686,-5.54224 1.51686,-5.54224c4.11326,-2.32438 8.36438,-7.16441 12.96929,-8.3082c9.59117,-2.38231 18.2949,2.51631 26.68174,6.51937l1.33289,0.91685c0,0 3.21058,2.49013 0.72045,5.70071c-2.49013,3.21058 -5.70071,0.72045 -5.70071,0.72045z" data-paper-data="{&quot;index&quot;:null}" fill="#000000" stroke="#ffffff" stroke-width="0.5"/><path d="M350.68142,221.54223c0,-2.24397 1.81911,-4.06308 4.06308,-4.06308c2.24397,0 4.06308,1.81911 4.06308,4.06308c0,2.24397 -1.81911,4.06308 -4.06308,4.06308c-2.24397,0 -4.06308,-1.81911 -4.06308,-4.06308z" fill="#000000" stroke="#ffffff" stroke-width="5"/></g></g></svg>