<svg version="1.1" xmlns="http://www.w3.org/2000/svg" xmlns:xlink="http://www.w3.org/1999/xlink" width="196.68219" height="406.39021" viewBox="0,0,196.68219,406.39021"><g transform="translate(-141.78535,40.80586)"><g data-paper-data="{&quot;isPaintingLayer&quot;:true}" fill-rule="nonzero" stroke-linejoin="miter" stroke-miterlimit="10" stroke-dasharray="" stroke-dashoffset="0" style="mix-blend-mode: normal"><g stroke="#ffe400" stroke-width="25"><path d="M188.22363,187.02787l-11.86449,-78.10399l91.61566,-13.91699l11.86449,78.104z" fill="#ff0000" stroke-linecap="butt"/><path d="M266.30129,125.10941l-1.64268,-10.81373l16.49092,-2.50507l1.64267,10.81372z" fill="#f3ff00" stroke-linecap="butt"/><path d="M290.44371,89.22031c1.75775,11.57125 -5.83456,22.32137 -16.95787,24.01107c-11.12333,1.68971 -21.56548,-6.32088 -23.32323,-17.89212c-1.75774,-11.57124 5.83456,-22.32136 16.95787,-24.01106c11.12333,-1.68971 21.56548,6.32086 23.32322,17.89211z" fill="#ffffff" stroke-linecap="butt"/><path d="M278.10534,190.52557l-10.07163,-66.30163l12.36819,-1.8788l10.07164,66.30163z" fill="#ffffff" stroke-linecap="butt"/><path d="M304.61105,202.05689c1.61599,10.63807 -4.79008,20.43406 -14.30836,21.87994c-9.51828,1.44589 -18.54439,-6.00586 -20.16038,-16.64393c-1.61599,-10.63807 4.79008,-20.43406 14.30836,-21.87994c9.51828,-1.44589 18.54439,6.00586 20.16038,16.64393z" fill="#ff0000" stroke-linecap="butt"/><path d="M272.64319,107.41287c2.59692,17.09558 -16.60031,34.19025 -42.87822,38.18203c-26.27792,3.99178 -49.6856,-6.63094 -52.28252,-23.72652c-2.59692,-17.09558 16.60032,-34.19025 42.87823,-38.18203c26.27792,-3.99178 49.68559,6.63095 52.28252,23.72652z" fill="#ffffff" stroke-linecap="butt"/><path d="M261.19509,72.67803c3.22655,1.36191 4.94267,9.04556 -1.2186,17.3166c-9.5539,12.82542 -29.89912,27.71937 -29.89912,27.71937c0,0 -3.27894,-4.33935 -4.57244,-4.14287c-2.0792,0.31584 -5.50758,6.02754 -5.50758,6.02754c0,0 -20.74601,-6.41066 -34.73445,-15.59542c-8.49636,-5.57868 -14.46289,-14.73965 -11.87968,-16.74144c28.58075,-22.14783 23.17537,16.18593 49.15468,12.23951c25.97931,-3.94642 16.07127,-36.22013 38.65719,-26.8233z" fill="#ff0000" stroke-linecap="butt"/><path d="M228.64293,200.11358l-6.27559,-41.31223l16.6261,-2.52561l6.27559,41.31223z" fill="#ffffff" stroke-linecap="butt"/><path d="M219.73243,160.11824l-2.2305,-14.68344l22.70881,-3.44961l2.23051,14.68343z" fill="#f3ff00" stroke-linecap="butt"/><path d="M194.56645,102.99437c1.75775,11.57125 -5.83455,22.32137 -16.95787,24.01107c-11.12332,1.68971 -21.56548,-6.32088 -23.32323,-17.89212c-1.75774,-11.57124 5.83456,-22.32136 16.95787,-24.01106c11.12332,-1.68971 21.56548,6.32086 23.32322,17.89211z" fill="#ffffff" stroke-linecap="butt"/><path d="M171.35826,139.5713l-1.64267,-10.81373l16.49092,-2.50508l1.64267,10.81373z" fill="#f3ff00" stroke-linecap="butt"/><path d="M183.62942,205.33138l-10.07163,-66.30163l12.36819,-1.87881l10.07164,66.30164z" fill="#ffffff" stroke-linecap="butt"/><g fill="#000000" stroke-linecap="butt"><path d="M239.66574,115.15897c-0.3622,-1.52018 1.15799,-1.88238 1.15799,-1.88238c2.06119,-0.4908 3.85244,-1.03427 5.96071,-1.11863c0.81383,-0.03257 1.73407,-0.51758 2.44084,-0.11277c2.46215,1.41023 2.17244,5.94729 -0.242,7.25256c-2.36629,1.27924 -3.99756,-0.71185 -6.06756,-1.22223l-0.03903,-0.02847l-0.00484,0.01498l-1.74097,-0.56324c-0.56023,-0.16836 -1.0025,-0.64581 -1.09619,-1.26259c-0.01794,-0.1181 -0.02217,-0.23514 -0.01385,-0.34946c-0.15272,-0.17383 -0.27927,-0.40956 -0.35509,-0.72776z"/><path d="M246.27997,122.66395c0.2347,1.54502 -1.31032,1.77971 -1.31032,1.77971c-0.54934,0.08345 -2.74669,0.41724 -3.29603,0.50069c0,0 -1.54502,0.2347 -1.77972,-1.31032c-0.2347,-1.54501 1.31032,-1.77971 1.31032,-1.77971c0.54934,-0.08345 1.09867,-0.16689 1.64801,-0.25034l1.64802,-0.25034c0,0 1.54501,-0.23469 1.77971,1.31032z"/><path d="M254.55135,121.61822c0.2347,1.54502 -1.31032,1.77972 -1.31032,1.77972c-1.09868,0.1669 -2.81536,0.42767 -3.91404,0.59456c0,0 -1.54502,0.2347 -1.77972,-1.31032c-0.2347,-1.54501 1.31031,-1.77971 1.31031,-1.77971c1.09868,-0.16689 2.19736,-0.33379 3.29603,-0.50069l0.61801,-0.09388c0,0 1.54502,-0.2347 1.77972,1.31032z"/><path d="M247.96714,126.83352c0.2347,1.54502 -1.31032,1.77971 -1.31032,1.77971l-1.22346,0.17364c-1.18133,0.03117 -2.36243,0.07187 -3.54323,0.11927c0,0 -1.56148,0.06264 -1.62413,-1.49884c-0.06264,-1.56149 1.49884,-1.62413 1.49884,-1.62413c1.19505,-0.04792 2.39041,-0.08908 3.58602,-0.12069l0.83656,-0.13929c0,0 1.54501,-0.2347 1.77971,1.31032z"/></g><path d="M210.40114,287.2233l10.57994,-88.21665l16.28993,1.95368l-10.57995,88.21665z" fill="#ffffff" stroke-linecap="butt"/><path d="M265.58526,282.00498l-29.86435,-84.54986l15.46999,-5.46425l29.86435,84.54986z" fill="#ffffff" stroke-linecap="butt"/><path d="M209.36579,105.23756l-3.64194,-23.97496l28.67108,-4.35531l3.64195,23.97496z" fill="#000000" stroke-linecap="butt"/><path d="M211.31577,219.17257c1.61599,10.63807 -4.97164,20.46164 -14.71388,21.94155c-9.74223,1.47991 -18.9499,-5.94426 -20.56589,-16.58233c-1.61599,-10.63807 4.97163,-20.46164 14.71388,-21.94155c9.74223,-1.47991 18.9499,5.94426 20.56589,16.58233z" fill="#ff0000" stroke-linecap="butt"/><g><path d="M211.47529,108.50189l-2.14011,-14.08838l26.19944,-3.97986l2.14012,14.08838z" fill="#ffffff" stroke-linecap="butt"/><path d="M205.95534,111.86702l-8.82327,-58.08366l6.36176,-1.00311l7.86853,54.97813l26.09697,-3.92858l-8.15367,-53.75988l6.07748,-0.8328l8.63554,56.84785c0,0 -12.06809,5.8791 -18.35767,6.83454c-6.39639,0.97165 -19.70566,-1.05248 -19.70566,-1.05248z" fill="#ffffff" stroke-linecap="butt"/><path d="M216.70802,93.01006l1.81786,13.6316" fill="none" stroke-linecap="round"/><path d="M229.28848,104.24815l-1.81786,-13.6316" fill="none" stroke-linecap="round"/></g><path d="M265.29323,195.58335c1.68403,11.08599 -9.75042,22.01731 -25.53956,24.41579c-15.78914,2.39847 -29.95395,-4.64416 -31.63798,-15.73016c-1.68403,-11.08599 13.12297,-8.00911 28.91212,-10.40758c15.78914,-2.39847 26.5814,-9.36405 28.26543,1.72196z" fill="#00a1ff" stroke-linecap="butt"/><path d="M207.76667,207.43354l-1.54001,-10.13786l57.98858,-8.80883l1.54,10.13786z" fill="#f3ff00" stroke-linecap="butt"/><g fill="#ff0000" stroke-linecap="butt"><path d="M228.20148,315.34708c-2.21957,18.50698 -14.79873,32.21703 -28.09635,30.62223c-13.29762,-1.5948 -22.27814,-17.89053 -20.05857,-36.39751c2.21957,-18.50698 0.94502,-30.10264 28.67246,-27.02805c26.728,2.96376 21.70203,14.29634 19.48246,32.80333z"/><path d="M228.15329,336.74358c-2.17024,18.09571 -12.28358,12.12356 -26.67791,10.39722c-14.39433,-1.72633 -27.6188,1.44689 -25.44856,-16.64882c2.17024,-18.09571 15.59848,-31.36573 29.99281,-29.6394c14.39433,1.72633 24.30391,17.79529 22.13367,35.891z" data-paper-data="{&quot;origPos&quot;:null}"/></g><g fill="#ff0000" stroke-linecap="butt"><path d="M314.88966,292.66335c6.20793,17.57546 1.00319,35.43915 -11.62509,39.89966c-12.62829,4.46051 -27.89806,-6.17126 -34.106,-23.74671c-6.20793,-17.57546 -12.48704,-27.40686 13.73368,-36.93252c25.27558,-9.18231 25.78948,3.20412 31.99741,20.77958z"/><path d="M324.32426,311.86753c6.06998,17.18489 -5.64248,16.31041 -19.31228,21.1388c-13.6698,4.82839 -24.12048,13.53124 -30.19045,-3.65365c-6.06997,-17.18489 0.0909,-35.03018 13.7607,-39.85857c13.6698,-4.82839 29.67206,5.18854 35.74203,22.37342z" data-paper-data="{&quot;origPos&quot;:null}"/></g><path d="M209.28132,88.06628l-3.26649,-21.50331l25.45795,-3.86722l3.26648,21.50332z" fill="#ffffff" stroke-linecap="butt"/><path d="M213.55806,67.94578l2.53123,18.32772" fill="none" stroke-linecap="round"/><path d="M226.56718,83.67037l-2.62821,-17.30152" fill="none" stroke-linecap="round"/><g stroke-linecap="butt"><g><path d="M244.19778,35.66438c2.48352,16.34905 -9.84603,31.78133 -27.53884,34.46898c-17.6928,2.68765 -34.04895,-8.3871 -36.53246,-24.73614c-2.48352,-16.34904 9.84604,-31.78133 27.53884,-34.46897c17.6928,-2.68764 34.04895,8.3871 36.53247,24.73615z" data-paper-data="{&quot;origPos&quot;:null}" fill="#ffffff"/><path d="M225.52585,54.49306c0.0872,0.57406 1.71605,4.93088 1.21943,5.23174c-1.1639,0.70513 -3.84281,-3.55781 -4.81283,-2.60336c-0.81306,0.80001 -0.49921,3.80152 -1.62692,3.97283c-1.6797,0.25516 -0.55621,-3.66157 -0.8624,-5.6772c-0.30619,-2.01564 0.80725,-3.85648 2.48695,-4.11163c1.6797,-0.25516 3.28958,1.172 3.59577,3.18763z" fill="#000000"/></g></g><path d="M202.13444,77.85814l-2.85349,-18.7845l3.70746,-0.56319l2.85349,18.7845z" fill="#ffffff" stroke-linecap="butt"/><path d="M234.5011,73.19431l-2.77839,-18.29018l3.11427,-0.47308l2.77839,18.29017z" fill="#ffffff" stroke-linecap="butt"/><path d="M214.72971,40.99289c0.93312,6.14274 -3.51143,11.91247 -9.92717,12.88706c-6.41574,0.97459 -12.37318,-3.21501 -13.3063,-9.35775c-0.93312,-6.14274 3.51143,-11.91247 9.92718,-12.88706c6.41574,-0.97459 12.37318,3.21502 13.3063,9.35775z" fill="#ffffff" stroke-linecap="butt"/><path d="M242.24007,37.31963c0.85018,5.59671 -2.72101,10.78092 -7.97646,11.57926c-5.25545,0.79834 -10.20504,-3.09152 -11.05521,-8.68823c-0.85018,-5.59671 2.721,-10.78093 7.97645,-11.57926c5.25545,-0.79834 10.20504,3.09152 11.05522,8.68823z" fill="#ffffff" stroke-linecap="butt"/><path d="M204.68671,44.7943c-0.20736,-1.36505 0.73114,-2.63974 2.09619,-2.8471c1.36505,-0.20736 2.63974,0.73114 2.8471,2.09619c0.20736,1.36505 -0.73114,2.63974 -2.09619,2.8471c-1.36505,0.20736 -2.63975,-0.73114 -2.8471,-2.09619z" fill="#000000" stroke-linecap="butt"/><path d="M231.66519,40.94897c-0.20736,-1.36505 0.73114,-2.63974 2.09619,-2.8471c1.36505,-0.20736 2.63974,0.73114 2.8471,2.09618c0.20736,1.36505 -0.73113,2.63974 -2.09618,2.8471c-1.36505,0.20736 -2.63975,-0.73113 -2.8471,-2.09618z" fill="#000000" stroke-linecap="butt"/><path d="M216.66629,32.10119c-1.18262,2.20259 -3.38521,1.01997 -3.38521,1.01997l-0.48801,-0.35959c-6.60054,-1.54457 -13.29388,-2.18865 -19.93034,-3.51841c0,0 -2.45114,-0.49181 -1.95933,-2.94296c0.49182,-2.45114 2.94296,-1.95933 2.94296,-1.95933c6.68693,1.34363 13.43202,1.99679 20.08539,3.55208l1.71457,0.82303c0,0 2.20259,1.18262 1.01997,3.38521z" fill="#000000" stroke-linecap="butt"/></g><g><path d="M188.22363,187.02787l-11.86449,-78.10399l91.61566,-13.91699l11.86449,78.104z" fill="#ffffff" stroke="#000000" stroke-width="2.5" stroke-linecap="butt"/><path d="M266.30129,125.10941l-1.64268,-10.81373l16.49092,-2.50507l1.64267,10.81372z" fill="#ffffff" stroke="#000000" stroke-width="2.5" stroke-linecap="butt"/><path d="M290.44371,89.22031c1.75775,11.57125 -5.83456,22.32137 -16.95787,24.01107c-11.12333,1.68971 -21.56548,-6.32088 -23.32322,-17.89212c-1.75774,-11.57124 5.83456,-22.32136 16.95787,-24.01106c11.12333,-1.68971 21.56548,6.32086 23.32322,17.89211z" fill="#ffffff" stroke="#000000" stroke-width="2.5" stroke-linecap="butt"/><path d="M278.10534,190.52557l-10.07163,-66.30163l12.36819,-1.8788l10.07164,66.30163z" fill="#ffffff" stroke="#000000" stroke-width="2.5" stroke-linecap="butt"/><path d="M304.61105,202.05689c1.61599,10.63807 -4.79008,20.43406 -14.30836,21.87994c-9.51828,1.44589 -18.54439,-6.00586 -20.16038,-16.64393c-1.61599,-10.63807 4.79008,-20.43406 14.30836,-21.87994c9.51828,-1.44589 18.54439,6.00586 20.16038,16.64393z" fill="#ffffff" stroke="#000000" stroke-width="2.5" stroke-linecap="butt"/><path d="M272.64319,107.41287c2.59692,17.09558 -16.60031,34.19025 -42.87822,38.18203c-26.27792,3.99178 -49.6856,-6.63094 -52.28252,-23.72652c-2.59692,-17.09558 16.60032,-34.19025 42.87823,-38.18203c26.27792,-3.99178 49.68559,6.63095 52.28252,23.72652z" fill="#ffffff" stroke="#000000" stroke-width="2.5" stroke-linecap="butt"/><path d="M261.19509,72.67803c3.22655,1.36191 4.94267,9.04556 -1.2186,17.3166c-9.55391,12.82542 -29.89912,27.71937 -29.89912,27.71937c0,0 -3.27894,-4.33935 -4.57244,-4.14287c-2.0792,0.31584 -5.50758,6.02754 -5.50758,6.02754c0,0 -20.74601,-6.41066 -34.73445,-15.59542c-8.49636,-5.57868 -14.46289,-14.73965 -11.87968,-16.74144c28.58075,-22.14783 23.17537,16.18593 49.15468,12.23951c25.97931,-3.94642 16.07127,-36.22013 38.65719,-26.8233z" fill="#ffffff" stroke="#000000" stroke-width="2.5" stroke-linecap="butt"/><path d="M228.64293,200.11358l-6.27559,-41.31223l16.6261,-2.52561l6.27559,41.31223z" fill="#ffffff" stroke="#000000" stroke-width="2.5" stroke-linecap="butt"/><path d="M219.73243,160.11824l-2.2305,-14.68344l22.70881,-3.44961l2.23051,14.68343z" fill="#ffffff" stroke="#000000" stroke-width="2.5" stroke-linecap="butt"/><path d="M194.56645,102.99437c1.75775,11.57125 -5.83455,22.32137 -16.95787,24.01107c-11.12332,1.68971 -21.56548,-6.32087 -23.32323,-17.89212c-1.75774,-11.57124 5.83456,-22.32136 16.95787,-24.01106c11.12332,-1.68971 21.56548,6.32086 23.32322,17.89211z" fill="#ffffff" stroke="#000000" stroke-width="2.5" stroke-linecap="butt"/><path d="M171.35826,139.5713l-1.64267,-10.81373l16.49092,-2.50508l1.64267,10.81373z" fill="#ffffff" stroke="#000000" stroke-width="2.5" stroke-linecap="butt"/><path d="M183.62942,205.33138l-10.07163,-66.30163l12.36819,-1.87881l10.07164,66.30164z" fill="#ffffff" stroke="#000000" stroke-width="2.5" stroke-linecap="butt"/><g fill="#000000" stroke="none" stroke-width="0.5" stroke-linecap="butt"><path d="M239.66574,115.15897c-0.3622,-1.52018 1.15799,-1.88238 1.15799,-1.88238c2.06119,-0.4908 3.85244,-1.03427 5.96072,-1.11863c0.81383,-0.03257 1.73407,-0.51758 2.44083,-0.11277c2.46215,1.41023 2.17244,5.94729 -0.242,7.25256c-2.36629,1.27923 -3.99756,-0.71185 -6.06755,-1.22223l-0.03903,-0.02847l-0.00484,0.01498l-1.74097,-0.56324c-0.56023,-0.16836 -1.0025,-0.64581 -1.09619,-1.26259c-0.01794,-0.1181 -0.02217,-0.23514 -0.01385,-0.34946c-0.15272,-0.17383 -0.27927,-0.40956 -0.35509,-0.72776z"/><path d="M246.27997,122.66395c0.2347,1.54502 -1.31032,1.77971 -1.31032,1.77971c-0.54934,0.08345 -2.74669,0.41724 -3.29603,0.50069c0,0 -1.54502,0.2347 -1.77972,-1.31032c-0.2347,-1.54502 1.31032,-1.77971 1.31032,-1.77971c0.54934,-0.08345 1.09867,-0.16689 1.64801,-0.25034l1.64802,-0.25034c0,0 1.54501,-0.2347 1.77971,1.31032z"/><path d="M254.55135,121.61822c0.2347,1.54502 -1.31032,1.77971 -1.31032,1.77971c-1.09867,0.16689 -2.81536,0.42767 -3.91403,0.59457c0,0 -1.54502,0.2347 -1.77972,-1.31032c-0.2347,-1.54502 1.31032,-1.77971 1.31032,-1.77971c1.09868,-0.16689 2.19736,-0.33379 3.29603,-0.50069l0.61801,-0.09388c0,0 1.54502,-0.2347 1.77972,1.31032z"/><path d="M247.96714,126.83352c0.2347,1.54502 -1.31032,1.77971 -1.31032,1.77971l-1.22346,0.17364c-1.18133,0.03117 -2.36243,0.07187 -3.54323,0.11927c0,0 -1.56148,0.06264 -1.62413,-1.49884c-0.06264,-1.56149 1.49884,-1.62413 1.49884,-1.62413c1.19505,-0.04792 2.39041,-0.08908 3.58602,-0.12068l0.83656,-0.13929c0,0 1.54501,-0.2347 1.77971,1.31032z"/></g><path d="M210.40114,287.2233l10.57994,-88.21665l16.28993,1.95368l-10.57995,88.21665z" fill="#ffffff" stroke="#000000" stroke-width="2.5" stroke-linecap="butt"/><path d="M265.58526,282.00498l-29.86435,-84.54986l15.46999,-5.46425l29.86435,84.54986z" fill="#ffffff" stroke="#000000" stroke-width="2.5" stroke-linecap="butt"/><path d="M209.36579,105.23756l-3.64194,-23.97496l28.67108,-4.35531l3.64195,23.97496z" fill="#000000" stroke="none" stroke-width="0" stroke-linecap="butt"/><path d="M211.31577,219.17257c1.61599,10.63807 -4.97164,20.46164 -14.71388,21.94155c-9.74223,1.47991 -18.9499,-5.94426 -20.56589,-16.58233c-1.61599,-10.63807 4.97163,-20.46164 14.71388,-21.94155c9.74223,-1.47991 18.9499,5.94426 20.56589,16.58233z" fill="#ffffff" stroke="#000000" stroke-width="2.5" stroke-linecap="butt"/><g fill="#ffffff" stroke="#000000" stroke-width="2.5"><path d="M211.47529,108.50189l-2.14011,-14.08838l26.19944,-3.97986l2.14012,14.08838z" stroke-linecap="butt"/><path d="M205.95534,111.86702l-8.82327,-58.08366l6.36176,-1.00311l7.86853,54.97813l26.09697,-3.92858l-8.15367,-53.75988l6.07748,-0.8328l8.63554,56.84785c0,0 -12.06809,5.8791 -18.35767,6.83454c-6.39639,0.97165 -19.70566,-1.05248 -19.70566,-1.05248z" stroke-linecap="butt"/><path d="M216.70802,93.01006l1.81786,13.6316" stroke-linecap="round"/><path d="M227.47062,91.61655l1.81786,12.6316" stroke-linecap="round"/></g><path d="M265.29323,195.58335c1.68403,11.08599 -9.75042,22.01731 -25.53956,24.41579c-15.78914,2.39847 -29.95395,-4.64416 -31.63798,-15.73016c-1.68403,-11.08599 13.12297,-8.00911 28.91212,-10.40758c15.78914,-2.39847 26.5814,-9.36405 28.26543,1.72196z" fill="#ffffff" stroke="#000000" stroke-width="2.5" stroke-linecap="butt"/><path d="M207.76667,207.43354l-1.54001,-10.13786l57.98858,-8.80883l1.54,10.13786z" fill="#ffffff" stroke="#000000" stroke-width="2.5" stroke-linecap="butt"/><g fill="#ffffff" stroke="#000000" stroke-width="2.5" stroke-linecap="butt"><path d="M228.20148,315.34708c-2.21957,18.50698 -14.79873,32.21703 -28.09635,30.62223c-13.29762,-1.5948 -22.27814,-17.89053 -20.05857,-36.39751c2.21957,-18.50698 0.94502,-30.10264 28.67246,-27.02805c26.728,2.96377 21.70203,14.29635 19.48246,32.80333z"/><path d="M228.15329,336.74358c-2.17024,18.09571 -12.28358,12.12356 -26.67791,10.39722c-14.39433,-1.72633 -27.6188,1.44689 -25.44856,-16.64882c2.17024,-18.09571 15.59848,-31.36573 29.99281,-29.6394c14.39433,1.72633 24.30391,17.79529 22.13367,35.891z" data-paper-data="{&quot;origPos&quot;:null}"/></g><g fill="#ffffff" stroke="#000000" stroke-width="2.5" stroke-linecap="butt"><path d="M314.88966,292.66335c6.20793,17.57545 1.00319,35.43914 -11.62509,39.89965c-12.62829,4.46051 -27.89806,-6.17126 -34.106,-23.74671c-6.20793,-17.57545 -12.48704,-27.40686 13.73368,-36.93252c25.27558,-9.18231 25.78948,3.20412 31.99741,20.77958z"/><path d="M324.32426,311.86753c6.06998,17.18489 -5.64248,16.31041 -19.31228,21.1388c-13.6698,4.82839 -24.12048,13.53124 -30.19045,-3.65365c-6.06997,-17.18489 0.0909,-35.03018 13.7607,-39.85857c13.6698,-4.82839 29.67206,5.18854 35.74203,22.37342z" data-paper-data="{&quot;origPos&quot;:null}"/></g><path d="M209.28132,88.06628l-3.26649,-21.50331l25.45795,-3.86722l3.26648,21.50332z" fill="#ffffff" stroke="#000000" stroke-width="2.5" stroke-linecap="butt"/><path d="M213.55806,67.94578l2.53123,18.32772" fill="#ffffff" stroke="#000000" stroke-width="2.5" stroke-linecap="round"/><path d="M226.56718,83.67037l-2.62821,-17.30152" fill="#ffffff" stroke="#000000" stroke-width="2.5" stroke-linecap="round"/><g stroke-width="2.5" stroke-linecap="butt"><g><path d="M244.19778,35.66438c2.48352,16.34905 -9.84603,31.78133 -27.53884,34.46898c-17.6928,2.68765 -34.04895,-8.3871 -36.53246,-24.73614c-2.48352,-16.34904 9.84604,-31.78133 27.53884,-34.46897c17.6928,-2.68764 34.04895,8.3871 36.53247,24.73615z" data-paper-data="{&quot;origPos&quot;:null}" fill="#ffffff" stroke="#000000"/><path d="M225.52585,54.49306c0.0872,0.57406 1.71605,4.93088 1.21943,5.23174c-1.1639,0.70513 -3.84281,-3.5578 -4.81283,-2.60336c-0.81306,0.80001 -0.49921,3.80152 -1.62692,3.97283c-1.6797,0.25516 -0.55621,-3.66157 -0.8624,-5.67721c-0.30619,-2.01564 0.80725,-3.85648 2.48695,-4.11163c1.6797,-0.25516 3.28958,1.172 3.59577,3.18763z" fill="#000000" stroke="none"/></g></g><path d="M202.13444,77.85814l-2.85349,-18.7845l3.70746,-0.56319l2.85349,18.78451z" fill="#ffffff" stroke="none" stroke-width="0" stroke-linecap="butt"/><path d="M234.5011,73.19431l-2.77839,-18.29018l3.11427,-0.47308l2.77839,18.29017z" fill="#ffffff" stroke="none" stroke-width="0" stroke-linecap="butt"/><path d="M214.72971,40.99289c0.93312,6.14274 -3.51143,11.91247 -9.92717,12.88706c-6.41574,0.97459 -12.37318,-3.21501 -13.3063,-9.35775c-0.93312,-6.14274 3.51143,-11.91247 9.92718,-12.88706c6.41574,-0.97459 12.37318,3.21501 13.3063,9.35775z" fill="#ffffff" stroke="#000000" stroke-width="2.5" stroke-linecap="butt"/><path d="M242.24007,37.31963c0.85018,5.59671 -2.72101,10.78092 -7.97646,11.57926c-5.25545,0.79834 -10.20504,-3.09152 -11.05521,-8.68823c-0.85018,-5.59671 2.721,-10.78092 7.97645,-11.57926c5.25545,-0.79834 10.20504,3.09152 11.05522,8.68823z" fill="#ffffff" stroke="#000000" stroke-width="2.5" stroke-linecap="butt"/><path d="M204.68671,44.7943c-0.20736,-1.36505 0.73114,-2.63974 2.09619,-2.8471c1.36505,-0.20736 2.63974,0.73114 2.8471,2.09619c0.20736,1.36505 -0.73114,2.63974 -2.09619,2.8471c-1.36505,0.20736 -2.63975,-0.73114 -2.8471,-2.09619z" fill="#000000" stroke="none" stroke-width="0.5" stroke-linecap="butt"/><path d="M231.66519,40.94897c-0.20736,-1.36505 0.73114,-2.63974 2.09619,-2.8471c1.36505,-0.20736 2.63974,0.73114 2.8471,2.09618c0.20736,1.36505 -0.73113,2.63974 -2.09618,2.8471c-1.36505,0.20736 -2.63975,-0.73113 -2.8471,-2.09618z" fill="#000000" stroke="none" stroke-width="0.5" stroke-linecap="butt"/><path d="M216.66629,32.10119c-1.18262,2.20259 -3.38521,1.01997 -3.38521,1.01997l-0.48801,-0.35959c-6.60054,-1.54457 -13.29388,-2.18865 -19.93034,-3.51841c0,0 -2.45114,-0.49181 -1.95933,-2.94296c0.49182,-2.45115 2.94296,-1.95933 2.94296,-1.95933c6.68693,1.34363 13.43202,1.99678 20.08539,3.55208l1.71457,0.82303c0,0 2.20259,1.18262 1.01997,3.38521z" fill="#000000" stroke="none" stroke-width="0.5" stroke-linecap="butt"/><path d="M239.42218,19.29809c1.55227,1.95971 -0.40744,3.51198 -0.40744,3.51198l-2.21062,1.61569c-4.76238,1.88784 -9.11282,4.06489 -13.49375,6.72452c0,0 -2.13711,1.29721 -3.43432,-0.8399c-1.29721,-2.13711 0.8399,-3.43433 0.8399,-3.43433c4.61906,-2.80327 9.22495,-5.10649 14.24493,-7.09814l0.94932,-0.88726c0,0 1.95971,-1.55227 3.51198,0.40744z" fill="#000000" stroke="none" stroke-width="0.5" stroke-linecap="butt"/></g></g></g></svg>