<svg version="1.1" xmlns="http://www.w3.org/2000/svg" xmlns:xlink="http://www.w3.org/1999/xlink" width="67.74188" height="60.99012" viewBox="0,0,67.74188,60.99012"><defs><linearGradient x1="320.86848" y1="181.46023" x2="353.87094" y2="181.46023" gradientUnits="userSpaceOnUse" id="color-1"><stop offset="0" stop-color="#ff7b00"/><stop offset="1" stop-color="#753900"/></linearGradient><linearGradient x1="286.12906" y1="181.46023" x2="319.13152" y2="181.46023" gradientUnits="userSpaceOnUse" id="color-2"><stop offset="0" stop-color="#ff7b00"/><stop offset="1" stop-color="#753900"/></linearGradient><linearGradient x1="295.65473" y1="181.46023" x2="344.34527" y2="181.46023" gradientUnits="userSpaceOnUse" id="color-3"><stop offset="0" stop-color="#ff7b00"/><stop offset="1" stop-color="#753900"/></linearGradient></defs><g transform="translate(-286.12906,-146.37994)"><g data-paper-data="{&quot;isPaintingLayer&quot;:true}" fill-rule="nonzero" stroke-linejoin="miter" stroke-miterlimit="10" stroke-dasharray="" stroke-dashoffset="0" style="mix-blend-mode: normal"><path d="M319.02428,152.62994v17.36971" fill="#574431" stroke="#574431" stroke-width="12.5" stroke-linecap="round"/><path d="M353.87094,181.46023c0,12.3583 -7.38785,22.37667 -16.50123,22.37667c-9.11338,0 -16.50124,-10.01837 -16.50124,-22.37667c0,-12.3583 7.38787,-22.37667 16.50124,-22.37667c9.11338,0 16.50123,10.01837 16.50123,22.37667z" fill="url(#color-1)" stroke="none" stroke-width="0" stroke-linecap="butt"/><path d="M319.13152,181.46023c0,12.3583 -7.38785,22.37667 -16.50123,22.37667c-9.11338,0 -16.50123,-10.01837 -16.50123,-22.37667c0,-12.3583 7.38785,-22.37667 16.50123,-22.37667c9.11338,0 16.50123,10.01837 16.50123,22.37667z" fill="url(#color-2)" stroke="none" stroke-width="0" stroke-linecap="butt"/><path d="M344.34527,181.46023c0,14.3096 -10.89975,25.90983 -24.34527,25.90983c-13.44553,0 -24.34527,-11.60022 -24.34527,-25.90983c0,-14.3096 10.89975,-25.90983 24.34527,-25.90983c13.44553,0 24.34527,11.60022 24.34527,25.90983z" fill="url(#color-3)" stroke="none" stroke-width="0" stroke-linecap="butt"/><path d="M333.70629,198.1973c-0.64407,0.59824 -4.10792,-0.76487 -4.10792,-0.76487c0,0 -0.42974,3.20493 -1.0262,3.54578c-2.83992,1.6228 -4.98502,1.01584 -8.3039,1.06456c-16.84088,0.24722 -19.31572,-10.73095 -19.31572,-10.73095h6.61117l3.17491,2.85742l3.49241,-2.85742h24.81639c0,0 -2.29446,4.05554 -5.34115,6.88549z" fill="#ffde00" stroke="#000000" stroke-width="1" stroke-linecap="round"/><path d="M316.21945,178.37903h-14.84765l7.63901,-13.25852z" fill="#ffde00" stroke="#000000" stroke-width="1" stroke-linecap="round"/><path d="M338.62819,178.37903h-14.84765l7.63901,-12.88503z" fill="#ffde00" stroke="#000000" stroke-width="1" stroke-linecap="round"/><path d="M323.87578,188.10996h-7.75154l3.98811,-8.48177z" fill="#ffde00" stroke="#000000" stroke-width="1" stroke-linecap="round"/></g></g></svg>