<svg version="1.1" xmlns="http://www.w3.org/2000/svg" xmlns:xlink="http://www.w3.org/1999/xlink" width="330.15006" height="305.75426" viewBox="0,0,330.15006,305.75426"><g transform="translate(-153.86384,-32.16706)"><g data-paper-data="{&quot;isPaintingLayer&quot;:true}" fill-rule="nonzero" stroke-linejoin="miter" stroke-miterlimit="10" stroke-dasharray="" stroke-dashoffset="0" style="mix-blend-mode: normal"><text transform="translate(180.51462,295.68037) scale(0.89003,0.89003)" font-size="40" xml:space="preserve" fill="#ffffff" fill-rule="nonzero" stroke="#000000" stroke-width="2" stroke-linecap="butt" stroke-linejoin="miter" stroke-miterlimit="10" stroke-dasharray="" stroke-dashoffset="0" font-family="Marker" font-weight="normal" text-anchor="start" style="mix-blend-mode: normal"><tspan x="0" dy="0">Madness Combat</tspan></text><text transform="translate(259.5574,325.44516) scale(0.87043,0.87043)" font-size="40" xml:space="preserve" fill="#ffffff" fill-rule="nonzero" stroke="#000000" stroke-width="2" stroke-linecap="butt" stroke-linejoin="miter" stroke-miterlimit="10" stroke-dasharray="" stroke-dashoffset="0" font-family="Marker" font-weight="normal" text-anchor="start" style="mix-blend-mode: normal"><tspan x="0" dy="0">Scratch</tspan></text><g stroke="#000000" stroke-linecap="round"><path d="M341.72123,167.09767l19.37097,0.59603l7.15236,4.76824l-0.29801,11.32457l-4.17221,1.19206l0.89404,2.08611l-5.06625,3.57618l-0.89404,4.17221l-3.87419,5.36427l-3.57618,-0.89404l-6.25832,-2.08611l-8.94045,-6.55633l-2.68214,-9.53647l3.27817,-9.8345z" fill="#c9c9c9" stroke-width="2.5"/><path d="M344.70138,180.50837l7.45037,1.19206" fill="none" stroke-width="0.5"/><path d="M352.74778,172.16393h-2.98015" fill="none" stroke-width="0.5"/><path d="M361.39021,179.01829h2.98015" fill="none" stroke-width="1"/></g><path d="M300.13552,270.32444l-0.06674,-19.30691l19.85334,-3.71266l23.59705,7.15471l0.42947,4.45003l-6.14776,15.41521l-10.59417,1.92076l-17.15227,-5.53098z" fill="#666666" stroke="#000000" stroke-width="2.5" stroke-linecap="round"/><path d="M270.77519,270.21416l-0.06674,-19.30691l19.85334,-3.71266l23.59705,7.15471l0.42947,4.45003l-6.14778,15.41519l-10.59417,1.92076l-17.15227,-5.53098z" fill="#666666" stroke="#000000" stroke-width="2.5" stroke-linecap="round"/><path d="M346.60126,152.18609l1.76151,29.23238l-0.64215,45.58068l-3.37388,23.63994l2.16241,4.3406l-80.57128,1.49482l2.27907,-62.60184l0.80443,-12.05157l3.66162,-10.35848l2.44137,-29.07272l1.86851,-17.90365l3.40809,-7.59517c0,0 34.91743,2.54246 44.05035,4.79594c4.69664,1.15886 13.17764,5.64904 13.17764,5.64904c0,0 2.52049,9.41641 5.20156,13.42371c2.33575,3.49118 3.77074,11.42631 3.77074,11.42631z" fill="#979797" stroke="#000000" stroke-width="2.5" stroke-linecap="round"/><path d="M266.13928,256.33444c0,0 0.65625,-54.89206 4.53819,-71.81704c3.01415,-13.14148 4.36282,-33.37576 6.17933,-47.31105c1.58716,-12.17589 3.83945,-19.01578 3.83945,-19.01578c0,0 20.65064,1.01727 30.47602,1.77262c10.08057,0.77495 25.95439,7.84811 25.95439,7.84811l8.60576,21.12403l-53.22586,-9.25142c0,0 -5.6432,54.19285 -6.01295,75.59802c-0.48918,28.31865 7.85779,41.38148 7.85779,41.38148z" fill="#787878" stroke="#787878" stroke-width="0.5" stroke-linecap="round"/><path d="M346.60126,152.18604l1.76151,29.23238l-0.64215,45.58068l-3.37388,23.63995l2.16241,4.3406l-80.57128,1.49482l2.27908,-62.60183l0.80443,-12.05157l3.66162,-10.35848l2.44137,-29.07272l1.86853,-17.90367l3.40809,-7.59517c0,0 34.91743,2.54246 44.05035,4.79594c4.69663,1.15886 13.17764,5.64904 13.17764,5.64904c0,0 2.52049,9.41641 5.20156,13.42371c2.33575,3.49116 3.77074,11.42632 3.77074,11.42632z" fill="none" stroke="#000000" stroke-width="2.5" stroke-linecap="round"/><g stroke="#000000" stroke-linecap="round"><path d="M273.3608,173.48742l19.37097,0.59603l7.15236,4.76824l-0.29801,11.32457l-4.17221,1.19206l0.89404,2.08611l-5.06625,3.57618l-0.89404,4.17221l-3.87419,5.36427l-3.57618,-0.89404l-6.25832,-2.08611l-8.94045,-6.55633l-2.68214,-9.53647l3.27817,-9.8345z" fill="#c9c9c9" stroke-width="2.5"/><path d="M276.34094,186.89807l7.45037,1.19206" fill="none" stroke-width="0.5"/><path d="M284.38736,178.55367h-2.98015" fill="none" stroke-width="0.5"/><path d="M293.02979,185.40801h2.98015" fill="none" stroke-width="1"/></g><g><g><path d="M272.15479,97.8558c-0.17279,-35.51742 22.63057,-64.36762 50.93269,-64.43873c28.30213,-0.07111 51.38559,28.66382 51.55839,64.18124c0.17279,35.51742 -22.63057,64.36762 -50.93269,64.43873c-28.30213,0.07111 -51.38559,-28.66382 -51.55839,-64.18124z" fill="#cbcbcb" stroke="#000000" stroke-width="2.5" stroke-linecap="butt"/><path d="M353.30616,59.06021c0,0 4.69017,24.58703 4.96064,36.48504c0.25885,11.38657 -3.37116,33.43612 -3.37116,33.43612" fill="none" stroke="#000000" stroke-width="2.5" stroke-linecap="round"/><path d="M274.22373,96.9527c-1.07749,-46.81973 33.73622,-59.7918 33.73622,-59.7918c0,0 -18.42816,24.58225 -17.22535,58.57563c0.37962,10.72862 2.09293,16.06321 5.24943,28.80394c5.32939,21.51132 23.37464,35.91758 23.37464,35.91758c0,0 -43.73912,-2.85329 -45.13494,-63.50534z" fill="#9e9e9e" stroke="#9e9e9e" stroke-width="0.5" stroke-linecap="round"/><path d="M272.15479,97.8558c-0.17278,-35.51743 22.63055,-64.36763 50.93267,-64.43873c28.30213,-0.07112 51.38561,28.66382 51.55839,64.18124c0.17279,35.51743 -22.63057,64.36762 -50.93269,64.43874c-28.30213,0.07111 -51.38559,-28.66382 -51.55839,-64.18124z" fill="none" stroke="#000000" stroke-width="2.5" stroke-linecap="butt"/></g><path d="M374.60827,95.32854l-40.35373,-0.24939" fill="none" stroke="#000000" stroke-width="2.5" stroke-linecap="round"/></g><text transform="translate(167.0375,238.60759) rotate(-27.11511) scale(0.73207,0.73207)" font-size="40" xml:space="preserve" fill="#ff0000" fill-rule="nonzero" stroke="#000000" stroke-width="1" stroke-linecap="butt" stroke-linejoin="miter" stroke-miterlimit="10" stroke-dasharray="" stroke-dashoffset="0" font-family="Marker" font-weight="normal" text-anchor="start" style="mix-blend-mode: normal"><tspan x="0" dy="0">(UNRELATED TO ACTUAL </tspan><tspan x="0" dy="48px">MADNESS COMBAT)</tspan></text></g></g></svg>