<svg version="1.1" xmlns="http://www.w3.org/2000/svg" xmlns:xlink="http://www.w3.org/1999/xlink" width="193.12902" height="339.61918" viewBox="0,0,193.12902,339.61918"><g transform="translate(-121.7527,-6.3485)"><g data-paper-data="{&quot;isPaintingLayer&quot;:true}" fill-rule="nonzero" stroke-linejoin="miter" stroke-miterlimit="10" stroke-dasharray="" stroke-dashoffset="0" style="mix-blend-mode: normal"><path d="M187.38193,178.78102v-79h92.66667v79z" fill="#ff0000" stroke="#000000" stroke-width="2.5" stroke-linecap="butt"/><path d="M282.80087,112.74742c0,17.2917 -21.54684,31.30938 -48.12621,31.30938c-26.57938,0 -48.12621,-14.01769 -48.12621,-31.30938c0,-17.2917 21.54684,-31.30938 48.12621,-31.30938c26.57938,0 48.12621,14.01769 48.12621,31.30938z" fill="#ffffff" stroke="#000000" stroke-width="2.5" stroke-linecap="butt"/><path d="M276.6992,76.68723c2.98542,1.83104 3.52811,9.68528 -3.80545,16.93719c-11.37171,11.24512 -33.72299,22.91463 -33.72299,22.91463c0,0 -2.59005,-4.78258 -3.89839,-4.78258c-2.10305,0 -6.35035,5.13203 -6.35035,5.13203c0,0 -19.54794,-9.45366 -31.99832,-20.63508c-7.56217,-6.79142 -12.08521,-16.74457 -9.23066,-18.3357c31.58283,-17.60428 20.48166,19.48291 46.759,19.48291c26.27734,0 21.32866,-33.39569 42.24716,-20.71341z" fill="#ff0000" stroke="#000000" stroke-width="2.5" stroke-linecap="butt"/><path d="M225.37755,197.78862v-41.78616h16.81683v41.78616z" fill="#ffffff" stroke="#000000" stroke-width="2.5" stroke-linecap="butt"/><path d="M222.57474,156.90869v-14.85188h22.96933v14.85188z" fill="#f3ff00" stroke="#000000" stroke-width="2.5" stroke-linecap="butt"/><path d="M284.37317,129.2908v-10.93778h16.6801v10.93778z" fill="#f3ff00" stroke="#000000" stroke-width="2.5" stroke-linecap="butt"/><path d="M313.63172,97.43454c0,11.70399 -9.12068,21.19195 -20.3716,21.19195c-11.25093,0 -20.3716,-9.48796 -20.3716,-21.19195c0,-11.70398 9.12068,-21.19194 20.3716,-21.19194c11.25093,0 20.3716,9.48795 20.3716,21.19194z" fill="#ffffff" stroke="#000000" stroke-width="2.5" stroke-linecap="butt"/><path d="M198.84896,104.62825c-4.00858,10.99612 -15.82723,16.78643 -26.39768,12.93302c-10.57046,-3.85341 -15.8899,-15.89133 -11.88132,-26.88745c4.00858,-10.99611 15.82723,-16.78642 26.39768,-12.93301c10.57046,3.85341 15.88991,15.89132 11.88132,26.88744z" fill="#ffffff" stroke="#000000" stroke-width="2.5" stroke-linecap="butt"/><path d="M234.21892,133.73779l36.43481,1.9398l15.56519,-7.00204h12.51008l-5.5824,15.69674l-54.4176,1.3655z" fill="#ffffff" stroke="#000000" stroke-width="2.5" stroke-linecap="butt"/><path d="M160.93907,125.58852l3.74616,-10.27625l15.67127,5.71289l-3.74616,10.27625z" fill="#f3ff00" stroke="#000000" stroke-width="2.5" stroke-linecap="butt"/><path d="M140.16016,189.17473l22.96863,-63.00624l11.75346,4.28467l-22.96863,63.00624z" fill="#ffffff" stroke="#000000" stroke-width="2.5" stroke-linecap="butt"/><g fill="#000000" stroke="none" stroke-width="0.5" stroke-linecap="butt"><path d="M249.03411,115.453c-0.12978,-1.55734 1.42756,-1.68712 1.42756,-1.68712c2.11153,-0.17568 3.96408,-0.44397 6.06111,-0.21074c0.80949,0.09003 1.79214,-0.25128 2.43009,0.25508c2.22243,1.76401 1.25461,6.2061 -1.32847,7.13396c-2.53157,0.90935 -3.84531,-1.30415 -5.81518,-2.11962l-0.03431,-0.03401l-0.00704,0.01409l-1.63664,-0.81832c-0.52859,-0.25058 -0.89414,-0.78905 -0.89414,-1.4129c0,-0.11946 0.0134,-0.2358 0.03879,-0.34757c-0.12488,-0.1948 -0.21459,-0.44686 -0.24176,-0.77284z"/><path d="M254.4462,123.8662c0,1.56274 -1.56274,1.56274 -1.56274,1.56274c-0.55564,0 -2.7782,0 -3.33384,0c0,0 -1.56274,0 -1.56274,-1.56274c0,-1.56274 1.56274,-1.56274 1.56274,-1.56274c0.55564,0 1.11128,0 1.66692,0h1.66692c0,0 1.56274,0 1.56274,1.56274z"/><path d="M262.78081,124.07456c0,1.56274 -1.56274,1.56274 -1.56274,1.56274c-1.11128,0 -2.84766,0 -3.95894,0c0,0 -1.56274,0 -1.56274,-1.56274c0,-1.56274 1.56274,-1.56274 1.56274,-1.56274c1.11128,0 2.22256,0 3.33384,0h0.6251c0,0 1.56274,0 1.56274,1.56274z"/><path d="M255.48803,128.24187c0,1.56274 -1.56274,1.56274 -1.56274,1.56274l-1.23566,-0.01207c-1.17262,-0.1466 -2.34643,-0.28374 -3.52095,-0.41422c0,0 -1.55318,-0.17258 -1.38061,-1.72576c0.17258,-1.55318 1.72576,-1.38061 1.72576,-1.38061c1.1887,0.1321 2.37668,0.27092 3.56347,0.41924l0.84799,-0.01207c0,0 1.56274,0 1.56274,1.56274z"/></g><path d="M208.56072,282.94595v-88.84882h16.40666v88.84882z" fill="#ffffff" stroke="#000000" stroke-width="2.5" stroke-linecap="butt"/><path d="M240.14355,282.94595v-89.66916h16.40666v89.66916z" fill="#ffffff" stroke="#000000" stroke-width="2.5" stroke-linecap="butt"/><path d="M220.56784,101.09357v-24.25h29v24.25z" fill="#000000" stroke="none" stroke-width="0" stroke-linecap="butt"/><path d="M157.81307,214.60084c-3.68531,10.10933 -14.17795,15.56861 -23.43597,12.19364c-9.25802,-3.37497 -13.7756,-14.30615 -10.09029,-24.41548c3.68531,-10.10933 14.17794,-15.56861 23.43597,-12.19364c9.25802,3.37497 13.7756,14.30615 10.09029,24.41548z" fill="#ff0000" stroke="#000000" stroke-width="2.5" stroke-linecap="butt"/><path d="M248.69219,137.11904c0,10.76011 -7.80461,19.48291 -17.43208,19.48291c-9.62747,0 -17.43208,-8.7228 -17.43208,-19.48291c0,-10.76011 7.80461,-19.48291 17.43208,-19.48291c9.62747,0 17.43208,8.7228 17.43208,19.48291z" fill="#ff0000" stroke="#000000" stroke-width="2.5" stroke-linecap="butt"/><g stroke="#000000" stroke-width="2.5"><path d="M222.16317,107.97102v-14.25h26.5v14.25z" fill="#ffffff" stroke-linecap="butt"/><path d="M216.20044,110.46898v-58.75l6.44026,-0.0363l-0.47752,55.5363l26.39099,0.0353l0.01265,-54.37469l6.13362,0.08939v57.5c0,0 -12.81416,4 -19.1759,4c-6.46977,0 -19.3241,-4 -19.3241,-4z" fill="#ffffff" stroke-linecap="butt"/><path d="M229.66317,93.44077l-0.25,13.75" fill="none" stroke-linecap="round"/><path d="M240.41317,106.44077l0.25,-13.75" fill="none" stroke-linecap="round"/></g><path d="M262.29253,198.81404c0,11.21317 -12.94647,20.30325 -28.91674,20.30325c-15.97027,0 -28.91674,-9.09007 -28.91674,-20.30325c0,-11.21317 14.17697,-5.94742 30.14724,-5.94742c15.97027,0 27.68624,-5.26576 27.68624,5.94742z" fill="#00a1ff" stroke="#000000" stroke-width="2.5" stroke-linecap="butt"/><path d="M203.63872,201.89029v-10.25416h58.65382v10.25416z" fill="#f3ff00" stroke="#000000" stroke-width="2.5" stroke-linecap="butt"/><g fill="#ff0000" stroke="#000000" stroke-width="2.5" stroke-linecap="butt"><path d="M229.58333,308.75c0,18.63961 -10.85709,33.75 -24.25,33.75c-13.39291,0 -24.25,-15.11039 -24.25,-33.75c0,-18.63961 -2.64627,-30.00099 25.25,-30.25c26.89075,-0.24004 23.25,11.61039 23.25,30.25z"/><path d="M232.08334,330c0,18.22539 -10.75253,13.5 -25.25001,13.5c-14.49748,0 -27.25,4.72539 -27.25,-13.5c0,-18.22539 11.75252,-33 26.25,-33c14.49748,0 26.25001,14.77461 26.25001,33z" data-paper-data="{&quot;origPos&quot;:null}"/></g><g fill="#ff0000" stroke="#000000" stroke-width="2.5" stroke-linecap="butt"><path d="M283.08334,309.41667c0,18.63961 -10.8571,33.75 -24.25,33.75c-13.39291,0 -24.25,-15.11039 -24.25,-33.75c0,-18.63961 -2.64628,-30.00099 25.25,-30.25c26.89075,-0.24004 23.25,11.61039 23.25,30.25z"/><path d="M285.58334,330.66667c0,18.22539 -10.75253,13.5 -25.25001,13.5c-14.49747,0 -27.25,4.72539 -27.25,-13.5c0,-18.22539 11.75252,-33 26.25,-33c14.49748,0 26.25001,14.77461 26.25001,33z" data-paper-data="{&quot;origPos&quot;:null}"/></g><path d="M223.06317,84.10435v-21.75h25.75v21.75z" fill="#ffffff" stroke="#000000" stroke-width="2.5" stroke-linecap="butt"/><path d="M230.06317,83.35435l0.25,-18.5" fill="none" stroke="#000000" stroke-width="2.5" stroke-linecap="round"/><path d="M240.81317,64.85435v17.5" fill="none" stroke="#000000" stroke-width="2.5" stroke-linecap="round"/><g stroke-width="2.5"><g stroke-linecap="butt"><path d="M268.95351,37.54066c0,16.5366 -14.50739,29.94216 -32.40316,29.94216c-17.89577,0 -32.40316,-13.40556 -32.40316,-29.94216c0,-16.5366 14.50739,-29.94216 32.40316,-29.94216c17.89577,0 32.40316,13.40556 32.40316,29.94216z" data-paper-data="{&quot;origPos&quot;:null}" fill="#ffffff" stroke="#000000"/><path d="M237.1656,52.10157c0,0.58064 0.95605,5.13268 0.41988,5.35554c-1.2566,0.52234 -3.2649,-4.09458 -4.36726,-3.29664c-0.92399,0.66883 -1.06447,3.68343 -2.20512,3.68343c-1.69897,0 0,-3.70357 0,-5.74233c0,-2.03876 1.37728,-3.6915 3.07625,-3.6915c1.69897,0 3.07625,1.65274 3.07625,3.6915z" fill="#000000" stroke="none"/></g><path d="M249.37383,24.72838l1.43013,22.05821l-8.02197,0.05616l1.58198,-21.8074z" data-paper-data="{&quot;origRot&quot;:0,&quot;index&quot;:null}" fill="#000000" stroke="none" stroke-linecap="butt"/><path d="M234.7046,20.86055c0,0 4.08708,-2.461 6.97283,-2.461c2.88575,0 7.58808,2.461 7.58808,2.461" data-paper-data="{&quot;origPos&quot;:null}" fill="none" stroke="#000000" stroke-linecap="round"/></g><path d="M217.53044,72.93865v-19h3.75v19z" fill="#ffffff" stroke="none" stroke-width="0" stroke-linecap="butt"/><path d="M250.23044,73.18865v-18.5h3.15v18.5z" fill="#ffffff" stroke="none" stroke-width="0" stroke-linecap="butt"/><path d="M232.55482,33.85976c1.28624,2.14373 -0.85749,3.42997 -0.85749,3.42997l-2.64282,1.33696c-4.9787,0.5898 -7.74188,-0.38613 -11.57721,-3.56014c0,0 -1.92055,-1.60046 -0.32009,-3.52101c1.60046,-1.92055 3.52101,-0.32009 3.52101,-0.32009c2.79294,2.34663 4.11331,2.92528 7.75612,2.43986l0.69051,-0.66304c0,0 2.14373,-1.28624 3.42997,0.85749z" fill="#000000" stroke="none" stroke-width="0.5" stroke-linecap="butt"/></g></g></svg>