<svg version="1.1" xmlns="http://www.w3.org/2000/svg" xmlns:xlink="http://www.w3.org/1999/xlink" width="123.82802" height="133.45085" viewBox="0,0,123.82802,133.45085"><defs><linearGradient x1="326.52568" y1="-81.27277" x2="326.52568" y2="45.30764" gradientUnits="userSpaceOnUse" id="color-1"><stop offset="0" stop-color="#ffaf59"/><stop offset="1" stop-color="#e57600"/></linearGradient></defs><g transform="translate(-264.61166,81.27277)"><g data-paper-data="{&quot;isPaintingLayer&quot;:true}" fill-rule="nonzero" stroke="none" stroke-width="0.5" stroke-linecap="butt" stroke-linejoin="miter" stroke-miterlimit="10" stroke-dasharray="" stroke-dashoffset="0" style="mix-blend-mode: normal"><path d="M340.98302,41.39994c-0.89478,0.43914 -1.82927,0.69454 -2.79883,0.60097c-1.05893,-0.1022 -2.00419,-0.6834 -2.80983,-1.47983c-0.40218,0.08182 -0.80681,0.15128 -1.21066,0.20819c-0.5432,0.39328 -1.12319,0.74396 -1.7312,1.05184c-0.43413,-0.25262 -0.85271,-0.54269 -1.24967,-0.86406c-1.09764,-0.02186 -2.12059,-0.15309 -2.99041,-0.39858c-0.05552,-0.01567 -0.11151,-0.03166 -0.16795,-0.04799c-0.26298,0.28892 -0.54388,0.55626 -0.84398,0.79757c0.04027,0.76331 -0.08159,1.47929 -0.42804,2.09907c-4.59612,0.41277 -9.32578,-1.05796 -11.67457,-4.46146c0.00017,0.00006 0.00034,0.00012 0.0005,0.00018c-0.00021,-0.00012 -0.00042,-0.00025 -0.00063,-0.00037c-0.10537,-0.15269 -0.20594,-0.30928 -0.3015,-0.46975c-0.05053,0.0645 -0.10146,0.12848 -0.15279,0.19192c-0.11397,-0.07112 -0.22779,-0.14315 -0.34147,-0.216c-0.58333,-1.02887 -1.04601,-1.93836 -1.32886,-2.53028c-0.15917,-0.3331 -0.31652,-0.67492 -0.47128,-1.02461l1.0868,-0.69882c-0.02146,-0.64105 0.01457,-1.31568 0.11377,-2.02402c0.14105,-1.00723 0.51921,-1.9243 1.02848,-2.77632c-1.16293,-0.11635 -2.17764,-0.55011 -3.0673,-1.21845c-0.15585,1.08457 -0.32486,2.16917 -0.50691,3.25411c-0.17207,-0.51172 -0.33558,-1.03235 -0.4888,-1.55993c0.13993,-0.65302 0.26229,-1.37586 0.39768,-2.19501c-0.27252,-0.25273 -0.53224,-0.52852 -0.77994,-0.82446c-0.07286,0.19897 -0.15112,0.39506 -0.23568,0.58774c-0.05197,-0.23926 -0.10143,-0.47928 -0.14826,-0.71992c-0.25998,0.84746 -0.54517,1.66401 -0.85834,2.41244c-1.31671,1.63569 -3.56806,2.15623 -5.54962,2.99866c0.31303,-1.74109 0.5919,-3.48222 0.83563,-5.22415c-0.83195,0.45255 -2.20411,0.69924 -2.34253,-0.13947c-0.14625,-0.88614 0.27966,-1.72573 0.68495,-2.57354c0.10185,-0.86275 0.45414,-1.70623 0.81691,-2.55245c0.42123,-1.8885 0.76013,-3.79567 1.15457,-5.69024c0.13499,-0.98976 0.26751,-1.9786 0.39654,-2.9668c-1.03236,-1.88516 -1.85017,-3.72249 -2.38027,-4.99372c0.13295,2.24966 0.16844,4.52326 0.19294,6.83861c-0.59141,4.69735 -0.70403,7.93511 -1.96166,11.90223c0.00599,0.32381 0.01391,0.64778 0.02393,0.97173l-0.17105,-0.52009c-0.0768,0.22962 -0.15751,0.46187 -0.24246,0.69718c0.14723,0.29659 0.29844,0.5889 0.45372,0.87663c0.08714,1.90996 0.25377,3.81143 0.53523,5.66341c-1.16689,-0.3072 -2.00792,-1.25688 -2.62072,-2.49298c-0.46501,0.99013 -1.02485,1.91611 -1.81621,2.64339c-0.01344,0.01235 -0.02687,0.02466 -0.04029,0.03692c0.85282,0.57653 1.74393,1.06526 2.68195,1.42184c0.68943,0.26209 1.43132,0.48147 2.20806,0.66803c0.08857,0.38167 0.26044,0.7432 0.45244,1.09869c0.01429,-0.05622 0.02705,-0.11232 0.03791,-0.16829c0.05739,-0.26042 0.11402,-0.52082 0.16992,-0.7812c2.34852,0.49919 4.95824,0.73598 7.37506,0.96518c-0.18476,0.86399 -0.37757,1.72855 -0.57836,2.59384c-0.50571,0.68018 -0.93244,1.45944 -1.34946,2.2509c-0.85103,0.09085 -1.74749,0.05354 -2.68882,-0.13216c0.39162,0.13723 0.843,0.23387 1.4214,0.27283c0.41015,0.02763 0.82154,-0.01788 1.23278,-0.07487c-0.39945,0.75957 -0.79172,1.52814 -1.23791,2.22908c-3.33816,-0.34249 -6.85705,-0.81006 -9.67201,-1.8979c-0.41158,-0.15906 -0.81583,-0.33352 -1.21321,-0.5219c-0.902,-1.85015 -1.26969,-3.93185 -1.48621,-6.00229c0.3101,0.43082 0.68087,0.82035 1.13598,1.15167c1.67087,1.21641 3.42869,1.88399 5.24569,2.60952c-1.75495,-1.38462 -3.29219,-3.2089 -4.53787,-4.99619c-0.62914,0.50192 -1.2445,0.90695 -1.84505,1.22302c-0.14621,-1.40186 -0.22347,-2.79835 -0.35071,-4.11407c-0.00878,-0.09075 -0.01743,-0.18151 -0.02596,-0.27227c0.17886,0.16856 0.35919,0.33536 0.54112,0.49985c-0.04538,-0.07953 -0.08997,-0.15838 -0.13376,-0.2365c-0.16225,-0.28944 -0.31555,-0.57195 -0.46066,-0.84846c-0.13141,-1.48973 -0.23025,-2.98037 -0.29977,-4.47168c-0.08732,0.04746 -0.17834,0.09045 -0.27328,0.12864c-0.23051,0.09273 -0.45553,0.17454 -0.67519,0.24587c0.12046,-0.36118 0.23353,-0.72211 0.35471,-1.06495c0.00446,-0.01262 0.00891,-0.02522 0.01335,-0.03778c-0.41616,-0.05069 -0.83612,-0.11347 -1.25466,-0.17173c-0.43445,-1.56845 -0.74617,-3.16461 -1.14924,-5.05292c-0.04897,-0.22939 -0.09803,-0.45932 -0.14713,-0.68975c-0.13709,0.02377 -0.28635,0.03726 -0.44869,0.03965c-0.4355,0.0064 -1.20677,0.0684 -1.25477,-0.3645c-0.20157,-1.81797 0.34656,-3.63702 0.51299,-5.46293c-0.06578,-0.33995 -0.13066,-0.68044 -0.19445,-1.02135c-0.47405,0.22136 -0.92165,0.39806 -1.34454,0.53204c0.26451,2.87181 0.65136,5.74298 1.1566,8.70706c0.18128,1.06358 0.46055,2.10783 0.79739,3.13626c-0.03703,0.00036 -0.07397,0.00099 -0.11082,0.00192c-1.12169,-1.14553 -2.56185,-2.04904 -3.36507,-3.43658c-1.12282,-1.93965 -1.89756,-4.14019 -2.40139,-6.45197c-0.0455,-0.85401 -0.05708,-1.62642 -0.0525,-2.25848c-0.13668,-0.09382 -0.26821,-0.19777 -0.39486,-0.31155c-0.52217,-3.91835 -0.38256,-7.99094 0.07144,-11.544c0.18313,-1.43323 0.9543,-7.70405 3.05444,-11.10433c0.00696,-2.65743 0.1594,-5.34718 0.41654,-8.03893c0.97838,-0.2739 2.11994,-0.37622 3.45689,-0.26354c0.17536,0.01478 0.34774,0.04247 0.51711,0.08214c0.10005,-0.69972 0.18337,-1.39908 0.23421,-2.09758c0.1737,-2.386 0.28538,-4.77626 0.45968,-7.16221c0.04593,-0.62875 -0.32774,-1.53712 0.20092,-1.88059c0.04254,-0.02764 0.08622,-0.05015 0.13092,-0.06807c-0.16382,-2.62814 -0.14737,-5.14664 -0.16387,-5.55846c0.00342,-0.29286 0.00586,-0.60765 0.0079,-0.94056c0.47134,-0.2902 0.96485,-0.46409 1.47881,-0.48764c1.5523,-0.07113 2.92535,0.98984 4.04246,2.28741c-0.81624,4.20343 -1.68508,8.42558 -2.33154,12.65848c-0.5579,-0.45664 -1.13717,-1.01784 -1.73974,-1.68854c-0.11221,0.28853 -0.21456,0.57991 -0.30168,0.87559c-0.34037,1.15525 -0.65609,2.3215 -0.95101,3.49586c0.16659,-0.2682 0.33034,-0.5378 0.49021,-0.8093l1.88501,2.87593c-0.03729,0.35779 -0.07226,0.71563 -0.10475,1.07353c0.80157,1.09618 1.46859,2.39883 1.99612,3.64505c0.06696,-0.50879 0.13412,-1.01738 0.20135,-1.52576l0.1343,0.20489c-0.00814,0.70404 -0.01324,1.34898 -0.01819,1.95295c0.52884,0.3475 0.9914,0.78706 1.40034,1.28777c-0.00265,0.9471 -0.01853,1.89138 -0.19088,2.78655c0.65769,2.62881 1.2146,5.55346 1.60793,8.569c0.11653,-1.12417 0.23589,-2.24803 0.35936,-3.37124c-0.57551,-2.4731 -1.03156,-4.99448 -1.41155,-7.50245c0.79371,1.12782 1.36699,2.48426 1.83786,3.78054c0.17642,-1.4745 0.36244,-2.94717 0.56099,-4.41722c0.22281,-1.64958 0.78367,-8.13485 2.56342,-11.75854c-0.17763,-0.29712 -0.36044,-0.59225 -0.5406,-0.88788c-1.23707,1.86587 -2.58527,2.91094 -4.11255,2.96255c-0.23478,3.1386 -0.49169,6.27769 -0.59865,7.34815c-0.02061,0.20621 -0.03546,0.41436 -0.04618,0.62391c-0.2082,-1.54208 -0.39251,-3.07164 -0.56319,-4.5741c-0.07698,-0.67762 -0.19441,-1.36208 -0.31761,-2.04889c0.06613,-0.51457 0.13029,-1.0296 0.19412,-1.54476c-0.16338,-0.05206 -0.32875,-0.11454 -0.49617,-0.18762c-0.24871,-1.57647 -0.37482,-3.14555 0.03938,-4.65324c0.23223,-0.84531 0.48136,-1.73846 0.77153,-2.6296c-0.19491,-0.25797 -0.31583,-0.55882 -0.31971,-0.83849c-0.0267,-1.92495 0.00726,-3.80227 0.03247,-5.6677c0.55199,0.64593 1.04079,1.3481 1.45704,1.99712c0.11822,0.18434 0.21036,0.37798 0.28128,0.57902c0.07891,-0.56261 0.16385,-1.12372 0.27394,-1.67214c0.02029,0.52589 0.04064,1.05176 0.06068,1.57766c0.75235,-1.18801 1.69874,-2.17768 2.93156,-2.77819c0.62692,-0.30537 1.24606,-0.19791 1.84321,0.14919c-0.04134,-0.69217 -0.08247,-1.38429 -0.12344,-2.07633c-1.11057,0.17095 -2.30016,0.09262 -3.41264,-0.1943c0.09176,-0.12808 0.18927,-0.25296 0.293,-0.37437c1.07566,-1.25892 2.04164,-2.22287 2.91337,-2.93153c-0.05707,-0.97142 -0.11406,-1.94257 -0.17114,-2.91335c-0.0185,-0.00843 -0.03683,-0.01564 -0.05495,-0.02144c-0.58123,-0.18608 -1.3993,0.09094 -1.79175,-0.37644c-0.42895,-0.51085 -0.15015,-1.32605 -0.19656,-1.99149c-0.0979,-1.40371 -0.0253,-3.79189 -0.51208,-5.56985l0.35647,0.56661c-0.03063,-1.39776 -0.16905,-2.81919 0.32505,-4.1017c0.55948,-1.45219 1.16117,-2.94821 1.9105,-4.34257c0.17744,0.09677 0.35055,0.20189 0.51933,0.31479c0.42433,-0.76308 0.99649,-1.40761 1.76128,-1.86268c-0.05554,-0.23998 -0.09671,-0.48357 -0.12049,-0.7315c-0.02313,-0.24104 -0.04832,-0.48987 -0.0732,-0.74416c0.19212,-0.2104 0.39201,-0.41351 0.60033,-0.60844c0.2995,-0.02922 0.60119,-0.02095 0.90315,0.03128c1.13269,0.19594 2.12789,0.73961 3.04083,1.46049c0.06406,0.01735 0.12696,0.03686 0.18876,0.05845c-0.05037,-0.06876 -0.09767,-0.14034 -0.1416,-0.21505c-0.44978,-0.76507 2.46735,-2.0681 2.77301,-1.7396c1.53868,1.65359 2.44269,4.26933 3.45667,6.72676c-0.92072,-0.84725 -1.85323,-1.67078 -2.79203,-2.46335c-0.49416,-0.41719 -1.10108,-0.7235 -1.68371,-1.04887c0.27026,0.35482 0.51155,0.75877 0.73345,1.19102c0.01611,0.01813 0.03221,0.03625 0.0483,0.05439c1.41694,0.25216 2.73267,1.32259 3.85315,2.64871c0.52789,1.25262 1.09505,2.44806 1.80246,3.43436c0.14985,0.20893 0.59665,0.57612 1.01445,1.02381c0.10724,0.22186 0.2048,0.43233 0.29211,0.62809c0.04599,-0.03756 0.09199,-0.07402 0.13799,-0.10941c0.31139,0.43739 0.50774,0.91528 0.36567,1.38041c0.0222,0.06361 0.04416,0.12746 0.06589,0.19151c0.04701,-0.40539 0.10568,-0.80664 0.17746,-1.20072c-0.13701,-0.17177 -0.27291,-0.34483 -0.40762,-0.51926c0.19776,-0.13869 0.39548,-0.25782 0.59293,-0.35862c0.04762,-0.19676 0.09902,-0.391 0.15438,-0.58231c-1.35705,-1.4147 -2.76472,-2.80019 -4.20195,-4.12871c-0.01653,-0.07332 -0.03108,-0.14736 -0.04353,-0.22218c-0.29725,-1.78695 -0.07323,-3.59446 0.222,-5.40478c1.39664,0.7791 2.73169,1.75651 3.91321,2.84571l0.69476,-0.50705c-0.16089,-0.3134 -0.30149,-0.637 -0.41587,-0.97374c-0.27349,-0.80513 -0.46633,-1.62922 -0.60915,-2.4651c0.46553,0.41454 0.93473,0.84201 1.40477,1.27914c-0.36171,-0.46358 -0.72552,-0.92635 -1.09152,-1.38833l3.2101,-1.2416c0.05595,0.00038 0.11243,-0.0008 0.16936,-0.00332c1.11686,0.94772 2.2029,1.9292 3.26158,2.93952l-0.49595,-3.18545c0.22217,0.04633 0.43125,0.13182 0.62161,0.27325c1.14007,0.84704 1.85079,2.10974 2.54907,3.38407c0.02544,-0.35356 0.10299,-0.73729 0.24606,-1.153c0.04733,-0.13753 0.09816,-0.26791 0.15215,-0.39145c-0.01191,-0.1157 -0.02383,-0.23138 -0.03589,-0.34704c0.04058,0.0539 0.08114,0.10781 0.12168,0.16174c0.00369,-0.00751 0.00739,-0.015 0.01109,-0.02246c-0.17498,-0.81399 -0.34281,-1.63049 -0.53475,-2.43848c0.03975,0.0179 0.07949,0.03581 0.11923,0.05371c-0.00806,-0.04978 -0.01629,-0.09951 -0.02469,-0.14919l2.07948,0.90312c1.3827,-0.61009 2.87793,-0.0955 2.87793,-0.0955c0.6911,0.25743 1.38222,0.51485 2.07332,0.77228c0.76282,0.44312 1.7341,0.81566 1.66256,1.54124c0.22725,0.30342 0.44603,0.62468 0.6766,0.88157l1.65446,4.02595c0.735,0.91638 1.45042,1.84831 2.15352,2.78978l0.04019,0.89874c0.91012,1.06145 1.57807,2.3278 2.21289,3.61391c0.75695,0.61907 1.50381,1.23715 1.43131,2.11068c-0.0137,0.16508 -0.06571,0.30575 -0.14757,0.42741c0.60232,1.10375 1.17611,2.22118 1.7285,3.34888l0.39952,3.56664c-0.56465,-0.16206 -1.14154,-0.29491 -1.72222,-0.41872l4.23596,3.24504c0.25843,0.5995 0.51468,1.20006 0.76976,1.80118c0.22972,-0.06494 0.45429,-0.04153 0.67095,0.11751c1.63071,1.19705 1.57121,3.72893 2.2993,5.61626c0.81281,2.10693 1.57466,4.22969 2.33442,6.35156c0.15952,0.32879 0.32078,0.65675 0.48398,0.98379c0.1699,0.16187 0.33946,0.32399 0.50805,0.48683c0.01171,0.19197 0.02203,0.38403 0.03114,0.57619c0.056,0.10858 0.11224,0.21706 0.16873,0.32541l-0.15202,0.06164c0.0066,0.16883 0.01234,0.33772 0.01731,0.50667c0.21368,0.58891 0.42894,1.17717 0.64685,1.76438l1.49267,-0.89468c0.09038,0.11082 0.17927,0.22274 0.26654,0.33586c0.40896,1.2156 1.06727,2.74726 1.67031,4.3137c0.13646,0.16236 0.27555,0.32302 0.41658,0.48243c0.08025,0.41997 0.15018,0.84406 0.21873,1.26848c0.47052,1.40668 0.80263,2.75594 0.77013,3.83892c0.09506,0.41721 0.18919,0.83465 0.28278,1.25221l2.72214,-1.27868c0.18238,1.23798 0.5416,2.47358 0.88374,3.70799c-0.02105,0.46809 -0.04037,0.93484 -0.01719,1.3882c0.23597,4.61459 0.17603,9.21954 0.55231,13.82436l-1.75884,5.0279c-0.05512,0.22791 -0.10039,0.45448 -0.12799,0.67861c-0.18724,1.52043 -0.36403,3.04214 -0.54605,4.5632l-0.44244,-0.04647c-0.00469,0.01395 -0.00938,0.0279 -0.01411,0.04184c-0.06056,0.39567 -0.12662,0.81573 -0.19501,1.2432c0.43006,0.9186 0.80544,1.85616 1.05201,2.83838c0.16427,0.65441 -1.29384,5.66233 -1.48176,6.27166c-0.7859,2.54827 -2.03678,4.87699 -3.63591,6.93427c-0.53575,1.40449 -1.01855,2.83866 -1.90074,4.03967c-0.81379,1.10788 -3.54586,3.35982 -4.58497,4.32017c-0.8385,0.77494 -1.47768,1.809 -2.47085,2.37224c-2.62314,1.48764 -6.45972,1.70667 -9.37949,2.18257c-2.01701,0.32876 -4.10522,0.48602 -6.12781,0.19361c-2.6429,0.07813 -5.77903,0.9853 -8.31887,0.90796c-1.22527,-0.03731 -2.35813,-0.72841 -3.57791,-0.85013c-2.28658,-0.22818 -4.55176,0.69247 -6.84715,0.80069c-3.59993,0.16972 -5.9939,-1.73706 -9.30518,-2.11452c-0.96401,-0.10989 -1.93878,0.33028 -2.90256,0.21841c-3.19545,-0.37093 -6.4673,-2.04972 -9.38296,-3.33235c-5.99333,-2.63655 -8.77058,-6.19959 -11.3229,-12.02658c-0.34406,-0.78549 -1.30395,-1.56748 -1.39742,-2.34309c-0.16207,-0.1673 -0.32372,-0.33355 -0.48502,-0.49851l-0.01357,-0.71859c-0.37026,-0.72099 -0.70643,-1.4815 -1.00661,-2.26715c-2.10987,-5.52203 -2.23648,-12.46708 -2.39116,-18.30357c-0.12242,-4.619 -0.50101,-11.05421 0.29807,-15.63125c0.58417,-3.3461 1.06933,-7.53492 3.25489,-10.13948c0.60319,-2.89544 1.29974,-5.76326 2.14358,-8.55639c0.38964,-1.28973 1.62109,-5.54426 3.48305,-8.6154c0.16363,-0.83672 0.33016,-1.66771 0.49825,-2.49193c0.56261,-2.75884 0.4893,-5.84966 2.04714,-8.19505c0.05592,-0.08419 0.11279,-0.16757 0.17058,-0.25016c0.08722,-1.5293 0.22455,-2.95279 0.44312,-4.06725c0.47795,-2.43697 0.55584,-5.20554 2.10476,-7.14671c1.6591,-2.07926 4.20796,-4.33391 6.85623,-4.08361c0.16161,0.01527 0.32068,0.03667 0.47722,0.06395c1.06115,-1.22608 2.45045,-2.44795 3.92906,-2.84881c-0.20294,-2.24589 -0.26932,-4.78785 1.33929,-6.12154c2.82021,-2.33821 7.81833,1.13521 10.41485,3.18724c0.01216,-0.11709 0.02333,-0.23413 0.03342,-0.35114l2.7071,0.61411c-0.15854,-1.74209 -0.22342,-3.50622 -0.45719,-5.2306l6.73334,2.50648c0.50632,0.63812 1.0088,1.27758 1.50761,1.91855c0.69177,0.32896 1.39228,0.6443 2.0927,0.95978c-0.0712,-0.29973 -0.14572,-0.59829 -0.22514,-0.89511l6.81003,2.00348c0.14977,0.13562 0.33772,0.25833 0.54037,0.37605c0.52877,0.19697 1.05755,0.39393 1.58632,0.59089l0.75283,1.83192c0.03434,0.03826 0.06895,0.07511 0.10388,0.11024c1.24617,1.25335 2.38611,2.60802 3.57917,3.91204l0.12492,2.79346c1.6546,2.21553 3.24101,4.48388 4.85391,6.72679l0.41141,3.67283c1.03,2.10272 1.98565,4.2411 2.91326,6.39296l1.96094,1.50221c1.54712,3.37374 4.47699,8.13062 4.92678,11.85262c0.08047,0.6659 0.13795,1.33349 0.17873,2.0023c0.77607,0.74956 1.53156,1.51428 2.20468,2.33962l0.13302,-0.07973c0.04073,0.13384 0.0854,0.27252 0.13353,0.41558c0.33728,0.43722 0.65014,0.89241 0.92995,1.37193c0.61142,1.04783 0.92666,2.21907 1.15694,3.42421c1.59092,1.79835 3.42757,3.43774 4.50035,5.57128c0.48787,0.97027 0.42755,2.09781 0.37717,3.21765c0.54809,1.97745 1.05238,3.95182 0.71571,5.92792c-0.32514,1.90842 -1.11893,3.68434 -1.96646,5.44508l0.84006,1.41031c0.06548,0.6987 0.73421,1.64528 0.19642,2.09612c-0.41966,0.35182 -0.95585,0.44991 -1.52417,0.47806c0.41984,0.25888 0.76731,0.57891 0.96084,1.02898c0.51241,1.19162 -0.12948,2.54495 -0.44611,3.85401l-0.63865,1.82568l0.12223,0.25924c-0.03887,1.06657 -0.26132,2.10059 -0.60007,3.11041l-0.00759,-0.0008c-0.00216,0.01418 -0.00434,0.0284 -0.00652,0.04264c-0.10522,0.31049 -0.22135,0.61871 -0.34645,0.92489c0.05113,0.10588 0.10165,0.21196 0.15144,0.31831c-0.07142,0.44636 -0.14538,0.90079 -0.21828,1.34394c-0.01852,0.44648 -0.04509,0.89198 -0.08002,1.3367l0.949,-0.13917c-0.34033,1.99247 -0.89888,3.55007 -1.65122,4.86022c-0.52921,2.38403 -1.33234,4.76492 -2.45563,7.17262c-0.22323,0.47848 -0.41969,0.97238 -0.60951,1.46999c-2.46444,3.17049 -5.75599,5.69631 -9.44748,7.38757c-1.06872,0.48963 -2.01535,1.33825 -3.17391,1.53732c-1.31607,0.22614 -2.65908,-0.31409 -3.99441,-0.30561c-1.16866,0.00741 -2.32001,0.38628 -3.48822,0.35309c-1.53416,-0.04358 -3.27405,-0.91067 -4.88551,-0.55218c-1.48277,0.32987 -2.82614,1.23158 -4.33531,1.40425c-2.65527,0.3038 -5.33131,-0.63208 -8.0013,-0.51406c-5.06367,0.22382 -8.17298,-0.08996 -12.97409,-2.10938c-1.38147,-0.15431 -2.88985,-0.28619 -4.43705,-0.44493c-0.66728,1.04828 -1.45512,1.94529 -2.56783,2.43472c-1.98383,0.87261 -4.60413,-0.50119 -6.19533,-1.97263c-0.92615,-0.85645 -1.61016,-1.83188 -2.12207,-2.88188c-3.04784,-1.44484 -5.69116,-3.70817 -8.13875,-6.11655c-1.21226,-0.75652 -2.2913,-1.90259 -3.21806,-3.2923c-0.18042,-0.18734 -0.36023,-0.3737 -0.53952,-0.55878c-0.01173,-0.09728 -0.00981,-0.19448 0.00865,-0.29156c-0.17555,-0.30009 -0.34469,-0.60901 -0.50724,-0.92554l-0.1304,-6.90907c1.06489,0.55489 2.19445,1.01293 3.30172,1.50435c-1.98084,-2.42102 -2.60999,-6.68101 -2.77781,-9.83097c-0.184,-0.84427 -0.33186,-1.70337 -0.44736,-2.57003c-1.29021,-1.15903 -2.0741,-3.3374 -2.63766,-6.21571c-0.52233,-2.66767 0.17708,-6.65871 0.63246,-9.59823c0.65089,-4.20161 1.33291,-8.49117 2.21425,-12.72178c0.83177,-0.99123 1.90983,-1.753 3.33337,-2.15154c0.48406,-5.06703 1.33912,-10.14117 2.29327,-15.02024c0.75196,-1.2403 1.60677,-2.28759 2.55048,-2.86863c0.01378,-2.25033 0.00927,-5.32916 0.1655,-8.0685c1.82972,-2.61501 4.57809,-4.44469 7.07933,-6.48564c0.24835,-0.95823 0.42918,-1.64432 0.45379,-1.73346c0.59292,-2.14796 0.48138,-4.66973 1.85889,-6.42123c0.1538,-0.19556 0.31725,-0.39448 0.48932,-0.59329c0.67653,0.11788 1.30582,0.34554 1.88836,0.66322c0.58783,-1.09382 1.26651,-2.12509 2.08693,-3.02355c-0.01574,-0.16084 -0.03134,-0.32387 -0.04622,-0.48848c0.21389,-0.05798 0.42965,-0.0988 0.64655,-0.11995c0.08298,-0.07765 0.1673,-0.15399 0.25299,-0.22899c1.35006,-1.18144 3.55909,-0.96423 5.33499,-0.70998c1.642,0.23508 3.34455,0.87188 4.96426,1.77541c0.19854,-1.21745 0.42928,-2.43618 0.55535,-3.65078c0.42308,0.33436 0.7824,0.63098 1.05815,0.85857c0.64342,0.53106 1.30267,1.09828 1.96945,1.69203c-0.12895,-0.75471 -0.21714,-1.51903 -0.28708,-2.28763l3.93037,0.89161c0.01648,0.01396 0.03296,0.02793 0.04943,0.04191c0.90788,-0.04013 1.92952,-0.4203 2.76563,-0.24593l-0.33903,-2.17758c0.4534,0.23704 0.91341,0.4638 1.37735,0.68442c0.84182,1.08175 1.67314,2.16781 2.49469,3.25899c-0.0785,-0.7528 -0.16262,-1.50407 -0.28276,-2.2455c0.62075,0.27967 1.24102,0.56007 1.85466,0.85079c0.06633,-0.03505 0.13309,-0.06727 0.20013,-0.09685l4.12916,1.7933c0.27927,-0.28639 0.59849,-0.4955 0.99564,-0.55378c0.61304,-0.08997 1.06572,0.41331 1.489,0.97849c-0.00223,0.02259 -0.00546,0.04553 -0.00975,0.06882c-0.06832,0.37115 -0.2903,0.64299 -0.59276,0.86284c0.65618,0.4764 1.1041,1.31504 1.57187,2.10921c0.51408,0.42079 1.06456,0.83009 1.04381,1.43198c-0.00045,0.0129 -0.00108,0.02573 -0.00191,0.03849c0.10703,0.13172 0.21362,0.26379 0.31981,0.39618l0.7061,1.7182c-0.24636,-0.0148 -0.49375,-0.02387 -0.74187,-0.02892c0.03124,0.04348 0.06307,0.08779 0.09546,0.13286c0.49311,0.34375 0.96657,0.71436 1.41346,1.12132c0.257,0.23404 0.49615,0.48332 0.72057,0.74506l0.05171,1.15628c0.41946,0.57303 0.7958,1.08008 1.06139,1.42372c0.28683,0.37111 0.69476,0.70265 1.0998,1.03391c0.40393,0.81834 0.79444,1.6447 1.22538,2.43135c0.01949,0.03557 0.03893,0.07114 0.05836,0.10674c-0.39499,0.58704 -1.48502,0.7313 -2.3197,1.03823c0.42146,1.05912 0.84095,2.12168 1.27036,3.18469l0.10968,1.99446c-0.33771,-0.07079 -0.67451,-0.14378 -1.00872,-0.22294c0.32955,0.75165 0.65696,1.50441 0.98287,2.25816c0.05088,0.08475 0.10145,0.16908 0.15169,0.25293l0.00618,0.11254c0.12927,0.29952 0.25832,0.5992 0.38719,0.89902c0.02058,-0.08307 0.04131,-0.16614 0.06211,-0.2492c1.06192,1.78217 1.90407,3.2278 2.14313,3.62935c0.15352,0.25788 0.30565,0.51659 0.45642,0.77608l0.82461,-0.29876c0.77187,-0.43856 1.5869,-1.61702 2.3457,-1.83152c1.71931,4.0517 3.38528,8.12912 5.30466,12.08533c0.09473,0.26458 0.18944,0.52915 0.2842,0.79366c0.06662,0.06335 0.13323,0.12672 0.19978,0.19013c0.17738,0.35546 0.35704,0.70985 0.53919,1.06302c0.00611,0.12899 0.01167,0.25801 0.01672,0.38706l-0.14488,0.05875c0.05397,0.14935 0.10803,0.29865 0.16219,0.44792c0.0209,0.71068 0.0282,1.42235 0.0294,2.13447l0.61745,-0.37008c0.71733,1.9331 1.46327,3.85506 2.27532,5.75304l0.94278,-2.25385c0.06969,0.08573 0.1402,0.17095 0.21142,0.25569c0.2247,0.58365 0.44172,1.17214 0.63531,1.75091c0.13216,0.81829 0.2592,1.63782 0.44517,2.43143c0.10986,0.4688 0.21799,0.93801 0.32496,1.40749c-0.00022,0.00714 -0.00044,0.01426 -0.00069,0.02137c-0.01635,0.47278 -0.05266,0.94357 -0.10402,1.41286l0.38748,-0.18202c0.67411,3.00771 1.32006,6.02213 2.08066,9.00884l-2.07205,0.85407l2.34652,3.9394c-0.54993,1.14249 -1.1225,2.27858 -1.60434,3.44031c0.39079,0.1657 0.77736,0.33497 1.11665,0.54418c-0.60866,0.03015 -1.25417,-0.01994 -1.83286,0.07548l-0.70696,0.09596l0.33626,0.43371c0.1988,0.94845 0.37606,1.88649 0.52945,2.8156l1.55017,3.28791l-0.25334,0.72422c-0.28666,-0.33917 -0.5824,-0.67183 -0.88292,-1.00107c0.0254,0.23471 0.04905,0.46893 0.07091,0.7027c0.37422,0.00851 0.6846,0.12852 0.87403,0.45977c0.05074,0.08872 -0.08906,1.14074 -0.29409,2.48324l-0.4025,-0.04228c0.00856,0.31331 0.01351,0.62597 0.01476,0.93803c0.01163,0.02391 0.02322,0.04785 0.03478,0.07178c-0.01141,0.02793 -0.0229,0.05585 -0.03446,0.08375c0.00002,0.52772 -0.01062,1.05379 -0.03238,1.5785c-0.07789,0.47342 -0.15456,0.93398 -0.22564,1.35806l0.14562,-0.02135c-0.12415,1.58075 -0.35383,3.15158 -0.70222,4.72105c-1.35902,2.36661 -3.35042,3.92577 -5.83031,5.78211c-0.19195,0.39712 -0.40863,0.73215 -0.653,0.98256c-2.47166,2.5327 -4.37297,3.69161 -6.15291,3.33017c0.98372,-1.25499 1.75028,-2.67713 2.45092,-4.11923c-0.62697,0.47058 -1.228,0.81995 -1.80372,1.06222c0.73831,-0.5207 1.45486,-1.08956 2.11173,-1.70496c0.21174,-0.44697 0.4193,-0.89376 0.6272,-1.33601c0.02088,-0.04442 0.04162,-0.08881 0.06222,-0.1332l-0.2514,-1.07495c-0.7473,0.75537 -1.50662,1.50347 -2.16987,2.30973c-0.86649,-0.34656 -1.80852,-0.57594 -2.73744,-0.82566c-0.1527,1.10062 -0.34217,2.14465 -0.61462,3.09184c-0.15573,-0.03528 -0.30895,-0.07894 -0.45968,-0.13052c-0.08588,0.23095 -0.18073,0.45164 -0.28447,0.66049c-0.26482,-0.32218 -0.53268,-0.67948 -0.80506,-1.07238c-0.50627,1.24354 -1.01347,2.60745 -2.19383,3.02272c-0.04819,0.01696 -0.09649,0.03314 -0.1449,0.04859c0.40242,0.10894 0.80167,0.25394 1.20396,0.3065c-1.13088,0.88307 -2.536,1.52657 -3.99361,1.96456c-0.30691,-0.02027 -0.62716,-0.05358 -0.96139,-0.10048c-0.32014,-0.04493 -0.63267,-0.10482 -0.93714,-0.17874zM348.81499,37.40923c-0.01672,0.03366 -0.03367,0.06701 -0.05085,0.10005c-0.44667,0.85902 -1.1013,1.59031 -1.88897,2.20537c0.17397,0.02273 0.34852,0.02817 0.52413,0.00593c0.54639,-0.06919 0.86894,-0.68961 1.3613,-0.93642c0.02298,-0.01152 0.04601,-0.02309 0.06908,-0.03472c-1.03055,1.95711 -2.77715,3.13922 -5.94812,2.92977c-1.77778,0.53419 -3.63362,0.76267 -5.16521,0.74724c-1.70944,-0.01722 -3.6033,0.28509 -5.09996,-0.54105c-0.06159,-0.034 -0.1229,-0.06875 -0.18389,-0.10424c-1.7332,0.87765 -3.69416,1.40764 -5.68005,1.586c-0.11116,0.19884 -0.24542,0.38779 -0.40488,0.56521c0.81881,0.18317 1.5792,0.6987 2.42015,0.74167c2.58248,0.13196 6.02157,-0.83682 8.73504,-0.89111c1.43176,0.26485 2.93301,0.14706 4.36686,-0.10624c1.93974,-0.34267 5.11324,-0.26358 6.84982,-1.26564c1.28628,-0.74222 2.30786,-1.7085 3.16468,-2.80159c-0.75407,-0.15312 -1.48636,-0.57912 -2.231,-1.28912c0.94151,-0.50722 1.92788,-1.09766 2.8782,-1.76789c-1.07808,0.45367 -2.06742,0.53176 -2.97218,0.3268c-0.09997,0.34755 -0.21111,0.68206 -0.33571,1.00155c-0.13547,-0.14786 -0.27154,-0.30503 -0.40844,-0.47158zM310.72752,35.98481l1.75433,-1.12803c-0.48112,-1.08715 -0.93719,-2.2503 -1.34515,-3.4635c-0.35651,2.12476 -0.763,4.25082 -1.2184,6.3804c1.10802,0.10507 2.1755,0.20856 3.15868,0.33499c0.4803,0.20182 0.92608,0.3836 1.34444,0.54715c-0.0472,-0.08206 -0.09368,-0.16347 -0.13943,-0.24415c-1.1833,-0.75828 -2.35335,-1.60499 -3.55447,-2.42686zM325.20362,6.7362c-0.07413,-0.37642 -0.14531,-0.75477 -0.21342,-1.13523c-0.02531,-0.14139 -0.05278,-0.30078 -0.08178,-0.47608c-0.05765,1.65603 -0.10638,3.32126 -0.12996,4.98988c0.0712,0.08165 0.14154,0.16457 0.21102,0.24871c-0.00035,-1.16216 0.06597,-2.38992 0.21415,-3.62727zM357.14384,6.96112c0.00946,0.02307 0.01894,0.04614 0.02843,0.06919c0.03256,0.13316 0.06524,0.26634 0.09801,0.39952c0.01572,0.05927 0.03135,0.11857 0.04688,0.17789c0.0836,-0.09705 0.1672,-0.1941 0.25072,-0.2912c0.31829,1.59262 0.91098,3.39446 0.87544,4.9976c0.0408,0.18461 0.08095,0.36934 0.12035,0.55418l0.60008,-0.20016c0.06053,0.05598 0.1243,0.1098 0.19035,0.16211c0.0265,-0.13429 0.05482,-0.26815 0.08511,-0.40155c0.06725,0.19944 0.1285,0.39896 0.18086,0.59864c0.40751,0.28686 0.84912,0.55111 1.13556,0.91826c0.22354,-0.28385 0.45083,-0.56554 0.67853,-0.84698c-0.33465,-0.44087 -0.64932,-0.89605 -0.93564,-1.37156c-0.28128,-0.46715 -0.33044,-1.01198 -0.32726,-1.57431c0.18727,-0.47835 0.38607,-0.95201 0.59327,-1.42228l0.20435,0.05315c-0.00829,-0.1524 -0.01627,-0.30481 -0.02397,-0.45721c0.10215,-0.22598 0.20604,-0.45124 0.31133,-0.67595l1.17305,1.513l1.3687,0.35597c0.26491,0.17125 0.56173,0.31555 0.86868,0.45128l-2.99261,-3.196c0.6311,-1.30223 1.29373,-2.59168 1.91803,-3.89667c-0.84491,-0.33323 -1.87715,-0.47545 -2.29943,-1.23963c-0.06211,-0.1124 -0.14085,-0.39936 -0.22989,-0.80595l0.04413,3.318c-0.1087,-0.10747 -0.21801,-0.21442 -0.32783,-0.3209c-0.00223,-0.07944 -0.00443,-0.15889 -0.00663,-0.23833c-0.00521,0.07216 -0.01052,0.14433 -0.01591,0.2165c-0.62042,-0.6008 -1.25737,-1.18699 -1.8985,-1.76947c-0.02253,-0.0929 -0.045,-0.18583 -0.0674,-0.27877l-0.11397,0.11417c-0.83207,-0.75439 -1.6692,-1.5043 -2.48447,-2.27355c0.15787,0.75382 0.31761,1.5073 0.47989,2.26031c-0.20672,-0.08382 -0.41436,-0.1666 -0.62008,-0.25155c0.53524,1.54586 0.97961,3.08946 1.30233,4.6164l-0.63214,-0.72607c0.14678,0.48523 0.28742,0.97265 0.42164,1.46196zM344.13389,-20.9572c0.07455,0.07243 0.14862,0.14332 0.22222,0.21237c0.65951,0.61869 1.15534,1.37437 1.59741,2.17291c-0.16936,-0.43224 -0.33797,-0.8552 -0.5065,-1.26646c-0.64295,-1.2131 -1.2885,-2.42373 -1.66441,-3.72241c-0.24661,-0.49153 -0.49516,-0.98209 -0.74562,-1.47164c-0.18657,-0.65239 -0.37845,-1.30339 -0.57616,-1.95285c-0.61727,-1.47734 -1.2349,-2.95066 -1.85715,-4.41934c0.08978,0.72797 0.16865,1.46048 0.23706,2.19579c-1.60173,-2.96477 -3.27474,-5.89177 -5.01713,-8.78c-0.14906,-0.2099 -0.29802,-0.41987 -0.44688,-0.6299c0.01246,0.07551 0.02529,0.15093 0.03853,0.22622l-3.452,-1.31497c0.52558,1.76574 0.92311,3.61018 1.21472,5.49956c-0.56217,-0.91653 -1.15037,-1.81792 -1.74486,-2.7135c-0.26822,-1.11115 -0.5623,-2.21754 -0.88256,-3.32419l-0.96163,-0.36631c0.1343,0.45278 0.25229,1.04737 0.35596,1.73922c-0.10862,-0.12761 -0.21713,-0.25523 -0.32445,-0.38357c0.22375,1.10365 0.43543,2.20999 0.64739,3.31624c0.09228,1.11992 0.16461,2.31043 0.2213,3.47451c0.03071,-0.11518 0.0607,-0.23047 0.08989,-0.34588l0.33298,0.16291c0.28158,1.38261 0.58285,2.76066 0.92811,4.12856c0.41365,0.96985 0.84918,1.92906 1.30242,2.87553l0.10149,-0.07774c-0.18203,-2.11244 -0.44148,-4.15889 -0.78011,-6.16706l1.07283,0.5249c0.19411,1.94814 0.29106,3.9251 0.31377,5.89591c0.63561,0.62686 1.37049,1.19506 1.68033,2.01442c0.01511,0.03996 0.02994,0.07999 0.04451,0.1201c0.48838,-0.4844 1.08675,-0.87406 1.81588,-1.13832c-0.56733,-2.08199 -1.27928,-4.1223 -2.20907,-6.08707l2.16431,1.05892c1.14129,1.59738 2.47607,3.38369 3.8018,5.27927c0.00482,0.15219 0.00923,0.30434 0.01325,0.45643c0.2341,0.1738 0.4645,0.36368 0.69125,0.56365c1.00793,1.4795 1.98944,3.0148 2.85358,4.57011c-0.18556,-0.77681 -0.3761,-1.55232 -0.57247,-2.32631zM357.51893,7.06085c-0.05068,-0.27791 -0.10561,-0.55647 -0.1646,-0.83558l0.34728,0.39889c-0.34716,-1.57679 -0.68294,-3.15614 -1.02322,-4.73442c-0.00211,-0.00977 -0.00421,-0.01955 -0.00632,-0.02932c0.47727,0.19354 0.94959,0.39267 1.38183,0.63709l0.62274,-0.62385c0.06048,0.05484 0.12094,0.10971 0.18137,0.1646c0.19109,0.7878 0.38715,1.57438 0.59012,2.35926l1.15886,1.23763c0.05204,-0.60923 0.104,-1.21845 0.14952,-1.82742c0.00752,0.00727 0.01503,0.01455 0.02254,0.02183c0.01923,0.68584 0.03973,1.37156 0.06356,2.05721l0.83143,0.88794c-0.14111,0.29116 -0.28064,0.58298 -0.41782,0.87575l-0.36417,-0.46972c0.01606,0.3819 0.03356,0.76378 0.05284,1.14567c-0.06077,0.13443 -0.12093,0.26911 -0.18039,0.40407l-0.38601,-0.10039c0.03724,-0.64382 0.08606,-1.28809 0.13893,-1.93252l-1.18429,-1.5275c-0.4456,0.58645 -0.91877,1.15575 -1.3999,1.7201l2.25523,2.59032c-0.00651,0.22435 -0.01597,0.44968 -0.01723,0.67228c-0.12048,0.30773 -0.23618,0.6174 -0.34628,0.92935c-0.15611,0.44236 -0.28246,0.89177 -0.38576,1.34659c-0.36738,-1.08957 -0.91372,-2.17659 -1.16726,-3.27254c-0.16216,-0.70096 -0.32038,-1.40282 -0.47606,-2.10526c-0.07588,0.08862 -0.1519,0.17715 -0.22801,0.26563c-0.01716,-0.08586 -0.03352,-0.17111 -0.04894,-0.2557zM346.39605,-17.4285c0.09528,0.58813 0.1856,1.18063 0.27138,1.77768c-0.0257,0.38266 -0.02314,0.77447 -0.00583,1.17105c0.28649,0.76511 0.52554,1.52743 0.70649,2.28275c0.34175,0.55847 0.65663,1.13166 0.94558,1.6923c0.52633,0.41244 1.02532,0.91285 1.49203,1.46064c-1.28284,-2.6968 -2.3704,-5.67287 -3.40966,-8.38442zM317.65586,-40.2396c-0.00235,-0.05923 -0.00518,-0.1187 -0.00841,-0.17839c0.03619,0.21779 0.06475,0.39884 0.08467,0.53662c0.14189,0.98153 0.39819,1.98011 0.6296,2.9791c0.04596,-0.18096 0.09724,-0.36086 0.1544,-0.5396c0.3819,-1.19421 0.95833,-2.30215 1.61433,-3.37479c-0.89361,-0.27788 -1.78827,-0.80632 -2.65234,-1.36544c-0.09365,-0.81467 -0.18571,-1.63753 -0.1765,-2.42942c-0.09031,0.25426 -0.18752,0.49947 -0.2912,0.73571c0.11024,0.56189 0.21244,1.09707 0.30376,1.58707c-0.28147,-0.18397 -0.55946,-0.36973 -0.83285,-0.54958c-0.17344,0.29461 -0.35847,0.57155 -0.55387,0.83106c0.79486,1.40014 1.20779,3.03741 1.88967,4.5077c0.10002,0.37205 0.19951,0.74532 0.29833,1.11975c-0.24715,-1.59082 -0.42479,-2.98519 -0.45959,-3.85979zM317.65658,-46.675c0.09507,-0.2407 0.21271,-0.47357 0.35694,-0.69703c0.25917,-0.40156 0.51973,-0.76043 0.78116,-1.0795c-0.35009,-0.35592 -0.68087,-0.77586 -0.90604,-1.06636c-0.35085,-0.45266 -0.68016,-0.88387 -1.01212,-1.29357c0.4525,1.45297 0.75052,2.95248 0.78006,4.13647zM303.95967,-6.84918c0.13363,-1.31278 0.39004,-2.53513 0.85278,-3.4655c0.22808,-0.45858 0.46374,-0.91309 0.70545,-1.36434c0.14558,1.02572 0.29884,2.05028 0.46454,3.07249c0.22702,-0.18213 0.45468,-0.36379 0.68064,-0.54669l-0.99291,-1.8249c-0.02239,-0.28664 -0.04462,-0.57333 -0.06669,-0.86008c0.25189,-0.46674 0.5101,-0.93007 0.77296,-1.39091c-0.35319,-1.12989 -0.72681,-2.25289 -1.12525,-3.36702c-0.08481,-1.18955 -0.16737,-2.37978 -0.24804,-3.57051c-0.09933,0.70302 -0.19603,1.4064 -0.29086,2.11002c-0.00007,-0.00017 -0.00013,-0.00033 -0.0002,-0.0005c0.00003,0.0004 0.00007,0.00079 0.0001,0.0012c-0.08031,0.59594 -0.15927,1.19205 -0.23731,1.78823c-0.44886,3.42905 -0.88639,6.85777 -1.294,10.28856c0.24051,-0.30389 0.50215,-0.59241 0.77878,-0.87005zM309.02335,29.09414c-0.60861,1.45448 -1.32284,2.65171 -2.16298,3.31862c-0.77068,0.61177 -1.47866,1.07324 -2.12926,1.40376c0.68795,0.75792 1.9153,1.90094 2.69398,1.28402c2.07177,-1.64137 2.74831,-3.05286 3.2228,-5.26719c-0.23145,-0.79694 -0.43942,-1.60975 -0.61794,-2.43173c-0.25754,0.58682 -0.57349,1.14201 -0.97314,1.65045c-0.01109,0.0141 -0.02224,0.02812 -0.03346,0.04206zM297.04352,-17.28009c0.01905,-0.14542 0.03791,-0.2909 0.0566,-0.4364c-0.10345,-0.57668 -0.21097,-1.15501 -0.30206,-1.73237c-0.58659,-0.25606 -1.19837,-0.64225 -1.83825,-1.16598c-0.24157,1.58181 -0.45209,3.16513 -0.61721,4.74953l2.09272,3.19283c0.20335,-1.53788 0.4073,-3.07386 0.6082,-4.60761zM312.95869,-31.83934c0.09402,0.29653 0.18834,0.59351 0.28346,0.88968c0.09899,0.30819 0.2035,0.77033 0.31056,1.34472c0.19143,-0.95458 0.39753,-1.90754 0.55417,-2.86628l-0.93479,-0.00899c-0.09999,-0.02169 -0.20867,-0.0326 -0.3221,-0.0376c0.03519,0.22634 0.07137,0.4525 0.1087,0.67846zM318.44391,28.85781c-0.03078,0.15609 -0.06152,0.31258 -0.0924,0.46937c0.26448,0.77342 0.56433,1.53738 0.89476,2.29043c0.08733,0.01289 0.17489,0.02539 0.26254,0.03776c-0.26341,-1.0101 -0.49819,-2.02321 -0.70694,-3.03921c-0.11339,0.04751 -0.22578,0.09269 -0.33719,0.13559c-0.00687,0.03535 -0.0138,0.07071 -0.02077,0.10606zM292.13402,11.79495c-0.034,0.028 -0.06808,0.05369 -0.10226,0.07698c-0.23058,0.15716 -0.45645,0.30666 -0.67771,0.44861c-0.0277,0.3506 -0.04905,0.68096 -0.06303,0.98685c0.17729,0.90384 0.38799,1.8093 0.62811,2.72532c0.09271,-1.34693 0.23612,-2.6938 0.21771,-4.04224c-0.00089,-0.06511 -0.00182,-0.13028 -0.00281,-0.19552zM304.63774,-25.75035c-0.0909,0.25025 -0.18947,0.49464 -0.29616,0.73259c-0.0851,0.18979 -0.17064,0.37554 -0.25665,0.55714c0.07715,0.45979 0.11334,0.93876 0.18372,1.37198c0.01933,0.11898 0.03748,0.2381 0.05457,0.35736c0.15366,-0.16497 0.31381,-0.31 0.48077,-0.43259c-0.05622,-0.862 -0.11159,-1.72419 -0.16625,-2.58649zM319.91091,-50.2177c-0.28201,-0.37496 -0.59496,-0.74171 -0.912,-1.10933c0.22037,0.40205 0.41799,0.7885 0.59053,1.14545c0.15252,0.16343 0.30117,0.33758 0.4301,0.51868c0.06713,-0.05164 0.13426,-0.10097 0.2014,-0.14805c-0.10406,-0.13474 -0.20742,-0.27031 -0.31003,-0.40675zM360.3305,9.64363l-0.14204,-0.16314c0.00889,-0.30654 0.01228,-0.61123 -0.01828,-0.90457l0.20831,0.05418c-0.01955,0.33798 -0.03591,0.67584 -0.04799,1.01353zM346.64063,-17.40185c-0.11894,-0.28702 -0.24741,-0.57078 -0.38217,-0.85238c0.0214,0.1249 0.04255,0.25 0.06348,0.37529c0.20813,0.40374 0.41079,0.81139 0.62131,1.21153c-0.10038,-0.24499 -0.20125,-0.4898 -0.30262,-0.73444zM290.00558,27.7744c0.14594,0.10893 0.28919,0.22188 0.42944,0.33933c0.02981,0.02497 0.05921,0.05025 0.08821,0.07583c0.09671,0.24384 0.19507,0.48691 0.29449,0.72926c0.24115,0.24777 0.48407,0.49906 0.72908,0.75213c0.02478,-0.02854 0.04909,-0.05753 0.07293,-0.08696c0.06374,0.1146 0.12441,0.23151 0.18239,0.35047c0.70164,0.72326 1.42118,1.45608 2.16644,2.15842c-0.01833,-0.19502 -0.0361,-0.39006 -0.0533,-0.58511c-0.63857,-1.21687 -1.11838,-2.31757 -1.50315,-3.38085c0.09128,-0.23538 0.17473,-0.4759 0.25491,-0.71632c-0.15503,0.05034 -0.30738,0.09545 -0.45712,0.13549c-0.15803,-0.47225 -0.29927,-0.93986 -0.42949,-1.40996c-0.70284,-0.09782 -1.40168,-0.18288 -2.07184,-0.17643c0.20188,0.61637 0.42445,1.22706 0.65901,1.83281c-0.12291,-0.00197 -0.24357,-0.00805 -0.362,-0.0181zM309.85496,42.56523c2.44434,0.32789 5.2117,2.33113 7.78621,2.08331c0.40176,-0.03868 0.80349,-0.08687 1.2052,-0.14035c-1.58997,-1.32922 -3.17926,-3.70277 -4.35101,-5.7243c-1.73509,2.08757 -3.90859,3.5574 -6.50489,3.83454c-0.01155,0.02192 -0.0231,0.04385 -0.03463,0.06579c0.63512,-0.08801 1.26987,-0.2034 1.89912,-0.11899zM301.11324,-49.83434c-0.11479,-0.41929 -0.26069,-0.80464 -0.44727,-1.13515c-0.08813,-0.15612 -0.04805,0.10713 -0.01743,0.39648l0.46471,0.73866zM299.26149,-34.2348c0.02368,0.63365 0.04806,1.26728 0.07251,1.9009c0.24268,-1.20899 0.60754,-2.35629 1.29936,-3.32197c-0.47038,-0.12131 -0.92698,-0.27993 -1.35799,-0.47275c-0.003,0.61835 -0.00658,1.24802 -0.01388,1.89382zM300.94246,28.73262c0.21191,0.39213 0.44014,0.77508 0.68162,1.15002l-0.72935,-2.21766c0.01087,0.35135 0.0242,0.70268 0.04021,1.05371c0.0025,0.00464 0.00501,0.00928 0.00752,0.01393zM304.86335,-16.56922c-0.06411,-0.49394 -0.1117,-0.98984 -0.15115,-1.48668c0.00002,-0.00024 0.00006,-0.00047 0.00009,-0.00071c0.18466,0.48501 0.36418,0.97189 0.53891,1.46049c0.11317,1.58733 0.23032,3.17345 0.35228,4.75793c-0.02861,0.05301 -0.05714,0.10608 -0.08558,0.15918c-0.23117,-1.62875 -0.443,-3.26041 -0.65455,-4.89022zM305.95492,-26.2922c-0.15884,0.92051 -0.30949,1.84242 -0.4536,2.76539c0.42388,-0.14489 0.82771,-0.25898 1.21243,-0.34426c-0.18933,-0.9698 -0.42369,-2.10225 -0.59071,-3.26769c-0.06214,0.28121 -0.11923,0.56323 -0.16812,0.84656zM301.47017,34.38211c0.11408,0.75059 0.24701,1.49305 0.40116,2.22466c0.0037,0.01755 0.00758,0.03507 0.01163,0.05254c0.21748,0.05223 0.43771,0.1019 0.66027,0.1492c0.17099,-0.79656 0.33503,-1.59298 0.49202,-2.38934c-0.57814,0.10595 -1.09775,0.08596 -1.56508,-0.03707zM314.72271,20.35597c0.03217,0.12568 0.06474,0.25124 0.09784,0.37667c0.09258,0.35081 -0.03394,0.96339 0.32066,1.04017c0.62305,0.13491 1.42568,-0.07791 1.8237,-0.57587c0.03771,-0.04718 0.07367,-0.09537 0.108,-0.14451c-0.07286,1.65956 0.06582,3.30075 0.37663,4.9117c0.02273,-0.02442 0.04544,-0.0488 0.06811,-0.07316c0.20126,-0.30791 0.41803,-0.60258 0.64987,-0.88171c-0.24911,-1.68712 -0.43576,-3.38169 -0.57164,-5.08314c0.18611,-0.59508 0.29814,-1.23034 0.47678,-1.82085c0.35399,-1.17019 0.67281,-2.35081 0.9628,-3.53912c-0.1804,-0.08691 -0.36038,-0.04849 -0.53411,0.16916c-0.64507,0.80812 -0.89998,1.84354 -1.05849,2.90148c-0.05222,-0.9611 -0.09001,-1.9243 -0.11545,-2.88949c-0.74045,2.73254 -1.61989,4.99618 -2.60471,5.60868zM325.56754,-23.32904c0.04021,1.42511 0.12443,2.84735 0.29008,4.26223c0.02415,0.2063 0.09357,0.55523 0.18608,1.00514c0.0771,-1.22176 0.13872,-2.4441 0.15168,-3.66758c-0.21709,-0.52861 -0.42636,-1.06184 -0.62784,-1.5998zM334.67233,-31.58609c0.17691,0.33983 0.34671,0.68217 0.50982,1.02684l-1.64542,-0.80504c-0.09527,-0.9562 -0.21396,-1.90545 -0.35876,-2.84362c0.52633,0.8581 1.02985,1.72949 1.49437,2.62181zM331.17067,-37.31591c0.08757,0.13139 0.17507,0.26288 0.26244,0.39449c0.40101,1.66118 0.74425,3.33299 1.03078,5.03222l-1.55191,-0.75929c-0.22305,-1.09523 -0.43374,-2.19333 -0.64416,-3.29154c-0.08818,-1.07022 -0.19457,-2.076 -0.32294,-2.93267c0.42952,0.5046 0.86065,1.00895 1.2258,1.5568zM351.19448,23.09239c-0.14228,-0.31366 -0.19134,-0.71468 -0.25859,-1.04185c-0.37151,-1.80743 -0.52546,-3.65403 -0.80755,-5.47749c-0.15168,-0.05466 -0.30328,-0.11283 -0.45469,-0.17428c0.40217,2.48384 0.89267,4.94867 1.50915,7.33746c0.00436,-0.2151 0.00828,-0.4297 0.01167,-0.64383zM336.91726,14.89533c0.28251,1.0502 0.55961,2.10949 0.89308,3.14719c-0.16324,-0.71531 -0.33037,-1.43036 -0.50301,-2.14431c-0.10983,-0.40347 -0.22167,-0.8062 -0.33554,-1.20822c-0.04548,-0.03684 -0.0911,-0.07268 -0.13687,-0.10748c0.02692,0.10454 0.05437,0.20882 0.08234,0.31282zM320.79224,18.03163c-0.36547,-0.95724 -1.02507,-2.99457 -1.68886,-3.42695c0.20033,3.14933 0.2543,6.30111 -0.0009,9.43885c0.87964,-0.77564 1.9152,-1.35449 3.09184,-1.65664c-0.38375,-1.47646 -0.85838,-2.93118 -1.40208,-4.35526zM317.22925,19.30054c0.07315,-0.54079 0.12996,-1.1054 0.21362,-1.66375c0.04153,0.76446 0.09219,1.52759 0.15302,2.28934c-0.1259,0.40259 -0.28571,0.78679 -0.52298,1.12631c0.02554,-0.58188 0.07709,-1.16602 0.15633,-1.7519zM323.9558,30.10654c-0.19137,0.1481 -0.42454,0.33895 -0.70532,0.57722c-0.08241,0.09032 -0.1796,0.19385 -0.28658,0.3076c-0.27326,0.47844 -0.03336,1.21632 0.29538,1.93331c0.28754,-0.72756 0.65435,-1.43688 0.94685,-2.00471c-0.08801,-0.26931 -0.1712,-0.54057 -0.25034,-0.81342zM325.2747,22.17174c0.09497,-0.00752 0.18973,-0.01366 0.28425,-0.01829c-0.14121,-0.31232 -0.27221,-0.63794 -0.39229,-0.977c0.03351,0.33215 0.06948,0.66393 0.10804,0.99528zM327.99863,9.69412c0.14151,-0.15016 0.2812,-0.30336 0.42074,-0.45681c-0.07198,-1.00902 -0.11545,-2.02167 -0.13284,-3.03419c-0.0062,-0.01867 -0.01243,-0.03742 -0.01869,-0.05623c-0.13931,0.98098 -0.26701,1.93032 -0.39601,2.8589c0.04173,0.22963 0.08402,0.45908 0.1268,0.68833zM349.65313,38.32033c-0.27913,0.15037 -0.55431,0.29343 -0.82345,0.42909c0.14471,-0.27483 0.27531,-0.56494 0.39375,-0.86863c0.14385,0.15699 0.287,0.30348 0.4297,0.43954zM330.78044,40.57399c-0.56152,-0.5039 -1.07168,-1.07112 -1.51118,-1.68211c-0.04184,0.02111 -0.08387,0.04195 -0.12608,0.06254c-0.30903,0.51076 -0.65275,0.98987 -1.03525,1.42299c1.01445,0.12317 1.97852,0.22047 2.67251,0.19658zM327.03984,40.24343c0.13381,0.01696 0.26806,0.03404 0.40227,0.05104c-0.13867,-0.04377 -0.2792,-0.08948 -0.42121,-0.13721c0.00648,0.02875 0.01279,0.05747 0.01893,0.08616zM315.07788,38.9057c-0.00004,-0.00006 -0.00008,-0.00012 -0.00013,-0.00019c-0.15178,-0.09084 -0.30318,-0.18353 -0.4543,-0.27783c-0.02193,0.02711 -0.04394,0.05412 -0.06602,0.08104c0.17827,0.06898 0.35156,0.13459 0.52045,0.19698zM341.85277,-23.20099c-0.23379,-0.34318 -0.46901,-0.68335 -0.70451,-1.02008c-0.05269,-1.66377 -0.15359,-3.33288 -0.30753,-4.98776c0.74768,1.38394 1.47983,2.7761 2.19625,4.17641c0.38688,1.35283 0.75094,2.71166 1.0969,4.07523c-0.71613,-0.69581 -1.47561,-1.53345 -2.2811,-2.2438zM351.07941,16.86762c-0.13027,-0.03348 -0.26067,-0.06994 -0.39113,-0.10921c0.14705,0.35912 0.29528,0.71857 0.44478,1.0785c-0.01524,-0.32335 -0.03304,-0.6464 -0.05365,-0.96929zM317.31417,-42.28874c0.05452,0.03563 0.10917,0.07119 0.16394,0.10663c0.0687,0.59759 0.13826,1.19079 0.16934,1.76411c-0.07856,-0.47271 -0.19309,-1.11851 -0.33328,-1.87074zM303.4327,32.32c0.01374,-0.07574 0.02742,-0.15147 0.04104,-0.22721c-0.05637,0.02396 -0.11252,0.04818 -0.16842,0.0727c0.04231,0.05163 0.08477,0.10312 0.12737,0.15451zM294.33989,36.48203c0.0022,0.00307 0.00439,0.00613 0.0066,0.00919c-0.00042,-0.004 -0.00084,-0.00799 -0.00125,-0.01199c-0.00178,0.00094 -0.00356,0.00188 -0.00534,0.00281zM316.61334,-55.02166c0.05273,0.12779 0.10574,0.25513 0.15917,0.3819c0.02936,0.03475 0.05858,0.06967 0.08767,0.10475c-0.03605,-0.11343 -0.06749,-0.22858 -0.09388,-0.34558c-0.05094,-0.04709 -0.10193,-0.09411 -0.15295,-0.14106zM313.28709,-45.44805c0.01238,0.09237 0.0247,0.18473 0.03698,0.27708c0.06203,0.06079 0.12426,0.12281 0.1867,0.18605c-0.02254,-0.09472 -0.0459,-0.18921 -0.07014,-0.28347c-0.05146,-0.05917 -0.10263,-0.11907 -0.15353,-0.17966zM298.31663,-8.74502c-0.1189,-0.78477 -0.23036,-1.56823 -0.3357,-2.34849c-0.03145,0.61456 -0.02742,1.24121 -0.02917,1.86664c0.12664,0.15506 0.24814,0.31598 0.36487,0.48185zM292.4121,28.12693c-0.20643,0.5323 -0.45295,1.03827 -0.79237,1.45708c-0.28999,-0.52138 -0.6435,-0.99474 -1.0965,-1.39443c-0.0524,-0.13212 -0.10431,-0.26447 -0.15565,-0.39706c0.56509,0.00905 1.17788,-0.06874 1.84233,-0.24642c0.06447,0.19268 0.13174,0.38613 0.2022,0.58083zM297.29136,-33.27333c0.01015,0.0118 0.02027,0.0236 0.03038,0.03543c0.00093,-0.06874 0.00185,-0.13746 0.00275,-0.20617c-0.01104,0.05691 -0.02208,0.11382 -0.03313,0.17074zM314.17146,-40.3031c-0.05901,0.04103 -0.11845,0.08106 -0.17829,0.12009c0.10879,0.75251 0.22409,1.50349 0.35019,2.25257c-0.03904,-0.79211 -0.10006,-1.5836 -0.1719,-2.37266zM346.56797,-36.69955c0.23334,-0.93179 0.47647,-1.86315 0.63693,-2.79806c-0.4055,-0.08554 -0.81254,-0.16741 -1.21825,-0.25245l0.12584,2.28814c0.1554,0.25938 0.30757,0.51414 0.45548,0.76237zM348.45346,6.56876c0.15929,0.13836 0.32404,0.28005 0.49487,0.42593c-0.18104,-0.35669 -0.36683,-0.71119 -0.55562,-1.06432c0.01997,0.21234 0.04022,0.42514 0.06075,0.63839zM349.16959,12.95369c0.17035,0.43794 0.3421,0.8756 0.51539,1.31325c-0.21535,-0.96528 -0.45316,-1.9179 -0.71103,-2.86006c0.06239,0.51495 0.12749,1.03072 0.19564,1.54681z" data-paper-data="{&quot;index&quot;:null}" fill="#f9dfe0"/><path d="M368.33081,13.51138c-0.06271,-1.07368 0.04662,-2.13339 0.16075,-3.19493c-0.4005,-3.24332 -1.138,-6.33497 -2.0505,-9.43811c-0.44774,0.25538 -0.91871,0.52669 -1.28208,0.57987c-1.05263,0.15404 -3.0317,-0.44123 -4.01223,-0.92636c-4.25418,-2.10478 -8.39201,-5.89209 -10.04513,-10.41433c-2.22772,-6.0941 -1.40863,-13.625 -2.23895,-19.97287c-0.53828,-4.11519 -2.91109,-6.54485 -4.25463,-10.19796c-1.37095,-3.72767 -1.64706,-7.41716 -3.59062,-11.04626c-0.77968,-1.45584 -3.60183,-10.26188 -4.3423,-10.66887c-1.12121,-0.61626 -2.45498,0.73242 -3.6454,1.20122c-2.8732,1.1315 -5.97698,2.54467 -9.18914,2.15774c-4.43693,-0.53447 -7.84027,-1.33625 -12.34195,-1.29372c-0.5447,0.00514 -3.74846,-0.75648 -4.23013,-0.32766c-1.85615,1.65247 -1.57218,4.42996 -3.3326,6.13321c-1.887,1.82572 -3.84399,3.43969 -6.16484,4.66361c-0.13223,0.06973 0.13882,2.35476 0.1356,2.50858c-0.02785,1.3324 -0.21364,2.94401 -0.86561,4.12938c-1.86304,3.38726 -4.49025,7.62691 -5.79373,11.40205c-1.53168,4.43606 1.53278,9.73351 -0.0412,13.87149c-0.78953,2.07567 -2.09091,2.74832 -2.96243,4.45105c-0.72598,1.41839 0.18065,3.19404 0.02778,4.78008c-0.10217,1.05993 -1.41092,2.21449 -2.2976,2.99836c-0.33411,0.29538 -0.1837,8.04828 -0.17559,8.98569c0.02888,3.33945 1.25507,6.62035 1.63014,10.21281c0.35841,3.43285 -0.18245,6.75541 1.13844,10.22282c0.59304,1.55677 2.53925,2.71559 3.15043,4.1153c0.35098,0.80382 1.06001,6.13837 1.0418,6.21189c-0.19266,0.77767 -1.44249,0.85056 -1.84039,1.54595c-0.14358,0.25093 0.16139,1.99879 -0.03491,2.40044c-1.87433,3.83497 -5.09314,6.52454 -9.56293,5.32778c-8.13988,-2.17941 -11.44581,-7.766 -13.62805,-15.54635c-0.35682,-1.27215 -0.09874,-4.32677 -0.64263,-5.36304c-2.37892,-4.53255 -2.2576,-9.93953 -2.40213,-14.85258c-0.09062,-3.08017 -0.07112,-11.95582 0.77186,-14.31599c1.79929,-5.03764 4.83448,-10.12236 5.92045,-15.50576c0.82165,-4.07307 0.19167,-7.99073 2.23463,-11.82142c1.79021,-3.35675 5.17117,-5.37655 7.02044,-8.66772c1.60492,-2.85628 1.51317,-6.48651 3.45978,-9.2328c1.60774,-2.26822 2.99507,-5.42649 5.18575,-7.18197c1.09489,-0.87737 3.93438,-1.71492 4.57646,-3.0575c0.87398,-1.82748 1.33754,-3.91207 2.56485,-5.55563c0.8424,-1.12811 3.22479,-2.19024 3.68025,-3.38733c0.64582,-1.69742 -0.73833,-3.57542 0.7718,-5.13673c1.6997,-1.75731 3.88884,-1.56846 5.84142,-2.35598l0.28118,0.12668c4.05547,-1.80011 15.39049,-3.69504 19.81432,-3.29404c4.45673,0.40398 8.87342,2.94247 13.16261,3.94893c4.18369,0.98171 7.55115,-0.26859 12.75695,2.03641c6.61617,2.92947 19.2764,15.99352 21.53927,22.61564c0.39217,1.14764 2.26179,2.06832 2.66822,3.43953c0.81945,2.76472 1.29134,6.7613 2.39933,9.23094c1.02852,2.29251 3.22686,3.80283 4.0586,6.27806c1.05305,3.13387 0.91413,6.61948 1.71374,9.78574c2.23247,8.83998 4.16994,16.25436 3.03528,25.40449c-1.42389,11.48258 1.30629,22.33138 -4.62627,32.74088c-2.4342,4.27115 -3.87645,7.44128 -8.93923,8.5175c-1.13175,0.24059 -2.23997,1.78278 -3.41048,2.15697c-4.25457,1.36011 -9.34965,-1.09567 -9.14263,-6.10511c0.017,-0.41133 0.05494,-0.79031 0.1117,-1.14113c-0.78016,-3.30058 2.27673,-5.44893 2.91893,-8.29811c0.93646,-4.15467 -0.73937,-9.59967 0.91016,-13.52014c0.29606,-0.70365 1.15141,-1.10315 1.37141,-1.83416z" data-paper-data="{&quot;index&quot;:null}" fill="url(#color-1)"/><path d="M350.92383,25.16842c-0.04453,-0.03642 -0.08912,-0.07264 -0.13377,-0.10865l-0.02705,0.03098c0,0 -0.2814,-0.17589 -0.57508,-0.50202c-2.42518,-1.84081 -5.0102,-3.15138 -7.67453,-4.67544c-3.1168,-1.78287 -5.29254,-4.07458 -9.11134,-4.35494c-2.70853,-0.19885 -5.3709,0.81856 -8.06924,1.12624c-3.66223,0.41759 -7.25643,0.68823 -10.50654,2.67997c-3.86159,2.36647 -6.58026,5.85274 -9.71271,8.996c0,0 -1.76778,1.76776 -3.53553,-0.00002c-1.76775,-1.76778 0.00003,-3.53554 0.00003,-3.53554c3.3899,-3.37666 6.38053,-7.16541 10.5707,-9.6831c3.96475,-2.38225 8.15165,-2.90982 12.62276,-3.4257c5.34788,-0.61704 9.17927,-1.85926 14.46548,0.21458c0.30683,0.12038 4.96111,3.18698 5.76438,3.64548c3.17013,1.80947 6.22508,3.40174 9.0788,5.71436l-2.71162,3.10641z" data-paper-data="{&quot;index&quot;:null}" fill="#000000"/><path d="M358.29152,-3.8919c0,5 -5,5 -5,5h-0.47175c-0.94749,0 -6.70838,0.04105 -6.99568,-0.18143c-0.36018,-0.27892 -0.69698,-0.58119 -1.0154,-0.9018l-0.22241,0.37069l-2.28017,-1.3681c-1.49787,-0.86365 -2.5061,-2.48139 -2.5061,-4.33461c0,-2.76142 2.23858,-5 5,-5h2.8305c1.61857,0.0114 3.24431,-0.12656 4.83901,-0.40372c0,0 4.93197,-0.822 5.75396,4.10997c0.12089,0.72535 0.11733,1.3618 0.0233,1.91981c0.02924,0.24815 0.04473,0.51093 0.04473,0.78919z" data-paper-data="{&quot;index&quot;:null}" fill="#00afff"/><path d="M292.81912,-21.90124c0.33956,-2.47684 2.81639,-2.13728 2.81639,-2.13728l3.55803,0.52863c6.51021,2.147 12.68987,1.73952 17.02358,7.74097c0,0 1.42766,2.05226 -0.62461,3.47992c-2.05226,1.42766 -3.47992,-0.62461 -3.47992,-0.62461c-3.11501,-4.73557 -9.48001,-4.2195 -14.47493,-5.84452l-2.68126,-0.32673c0,0 -2.47684,-0.33956 -2.13728,-2.81639z" data-paper-data="{&quot;index&quot;:null}" fill="#000000"/><path d="M358.40111,-18.63614c0.21787,2.49338 -2.76988,2.6752 -2.76988,2.6752l-2.70139,0.15915c-3.13098,0.35364 -6.36604,-0.29534 -9.47644,0.16778c-2.36187,0.35167 -3.92105,2.30905 -5.84153,3.50909c0,0 -2.39915,1.4971 -4.19308,-0.50507c-1.79393,-2.00217 0.60522,-3.49927 0.60522,-3.49927c1.51729,-0.94559 6.19364,-4.02262 7.90543,-4.3403c3.31406,-0.61503 6.81794,0.11275 10.17932,-0.28506l3.08675,-0.19308c0,0 2.98775,-0.18182 3.20561,2.31156z" data-paper-data="{&quot;index&quot;:null}" fill="#000000"/><path d="M358.24094,-48.04973c0.02493,-1.2726 1.2189,-2.02797 1.2189,-2.02797l0.2322,0.16938c0.19365,-0.22165 0.39466,-0.43624 0.60635,-0.64055l0.59157,1.51437l2.87006,2.09355c-1.57662,1.50222 -2.58588,3.56638 -4.2768,4.93867c-0.66211,0.53735 -1.3991,0.94378 -2.17385,1.27625c-0.5781,0.92922 -1.91968,1.22007 -2.73747,1.98533c-1.51267,1.4155 -2.51965,3.37871 -4.21909,4.56349c-2.08046,1.45041 -4.62647,2.10878 -6.79199,3.42882c-3.26812,1.99216 -5.86774,4.87332 -9.11281,7.00727l-0.08195,0.01845l0.01261,0.02229l-2.62815,1.48762c-0.37223,0.22 -0.80645,0.34624 -1.27015,0.34624c-1.38071,0 -2.5,-1.11929 -2.5,-2.5c0,-0.34313 0.06913,-0.67011 0.19422,-0.96778l1.13644,-2.89049l0.02675,0.01052c0.02164,-0.07478 0.04451,-0.1493 0.06871,-0.22355c2.39295,-7.34328 11.97592,-11.26799 18.33971,-14.19837c1.35864,-0.62562 3.17843,-0.99953 4.88854,-1.50511c-0.00643,-0.18583 -0.03735,-0.38347 -0.09604,-0.59548c0,0 -0.13374,-2.49642 2.36268,-2.63016c1.06141,-0.05686 1.69572,0.36174 2.07423,0.86177c0.45438,-0.48265 0.86344,-1.00985 1.26531,-1.54454z" data-paper-data="{&quot;index&quot;:null}" fill="#000000"/><path d="M298.43625,-36.47625c-1.46378,0.46581 -2.57047,-0.84208 -2.57047,-0.84208l-1.41296,-1.67049l-1.21145,-1.48603c-0.42824,-0.2769 -0.86642,-0.55127 -1.31591,-0.82326c0,0 -2.13841,-1.29507 -0.84333,-3.43348c1.29507,-2.13841 3.43348,-0.84333 3.43348,-0.84333c0.12025,0.07289 0.23981,0.14595 0.35869,0.21918c0.48707,0.0724 0.9283,0.28528 1.28116,0.59612l1.06448,0.9276c2.00783,1.37381 3.84007,2.81052 5.61943,4.32644c3.62864,2.46505 7.28535,4.86275 10.48998,7.91376c0.96516,0.9189 2.25974,1.63093 2.87199,2.8002c0.55741,0.39228 1.10363,0.80634 1.62993,1.25697l0.07993,0.40528l0.14973,-0.09323l1.63998,2.63385c0.252,0.39027 0.39827,0.85523 0.39827,1.35435c0,1.38071 -1.11929,2.5 -2.5,2.5c-0.76576,0 -1.4511,-0.34429 -1.90969,-0.88651l-3.07956,-3.59685c-0.31883,-0.23439 -0.62304,-0.48604 -0.91729,-0.74948c-1.98779,-1.27815 -4.06043,-2.36869 -5.84346,-4.0259c-2.18427,-2.03014 -4.18397,-3.92087 -6.26325,-5.70061c-0.38394,-0.25954 -0.76737,-0.52005 -1.14969,-0.78248z" data-paper-data="{&quot;index&quot;:null}" fill="#000000"/></g></g></svg>