<svg version="1.1" xmlns="http://www.w3.org/2000/svg" xmlns:xlink="http://www.w3.org/1999/xlink" width="267.39975" height="208.79205" viewBox="0,0,267.39975,208.79205"><g transform="translate(-202.34012,-99.79375)"><g data-paper-data="{&quot;isPaintingLayer&quot;:true}" fill-rule="nonzero" stroke-linejoin="miter" stroke-miterlimit="10" stroke-dasharray="" stroke-dashoffset="0" style="mix-blend-mode: normal"><path d="M249.39213,180.12847c0,-39.01288 31.62619,-70.63905 70.63907,-70.63905c39.01288,0 70.63907,31.62619 70.63907,70.63907c0,39.01288 -31.62619,70.63907 -70.63907,70.63907c-39.01288,0 -70.63907,-31.62619 -70.63907,-70.63905z" fill="#f2e1d8" stroke="#000000" stroke-width="2" stroke-linecap="butt"/><path d="M380.21823,144.87246c0,0 -9.17382,10.90745 -19.14966,10.97333c-7.01045,0.04628 -13.14235,-11.12483 -22.27477,-9.85261c-5.93257,0.82646 -12.06863,9.0273 -18.09088,9.3367c-5.58062,0.28669 -11.54783,-10.37079 -16.63424,-9.7692c-11.23206,1.32846 -18.43635,11.84517 -24.08739,11.96144c-9.86092,0.20291 -22.15175,-10.13137 -22.15175,-10.13137c0,0 17.01355,-34.94649 61.94476,-38.02083c39.58316,-2.70843 60.44394,35.50254 60.44394,35.50254z" fill="#ff9700" stroke="#000000" stroke-width="2" stroke-linecap="round"/><path d="M307.18794,181.63944c0,10.01384 -5.18638,18.13166 -11.58412,18.13166c-6.39774,0 -11.58412,-8.11782 -11.58412,-18.13166c0,-10.01384 5.18638,-18.13166 11.58412,-18.13166c6.39774,0 11.58412,8.11782 11.58412,18.13166z" fill="none" stroke="#000000" stroke-width="2" stroke-linecap="butt"/><path d="M249.26736,181.13577l33.74503,-1.0073" fill="none" stroke="#000000" stroke-width="2" stroke-linecap="round"/><path d="M344.39618,163.50778c6.39774,0 11.58412,8.11782 11.58412,18.13166c0,10.01384 -5.18638,18.13166 -11.58412,18.13166c-6.39774,0 -11.58412,-8.11782 -11.58412,-18.13166c0,-10.01384 5.18638,-18.13166 11.58412,-18.13166z" data-paper-data="{&quot;index&quot;:null}" fill="none" stroke="#000000" stroke-width="2" stroke-linecap="butt"/><path d="M390.73264,181.13577l-33.74503,-1.0073" data-paper-data="{&quot;index&quot;:null}" fill="none" stroke="#000000" stroke-width="2" stroke-linecap="round"/><path d="M307.18794,180.63212l24.17554,-0.50367" fill="none" stroke="#000000" stroke-width="2" stroke-linecap="round"/><path d="M343.44754,211.81687c0,0 -1.96872,15.0521 -24.87727,15.67928c-19.56687,0.53568 -22.01782,-15.67928 -22.01782,-15.67928" fill="none" stroke="#000000" stroke-width="2" stroke-linecap="round"/><path d="M291.63847,194.24759l-1.00732,-24.67921" fill="none" stroke="#000000" stroke-width="2" stroke-linecap="round"/><path d="M346.7831,193.42715l1.00732,-24.67921" data-paper-data="{&quot;index&quot;:null}" fill="none" stroke="#000000" stroke-width="2" stroke-linecap="round"/><text transform="translate(276.67339,295.68036) scale(0.89003,0.89003)" font-size="40" xml:space="preserve" fill="#ffffff" fill-rule="nonzero" stroke="none" stroke-width="1" stroke-linecap="butt" stroke-linejoin="miter" stroke-miterlimit="10" stroke-dasharray="" stroke-dashoffset="0" font-family="Marker" font-weight="normal" text-anchor="start" style="mix-blend-mode: normal"><tspan x="0" dy="0">BLOG</tspan></text><text transform="translate(204.59012,116.54375) scale(0.5,0.5)" font-size="40" xml:space="preserve" fill="#006bff" fill-rule="nonzero" stroke="none" stroke-width="1" stroke-linecap="butt" stroke-linejoin="miter" stroke-miterlimit="10" stroke-dasharray="" stroke-dashoffset="0" font-family="Marker" font-weight="normal" text-anchor="start" style="mix-blend-mode: normal"><tspan x="0" dy="0">give a 2 brain cell person</tspan><tspan x="0" dy="46.150000000000006px">a keyboard and mouse</tspan><tspan x="0" dy="46.150000000000006px">and watch them create</tspan><tspan x="0" dy="46.150000000000006px">dumb blog posts about</tspan><tspan x="0" dy="46.150000000000006px">dumb scratch projects that</tspan><tspan x="0" dy="46.150000000000006px">i put a lot of effort into</tspan><tspan x="0" dy="46.150000000000006px">and im proud about it</tspan></text></g></g></svg>