<svg version="1.1" xmlns="http://www.w3.org/2000/svg" xmlns:xlink="http://www.w3.org/1999/xlink" width="100.69018" height="72.41815" viewBox="0,0,100.69018,72.41815"><g transform="translate(-253.23187,-150.60564)"><g data-paper-data="{&quot;isPaintingLayer&quot;:true}" fill-rule="nonzero" stroke-linejoin="miter" stroke-miterlimit="10" stroke-dasharray="" stroke-dashoffset="0" style="mix-blend-mode: normal"><text transform="translate(289.38153,192.84972) scale(1.07081,1.07081)" font-size="40" xml:space="preserve" fill="#ffffff" fill-rule="nonzero" stroke="none" stroke-width="1" stroke-linecap="butt" stroke-linejoin="miter" stroke-miterlimit="10" stroke-dasharray="" stroke-dashoffset="0" font-family="Curly" font-weight="normal" text-anchor="start" style="mix-blend-mode: normal"><tspan x="0" dy="0">6/6</tspan></text><text transform="translate(281.06546,214.67856) scale(0.5,0.5)" font-size="40" xml:space="preserve" fill="#ffffff" fill-rule="nonzero" stroke="none" stroke-width="1" stroke-linecap="butt" stroke-linejoin="miter" stroke-miterlimit="10" stroke-dasharray="" stroke-dashoffset="0" font-family="Curly" font-weight="normal" text-anchor="start" style="mix-blend-mode: normal"><tspan x="0" dy="0">congrats</tspan></text><path d="M285.59869,170.43976c0,10.53987 -6.48184,19.08412 -14.47761,19.08412c-7.99576,0 -14.47761,-8.54425 -14.47761,-19.08412c0,-10.53987 6.48184,-19.08412 14.47761,-19.08412c7.99576,0 14.47761,8.54425 14.47761,19.08412z" fill="#fff191" stroke="#000000" stroke-width="1.5" stroke-linecap="butt"/><path d="M253.98188,174.7219l8.27558,-5.7984l9.29545,6.48113l9.16293,-7.10534l6.30227,6.42261c0,0 -0.15125,7.04296 -0.55741,9.77219c-1.91018,12.83569 -8.43762,14.64279 -15.96071,14.64279c-9.1227,0 -16.51812,-7.39541 -16.51812,-16.51811z" fill="#ff9191" stroke="#000000" stroke-width="1.5" stroke-linecap="butt"/><path d="M285.35312,177.1703l-6.382,6.00659l-7.88365,-7.50824l-6.00659,6.382l-9.38529,-7.88365" fill="none" stroke="#ff0000" stroke-width="2" stroke-linecap="round"/><path d="M256.407,185.80477c0,-1.26576 1.02612,-2.29188 2.29188,-2.29188c1.26576,0 2.29188,1.02612 2.29188,2.29188c0,1.26576 -1.02611,2.29188 -2.29188,2.29188c-1.26576,0 -2.29188,-1.02611 -2.29188,-2.29188z" fill="#ff0000" stroke="none" stroke-width="0.5" stroke-linecap="butt"/><path d="M268.79559,189.9343c0,-1.26576 1.02612,-2.29188 2.29188,-2.29188c1.26576,0 2.29188,1.02612 2.29188,2.29188c0,1.26576 -1.02611,2.29188 -2.29188,2.29188c-1.26576,0 -2.29188,-1.02611 -2.29188,-2.29188z" fill="#ff0000" stroke="none" stroke-width="0.5" stroke-linecap="butt"/><path d="M281.18418,186.55558c0,-1.26576 1.02612,-2.29188 2.29188,-2.29188c1.26576,0 2.29188,1.02611 2.29188,2.29188c0,1.26576 -1.02611,2.29188 -2.29188,2.29188c-1.26576,0 -2.29188,-1.02612 -2.29188,-2.29188z" fill="#ff0000" stroke="none" stroke-width="0.5" stroke-linecap="butt"/><path d="M271.12109,170.27715l-5.23359,-5.23359h10.46718z" fill="#ff6100" stroke="#000000" stroke-width="1.5" stroke-linecap="butt"/><path d="M265.13296,160.30543c0,-0.69036 0.55964,-1.25 1.25,-1.25c0.69036,0 1.25,0.55964 1.25,1.25c0,0.69036 -0.55964,1.25 -1.25,1.25c-0.69036,0 -1.25,-0.55964 -1.25,-1.25z" fill="#000000" stroke="#000000" stroke-width="3" stroke-linecap="butt"/><path d="M274.34598,160.30543c0,-0.69036 0.55964,-1.25 1.25,-1.25c0.69036,0 1.25,0.55964 1.25,1.25c0,0.69036 -0.55964,1.25 -1.25,1.25c-0.69036,0 -1.25,-0.55964 -1.25,-1.25z" fill="#000000" stroke="#000000" stroke-width="3" stroke-linecap="butt"/></g></g></svg>