<svg version="1.1" xmlns="http://www.w3.org/2000/svg" xmlns:xlink="http://www.w3.org/1999/xlink" width="303.31163" height="309.69939" viewBox="0,0,303.31163,309.69939"><g transform="translate(-171.04929,-17.17581)"><g data-paper-data="{&quot;isPaintingLayer&quot;:true}" stroke-miterlimit="10" stroke-dasharray="" stroke-dashoffset="0" style="mix-blend-mode: normal"><text transform="translate(176.54598,295.68036) scale(0.7195,0.89003)" font-size="40" xml:space="preserve" fill="#ffffff" fill-rule="nonzero" stroke="#000000" stroke-width="2" stroke-linecap="butt" stroke-linejoin="miter" stroke-miterlimit="10" stroke-dasharray="" stroke-dashoffset="0" font-family="Marker" font-weight="normal" text-anchor="start" style="mix-blend-mode: normal"><tspan x="0" dy="0">Scratch Cloud Clicker</tspan></text><text transform="translate(171.50604,320.48084) scale(0.45674,0.45674)" font-size="40" xml:space="preserve" fill="#ffffff" fill-rule="nonzero" stroke="#000000" stroke-width="2" stroke-linecap="butt" stroke-linejoin="miter" stroke-miterlimit="10" stroke-dasharray="" stroke-dashoffset="0" font-family="Marker" font-weight="normal" text-anchor="start" style="mix-blend-mode: normal"><tspan x="0" dy="0">this was originally just a test lol</tspan></text><g fill-rule="evenodd" stroke-width="3.5"><path d="M281.64493,195.39723c2.01729,1.00865 6.30404,3.2781 0.25216,11.8516c-6.05188,8.5735 -23.45103,10.33863 -25.46833,10.33863c-7.81701,0.25216 -17.39916,0.25216 -27.98995,-3.2781c-30.76372,-10.08647 -31.01588,-43.11964 -21.18158,-48.41504c9.58214,-5.29539 13.8689,15.12971 27.73779,27.48563c6.05188,5.54755 13.36457,7.56484 19.41645,8.82565c8.5735,1.51297 24.964,-8.06917 27.23346,-6.80836z" fill="#ffab19" stroke="#001026" stroke-linecap="round" stroke-linejoin="round"/><path d="M219.10884,174.97213c4.03458,6.80837 11.8516,16.39051 11.8516,16.39051c0,0 -9.32998,-2.26945 -14.62537,2.0173c-4.28675,3.2781 -3.27811,8.82566 -2.77378,10.59079c-3.2781,-3.2781 -7.31269,-7.81701 -9.8343,-16.64267c-2.52161,-8.82566 0,-19.41645 5.04324,-20.92942c5.04324,-1.00865 6.30404,2.77378 10.33863,8.5735z" fill="#ffffff" stroke="none" stroke-linecap="butt" stroke-linejoin="miter"/></g><path d="M294.253,221.62204c-4.53891,3.02594 -20.17293,14.12106 -40.09371,20.4251l-1.00865,0.25216c-1.00865,0.25216 -1.51297,1.51297 -1.00865,2.52161c4.28675,6.05188 12.10376,18.15564 -1.76513,22.44239c-13.36457,4.28675 -38.32857,-31.26805 -27.73779,-40.59803c4.79107,-3.53026 9.07782,-1.76513 11.34727,-0.75648c1.26081,0.50432 2.52162,0.50432 3.78243,0.25216c3.02594,-1.00865 8.57349,-3.02594 12.86024,-5.29539c10.84295,-5.54755 13.36457,-7.81701 18.40781,-11.59943c5.04323,-3.78242 16.64267,-13.11241 25.97265,-5.04323c8.06918,6.80837 3.53027,14.37321 -0.75648,17.39915z" fill="#ffab19" fill-rule="evenodd" stroke="#001026" stroke-width="3.5" stroke-linecap="round" stroke-linejoin="round"/><path d="M334.34673,169.17241c1.26081,1.00865 16.64267,19.16429 21.6859,14.62538c6.05188,-5.2954 14.37322,-15.63403 23.45103,-7.31269c9.07782,8.32134 -8.06917,22.44239 -15.38186,26.22482c-17.39916,7.81701 -31.52021,-7.06053 -34.54615,-11.09512c-3.02594,-4.03458 -8.32134,-10.84295 -8.32134,-17.39915c0.25216,-7.06053 8.82566,-8.82566 13.11241,-5.04324z" fill="#ffab19" fill-rule="evenodd" stroke="#001026" stroke-width="3.5" stroke-linecap="round" stroke-linejoin="round"/><g fill-rule="evenodd" stroke-width="3.5"><path d="M334.59889,227.92609c5.29539,4.79107 16.89484,14.62538 16.89484,14.62538c0,0 36.05912,-6.30404 36.05912,11.8516c0,10.84295 -18.15564,13.36457 -42.61533,11.09511c-1.51297,-0.25216 -3.02594,-0.75649 -4.28674,-1.76513c-5.54755,-4.79107 -21.43375,-18.91213 -31.52021,-28.74643c-14.87754,-14.62538 -27.23346,-24.20752 -27.23346,-24.20752c-21.43374,-20.92942 -4.03458,-29.75508 2.77378,-41.85884c6.30404,-10.33863 9.07782,-8.32134 24.20752,-5.29539c8.57349,1.26081 13.61674,2.01729 19.16429,1.76513c8.32133,-0.25216 6.80836,11.8516 4.53891,18.15564c0,0 -3.53026,9.32999 -6.80837,14.12106c-4.03458,5.79972 -7.06053,9.58214 -10.08647,11.8516z" fill="#ffab19" stroke="#001026" stroke-linecap="round" stroke-linejoin="round"/><path d="M313.41731,209.26612c0,0 -3.78242,-3.02594 -7.81701,-6.80836c-5.04324,-4.53891 -10.08647,-8.32134 -5.04324,-16.13835c4.53891,-6.05188 8.82566,-14.12106 20.17293,-6.80837c10.84295,6.80837 6.05188,13.11241 6.05188,13.11241c-5.54755,11.34727 -13.36457,16.64267 -13.36457,16.64267z" fill="#ffffff" stroke="none" stroke-linecap="butt" stroke-linejoin="miter"/></g><path d="M275.3409,188.58886c5.54755,7.06053 14.12106,15.88619 3.2781,23.19888c-14.87754,8.32134 -27.23346,-16.89483 -29.75508,-25.72049c-2.26945,-7.81701 4.28675,-12.86024 9.8343,-17.147c10.84295,-7.81701 19.92077,-14.87754 30.00724,-11.09511c12.60809,4.53891 3.53026,14.62538 -2.77378,19.16429c-3.78242,2.77378 -7.56485,5.79972 -10.33863,7.56485c-0.75648,1.26081 -1.00865,2.77378 -0.25216,4.03458z" fill="#ffab19" fill-rule="evenodd" stroke="#001026" stroke-width="3.5" stroke-linecap="round" stroke-linejoin="round"/><g fill-rule="evenodd" stroke-width="3.5"><path d="M354.77183,18.63189c0.75648,-0.50433 2.01729,-0.25216 2.26945,0.75649l6.5562,26.9813c0,0 16.13835,11.8516 20.92942,20.17293c8.06917,13.86889 8.32133,25.21617 8.32133,25.21617c0,0 17.90348,5.29539 20.92942,19.66861c3.02594,14.37322 -8.06918,41.60668 -55.47557,50.93666c-47.40639,9.32998 -85.48281,-3.53027 -103.38629,-32.2767c-17.90348,-28.74643 10.33863,-63.04042 8.82566,-61.02313l-5.29539,-45.13694c-0.25216,-1.00865 1.00865,-1.76514 2.01729,-1.26081l30.51156,19.92077c0,0 11.34728,-4.28674 23.19888,-4.79107c7.06052,-0.50432 13.1124,0 18.91213,1.00865z" fill="#ffab19" stroke="#001026" stroke-linecap="butt" stroke-linejoin="miter"/><path d="M392.09176,92.76742c0,0 17.39916,4.53891 20.4251,18.91213c3.02594,14.37322 -9.07781,40.34587 -55.97989,49.42369c-61.02312,12.60808 -90.02172,-23.70319 -73.12689,-50.43233c16.89484,-26.9813 45.89343,-4.03458 67.07501,-5.54755c18.15564,-1.26081 20.17293,-17.147 41.60667,-12.35593z" fill="#ffffff" stroke="none" stroke-linecap="butt" stroke-linejoin="miter"/><path d="M312.66083,119.74872c0,-1.00865 1.00865,-1.76513 2.01729,-1.51297c4.79107,1.76513 18.4078,5.79972 33.53751,6.80837c13.61673,0.75648 21.6859,0 25.46833,-0.75649c1.26081,-0.25216 2.26945,1.00865 1.76513,2.26946c-2.26945,6.80836 -11.8516,25.72049 -38.32857,24.20752c-22.94671,-2.52161 -25.21617,-18.65997 -24.45968,-31.01589z" fill="#ffffff" stroke="#001026" stroke-linecap="round" stroke-linejoin="round"/><path d="M438.48951,95.5412c-11.8516,9.58215 -30.00724,9.83431 -30.00724,9.83431" fill="none" stroke="#001026" stroke-linecap="round" stroke-linejoin="round"/><path d="M435.21141,123.78331c-15.88619,1.26081 -25.72049,-3.53027 -25.72049,-3.53027" fill="none" stroke="#001026" stroke-linecap="round" stroke-linejoin="round"/><path d="M349.47644,98.56714c5.29539,0 10.84295,0.50433 11.09511,2.26946c0.25216,3.53026 -3.53026,10.59079 -7.56485,10.84295c-4.53891,0.50432 -15.1297,-5.79972 -15.1297,-9.83431c-0.25216,-3.02594 6.5562,-3.2781 11.59944,-3.2781z" fill="#001026" stroke="#001026" stroke-linecap="round" stroke-linejoin="round"/><path d="M236.00368,94.78472c0,0 21.6859,7.06053 30.51157,14.87754" fill="none" stroke="#001026" stroke-linecap="round" stroke-linejoin="round"/><path d="M267.27171,118.48792c-10.84295,4.28675 -29.50292,1.51297 -29.50292,1.51297" fill="none" stroke="#001026" stroke-linecap="round" stroke-linejoin="round"/><g><path d="M379.23152,69.06422c7.31269,11.34728 7.56485,24.20752 0.50432,28.74643c-7.06052,4.53891 -18.65996,-0.75648 -26.22481,-12.10376c-7.31269,-11.34727 -7.56485,-24.20752 -0.50432,-28.74643c7.06052,-4.79107 18.91213,0.75648 26.22481,12.10376z" fill="#ffffff" stroke="#001026" stroke-linecap="round" stroke-linejoin="round"/><path d="M378.22287,83.43743c0,2.77378 -2.01729,5.04324 -4.53891,5.04324c-2.52161,0 -4.53891,-2.26946 -4.53891,-5.04324c0,-2.77378 2.01729,-5.04323 4.53891,-5.04323c2.52161,0 4.53891,2.26945 4.53891,5.04323" fill="#001026" stroke="none" stroke-linecap="butt" stroke-linejoin="miter"/></g><g><path d="M316.69541,76.12475c7.56485,11.09512 7.06052,24.71185 0.25216,29.50292c-8.32133,4.79107 -19.41645,1.26081 -26.9813,-9.83431c-7.81701,-11.09511 -8.32133,-25.46833 -0.50432,-31.01588c7.81701,-5.79972 19.66862,0.25216 27.23347,11.34727z" fill="#ffffff" stroke="#001026" stroke-linecap="round" stroke-linejoin="round"/><path d="M315.18244,90.75013c0,2.77378 -2.01729,5.04323 -4.53891,5.04323c-2.52161,0 -4.53891,-2.26945 -4.53891,-5.04323c0,-2.77378 2.0173,-5.04324 4.53891,-5.04324c2.52161,0.25216 4.53891,2.26946 4.53891,5.04324" fill="#001026" stroke="none" stroke-linecap="butt" stroke-linejoin="miter"/></g></g></g></g></svg>