<svg version="1.1" xmlns="http://www.w3.org/2000/svg" xmlns:xlink="http://www.w3.org/1999/xlink" width="125.62201" height="126.44713" viewBox="0,0,125.62201,126.44713"><defs><linearGradient x1="315.43874" y1="114.5095" x2="315.43874" y2="251.52813" gradientUnits="userSpaceOnUse" id="color-1"><stop offset="0" stop-color="#ffaf59"/><stop offset="1" stop-color="#e57600"/></linearGradient><linearGradient x1="314.29636" y1="125.40903" x2="314.29636" y2="189.50242" gradientUnits="userSpaceOnUse" id="color-2"><stop offset="0" stop-color="#ffaf59"/><stop offset="1" stop-color="#e57600"/></linearGradient></defs><g transform="translate(-255.29956,-114.50949)"><g data-paper-data="{&quot;isPaintingLayer&quot;:true}" fill-rule="nonzero" stroke="none" stroke-width="0.5" stroke-linecap="butt" stroke-linejoin="miter" stroke-miterlimit="10" stroke-dasharray="" stroke-dashoffset="0" style="mix-blend-mode: normal"><path d="M335.28839,131.48556h0.82889c7.40357,0.06685 13.93797,5.05224 17.67873,11.34906c0.97366,1.63896 1.41665,3.54263 2.23748,5.26323c1.2469,2.6137 3.5192,4.50373 4.68334,7.30168c2.98433,5.95753 6.03738,12.04267 7.69882,18.48059c1.29717,5.02639 0.69074,10.74948 0.15112,15.82234c-0.54382,5.11228 0.04653,10.59572 0,15.74877c-0.34955,1.79255 -0.89311,3.54207 -1.37804,5.30283c-0.87712,3.18482 -0.90085,6.39542 -2.51792,9.38626c-2.81581,5.20797 -7.849,8.00368 -12.01696,11.84883c-1.00975,0.93154 -1.68629,2.27973 -2.89414,2.93431c-0.95036,0.51503 -2.16392,0.15153 -3.22057,0.37946c-4.03393,0.87017 -8.03514,3.35736 -11.65264,5.30192c-4.57755,0.2348 -9.50128,0.57065 -14.07717,0.15469c-6.08833,-0.55346 -12.03334,-2.47075 -17.90819,-3.79883c-1.34747,-0.30462 -2.7958,0.29949 -4.14441,0c-1.87455,-0.41628 -3.49989,-1.6007 -5.14527,-2.59063c-0.85625,-0.51517 -1.42672,-0.43923 -2.14333,-0.52332c-0.17268,-0.1777 -0.34514,-0.35219 -0.51631,-0.52336c-0.43068,-0.43068 -1.32637,-0.73524 -2.49378,-0.94771c-0.70383,-0.56011 -1.36664,-1.18341 -2.07805,-1.73187c-1.32445,-3.12424 -2.0582,-6.26977 -2.90364,-9.49546c-0.15929,-0.10567 -0.31279,-0.22095 -0.45977,-0.34693c-3.68862,-3.16166 -4.24824,-7.67618 -4.35028,-12.24071c-1.07391,-2.29581 -2.12673,-4.60177 -2.94876,-7.01947c-1.25041,-3.67753 -0.66911,-8.05613 -0.66911,-11.88792c0,0 0,-0.00102 0.00002,-0.00304v-0.41142c0,-2.22705 0.00279,-4.45323 0.0229,-6.68023c0.84072,-3.70254 2.46344,-6.10037 4.3104,-9.30134c0.2846,-0.49323 0.54993,-1.05584 0.79895,-1.65328c0.10392,-0.50254 0.22079,-0.98906 0.37041,-1.43792c0.2602,-0.78061 0.58281,-1.53985 0.95009,-2.28331c0.13463,-0.41194 0.26431,-0.80767 0.39004,-1.17594c0.8609,-2.52178 0.61471,-5.24927 1.11649,-7.78304c0.27351,-1.38109 1.04767,-2.65499 1.17446,-4.0572c0.08837,-0.97737 -0.12186,-1.99844 0.15469,-2.94003c1.82927,-6.22817 7.34776,-10.63638 12.68435,-13.83833c3.39747,-2.4743 7.11829,-3.1049 10.87528,-4.6284c2.29661,-0.93131 4.50104,-2.24742 7.02345,-2.7183c2.28796,-0.42711 5.18631,-0.08489 7.52078,-0.08489c2.86151,0 5.90909,-0.28101 8.75242,0.0229c1.25797,0.13446 2.38101,0.54572 3.51764,0.85533c0.35217,-0.04934 0.5776,-0.04935 0.5776,-0.04935zM293.93327,224.7448c0.12968,-0.02052 0.3424,-0.00286 0.56317,0.03136c-0.15066,-0.14018 -0.30359,-0.27568 -0.45931,-0.40551c-0.02159,0.12909 -0.05522,0.25445 -0.10387,0.37415z" fill="#f9dfe0"/><path d="M360.83822,174.4714c-0.73577,-1.08114 -1.74188,-3.29039 0.17714,-5.5626c-0.03248,-0.79648 -0.07291,-1.59955 -0.15469,-2.41505c-0.31961,-3.18711 -1.61076,-5.91557 -1.68066,-9.16687c0,0 0,-0.07972 0.01038,-0.21841c-0.22191,-0.31915 -0.4053,-0.6671 -0.54346,-1.0371l-0.62476,-1.5619c-1.09703,-1.60562 -1.87342,-3.49898 -2.13479,-5.42225c-0.08411,-0.61889 0.02805,-1.52657 0.09392,-2.43992c-1.12486,-1.31103 -2.49309,-2.51055 -3.69513,-3.43301c-2.48395,-1.90621 -4.84302,-3.8709 -7.23271,-5.95627c-0.71905,-0.62748 -1.37248,-1.67897 -2.34391,-2.06707c-1.22278,-0.48851 -2.67949,0.05548 -3.93566,-0.33934c-0.8021,-0.25209 -1.39356,-0.9411 -2.09034,-1.41165l-1.07453,-0.09605c0,0 -0.49721,-0.09944 -1.13253,-0.39626c-0.98546,0.13845 -1.76855,-0.01818 -1.76855,-0.01818c-1.0233,-0.24428 -2.09922,-0.3271 -3.06988,-0.73284c-0.43702,-0.18267 -0.75878,-0.56452 -1.12045,-0.87902c-1.78456,1.40143 -3.51447,1.03988 -4.67126,0.4708c-5.78505,0.08619 -11.78819,0.70802 -17.17929,2.72968c-3.90578,0.68065 -7.84846,1.61119 -10.9151,4.3372c-1.48843,1.32309 -2.31485,2.69326 -3.29325,4.36742c-2.5339,4.33581 -5.92663,8.48677 -7.36676,13.37259c-1.07438,3.64496 -1.6372,7.45758 -2.38297,11.18642c-1.37872,6.62626 -4.74104,12.40805 -6.94398,18.62461c1.14831,1.65055 0.72737,3.75522 0.72737,3.75522c-0.89333,4.16516 -0.58246,8.5615 -0.35504,12.93227c0.92172,3.14234 2.20846,6.22176 3.42543,9.26419c1.99271,5.10121 6.21611,9.48349 7.29712,14.94861c0.29216,1.47702 0.30849,3.1658 0.11631,4.86011c-4.34447,1.1796 -6.82115,0.98594 -7.97198,0.93884c-1.22613,-0.05018 -7.73949,-1.82618 -9.07905,-2.74824c-0.89763,-0.71184 -3.60648,-1.56188 -9.94495,-7.20896c-4.92283,-5.24429 -4.18415,-6.04418 -4.68065,-12.43942c0.43749,-1.17795 0.8362,-2.38326 1.28793,-3.4675c2.13874,-2.85166 2.73271,-6.04542 3.73613,-9.39665c0.4887,-1.63217 0.94944,-1.78975 1.07117,-3.26738c0.0684,-0.83022 -0.10086,-1.68137 0.062,-2.49832c0.73503,-3.68715 2.36715,-7.22123 3.42569,-10.81194c0.61809,-2.09666 1.44361,-4.12602 2.07221,-6.21662c0.74097,-2.46436 0.81942,-4.82642 1.89314,-7.25638c0.59225,-1.34034 1.4451,-2.56088 1.97828,-3.92579c1.66118,-4.02472 1.91008,-8.62395 3.15304,-12.78253c0.51392,-1.71941 1.61388,-3.20757 2.50151,-4.76725c1.02152,-1.79495 1.04436,-4.02287 1.87865,-5.83197c1.02202,-2.21618 3.22377,-4.43009 4.72017,-6.34871c3.61448,-4.63432 7.86505,-9.34016 12.60421,-12.82452c4.14313,-1.72383 7.80379,-4.77138 12.32686,-5.51587c1.67323,-0.27541 3.1016,-0.01108 4.55397,0.29237c1.65783,-2.08997 4.58229,-1.50508 4.58229,-1.50508c3.26666,0.70062 6.59397,0.01577 9.90194,0.34597c2.342,0.23378 4.43156,1.27533 6.64273,1.71977c1.70837,0.34337 3.57021,0.06043 5.17507,0.73931c2.05165,0.86787 3.43681,2.8861 5.35794,3.92354c3.34937,1.8087 6.55463,3.6063 9.85238,5.58495c4.94409,3.68725 8.37574,8.05122 10.46632,13.81211c0.35962,0.99099 0.46295,2.0183 0.49819,3.04105c0.01432,0.02699 0.02894,0.05382 0.0439,0.08045c0.41983,0.74734 1.14703,1.31678 1.46729,2.11191c0.39002,0.96831 0.34948,2.06148 0.61978,3.06977c0.26509,0.98889 1.33429,1.94808 0.9832,2.9098c-0.15785,0.4324 -0.34565,0.84983 -0.55615,1.25594l0.48449,0.0969l-0.2712,1.35596c0.77699,1.27842 0.77699,2.69464 0.77699,2.69464c-0.12597,2.73407 1.35745,5.46046 1.63488,8.23966c0.04676,0.46838 0.07592,0.92666 0.09636,1.37834c1.62464,0.53096 2.86005,1.92236 3.1678,3.63577l0.34362,1.71813c0.7818,1.02639 0.83491,3.19566 1.19336,4.40953c1.0695,3.62182 2.34174,7.34611 3.63796,10.91228c0.39616,1.0899 1.68765,4.00192 1.85994,4.87295c0.8841,4.46963 0.07978,10.08686 -0.34559,14.53989c-0.14728,1.54184 0.20777,3.12212 -0.06886,4.64608c-0.19876,1.09499 -0.82368,2.14467 -0.74399,3.25469c0,1.99171 -0.22607,4.18223 -0.0229,6.16746c0.5244,5.12378 2.35797,10.69533 -2.64893,14.55894c-3.29823,2.5451 -8.28217,2.11649 -12.0734,1.2936c-2.50928,-0.54465 -4.35503,-0.69267 -6.1341,-2.94441c-1.16379,-1.47301 -2.61158,-3.10733 -2.62133,-4.98458c-0.02128,-4.09355 2.55354,-4.54862 4.64198,-6.58998c1.54982,-1.51487 2.71408,-3.71 3.37113,-5.73404c0.28598,-1.76546 0.84891,-3.47828 1.13984,-5.24292c0.39576,-2.40053 -0.04255,-5.27256 -0.03526,-7.71398c0.00762,-2.54682 0.43842,-4.94029 0.41444,-7.45994v-2.0722c0,-0.90553 0.25582,-1.75129 0.69913,-2.469c-0.91785,-3.48055 -2.47536,-6.76009 -3.10869,-10.35938c-0.45011,-2.39832 -1.48204,-4.57432 -2.14884,-6.91238z" fill="url(#color-1)"/><path d="M311.74464,127.03119c1.71467,0 3.34871,0.34524 4.83639,0.97001c0.74246,0.09823 1.48526,0.19886 2.22483,0.28817c7.66938,0.92613 15.23361,1.57087 22.54578,4.09901c2.96335,1.02456 5.75911,1.25971 8.72676,2.49623c5.07518,2.11465 10.59047,9.63309 10.10244,15.41083c-0.62764,7.43058 -6.80686,12.38412 -14.32481,11.96646c-5.07432,-0.2819 -5.8646,-4.68347 -9.81661,-5.72976c-8.26809,-2.18898 -17.00153,-2.08696 -25.15183,-4.52988c-0.72857,-0.21838 -1.55283,-0.43488 -2.40894,-0.68218c-0.79316,1.59381 -1.60276,3.2121 -2.34123,4.99493c-1.47184,3.55334 -5.65383,13.02017 -9.3762,16.63306c-1.4192,1.37745 -2.99718,2.5093 -4.18835,4.10269c-4.20008,5.61829 -10.89009,15.59156 -19.09993,11.48664c-7.39522,-3.69761 -5.25875,-10.05239 -2.74026,-15.56012c0.75074,-1.64179 -0.04297,-4.6781 0.20811,-6.72031c0.51414,-4.18187 2.58554,-8.24174 4.88818,-11.69911c3.5874,-5.38641 8.71589,-9.87126 13.43388,-14.24564c1.43862,-1.33384 4.0429,-2.83873 5.0931,-4.32975c0.31565,-0.44814 0.59913,-1.01741 0.87444,-1.65852c0.14758,-2.25733 1.09116,-4.29745 2.55276,-5.84241c1.27625,-2.08206 3.10987,-3.55659 6.23091,-2.92495c0.20026,-0.01272 0.40221,-0.01919 0.60568,-0.01919c1.96179,0 3.78335,0.60035 5.291,1.62735c0.59855,-0.088 1.21091,-0.13358 1.8339,-0.13358z" fill="url(#color-2)"/><path d="M343.02166,210.07701l2.71162,3.10641c-2.85372,2.31262 -5.90867,3.90489 -9.0788,5.71436c-0.80327,0.4585 -5.45755,3.5251 -5.76438,3.64548c-5.28621,2.07384 -9.1176,0.83162 -14.46548,0.21458c-4.47111,-0.51588 -8.65801,-1.04345 -12.62276,-3.4257c-4.19017,-2.51769 -7.1808,-6.30644 -10.5707,-9.6831c0,0 -1.76778,-1.76776 -0.00003,-3.53554c1.76775,-1.76778 3.53553,-0.00002 3.53553,-0.00002c3.13245,3.14326 5.85112,6.62953 9.71271,8.996c3.25011,1.99174 6.84431,2.26238 10.50654,2.67997c2.69834,0.30768 5.36071,1.32509 8.06924,1.12624c3.8188,-0.28036 5.99454,-2.57207 9.11134,-4.35494c2.66433,-1.52406 5.24935,-2.83463 7.67453,-4.67544c0.29368,-0.32613 0.57508,-0.50202 0.57508,-0.50202l0.02705,0.03098c0.04465,-0.03601 0.08924,-0.07223 0.13377,-0.10865z" fill="#000000"/><path d="M299.6272,195.63252c-2.49797,0.10073 -2.5987,-2.39724 -2.5987,-2.39724l-0.12558,-3.13837c-0.62076,-9.08546 -1.48525,-18.15797 -1.8664,-27.25679c0,0 -0.10447,-2.49781 2.39335,-2.60228c2.49782,-0.10447 2.60228,2.39335 2.60228,2.39335c0.3781,9.05464 1.24138,18.08354 1.85913,27.1249l0.13315,3.27774c0,0 0.10073,2.49797 -2.39724,2.5987z" fill="#000000"/><path d="M336.49192,196.01083l-0.75057,-1.70855c-0.84371,-5.99365 0.14686,-11.81465 0.31569,-17.82485c0.149,-5.30414 0.24526,-10.47176 0.68513,-15.76119c0,0 0.20727,-2.49139 2.69866,-2.28412c2.49139,0.20727 2.28412,2.69866 2.28412,2.69866c-0.43288,5.20118 -0.52186,10.27143 -0.66991,15.48778c-0.1618,5.70072 -1.19604,11.29637 -0.36435,16.97382l0.1948,0.03172c0,0 1.19336,2.19679 -1.00343,3.39015c-2.19679,1.19336 -3.39015,-1.00343 -3.39015,-1.00343z" data-paper-data="{&quot;index&quot;:null}" fill="#000000"/><path d="M282.16388,156.11328c1.01142,-2.28627 3.29769,-1.27485 3.29769,-1.27485l2.87197,1.27159c8.42769,3.45036 16.95126,6.67627 25.28525,10.34756c0,0 2.28778,1.00799 1.27978,3.29578c-1.008,2.28779 -3.29578,1.27978 -3.29578,1.27978c-8.293,-3.65454 -16.7769,-6.8623 -25.16368,-10.29591l-3.00039,-1.32627c0,0 -2.28627,-1.01142 -1.27485,-3.29769z" fill="#000000"/><path d="M354.96977,153.21546c1.27611,2.14978 -0.87366,3.42589 -0.87366,3.42589l-2.82139,1.67364c-7.91897,4.40655 -15.96123,8.6004 -23.76081,13.21516c0,0 -2.15168,1.2729 -3.42458,-0.87879c-1.27289,-2.15169 0.87879,-3.42457 0.87879,-3.42457c7.83829,-4.63627 15.91778,-8.85286 23.87538,-13.28091l2.70039,-1.60408c0,0 2.14977,-1.27611 3.42588,0.87367z" data-paper-data="{&quot;index&quot;:null}" fill="#000000"/></g></g></svg>