<svg version="1.1" xmlns="http://www.w3.org/2000/svg" xmlns:xlink="http://www.w3.org/1999/xlink" width="218.38025" height="184.02337" viewBox="0,0,218.38025,184.02337"><defs><radialGradient cx="323" cy="230" r="102.5" gradientUnits="userSpaceOnUse" id="color-1"><stop offset="0" stop-color="#00d5ff" stop-opacity="0"/><stop offset="1" stop-color="#00d5ff" stop-opacity="0.36078"/></radialGradient></defs><g transform="translate(-213.96195,-189.97663)"><g data-paper-data="{&quot;isPaintingLayer&quot;:true}" fill-rule="nonzero" stroke-linejoin="miter" stroke-miterlimit="10" stroke-dasharray="" stroke-dashoffset="0" style="mix-blend-mode: normal"><path d="M261.89565,241.96199l19.56699,-17.12112l37.53476,42.89687l-19.56699,17.12112z" fill="#b21100" stroke="#000000" stroke-width="1" stroke-linecap="butt"/><path d="M284.00259,259.26226l19.56699,-17.12112l37.53476,42.89687l-19.56699,17.12112z" fill="#b21100" stroke="#000000" stroke-width="1" stroke-linecap="butt"/><path d="M318.11959,353.75581l-16.18866,-20.3452l44.60295,-35.49052l16.18866,20.3452z" fill="#b21100" stroke="#000000" stroke-width="1" stroke-linecap="butt"/><path d="M306.46612,256.07991l-16.18866,-20.3452l44.60295,-35.49052l16.18866,20.3452z" fill="#b21100" stroke="#000000" stroke-width="1" stroke-linecap="butt"/><path d="M237.5,338v-26h57v26z" fill="#b21100" stroke="#000000" stroke-width="1" stroke-linecap="butt"/><path d="M242.5,195v100" fill="none" stroke="#624421" stroke-width="10" stroke-linecap="round"/><path d="M404.5,200v95" fill="none" stroke="#624421" stroke-width="10" stroke-linecap="round"/><path d="M220.5,265l19,-70l164,1l22,69z" fill="url(#color-1)" stroke="#624421" stroke-width="10" stroke-linecap="butt"/><path d="M220.5,269v91" fill="none" stroke="#624421" stroke-width="10" stroke-linecap="round"/><path d="M424.5,268v101" fill="none" stroke="#624421" stroke-width="10" stroke-linecap="round"/><g fill-opacity="0.50588" fill="#000000" stroke="none" stroke-width="0.5" stroke-linecap="butt"><path d="M283.14991,244.74307c0.61577,0.10351 0.87224,0.46292 0.97472,0.79673c1.11158,-1.06409 2.05865,-2.10632 1.76047,-2.40222l-0.86391,0.70685c-0.21657,0.18001 -0.49491,0.28826 -0.79853,0.28826c-0.69036,0 -1.25,-0.55964 -1.25,-1.25c0,-0.31943 0.11982,-0.61088 0.31697,-0.83185l1.2486,-1.41323c2.33766,-5.32633 3.23047,-10.98164 4.80792,-16.5003c-0.73059,-0.12135 -1.352,-0.49688 -2.16161,-1.92348c-0.42771,-0.75366 -0.60627,-1.78969 -0.67518,-2.89282c-0.67814,-0.13662 -1.32727,-0.40319 -1.9247,-0.87231c-0.93998,-0.7381 -0.64064,-1.78634 -1.07157,-2.13409c-1.09795,0.90987 -2.64897,2.10603 -4.08429,2.66261c-0.09359,0.11928 -0.18331,0.23212 -0.26898,0.33561c-2.62012,3.16532 -4.21307,7.00731 -6.82285,10.17635c-0.96688,1.17408 -2.92499,3.25856 -4.45763,3.66293c-0.80586,0.21262 -1.65185,-0.46577 -2.47645,-0.34468c-1.84924,0.27157 -3.41118,2.919 -4.54809,4.16727c-0.43644,0.54567 -2.87712,3.71432 -3.47652,3.95428c-2.1629,0.86588 -4.09797,-0.11965 -5.87218,-1.25266c-0.47388,-0.00906 -0.84165,-0.32428 -0.84165,-0.32428l0.02455,-0.20913c-0.33432,-0.22039 -0.663,-0.43636 -0.98651,-0.63553l1.11435,-0.45347l0.19665,-1.67521c1.19532,0.73648 3.71661,3.04216 5.33678,2.27141c1.26482,-0.6017 1.72798,-2.2049 2.60307,-3.29853c1.70252,-1.87158 3.32304,-4.43896 6.01135,-5.00546c0.77663,-0.16366 1.57377,0.52527 2.35214,0.37008c0.62432,-0.12447 1.0587,-0.71525 1.52932,-1.14396c3.30761,-3.01305 5.02171,-7.39166 7.68018,-10.95473c-0.90222,-1.19528 -0.31224,-3.6541 -0.59536,-4.76539c-0.35724,-1.40222 -3.14888,-3.86059 -4.37117,-4.43091c-1.20194,-0.56082 -2.53801,0.80836 -3.84925,1.00789c-0.92514,0.14078 -1.8747,0.04746 -2.80721,-0.03086c-4.76614,-0.40028 -9.37478,-2.73191 -13.99854,-3.90112l-1.44869,-0.30958c0,0 -1.22225,-0.26191 -0.96034,-1.48416c0.26191,-1.22225 1.48416,-0.96034 1.48416,-0.96034l1.53776,0.33037c4.49659,1.13706 8.98324,3.39467 13.60738,3.83468c2.39864,0.22824 5.00489,-1.68873 7.29379,-0.83465c1.97116,0.7355 5.29244,4.09196 5.91474,6.08778c0.26675,0.8555 0.14986,1.78849 0.14267,2.68459c-0.00142,0.17788 -0.11946,0.39426 -0.20026,0.58996c0.89443,-1.07277 1.96356,-2.16759 3.24628,-2.43927c0.2993,-0.06339 0.61034,-0.10586 0.92493,-0.12408c0.17886,-0.12656 0.35822,-0.25241 0.53821,-0.37738c0.88046,-0.61128 1.60661,-1.77838 2.67845,-1.77922c1.1452,-0.0009 1.96112,1.18318 2.94167,1.77478c0.13612,0.90694 0.13224,2.20156 0.17207,3.50952c1.25512,-0.1181 2.59751,-0.44723 3.32876,-0.48417c0,0 1.24844,-0.06244 1.31088,1.186c0.03535,0.70678 -0.34945,1.03344 -0.69,1.18385c0.89951,0.50754 0.49738,1.52469 0.49738,1.52469c-0.21776,0.55072 -0.42246,1.10412 -0.61626,1.6597c0.07533,0.01381 0.14682,0.03075 0.21373,0.05175c1.55417,0.48775 2.97188,1.35303 4.36464,2.19776c1.46623,0.88929 3.28086,3.89222 5.12215,3.9287c0.60073,0.0119 1.11266,-0.49677 1.70841,-0.57484c3.17974,-0.41673 6.63752,0.22917 9.85499,0.09461c1.28998,-0.05395 4.55266,-0.05349 5.54826,0.73658c0.81077,0.6434 0.87795,1.87468 1.31693,2.81202c0,0 0.4733,1.15693 -0.68363,1.63023c-1.15693,0.47331 -1.63023,-0.68363 -1.63023,-0.68363c-0.19209,-0.60523 -0.09009,-1.40726 -0.57628,-1.81569c-0.263,-0.22093 -3.74746,-0.18746 -3.86455,-0.18197c-3.13554,0.14708 -6.51178,-0.52062 -9.60427,-0.1184c-0.75072,0.09764 -1.43738,0.67039 -2.19097,0.59813c-3.78186,-0.36264 -6.37684,-5.08443 -10.13869,-6.2461c-0.06923,-0.02138 -0.13718,-0.04109 -0.20391,-0.05929c-1.50624,5.04626 -2.38289,10.21672 -4.22859,15.17129c0.36852,0.43153 0.70478,1.44925 0.94911,3.4027c0.21193,1.69444 -4.10416,5.57058 -5.22925,6.63794l-0.96451,-2.30327l-0.75318,0.4868c0.1789,-0.16857 0.41807,-0.38474 0.69249,-0.63172l-0.60104,-1.43529c0,0 0.20722,-1.23271 1.43992,-1.02549zM290.89975,219.49135c0,0 0.07324,-0.18528 0.23523,-0.37865c-0.71505,0.08677 -1.45168,0.20382 -2.18542,0.27266c0.08714,0.61445 0.21758,1.16855 0.41743,1.60907c0.16382,0.36112 0.41821,0.5885 0.72129,0.7335c0.24995,-0.74977 0.5186,-1.4957 0.81147,-2.23658zM286.20723,216.54679c0.08029,0.07826 0.17225,0.14556 0.27429,0.20303c0.01138,-0.71241 0.0237,-1.38172 -0.00322,-1.94591c-0.27898,-0.23179 -0.65737,-0.16026 -1.03213,0.02511c0.28325,0.52948 0.32622,1.29389 0.76106,1.71776z"/><path d="M322.10705,219.66422c-0.39859,0.5903 -0.84268,1.24192 -1.30774,1.85226c0.2389,-0.04709 0.47543,-0.05648 0.70695,-0.0185c1.08442,0.17793 1.62839,1.48668 2.32916,2.33317c0.13105,0.15831 0.18257,0.41682 0.23671,0.65979c0.17374,0.19566 0.34444,0.3996 0.51061,0.60548c0.48011,-0.09585 0.59123,-0.92205 0.9774,-1.27984c1.34297,-1.24432 3.06851,-2.56159 5.02089,-2.64429c2.52896,-0.10712 4.22117,2.58784 6.49422,2.38263c1.26138,-0.11387 3.22976,-1.68701 4.29061,-1.96027c3.00372,-0.77374 4.99405,0.2605 7.1952,2.06611c4.08917,0.35423 6.63398,-3.23505 10.57415,-3.72078c2.66777,-0.32887 4.20864,1.75145 6.20466,-0.24009c3.10281,-3.09585 5.96969,-10.15813 10.79952,-10.74547c0.95493,-0.11613 1.88893,0.36528 2.8334,0.54793l1.52403,0.13827c0,0 1.24425,0.1198 1.12445,1.36404c-0.1198,1.24425 -1.36404,1.12445 -1.36404,1.12445l-1.81074,-0.18279c-5.60222,-1.37615 -7.763,6.50265 -11.42768,9.60591c-3.40356,2.88214 -3.91642,0.39785 -7.53082,0.86273c-3.16056,0.40651 -5.55668,3.50649 -8.73497,3.88151c-1.04205,0.12296 -2.08775,-0.21269 -3.13163,-0.31904c-0.68782,-0.53779 -1.30718,-1.17708 -2.06347,-1.61337c-3.16125,-1.82367 -5.38453,1.50528 -8.38071,1.68876c-2.56375,0.15701 -4.05684,-2.46325 -6.49932,-2.38243c-1.86889,0.06184 -3.16083,2.20871 -4.64922,3.30215c0.04932,0.06138 0.09705,0.11952 0.14307,0.17401c2.69647,3.19211 7.26195,2.90491 10.77919,4.90293c2.32513,1.32083 3.50992,3.64047 5.62244,5.09021c1.24878,0.85699 2.78444,1.19291 4.16823,1.80856c3.86416,0.1935 9.1306,0.43629 12.5567,2.51513c0.11571,0.07021 3.55136,3.64133 3.73844,3.86802c0.4147,0.50248 0.50032,1.36289 1.10114,1.61481c0.58496,0.24527 1.23928,-0.27598 1.8665,-0.37049c1.64806,-0.24833 3.31128,-0.38282 4.96741,-0.56998c5.62882,-0.6361 11.88736,-5.38245 17.66239,-2.4521c0.17852,0.09058 3.70999,3.26736 3.9852,3.5137l0.51786,1.69069c0,0 0.15088,1.24086 -1.08998,1.39174c-1.24086,0.15088 -1.39174,-1.08998 -1.39174,-1.08998l0.29652,-0.12966c-1.1642,-1.04205 -2.08551,-2.4238 -3.46593,-3.15569c-4.30734,-2.28371 -9.56882,1.46188 -13.60349,2.40534c-0.09252,0.02163 -4.92806,0.57384 -5.10953,0.59466c-0.65541,0.0752 -5.20352,0.63899 -5.58461,0.48448c-2.04387,-0.82869 -3.25163,-4.48387 -5.18703,-5.65821c-3.1858,-1.93304 -8.2578,-1.98553 -11.84029,-2.22077c-0.26731,-0.11398 -4.76733,-2.01764 -5.00237,-2.17894c-2.05691,-1.41157 -3.2018,-3.71659 -5.43871,-4.97551c-2.90434,-1.63453 -6.70985,-1.57421 -9.4621,-3.41882c-1.05356,-0.70611 -2.72311,-2.9609 -3.50123,-3.99559c-0.33407,-0.44422 -0.4224,-1.29708 -0.97546,-1.35235c-0.67711,-0.06767 -1.072,1.25057 -1.73123,1.08184c-0.38472,-0.09847 -0.80229,-0.33193 -1.22637,-0.66672c-1.85838,1.66514 -5.13592,4.35085 -6.90779,2.66905c-0.88427,-0.83932 0.29655,-2.42026 0.44483,-3.63038c0,0 0.37134,-1.19357 1.56491,-0.82222c1.19357,0.37134 0.82222,1.56491 0.82222,1.56491c-0.34685,0.3813 -0.89962,0.64807 -1.04055,1.14389c-0.12387,0.43576 0.62569,-0.65986 0.98236,-0.93916c0.5812,-0.45513 1.24486,-0.79842 1.82289,-1.25757c0.18821,-0.1495 0.39905,-0.33825 0.62769,-0.54865c-0.08117,-0.11261 -0.16112,-0.22761 -0.23961,-0.34468c-1.97963,-0.71231 -2.76891,-3.67016 -2.07875,-5.31035c0.06239,-0.14827 0.16772,-0.25002 0.30068,-0.32183l-0.0931,-0.07279l0.13591,-0.17383c0.02172,-0.10463 0.04796,-0.20702 0.07892,-0.3069l-0.00755,-0.00677l0.01491,-0.01663c0.20436,-0.64127 0.60554,-1.17796 1.25593,-1.54311c0.07658,-0.04299 0.15482,-0.07689 0.23452,-0.10279c0.21843,-0.18678 0.50201,-0.29957 0.81193,-0.29957c0.43763,0 0.82273,0.2249 1.04604,0.56542c0.08314,0.02939 0.16629,0.05885 0.24929,0.08754c0.58068,-0.69994 1.15831,-1.40429 1.79872,-2.07767c0,0 0.86151,-0.9057 1.76721,-0.04419c0.9057,0.86151 0.04419,1.76721 0.04419,1.76721c-0.08123,0.08538 -0.41325,0.43554 -0.85105,0.89584l1.10863,1.30318l0.54462,-0.02162c-0.08234,0.09894 -0.17196,0.21556 -0.26809,0.34668l0.25908,0.30454c0,0 -0.22244,0.97866 -1.14562,0.98282zM318.59871,219.85514c-0.30084,0.05847 -0.59807,0.04528 -0.893,-0.01334c0.14306,0.35525 0.34316,0.75034 0.55908,1.14345c0.48508,-0.48392 1.01867,-1.29753 1.52468,-2.12129c-0.08279,0.02032 -0.1638,0.03145 -0.23928,0.03658c-0.52891,0.54764 -0.92436,0.94933 -0.95148,0.9546z"/><path d="M298.17584,248.74016l-1.853,-1.1659c2.59985,-2.42868 2.87746,-4.98583 4.42511,-8.03721c0.24248,-0.47808 1.29771,-0.87524 0.95913,-1.29084c-0.54615,-0.6704 -2.30641,0.21544 -2.51822,-0.62293c-0.29226,-1.15678 0.97505,-2.18059 1.54511,-3.22872c1.87271,-3.44321 3.88172,-6.76587 5.61869,-10.30179c0,0 0.09522,-0.19384 0.28707,-0.38079c-0.2839,-0.49038 -0.48344,-1.08102 -0.6359,-1.78314c-1.58557,3.75529 -5.52123,7.7924 -6.77697,1.53139c-0.18649,-0.92984 0.34456,-1.86522 0.52885,-2.7955c0.47797,-2.41274 1.19681,-4.81377 2.06044,-7.15469c-0.35096,-0.28369 -0.46058,-0.72203 -0.46058,-0.72203l-0.14113,-0.81496c0.15449,-2.1145 0.58756,-6.5126 2.90404,-7.62368c1.13675,-0.54523 2.97794,-1.05995 3.7812,-0.08823c0.59426,0.71889 -1.55989,4.90813 -1.96563,5.8065c-1.60501,3.5537 -2.90342,7.29958 -3.73017,11.10357c-0.15262,0.70223 -0.37128,1.39111 -0.4841,2.10082c-0.0646,0.40632 -0.45383,1.17943 -0.04596,1.23342c0.43612,0.05773 0.42336,-0.77131 0.63862,-1.15497c0.16431,-0.29286 2.23254,-3.95646 2.34833,-4.10141l1.2399,-2.14325c0.21318,-0.3845 0.62318,-0.64478 1.09397,-0.64478c0.69036,0 1.25,0.55964 1.25,1.25c0,0.00771 -0.00007,0.0154 -0.00021,0.02307l-0.03513,2.21782c0.15895,2.34496 0.18527,3.34058 2.71052,3.22907c0,0 1.24959,0.03205 1.21754,1.28164c-0.03205,1.24959 -1.28164,1.21754 -1.28164,1.21754c-0.92784,-0.0631 -1.67956,-0.19858 -2.29231,-0.41762c-1.44418,2.94161 -2.85245,5.91861 -4.55417,8.72411c-0.37633,0.62043 -0.71299,1.28007 -1.2067,1.81186c-0.35611,0.38357 -1.64362,0.49276 -1.29703,0.88495c0.53238,0.60241 2.07315,-0.39236 2.38661,0.34796c0.45254,1.06879 -0.47697,2.27428 -0.80493,3.38763c-0.76328,2.59119 -1.71961,4.88516 -3.2364,6.92511c0.0871,0.12775 0.15823,0.28823 0.20366,0.4894c0.27535,1.2193 -0.94394,1.49465 -0.94394,1.49465l-0.6166,-0.38796c-0.14676,0.15154 -0.29768,0.30155 -0.45296,0.45005z"/><path d="M346.47575,198.65748c0.70822,1.03001 -0.3218,1.73823 -0.3218,1.73823l-0.80172,0.54915c-3.38085,2.59495 -5.81052,5.30732 -8.30278,8.74233c-0.14183,0.19548 -3.10415,4.28421 -3.13587,4.30194c-0.09929,0.05548 -0.20065,0.10543 -0.30381,0.15057l0.01135,0.02634l-2.14611,0.92475c-0.15833,0.07252 -0.33443,0.11295 -0.51997,0.11295c-0.5674,0 -1.04651,-0.37805 -1.19917,-0.89601c-0.49478,0.45141 -1.03796,0.88359 -1.64336,1.29763c-0.71811,0.49112 -5.03605,1.15434 -2.25521,0.96915c0,0 1.08328,0.62371 0.45957,1.70698c-0.62371,1.08328 -1.70698,0.45957 -1.70698,0.45957c-0.79539,-0.70068 -2.47384,-1.04568 -2.38617,-2.10204c0.13448,-1.62049 3.37449,-2.34322 4.504,-3.11509c2.78489,-1.9031 3.96775,-4.22697 5.48933,-7.12362l0.00849,-0.00838l-0.00304,-0.00167l1.12926,-2.05758c0.20888,-0.3987 0.62665,-0.67072 1.10796,-0.67072c0.69036,0 1.25,0.55964 1.25,1.25c0,0.10812 -0.01373,0.21304 -0.03953,0.3131l-0.56633,2.40675l-0.33403,-0.0786c-0.04153,0.26023 -0.09096,0.51389 -0.14861,0.76606c2.54349,-3.60037 5.87918,-6.79891 9.20827,-9.35715l0.90804,-0.62645c0,0 1.03001,-0.70822 1.73823,0.3218z"/><path d="M339.63964,251.90638c0.20233,1.23352 -1.03119,1.43584 -1.03119,1.43584l-2.09581,0.33861c-1.85167,0.13387 -6.3664,1.35463 -8.01498,0.70648c-3.74914,-1.47398 -1.43792,-6.60698 -3.41511,-9.06672c-1.51958,-1.89046 -2.23662,1.54864 -3.58391,1.23606c-0.57085,-0.13244 -2.39001,-4.2477 -2.68521,-4.87961c-1.25607,-2.68872 -4.55165,-6.36674 -4.3185,-9.45538c0.1362,-1.80437 1.84729,-3.52077 2.89487,-4.80012c0,0 0.7955,-0.9642 1.7597,-0.1687c0.9642,0.7955 0.1687,1.7597 0.1687,1.7597c-0.43647,0.52453 -2.26188,2.45521 -2.33157,3.41265c-0.13884,1.90743 2.18751,4.32003 3.00563,5.87339c0.79201,1.50378 1.71106,2.97947 2.15986,4.61875c0.10592,0.38687 -0.48186,1.36339 -0.11659,1.19766c0.65054,-0.29515 0.56569,-1.63352 1.27442,-1.72297c1.21507,-0.15336 2.56357,0.3301 3.49909,1.12048c1.08564,0.91721 1.49673,4.17612 1.7134,5.48071c0.17528,1.05535 -0.13279,2.85242 0.91323,3.07676c1.66559,0.35723 5.12081,-0.75366 6.89629,-0.8826l1.87183,-0.31218c0,0 1.23352,-0.20233 1.43584,1.03119z"/><path d="M287.36342,200.18583l1.74154,-0.59705c-0.30614,1.61717 -1.68052,5.26981 -1.26204,6.87236c0.21073,0.80698 1.24728,1.24384 1.42075,2.05964c0.25176,1.184 -0.68136,4.27153 -0.96809,5.4742c-0.58726,2.46318 -0.82024,4.5422 -0.69125,7.06777c0,0 0.0614,1.24849 -1.1871,1.30989c-1.24849,0.0614 -1.30989,-1.1871 -1.30989,-1.1871c-0.13065,-2.75427 0.11764,-5.08371 0.75621,-7.76958c0.01311,-0.05513 1.06123,-3.96404 0.96658,-4.32255c-0.21254,-0.80504 -1.24239,-1.24167 -1.4197,-2.0552c-0.3031,-1.39067 0.15392,-3.45703 0.61667,-5.31188c-0.26097,-0.5029 -0.02887,-1.07248 -0.02887,-1.07248l0.32724,-0.11219c0.12911,-0.5176 0.24368,-0.99831 0.3231,-1.41789z"/></g></g></g></svg>