<svg version="1.1" xmlns="http://www.w3.org/2000/svg" xmlns:xlink="http://www.w3.org/1999/xlink" width="267.39975" height="208.34703" viewBox="0,0,267.39975,208.34703"><defs><linearGradient x1="317.25192" y1="103.24215" x2="317.25192" y2="161.27773" gradientUnits="userSpaceOnUse" id="color-1"><stop offset="0" stop-color="#ffbc57"/><stop offset="1" stop-color="#ff9700"/></linearGradient><linearGradient x1="354.36597" y1="123.96223" x2="354.36597" y2="211.72045" gradientUnits="userSpaceOnUse" id="color-2"><stop offset="0" stop-color="#ffae37"/><stop offset="1" stop-color="#ff9700"/></linearGradient></defs><g transform="translate(-202.34012,-99.79375)"><g data-paper-data="{&quot;isPaintingLayer&quot;:true}" fill-rule="nonzero" stroke-linejoin="miter" stroke-miterlimit="10" stroke-dasharray="" stroke-dashoffset="0" style="mix-blend-mode: normal"><path d="M249.39213,180.12847c0,-39.01288 31.62619,-70.63905 70.63907,-70.63905c39.01288,0 70.63907,31.62619 70.63907,70.63907c0,39.01288 -31.62619,70.63907 -70.63907,70.63907c-39.01288,0 -70.63907,-31.62619 -70.63907,-70.63905z" fill="#f2e1d8" stroke="#000000" stroke-width="2" stroke-linecap="butt"/><path d="M380.21823,144.87246c0,0 -9.17382,10.90745 -19.14966,10.97333c-7.01045,0.04628 -13.14235,-11.12483 -22.27477,-9.85261c-5.93257,0.82646 -12.06863,9.0273 -18.09088,9.3367c-5.58062,0.28669 -11.54783,-10.37079 -16.63424,-9.7692c-11.23206,1.32846 -18.43635,11.84517 -24.08739,11.96144c-9.86092,0.20291 -22.15175,-10.13137 -22.15175,-10.13137c0,0 17.01355,-34.94649 61.94476,-38.02083c39.58316,-2.70843 60.44394,35.50254 60.44394,35.50254z" fill="#ff9700" stroke="#000000" stroke-width="2" stroke-linecap="round"/><path d="M307.18794,181.63944c0,10.01384 -5.18638,18.13166 -11.58412,18.13166c-6.39774,0 -11.58412,-8.11782 -11.58412,-18.13166c0,-10.01384 5.18638,-18.13166 11.58412,-18.13166c6.39774,0 11.58412,8.11782 11.58412,18.13166z" fill="none" stroke="#000000" stroke-width="2" stroke-linecap="butt"/><path d="M249.26736,181.13577l33.74503,-1.0073" fill="none" stroke="#000000" stroke-width="2" stroke-linecap="round"/><path d="M344.39618,163.50778c6.39774,0 11.58412,8.11782 11.58412,18.13166c0,10.01384 -5.18638,18.13166 -11.58412,18.13166c-6.39774,0 -11.58412,-8.11782 -11.58412,-18.13166c0,-10.01384 5.18638,-18.13166 11.58412,-18.13166z" data-paper-data="{&quot;index&quot;:null}" fill="none" stroke="#000000" stroke-width="2" stroke-linecap="butt"/><path d="M356.98761,180.12847l33.74503,1.0073" data-paper-data="{&quot;index&quot;:null}" fill="none" stroke="#000000" stroke-width="2" stroke-linecap="round"/><path d="M307.18794,180.63212l24.17554,-0.50367" fill="none" stroke="#000000" stroke-width="2" stroke-linecap="round"/><path d="M343.44754,211.81687c0,0 -1.96872,15.0521 -24.87727,15.67928c-19.56687,0.53568 -22.01782,-15.67928 -22.01782,-15.67928" fill="none" stroke="#000000" stroke-width="2" stroke-linecap="round"/><path d="M291.63847,194.24759l-1.00732,-24.67921" fill="none" stroke="#000000" stroke-width="2" stroke-linecap="round"/><path d="M347.79042,168.74794l-1.00732,24.67921" data-paper-data="{&quot;index&quot;:null}" fill="none" stroke="#000000" stroke-width="2" stroke-linecap="round"/><text transform="translate(276.67339,295.68036) scale(0.89003,0.89003)" font-size="40" xml:space="preserve" fill="#ffffff" fill-rule="nonzero" stroke="#000000" stroke-width="2" stroke-linecap="butt" stroke-linejoin="miter" stroke-miterlimit="10" stroke-dasharray="" stroke-dashoffset="0" font-family="Marker" font-weight="normal" text-anchor="start" style="mix-blend-mode: normal"><tspan x="0" dy="0">BLOG</tspan></text><path d="M243.28947,180.13964c0,-10.51194 2.11283,-20.53041 5.937,-29.65391c11.5997,-27.67396 38.94488,-47.11349 70.8304,-47.11349c42.39747,0 76.76741,34.36994 76.76741,76.76741c0,42.39747 -34.36994,76.76741 -76.76741,76.76741c-42.39747,0 -76.76741,-34.36994 -76.76741,-76.76739z" fill="#f2e1d8" stroke="#000000" stroke-width="4" stroke-linecap="butt"/><path d="M243.89667,182.71994c0,0 4.50935,-8.36598 8.31106,-8.49792c5.8236,-0.20212 22.48804,0.34662 22.48804,0.34662" fill="none" stroke-opacity="0.90196" stroke="#ff0000" stroke-width="6" stroke-linecap="round"/><path d="M396.89207,181.23433l-36.6726,-1.09469" data-paper-data="{&quot;index&quot;:null}" fill="none" stroke="#000000" stroke-width="2" stroke-linecap="round"/><path d="M327.24159,180.13962l-14.30123,0.54736" fill="none" stroke="#00b209" stroke-width="8" stroke-linecap="round"/><path d="M345.50472,214.57719c0,0 -2.13952,16.35796 -27.03551,17.03954c-21.26441,0.58216 -23.92799,-17.03954 -23.92799,-17.03954" fill="none" stroke="#000000" stroke-width="4" stroke-linecap="round"/><path d="M385.46548,141.82492c0,0 -9.9697,11.85373 -20.811,11.92532c-7.61865,0.0503 -14.28253,-12.08997 -24.20724,-10.70738c-6.44726,0.89816 -13.11565,9.81047 -19.66036,10.14671c-6.06477,0.31156 -12.54967,-11.27052 -18.07736,-10.61674c-12.20651,1.44371 -20.0358,12.87281 -26.17711,12.99916c-10.71641,0.22051 -24.07354,-11.01032 -24.07354,-11.01032c0,0 18.48958,-37.9783 67.31882,-41.31936c43.01723,-2.9434 65.68779,38.58259 65.68779,38.58259z" fill="#ff9700" stroke="#000000" stroke-width="2" stroke-linecap="round"/><path d="M278.12211,199.66772l-4.38792,-35.91502h41.27038l-4.38792,35.91502z" fill="none" stroke="#00b209" stroke-width="8" stroke-linecap="butt"/><path d="M385.46548,141.82492c0,0 -9.9697,11.85373 -20.811,11.92532c-7.61865,0.0503 -14.28253,-12.08997 -24.20724,-10.70738c-6.44726,0.89816 -13.11565,9.81047 -19.66036,10.14671c-6.06477,0.31156 -13.11974,-1.57917 -18.64743,-0.92538c-12.20651,1.44371 -21.74606,8.88225 -27.88736,9.0086c-10.71641,0.22051 -25.2137,-7.01976 -25.2137,-7.01976c0,0 13.92894,-48.23974 70.7393,-51.01071c44.15739,-0.09301 65.68779,38.58259 65.68779,38.58259z" fill="url(#color-1)" stroke="#000000" stroke-width="4" stroke-linecap="round"/><path d="M329.42928,199.66772l-4.3879,-35.91502h40.89897l-4.01652,35.91502z" fill="none" stroke="#00b209" stroke-width="8" stroke-linecap="butt"/><path d="M370.94823,123.96223c0,0 18.70554,13.94221 23.39831,37.74207c2.68834,12.54558 -1.73526,40.35887 -1.73526,40.35887c0,0 -9.91029,9.47063 -15.4124,9.65403c-5.87502,0.19583 -18.79239,-8.51387 -18.79239,-8.51387l-44.88788,-50.21318" fill="url(#color-2)" stroke="#000000" stroke-width="4" stroke-linecap="round"/><text transform="translate(257.80148,175.86872) scale(0.13074,0.13074)" font-size="40" xml:space="preserve" fill="#003aff" fill-rule="nonzero" stroke="none" stroke-width="1" stroke-linecap="butt" stroke-linejoin="miter" stroke-miterlimit="10" stroke-dasharray="" stroke-dashoffset="0" font-family="Serif" font-weight="normal" text-anchor="start" style="mix-blend-mode: normal"><tspan x="0" dy="0">DB&lt;3</tspan></text><path d="M236.38809,210.82431c0,0 -5.90039,-13.37986 -5.90039,-19.27461c0,-6.15686 5.90039,-16.91447 5.90039,-16.91447h18.09455v36.18908z" fill="#232323" stroke="none" stroke-width="NaN" stroke-linecap="butt"/><path d="M385.51737,210.82431v-36.18908h18.09453c0,0 5.9004,10.75761 5.9004,16.91447c0,5.89475 -5.9004,19.27461 -5.9004,19.27461z" data-paper-data="{&quot;index&quot;:null}" fill="#232323" stroke="none" stroke-width="NaN" stroke-linecap="butt"/><path d="M246.22207,173.50668c0,0 8.31083,-69.07099 75.57102,-68.63839c62.84142,0.40418 71.93884,69.03174 71.93884,69.03174" data-paper-data="{&quot;index&quot;:null}" fill="none" stroke="#232323" stroke-width="10" stroke-linecap="round"/><path d="M392.55186,204.53057c0,0 -6.97257,21.13352 -13.57091,27.73186c-6.30348,6.30348 -32.25548,9.04727 -32.25548,9.04727" fill="none" stroke="#000000" stroke-width="3" stroke-linecap="round"/><path d="M333.54792,247.40677c-3.1896,-1.55169 -5.50705,-4.66796 -5.50705,-6.29376c0,-1.4822 2.01758,-3.62968 4.32697,-4.64357c2.30939,-1.01389 5.68467,-1.57344 9.834,-1.57344c3.82208,0 11.80079,1.96681 11.80079,1.96681v9.36388c0,0 -7.4416,1.96681 -11.40744,1.96681c-4.0314,0 -5.85766,0.76499 -9.04726,-0.78673z" fill="#000000" stroke="#000000" stroke-width="0.5" stroke-linecap="butt"/><path d="M294.55061,195.48366l-1.09471,-26.82027" fill="none" stroke="#000000" stroke-width="7" stroke-linecap="round"/><text transform="translate(204.59012,116.54375) scale(0.5,0.5)" font-size="40" xml:space="preserve" fill="#006bff" fill-rule="nonzero" stroke="none" stroke-width="1" stroke-linecap="butt" stroke-linejoin="miter" stroke-miterlimit="10" stroke-dasharray="" stroke-dashoffset="0" font-family="Marker" font-weight="normal" text-anchor="start" style="mix-blend-mode: normal"><tspan x="0" dy="0">give a 2 brain cell person</tspan><tspan x="0" dy="46.150000000000006px">a keyboard and mouse</tspan><tspan x="0" dy="46.150000000000006px">and watch them create</tspan><tspan x="0" dy="46.150000000000006px">dumb blog posts about</tspan><tspan x="0" dy="46.150000000000006px">dumb scratch projects that</tspan><tspan x="0" dy="46.150000000000006px">i put a lot of effort into</tspan><tspan x="0" dy="46.150000000000006px">and im proud about it</tspan></text></g></g></svg>