<svg version="1.1" xmlns="http://www.w3.org/2000/svg" xmlns:xlink="http://www.w3.org/1999/xlink" width="69.00099" height="54.672" viewBox="0,0,69.00099,54.672"><defs><linearGradient x1="483.33632" y1="324.70321" x2="552.33655" y2="324.70321" gradientUnits="userSpaceOnUse" id="color-1"><stop offset="0.012" stop-color="#66b3e3"/><stop offset="1" stop-color="#1c75bc"/></linearGradient><linearGradient x1="513.51164" y1="331.25496" x2="522.49924" y2="331.25496" gradientUnits="userSpaceOnUse" id="color-2"><stop offset="0" stop-color="#ffde00"/><stop offset="1" stop-color="#ffac00"/></linearGradient><linearGradient x1="499.48744" y1="317.71082" x2="510.11237" y2="317.71082" gradientUnits="userSpaceOnUse" id="color-3"><stop offset="0" stop-color="#ffde00"/><stop offset="1" stop-color="#ffac00"/></linearGradient><linearGradient x1="525.2213" y1="317.71082" x2="536.18484" y2="317.71082" gradientUnits="userSpaceOnUse" id="color-4"><stop offset="0" stop-color="#ffde00"/><stop offset="1" stop-color="#ffac00"/></linearGradient><linearGradient x1="506.02196" y1="317.71082" x2="529.98893" y2="317.71082" gradientUnits="userSpaceOnUse" id="color-5"><stop offset="0" stop-color="#ffde00"/><stop offset="1" stop-color="#ffac00"/></linearGradient></defs><g transform="translate(-483.33564,-297.36701)"><g data-paper-data="{&quot;isPaintingLayer&quot;:true}" fill-rule="nonzero" stroke-linejoin="miter" stroke-miterlimit="10" stroke-dasharray="" stroke-dashoffset="0" style="mix-blend-mode: normal"><path d="M552.33663,343.43401c0,4.752 -2.92227,8.605 -6.52469,8.605h-55.95237c-3.60318,0 -6.52393,-3.854 -6.52393,-8.605v-37.463c0,-4.752 2.92076,-8.604 6.52393,-8.604h55.95161c3.60469,0 6.52469,3.852 6.52469,8.604v37.463z" fill="url(#color-1)" stroke="none" stroke-width="1" stroke-linecap="butt"/><path d="M548.75846,305.97251v37.462c0,2.862 -1.70974,5.19 -3.81404,5.19h-54.21729c-2.10209,0 -3.81331,-2.328 -3.81331,-5.19v-37.463c0,-2.862 1.71121,-5.19 3.81331,-5.19h54.21729c2.1043,0 3.81404,2.329 3.81404,5.191z" fill="#27aae1" stroke="none" stroke-width="1" stroke-linecap="butt"/><path d="M513.51164,335.74877l1.87242,-8.98761h4.86828l2.2469,8.98761z" fill="url(#color-2)" stroke="none" stroke-width="0" stroke-linecap="butt"/><path d="M509.01783,342.33359v-8.61313h17.97523v8.61313z" fill="#8a6a4f" stroke="none" stroke-width="0" stroke-linecap="butt"/><path d="M510.11238,323.69595c0,0 -9.93602,-6.26376 -10.61602,-10.84834c-0.29,-1.95519 6.59499,-0.76066 6.59499,-0.76066" fill="none" stroke="url(#color-3)" stroke-width="3" stroke-linecap="round"/><path d="M529.37048,312.08695c0,0 7.1044,-1.19453 6.80517,0.76066c-0.70167,4.58458 -10.95434,10.84834 -10.95434,10.84834" data-paper-data="{&quot;index&quot;:null}" fill="none" stroke="url(#color-4)" stroke-width="3" stroke-linecap="round"/><path d="M506.02196,313.20936c0,-8.00166 23.96697,-8.36151 23.96697,0c0,8.36151 -5.36519,15.13986 -11.98349,15.13986c-6.6183,0 -11.98348,-6.77835 -11.98348,-15.13986z" fill="url(#color-5)" stroke="none" stroke-width="0" stroke-linecap="butt"/></g></g></svg>