<svg version="1.1" xmlns="http://www.w3.org/2000/svg" xmlns:xlink="http://www.w3.org/1999/xlink" width="98.14529" height="58.18068" viewBox="0,0,98.14529,58.18068"><g transform="translate(-253.23188,-152.54137)"><g data-paper-data="{&quot;isPaintingLayer&quot;:true}" fill-rule="nonzero" stroke-linejoin="miter" stroke-miterlimit="10" stroke-dasharray="" stroke-dashoffset="0" style="mix-blend-mode: normal"><text transform="translate(290.23901,192.84972) scale(1.07081,1.07081)" font-size="40" xml:space="preserve" fill="#ffffff" fill-rule="nonzero" stroke="none" stroke-width="1" stroke-linecap="butt" stroke-linejoin="miter" stroke-miterlimit="10" stroke-dasharray="" stroke-dashoffset="0" font-family="Curly" font-weight="normal" text-anchor="start" style="mix-blend-mode: normal"><tspan x="0" dy="0">2/6</tspan></text><path d="M253.98188,182.61878c0,-9.1227 7.39542,-25.90341 16.51812,-25.90341c9.1227,0 16.51812,16.78071 16.51812,25.90342c0,9.1227 -7.39542,16.51811 -16.51812,16.51811c-9.1227,0 -16.51812,-7.39541 -16.51812,-16.51811z" fill="#ff9191" stroke="#000000" stroke-width="1.5" stroke-linecap="butt"/><path d="M285.35312,177.1703l-6.382,6.00659l-7.88365,-7.50824l-6.00659,6.382l-9.38529,-7.88365" fill="none" stroke="#ff0000" stroke-width="2" stroke-linecap="round"/><path d="M259.03488,172.28994c0,-1.26576 1.02611,-2.29188 2.29188,-2.29188c1.26576,0 2.29188,1.02611 2.29188,2.29188c0,1.26576 -1.02612,2.29187 -2.29188,2.29187c-1.26576,0 -2.29188,-1.02611 -2.29188,-2.29187z" fill="#ff0000" stroke="none" stroke-width="0.5" stroke-linecap="butt"/><path d="M269.171,168.16041c0,-1.26576 1.02611,-2.29188 2.29188,-2.29188c1.26576,0 2.29188,1.02611 2.29188,2.29188c0,1.26576 -1.02612,2.29188 -2.29188,2.29188c-1.26576,0 -2.29188,-1.02611 -2.29188,-2.29188z" fill="#ff0000" stroke="none" stroke-width="0.5" stroke-linecap="butt"/><path d="M277.80548,173.79158c0,-1.26576 1.02611,-2.29188 2.29188,-2.29188c1.26576,0 2.29188,1.02611 2.29188,2.29188c0,1.26576 -1.02611,2.29188 -2.29188,2.29188c-1.26576,0 -2.29188,-1.02612 -2.29188,-2.29188z" fill="#ff0000" stroke="none" stroke-width="0.5" stroke-linecap="butt"/><path d="M256.407,185.80477c0,-1.26576 1.02612,-2.29188 2.29188,-2.29188c1.26576,0 2.29188,1.02612 2.29188,2.29188c0,1.26576 -1.02611,2.29188 -2.29188,2.29188c-1.26576,0 -2.29188,-1.02611 -2.29188,-2.29188z" fill="#ff0000" stroke="none" stroke-width="0.5" stroke-linecap="butt"/><path d="M268.79559,189.9343c0,-1.26576 1.02612,-2.29188 2.29188,-2.29188c1.26576,0 2.29188,1.02612 2.29188,2.29188c0,1.26576 -1.02611,2.29188 -2.29188,2.29188c-1.26576,0 -2.29188,-1.02611 -2.29188,-2.29188z" fill="#ff0000" stroke="none" stroke-width="0.5" stroke-linecap="butt"/><path d="M281.18418,186.55558c0,-1.26576 1.02612,-2.29188 2.29188,-2.29188c1.26576,0 2.29188,1.02611 2.29188,2.29188c0,1.26576 -1.02611,2.29188 -2.29188,2.29188c-1.26576,0 -2.29188,-1.02612 -2.29188,-2.29188z" fill="#ff0000" stroke="none" stroke-width="0.5" stroke-linecap="butt"/></g></g></svg>