<svg version="1.1" xmlns="http://www.w3.org/2000/svg" xmlns:xlink="http://www.w3.org/1999/xlink" width="647" height="372" viewBox="0,0,647,372"><defs><linearGradient x1="-3.5" y1="180" x2="643.5" y2="180" gradientUnits="userSpaceOnUse" id="color-1"><stop offset="0" stop-color="#200040"/><stop offset="1" stop-color="#845b00"/></linearGradient><linearGradient x1="162.93891" y1="37.35736" x2="185.60863" y2="37.35736" gradientUnits="userSpaceOnUse" id="color-2"><stop offset="0" stop-color="#ff7b00"/><stop offset="1" stop-color="#753900"/></linearGradient><linearGradient x1="139.07605" y1="37.35736" x2="161.74577" y2="37.35736" gradientUnits="userSpaceOnUse" id="color-3"><stop offset="0" stop-color="#ff7b00"/><stop offset="1" stop-color="#753900"/></linearGradient><linearGradient x1="145.61934" y1="37.35736" x2="179.06535" y2="37.35736" gradientUnits="userSpaceOnUse" id="color-4"><stop offset="0" stop-color="#ff7b00"/><stop offset="1" stop-color="#753900"/></linearGradient><linearGradient x1="488.76473" y1="37.35736" x2="511.43445" y2="37.35736" gradientUnits="userSpaceOnUse" id="color-5"><stop offset="0" stop-color="#ff7b00"/><stop offset="1" stop-color="#753900"/></linearGradient><linearGradient x1="464.90187" y1="37.35736" x2="487.57159" y2="37.35736" gradientUnits="userSpaceOnUse" id="color-6"><stop offset="0" stop-color="#ff7b00"/><stop offset="1" stop-color="#753900"/></linearGradient><linearGradient x1="471.44516" y1="37.35736" x2="504.89117" y2="37.35736" gradientUnits="userSpaceOnUse" id="color-7"><stop offset="0" stop-color="#ff7b00"/><stop offset="1" stop-color="#753900"/></linearGradient></defs><g transform="translate(3.5,6)"><g data-paper-data="{&quot;isPaintingLayer&quot;:true}" fill-rule="nonzero" stroke-linejoin="miter" stroke-miterlimit="10" stroke-dasharray="" stroke-dashoffset="0" style="mix-blend-mode: normal"><path d="M-3.5,366v-372h647v372z" fill="url(#color-1)" stroke="none" stroke-width="0" stroke-linecap="butt"/><text transform="translate(190.05474,49.26876) scale(1.23673,1.23673)" font-size="40" xml:space="preserve" fill="#ffffff" fill-rule="nonzero" stroke="none" stroke-width="1" stroke-linecap="butt" stroke-linejoin="miter" stroke-miterlimit="10" stroke-dasharray="" stroke-dashoffset="0" font-family="Marker" font-weight="normal" text-anchor="start" style="mix-blend-mode: normal"><tspan x="0" dy="0">My Projects</tspan></text><text transform="translate(142.49857,85.76876) scale(0.5,0.5)" font-size="40" xml:space="preserve" fill="#ffffff" fill-rule="nonzero" stroke="none" stroke-width="1" stroke-linecap="butt" stroke-linejoin="miter" stroke-miterlimit="10" stroke-dasharray="" stroke-dashoffset="0" font-family="Marker" font-weight="normal" text-anchor="start" style="mix-blend-mode: normal"><tspan x="0" dy="0">Click one of the buttons to get a link</tspan></text><g stroke="none" stroke-width="1" stroke-linecap="butt"><path d="M550.65267,326.14179c-1.82412,0.13374 -2.35771,0.13374 -3.38076,-2.71547c-0.80106,-2.22533 -0.08893,-5.60812 0.31092,-7.87825c0.40053,-2.35906 0.9348,-4.80706 -0.31092,-6.94413c-1.29053,-2.31426 -0.88999,-4.22866 0.44466,-5.91972c0.71213,-0.89067 4.22663,-1.2464 6.13967,1.29053c1.77999,2.31494 2.00198,7.38947 1.86892,9.74853c-0.13374,3.69439 -3.20357,12.28478 -5.07249,12.41851z" fill="#aaa082"/><path d="M552.2548,304.73168c0.84519,1.20159 0.04413,2.31426 -1.02373,2.8044c-0.93412,0.40053 -2.04611,0 -2.44664,-0.97961c0,-0.04413 -0.04481,-0.04413 -0.04481,-0.08893c-0.17786,-0.6232 -0.04413,-1.33533 0.35641,-1.8696c0.08893,-0.13306 0.22199,-0.26679 0.35573,-0.35573c0.17786,-0.13374 0.40053,-0.22267 0.62252,-0.3116c0.57839,-0.13374 1.33533,-0.44534 2.18052,0.80106z" fill="#dcd2b4"/></g><g stroke="none" stroke-width="1" stroke-linecap="butt"><path d="M520.66643,301.83835c1.86824,-1.558 5.07182,-1.33533 6.85113,0.35641c1.51319,1.46839 1.06786,5.20759 -0.88932,5.78598c-2.18052,1.11334 -1.51319,2.76027 -1.11266,4.80774c0.44534,2.1812 0.44534,4.40653 0.71213,6.63185c0.17786,1.69174 0.57839,3.82813 -0.08893,5.47506c-0.44534,1.15747 -1.42358,1.60281 -2.49144,1.64693c-0.26747,0 -1.95785,-0.75694 -2.89197,-2.67066c-1.51252,-2.93746 -2.44732,-7.70039 -2.49144,-9.74785c-0.13374,-4.54026 0.53359,-10.72746 2.40251,-12.28546z" fill="#c8bea0"/><path d="M525.87199,303.66315c0.44466,1.29121 0.04413,2.44867 -1.02373,2.89333c-0.93412,0.40053 -2.04678,0 -2.44664,-0.97893c0,-0.04481 -0.04481,-0.04481 -0.04481,-0.08893c-0.17786,-0.6232 -0.04413,-1.33533 0.35573,-1.8696c0.08893,-0.13374 0.22267,-0.26747 0.35641,-0.35641c0.17786,-0.13374 0.40053,-0.22267 0.62252,-0.3116c0.71213,-0.17786 1.86892,0.04481 2.18052,0.71213z" fill="#f0e6d2"/></g><g fill="#aaa082" stroke="none" stroke-width="1" stroke-linecap="butt"><path d="M551.2073,357.68942c0.18126,-3.15198 1.51591,-25.54441 3.00467,-26.2063c0.71213,0.3116 1.42426,0.66801 1.60213,2.13639c0.76033,6.28902 -2.80236,21.19287 -3.52332,24.11404c1.80307,0.07128 3.83424,0.14528 3.83424,0.14528l0.17854,0.80106c0,0 -5.29448,0.35641 -5.69502,0.13374c-0.84519,0 -1.64625,-0.13374 -2.44732,-0.44534l-0.35573,-2.22533c0.66733,-0.22267 1.29053,-0.44534 1.95785,-0.6232c0.04413,0.04413 -0.26679,2.22533 -0.17786,2.09159c0.13374,0.01358 0.78205,0.04345 1.62181,0.07807z"/><path d="M548.91816,331.57205l0.53359,0.26747c1.06786,4.00599 0.62252,8.67931 0.62252,12.81905c0,3.96187 0.04481,13.13132 0.04481,13.13132l-1.29053,0.26679l-1.02305,-1.91373c0.04481,0 -2.62518,-22.56758 1.11266,-24.57091z"/><path d="M554.34571,327.61086c0.6232,1.60213 -0.04481,3.16013 -1.51252,3.73852c-1.20159,0.49014 -2.89197,0.04481 -3.38144,-1.33533c-0.26679,-0.80106 -0.08893,-1.69106 0.48946,-2.35906c0.13306,-0.17786 0.3116,-0.3116 0.48946,-0.44466c0.26679,-0.17854 0.53359,-0.3116 0.84519,-0.40053c0.80106,-0.13374 2.35771,-0.35641 3.06984,0.80106z"/><path d="M548.60656,326.67606c0.44466,0.17786 0.66733,0.66733 0.48946,1.11266c0,0 0,0.04481 -0.04481,0.04481c-0.17786,0.40053 -0.62252,0.6232 -1.02305,0.44466c-0.22267,-0.13306 -0.40053,-0.35573 -0.40053,-0.6232c0,-0.08893 0,-0.13306 0,-0.22267c0,-0.08893 0.04481,-0.17786 0.08893,-0.26679c0.22267,-0.17786 0.48946,-0.57839 0.88999,-0.48946z"/></g><g fill="#c8bea0" stroke="none" stroke-width="1" stroke-linecap="butt"><path d="M520.71056,334.24271c0.17786,-0.48946 0.26679,-0.88999 0.66733,-1.06786c0.44534,-0.04481 0.75626,0.22267 1.11266,0.44466c2.98091,7.1668 3.73716,15.66825 5.20555,23.23558h-0.84587c-1.69038,-2.8492 -2.31358,-5.6088 -3.06984,-8.76893c-1.02305,-4.62919 -2.40251,-9.08053 -3.06984,-13.84346z"/><path d="M527.9629,356.54349c0,0 1.73518,-0.6232 1.69038,-0.71213c0.26679,0.44466 0.3116,0.97893 0.17786,1.46839c-0.13306,0.3116 -1.06786,0.40121 -2.31358,0.40121c-1.06786,0 -2.98091,0.22199 -3.95915,-0.26747c0,-0.08893 -0.04481,-0.22267 -0.08893,-0.35573c0.39985,-0.40053 1.33465,-0.3116 1.86824,-0.35641z"/><path d="M526.80611,332.95218c0.93412,-0.26747 1.20092,4.09493 1.51252,6.05346c0.3116,2.27013 0.6232,4.54026 0.80106,6.81039c0.22199,2.44799 0.57839,10.01533 0.57839,10.01533l-0.6232,1.29053l-1.02305,-0.08893l-2.04678,-21.14331c-0.04413,0 -0.13306,-2.67066 0.80106,-2.93746z"/><path d="M520.97736,330.81579c0,-0.13374 -0.04413,-0.35641 -0.08893,-0.53427c-0.08893,-1.64693 0.44534,-2.27013 2.18052,-2.71547c0.80038,-0.22267 1.60145,-0.04413 2.26877,0.44534c1.33465,1.15747 0.40053,3.33799 -1.11198,3.69439l-1.15679,0.3116c-0.80106,-0.13374 -1.60213,-0.35641 -2.09159,-1.20159z"/><path d="M526.7613,326.63125c0.13374,0.44534 -0.17786,0.9348 -0.62252,1.02373h-0.04481c-0.44466,0.08893 -0.84519,-0.17786 -0.93412,-0.6232c-0.04481,-0.26679 0.08893,-0.53359 0.26679,-0.66733c0.04481,-0.04481 0.13374,-0.08893 0.17786,-0.08893c0.08893,-0.04481 0.17786,-0.04481 0.26747,-0.04481c0.26679,0 0.75626,0.04481 0.88932,0.40053z"/></g><path d="M545.58085,307.17968c-0.17786,3.16013 -4.53755,2.71547 -6.85113,2.8044c-2.44732,0.08893 -5.96181,0.17786 -7.96379,-1.46907c-2.31358,-1.8696 -0.48946,-5.16346 -2.26945,-7.25505c-2.09091,-2.40387 -5.38342,-0.66801 -7.87486,-1.2464c-0.3116,-4.0508 9.83271,-2.04746 11.96843,-1.95853c4.71541,0.13306 9.38737,-0.44534 14.05866,-0.97961c1.73518,-0.22267 4.04876,-0.75626 5.73914,-0.35573c1.69106,0.40053 3.02571,2.71479 0.88999,3.69439c-1.28985,0.57839 -3.60343,-0.6232 -5.16075,-0.3116c-2.62518,0.48946 -2.71411,2.1812 -2.53625,7.07719zM532.85685,301.57156c-0.26679,0.80106 0,3.69439 1.15679,4.67332c0.66733,0.57907 2.00198,0.57907 3.20289,0.75694c2.44732,0.35573 4.04876,-0.04481 4.53823,-2.04746c0.3116,-1.33533 0.17786,-1.78067 0.17786,-3.29386c0,-1.51387 -1.60145,-1.33533 -2.17984,-1.11266c-0.57839,0.22199 -0.04481,1.15679 -0.6232,1.60213c-0.44466,0.3116 -2.49144,0.66801 -3.06984,0.08893c-0.57839,-0.57839 0,-1.20159 -1.11198,-1.42426c-1.11198,-0.22267 -1.82412,-0.04481 -2.09091,0.75694z" fill="#dcd2b4" stroke="none" stroke-width="1" stroke-linecap="butt"/><path d="M569.96168,338.51618l-0.88932,-0.04481c-4.1825,-5.56399 -2.89197,-13.88758 -2.31358,-20.4305c0.40053,-4.0508 0.22199,-8.1016 -0.53427,-12.10759c-0.22199,-1.06786 -0.75626,-8.01199 4.04876,-8.50145c4.80502,-0.48946 3.51517,8.14573 3.51517,10.14838c0,3.69439 -0.08961,7.38947 -0.22267,11.08386c-0.22267,6.40918 1.95717,15.26704 -3.60411,19.85211zM569.25023,306.73434c-0.84519,0.75694 -0.80106,4.49614 -0.88999,5.6088c-0.17786,2.27013 -0.17786,4.54026 -0.04413,6.81039c0.17786,2.44799 0.35573,4.85186 0.35573,7.29986c0,1.95853 -0.35573,4.58439 0.04413,6.45399l0.80106,0.84587c0.35573,0.17786 0.75626,0.17786 1.11198,0.08893c1.69106,-4.54026 0.88999,-9.03572 0.9348,-13.75385c0,-2.4928 -0.04481,-4.94079 -0.04481,-7.43359c0,-1.60213 0.71213,-5.56399 -1.64625,-6.05346z" fill="#c8bea0" stroke="none" stroke-width="1" stroke-linecap="butt"/><path d="M499.08797,334.33164c-2.31358,-2.31426 -1.42358,-5.47438 -1.20092,-8.50145c0.26679,-3.4276 0.88999,-6.76559 1.86824,-10.05945c0.88999,-2.93814 1.69106,-5.87559 2.35838,-8.85786c0.3116,-1.51387 0.80106,-3.116 0.57839,-4.62919c-0.22267,-1.64693 -1.29053,-7.34466 4.18182,-7.4784c5.47235,-0.13306 0.75626,9.74853 0.44534,10.86119c-1.02373,3.51653 -1.46839,7.38879 -2.22465,10.99425c-0.75626,3.51653 -0.71213,7.07719 -1.33465,10.59372c-0.66733,3.4276 -0.75626,6.58773 -4.67196,7.07719zM505.45031,301.52675c-1.55732,0.35641 -2.44664,5.07453 -2.80304,6.40986c-0.62252,2.4928 -1.06786,5.07453 -1.51252,7.65558c-0.40053,2.1812 -0.93412,4.31827 -1.37946,6.45467c-0.39985,1.8696 -1.77931,5.65293 -0.48878,7.38879l1.51252,0.40053c1.42358,-1.69106 1.24572,-4.80706 1.69038,-6.85452c0.53427,-2.4928 1.20159,-4.9856 1.73518,-7.4784c0.44466,-2.09159 3.51517,-13.21958 1.24572,-13.97651z" fill="#dcd2b4" stroke="none" stroke-width="1" stroke-linecap="butt"/><g fill="#c8bea0" stroke="none" stroke-width="1" stroke-linecap="butt"><path d="M565.64613,343.05644c-0.22199,-1.02373 0.13374,-2.09227 0.9348,-2.75959c0.35573,-0.26747 2.44664,-1.29121 3.46969,-0.75694c1.82412,0.88999 2.66998,3.91706 1.42426,4.94079c-0.71213,0.57839 -2.09159,1.15747 -3.20357,0.80106c-1.11198,-0.35573 -2.04678,-1.69106 -2.62518,-2.22533z"/><path d="M569.11649,346.17244c0,0.44466 0.04481,0.84519 0.04481,1.24572c0.04413,1.11334 0.04413,2.1812 0.08893,3.29386c0,0.97961 -0.08893,1.9144 -0.35573,2.8492c-0.22267,0.80106 -0.6232,1.02373 -1.51319,0.84587c-0.22199,-0.17854 -0.22199,-0.44534 -0.22199,-0.66801c-0.08893,-1.20159 0,-2.35906 0.26679,-3.51653c0.17786,-0.71213 0.3116,-1.46907 0.48946,-2.22533c0.08893,-0.40053 0.22199,-0.75694 0.35573,-1.11266c0.08893,-0.40121 0.44466,-0.66801 0.84519,-0.71213z"/><path d="M570.80755,353.33856c-0.57839,-1.15747 -0.84587,-5.74186 -0.44534,-7.34466c0.08893,-0.08893 0.22267,-0.13306 0.35641,-0.17786c0.13306,-0.04481 0.31092,-0.08893 0.44466,-0.08893c0.08893,0.17786 0.17786,0.35573 0.22267,0.53427c0.04413,0.26679 0.08893,0.53359 0.13306,0.84519c0.08893,1.11334 0.22267,2.1812 0.26679,3.29386c0,0.71281 -0.08893,1.42494 -0.22199,2.09227c-0.04481,0.40053 -0.3116,0.75694 -0.75626,0.84587z"/><path d="M565.82399,344.08017l0.80106,0.53427c0.04481,0.97893 0,2.00266 -0.17786,2.98226c-0.17786,1.02373 -0.3116,2.04746 -0.40053,3.07119c-0.04413,0.71213 -0.35573,1.37946 -0.88999,1.82479c-0.13306,-0.17786 -0.31092,-0.26679 -0.39985,-0.40053c-0.08893,-0.22267 -0.08893,-0.48946 -0.08893,-0.75694c0.17786,-2.35906 0.62252,-4.67332 0.97825,-7.03238c0.04481,0 0.08893,-0.04481 0.17786,-0.22267z"/><path d="M562.53216,346.83977c-0.3116,-0.26679 -0.40053,-0.71213 -0.3116,-1.11266c0.13374,-0.44534 0.22267,-0.9348 0.40053,-1.38014c0.17786,-0.53427 0.44466,-1.02373 0.62252,-1.558c0.26747,-0.53359 0.57839,-1.02373 0.97893,-1.46839c0.17786,-0.17854 0.40053,-0.3116 0.6232,-0.44534c0.08893,0.17786 0.17786,0.35573 0.17786,0.57839c-0.04481,1.558 -0.44534,3.07187 -1.06786,4.49614c-0.17786,0.6232 -0.80106,0.97893 -1.42358,0.88999z"/></g><g stroke="none" stroke-width="1" stroke-linecap="butt"><path d="M496.64133,339.09457c0.04413,-0.71213 0.22267,-1.37946 0.57839,-2.00266c0.44466,-0.66801 1.11198,-1.15747 1.86824,-1.33533c0.6232,-0.17854 1.20159,0.08893 1.77999,0.40053c0.17786,0.13306 0.3116,0.3116 0.35573,0.53427c0.13374,0.57839 0.22267,1.15679 0.26679,1.73586c-0.08893,1.06786 -0.75626,2.00266 -1.77931,2.35906c-0.08893,0.04413 -0.17786,0.04413 -0.26679,0.04413c-0.75626,-0.04413 -1.51319,-0.22199 -2.22465,-0.48946c-0.44534,-0.17786 -0.6232,-0.57839 -0.57839,-1.2464z" fill="#aaa082"/><path d="M501.93581,350.44523l-1.02373,-0.13374c-0.26679,-0.26679 -0.44466,-0.6232 -0.44466,-1.02373c-0.17786,-1.60213 -0.35573,-3.20493 -0.48946,-4.76225c-0.08893,-0.71281 -0.08893,-1.42494 0,-2.09227c0,-0.35641 0.13374,-0.66801 0.40053,-0.89067c0.26679,-0.08893 0.44466,0.08961 0.57839,0.26747c0.44466,0.57839 0.71213,1.29053 0.80106,2.00266c0.08893,0.97961 0.35573,1.95853 0.44466,2.89333c0.04481,0.89067 0.04481,1.73586 0,2.62654c-0.08893,0.40053 -0.13374,0.75626 -0.26679,1.11266z" fill="#c8bea0"/><path d="M498.33171,351.42484c-0.44466,-0.26747 -0.66733,-0.71281 -0.66733,-1.20227c-0.04413,-0.6232 -0.08893,-1.2464 -0.13306,-1.8696c-0.13374,-1.33533 -0.17854,-2.62586 -0.13374,-3.96119c0,-0.57907 0.08893,-1.20227 0.13374,-1.78067c0,-0.40053 0.26679,-0.71213 0.66733,-0.80106c0.04413,0.08893 0.13306,0.17786 0.13306,0.3116c0.04481,0.40053 0.17786,0.75626 0.35641,1.11266c0.08893,0.13374 0.13306,0.3116 0.13306,0.48946c0.13374,1.33533 0.44534,2.67066 0.44534,4.0508c0,0.84587 -0.08961,1.69174 -0.26747,2.4928c-0.04413,0.44466 -0.31092,0.88999 -0.66733,1.15747z" fill="#c8bea0"/><path d="M496.37454,349.51043c-0.75626,-1.46907 -0.88999,-6.45399 -0.17786,-8.01199c0.39985,0.26679 0.62252,0.71213 0.62252,1.20159c0,0.97961 0,1.95853 0,2.93814c0,0.57839 0,1.20159 0.04481,1.77999c0.08893,0.75694 -0.08961,1.51387 -0.48946,2.09227z" fill="#c8bea0"/><path d="M504.96085,343.36804c-0.48946,-0.13374 -0.88932,-0.49014 -1.06786,-0.97961c-0.13306,-0.22267 -0.22199,-0.44466 -0.26679,-0.71213c-0.35573,-1.37946 -0.84519,-2.75959 -1.42358,-4.0508c-0.04481,-0.13306 -0.08893,-0.26679 -0.08893,-0.35573c0.17786,-0.04481 0.35573,-0.04481 0.48946,-0.04481c0.62252,0.08961 1.15679,0.44534 1.51252,1.02373c0.66733,1.15747 1.37946,2.31494 1.69038,3.65027c0.13374,0.84587 0.04481,1.06854 -0.84519,1.46907z" fill="#c8bea0"/></g><g stroke="none" stroke-width="1" stroke-linecap="butt"><path d="M559.0618,270.23506c0.97893,-0.17786 3.38144,1.82479 4.27075,2.62586c3.20357,7.1668 6.13967,15.22359 6.5402,16.82572c0.71213,2.71547 3.02571,11.17279 0.53427,13.35331c-1.42358,-0.17786 -1.77999,-3.11532 -1.95785,-4.27279c-1.64625,-10.50479 -8.23058,-24.30344 -8.80898,-24.88251c-0.57839,-0.57839 -1.55732,-0.75626 -2.13572,-1.42426c-0.40053,-1.11266 0.84519,-1.73586 1.55732,-2.22533z" fill="#aaa082"/><path d="M571.96434,300.76981c0.57839,1.558 -0.08961,3.24974 -1.42426,3.82813c-1.15679,0.48946 -2.53557,-0.04413 -3.02503,-1.20159c0,-0.04481 -0.04481,-0.08893 -0.04481,-0.08893c-0.22199,-0.80106 -0.08893,-1.64693 0.44534,-2.27013c0.13306,-0.17786 0.26679,-0.3116 0.44466,-0.44534c0.22267,-0.17786 0.48946,-0.3116 0.75626,-0.40053c0.97893,-0.13374 2.00198,0.08893 2.84785,0.57839z" fill="#aaa082"/><path d="M557.77127,269.25545c0.08893,0.9348 -1.15679,1.95853 -2.71343,2.44867c-1.55732,0.48946 -5.65089,-0.3116 -5.02769,-2.8044c1.73518,-1.2464 4.18182,-1.46907 4.36036,-1.64693c1.69038,0.13374 3.29183,1.02373 3.38076,2.00266z" fill="#dcd2b4"/></g><g stroke="none" stroke-width="1" stroke-linecap="butt"><path d="M507.71976,297.25396c0.48878,1.15679 0,2.53693 -1.15679,3.11532c-0.9348,0.40053 -2.04678,0 -2.44732,-0.97893c0,-0.04481 -0.04413,-0.04481 -0.04413,-0.08893c-0.17854,-0.6232 -0.04481,-1.33533 0.35573,-1.8696c0.08893,-0.13374 0.22199,-0.26747 0.35573,-0.35641c0.17786,-0.13306 0.40053,-0.22267 0.6232,-0.3116c0.80038,-0.08893 1.60145,0.08893 2.31358,0.49014z" fill="#c8bea0"/><path d="M506.16244,298.54449l-0.53427,-0.13374c-1.28985,-3.69439 0.57839,-8.67931 1.37946,-12.24065c0.57839,-2.62586 1.06786,-5.25239 1.69038,-7.87825c0.44534,-1.9144 0.97893,-4.76293 2.31358,-6.40986c0.35641,-0.44534 2.13572,-1.69174 2.13572,-0.17786c-0.04481,5.02973 -3.60343,20.69798 -6.98486,26.84037z" fill="#c8bea0"/><path d="M516.0834,270.72452c-0.17786,-0.17786 -2.6245,-0.53427 -4.31556,-1.82479c-0.48946,-2.53693 3.60411,-3.16013 5.16143,-2.58173c1.55664,0.57839 2.75824,1.64693 2.6245,2.53693c-0.13306,0.89067 -1.82412,1.82547 -3.47037,1.8696z" fill="#dcd2b4"/></g><g stroke="none" stroke-width="1" stroke-linecap="butt"><path d="M532.85685,297.38702c0.08893,-0.71213 0.3116,-1.15747 0.71145,-1.2464c0.35641,-0.13306 0.71213,-0.22199 1.11266,-0.26679c1.06786,-0.13374 2.17984,0.04481 3.2477,0.04481c0.97893,-0.04481 1.95785,0 2.98091,0h0.48946c0.57839,0.93412 0.17786,2.35906 -0.35573,2.71479c-0.13374,0.04481 -0.22267,0.13374 -0.35641,0.17786c-0.66733,0.22267 -1.37878,0.3116 -2.04611,0.26747c-1.24572,0 -2.49212,-0.04481 -3.73784,-0.13374c-0.39985,0 -0.80038,-0.08893 -1.20092,-0.22267c-0.44466,-0.22267 -0.75626,-0.57839 -0.84519,-1.33533z" fill="#dcd2b4"/><path d="M531.96685,270.36879c0.08893,-0.71213 0.3116,-1.15747 0.71213,-1.2464c0.35573,-0.13374 0.71145,-0.22267 1.11198,-0.26747c1.06786,-0.13306 2.17984,0.04481 3.2477,0.04481c0.97893,-0.04481 1.95785,0 2.98091,0c0.17786,0 0.35573,0 0.48946,0c0.57839,0.9348 0.17786,2.35906 -0.35573,2.71547c-0.13374,0.04413 -0.22267,0.13306 -0.35573,0.17786c-0.66801,0.22267 -1.37946,0.3116 -2.04678,0.26679c-1.24572,0 -2.49144,-0.04413 -3.78197,-0.13374c-0.40053,0 -0.80038,-0.08893 -1.20092,-0.22199c-0.40053,-0.17854 -0.71213,-0.53427 -0.80106,-1.33533z" fill="#dcd2b4"/><path d="M537.35027,273.92945c0.57839,6.18719 0.97893,12.77492 0.62252,18.87318c-0.39985,0.84587 -0.75626,1.02373 -1.28985,0.71213c-0.53427,-1.33533 -0.35573,-3.16013 -0.35573,-4.674c0,-1.91373 -0.13374,-3.82813 -0.17854,-5.74186c-0.13306,-3.02707 -0.08893,-6.09826 0.08961,-9.16946z" fill="#c8bea0"/><path d="M533.92471,293.11423c0.17786,-2.4928 4.35968,-1.46907 6.09487,-1.38014c1.82412,4.22866 -5.82807,4.00599 -6.09487,1.38014z" fill="#c8bea0"/><path d="M534.4583,288.17344c0.17786,-2.4928 3.82609,-1.46907 5.33929,-1.38014c1.64557,4.27347 -5.07249,4.00599 -5.33929,1.38014z" fill="#c8bea0"/><path d="M534.85883,283.72211c0.17786,-2.4928 3.5593,-2.71547 4.44929,-0.84587c1.37878,2.93814 -4.1825,3.47173 -4.44929,0.84587z" fill="#c8bea0"/><path d="M534.32456,279.00398c0.17854,-2.4928 3.5593,-2.71547 4.44929,-0.84587c1.37946,2.98226 -4.22663,3.51653 -4.44929,0.84587z" fill="#c8bea0"/><path d="M534.59203,274.81944c0.13306,-2.00266 2.89197,-2.18052 3.60343,-0.66733c1.11266,2.40387 -3.38144,2.84853 -3.60343,0.66733z" fill="#c8bea0"/><path d="M538.15133,292.84676c0.08893,0.44534 -0.17854,0.9348 -0.66733,1.02373h-0.04481c-0.44466,0.08961 -0.84519,-0.22199 -0.93412,-0.6232c-0.04481,-0.26679 0.08893,-0.53359 0.3116,-0.66733c0.04413,-0.04481 0.13306,-0.08893 0.17786,-0.08893c0.08893,-0.04481 0.17786,-0.04481 0.26679,-0.04481c0.26679,-0.04413 0.75626,0 0.88999,0.40053z" fill="#dcd2b4"/><path d="M538.10653,287.95077c0.08893,0.44534 -0.17786,0.9348 -0.66733,1.02373h-0.04413c-0.44534,0.08893 -0.84587,-0.22267 -0.9348,-0.6232c-0.04413,-0.26679 0.08893,-0.53427 0.3116,-0.66801c0.04481,-0.04413 0.13374,-0.08893 0.17786,-0.08893c0.08893,-0.04413 0.17786,-0.04413 0.26679,-0.04413c0.26747,-0.04481 0.75626,0 0.88999,0.40053z" fill="#dcd2b4"/><path d="M538.0176,283.27677c0.08893,0.44534 -0.17786,0.9348 -0.66733,1.02373h-0.04481c-0.44466,0.08893 -0.84519,-0.22267 -0.93412,-0.6232c0,-0.26679 0.08893,-0.53359 0.3116,-0.66733c0.04413,-0.04481 0.13374,-0.08893 0.17786,-0.08893c0.08893,-0.04481 0.17786,-0.04481 0.26679,-0.04481c0.3116,-0.04413 0.80106,0 0.88999,0.40053z" fill="#dcd2b4"/><path d="M537.66187,278.55864c0.08893,0.44534 -0.17786,0.9348 -0.66733,1.02373h-0.04481c-0.44466,0.08893 -0.84519,-0.22267 -0.93412,-0.6232c-0.04481,-0.26679 0.08893,-0.53427 0.3116,-0.66733c0.04413,-0.04481 0.13306,-0.08893 0.17786,-0.08893c0.08893,-0.04481 0.17786,-0.04481 0.26679,-0.04481c0.26679,-0.04481 0.75626,0 0.88999,0.40053z" fill="#dcd2b4"/><path d="M537.4392,274.46372c0.08893,0.44534 -0.17786,0.9348 -0.66733,1.02373h-0.04481c-0.44466,0.08893 -0.84519,-0.22267 -0.93412,-0.6232c-0.04413,-0.26679 0.08893,-0.53427 0.3116,-0.66801c0.04413,-0.04413 0.13374,-0.08893 0.17786,-0.08893c0.08893,-0.04413 0.17786,-0.04413 0.26679,-0.04413c0.26747,-0.04481 0.80106,0 0.88999,0.40053z" fill="#dcd2b4"/></g><g stroke="none" stroke-width="1" stroke-linecap="butt"><path d="M523.7804,274.37479l1.86892,15.31185l-3.29251,0.84587c-4.04876,-0.66801 -5.07182,-16.78091 -5.07182,-16.78091z" fill="#c8bea0"/><path d="M555.01303,274.50784c2.26877,4.3624 -1.77931,16.02466 -1.77931,16.02466l-4.31556,-1.8696l-0.26747,-13.53186z" fill="#aaa082"/><path d="M515.95035,274.73051c-0.22267,-0.88999 -0.08893,-1.82479 0.35573,-2.62586c1.51252,-1.558 6.67394,-0.26747 8.49806,-0.08893c2.75824,0.22199 5.51647,0.57839 8.27471,1.11266c0.26747,0.26679 0.35641,0.66733 0.22267,1.02373c-2.04678,1.33533 -5.6054,1.06786 -8.00792,1.20159c-2.58105,0.13374 -7.20753,1.20227 -9.34325,-0.6232z" fill="#dcd2b4"/><path d="M516.92927,280.38344c-0.40053,-0.88999 -0.6232,-1.69106 -0.17854,-2.58173c4.71609,-0.9348 10.58897,-1.42426 15.39399,-0.9348c0.71213,0.89067 0.75626,1.02441 0.71213,1.82547c-4.67196,2.35906 -10.94469,3.38279 -15.92758,1.69106z" fill="#dcd2b4"/><path d="M518.79751,284.65691c2.80304,-0.75694 5.60608,-1.29121 8.49806,-1.64693c1.46771,-0.22267 5.11594,-1.78067 6.36166,-0.71213c0.22267,1.73586 -7.96379,3.96119 -9.1647,4.36172c-1.20159,0.40121 -3.78197,1.20227 -5.02769,0.80174c-1.46771,-0.49014 -0.97893,-1.51387 -0.66733,-2.8044z" fill="#dcd2b4"/><path d="M520.93323,290.5325c2.04678,-1.2464 4.67128,-1.69174 6.94074,-2.5376c1.95717,-0.71213 4.04876,-1.95853 6.1838,-1.86892c-0.84519,2.18052 -12.4124,7.83413 -13.12454,4.40653z" fill="#dcd2b4"/><path d="M519.10911,279.98291c1.11198,3.784 2.35771,7.52253 3.82609,11.17279l-1.73518,-0.22267c-3.95983,-2.8044 -5.29448,-16.60305 -5.29448,-16.60305l2.18052,-1.33533c0.13306,2.35906 0.48878,4.674 1.02305,6.98826z" fill="#dcd2b4"/><path d="M541.04331,279.62718l-0.48946,-0.89067c0.08893,-0.3116 0.22199,-0.6232 0.35573,-0.9348c1.64625,-1.29053 6.27341,-0.04413 8.18646,0.08961c2.13504,0.13306 4.18182,0.22199 6.27273,0.75626c0.40053,0.6232 0.6232,1.33533 0.71213,2.09227c-0.93412,2.1812 -5.29448,1.02373 -7.02967,0.84587c-2.75824,-0.22267 -5.47235,-0.89067 -8.00792,-1.95853z" fill="#dcd2b4"/><path d="M540.82064,274.32998c0.62252,-2.1812 4.84915,-1.37946 6.40647,-1.33533c2.66931,0.08893 5.33929,0.13374 7.96379,0.22267c2.66931,2.84853 -4.49342,2.93746 -5.38342,2.93746c-1.73518,-0.04413 -8.58631,0.71213 -8.98684,-1.82479z" fill="#dcd2b4"/><path d="M541.75476,282.4309c4.53823,0.35641 9.25432,1.64693 13.74774,2.62654l0.44466,0.66733c0.04481,0.57907 -0.08893,1.15747 -0.35573,1.69174c-1.64625,0.17786 -15.39399,-2.98226 -13.83667,-4.9856z" fill="#dcd2b4"/><path d="M541.8885,287.19383c0.44466,-1.95853 10.58829,2.13639 12.19042,2.67066l0.3116,0.89067c-0.71213,2.93746 -11.25629,-1.73654 -12.50202,-3.56134z" fill="#dcd2b4"/><path d="M554.25677,282.83211c0.22267,-2.31494 0.44466,-4.27347 0.17786,-5.83147c-0.13374,-1.20159 -0.53359,-2.31426 -1.11198,-3.33799l2.09091,0.04413c1.28985,2.00334 1.51252,8.41252 0.75626,12.32958c-0.75626,3.7392 -2.17984,5.2972 -2.17984,5.2972l-2.04678,-0.04481c0.3116,-1.02373 2.09091,-5.74186 2.31358,-8.45665z" fill="#dcd2b4"/></g><g stroke="none" stroke-width="1" stroke-linecap="butt"><path d="M536.28241,260.97667c1.82412,-0.6232 4.1825,-0.48946 5.96181,-0.97961c0.26679,0.53427 0.3116,3.116 0.26679,3.65027c-0.04413,0.53427 -0.17786,0.97893 -0.26679,1.51319c-0.04481,0.35641 -0.26679,0.6232 -0.53359,0.84587c-0.9348,0.75694 -2.13572,1.06854 -3.33731,0.88999c-0.57839,-0.04413 -1.06786,-0.40053 -1.28985,-0.9348c-0.3116,-0.88999 -0.97893,-3.96119 -0.80106,-4.98492z" fill="#c8bea0"/><path d="M536.05974,265.91746c0.04481,0.57839 -0.31092,1.11266 -0.88932,1.29053c-0.88999,0.35641 -1.91305,0.35641 -2.80304,0c-0.40053,-0.17786 -0.71213,-0.44466 -0.88999,-0.84519c-0.3116,-0.66801 -0.48946,-1.33601 -0.53359,-2.04814c-0.04481,-0.35573 -0.53427,-2.98226 -0.35641,-3.38279l5.11662,0.3116c0.04481,0.26747 0.22267,2.58173 0.22267,2.8044c0.04413,0.6232 0.08893,1.2464 0.13306,1.8696z" fill="#f0e6d2"/><path d="M529.69808,264.98266c-0.04481,0.22267 -0.13374,0.44534 -0.26747,0.66733c-1.33465,0.3116 -2.35771,-0.13306 -3.20289,-1.11266c-0.44534,-0.57839 -0.71213,-1.20159 -0.84519,-1.91373c-0.08893,-0.22267 -0.66733,-2.40387 -0.44534,-2.62654c0.71213,0.22267 4.22663,0.80174 4.93876,1.06854c0.08893,1.33533 0.04413,2.67066 -0.17786,3.91706z" fill="#f0e6d2"/><path d="M547.09405,258.5728c0.13306,0.97961 0,3.91706 -0.26747,4.76293c-0.22199,0.75694 -0.84519,1.37946 -1.60145,1.64693c-0.44466,-0.13374 -0.88999,-0.35641 -1.20159,-0.66801c-0.08893,-0.08893 -0.17786,-0.17786 -0.26679,-0.3116c-0.22199,-0.40053 -0.75626,-3.78333 -0.71145,-4.40653c0.35573,-0.08893 3.11396,-1.02373 4.04876,-1.02373z" fill="#aaa082"/><path d="M539.26332,237.96375c8.31952,0 13.21347,7.1668 12.41308,15.04505c-0.17786,1.82479 -0.75626,3.60546 -1.60213,5.25239c-0.97825,1.69174 -5.42754,2.93814 -7.25166,3.38279c-4.27143,1.02373 -5.82807,1.33533 -10.27737,1.02373c-3.64823,-0.26679 -8.85378,-1.20159 -11.12256,-4.36172c-2.13572,-2.98226 -2.35838,-8.01199 -1.82412,-11.52852c0.71145,-4.58507 3.06984,-6.18719 7.38539,-7.12199c4.00396,-0.84587 8.23058,-1.64693 12.27935,-1.69174z" fill="#dcd2b4"/><path d="M548.91816,250.16028c0.97825,2.67066 -0.08961,4.49546 -2.35838,5.47506c-1.82412,0.80106 -4.49342,0.08893 -5.24968,-2.226c-0.40053,-1.33533 -0.13374,-2.80372 0.75626,-3.91706c0.22267,-0.26679 0.48946,-0.53359 0.75626,-0.75626c0.40053,-0.26747 0.80106,-0.49014 1.29053,-0.6232c1.28985,-0.26747 3.78129,-0.49014 4.80502,2.04746z" fill="#ffffff"/><path d="M530.49847,249.80387c1.46839,2.1812 0,4.80774 -2.26877,5.78666c-1.82412,0.80106 -4.49342,0.08893 -5.24968,-2.22533c-0.40053,-1.2464 -0.08893,-2.98226 0.75626,-3.91706c0.22199,-0.26747 0.48946,-0.53427 0.75626,-0.75694c0.40053,-0.26679 0.80106,-0.48946 1.28985,-0.6232c1.29053,-0.3116 3.24838,-0.44534 4.71609,1.73586z" fill="#ffffff"/><path d="M527.56237,251.67347c-0.08893,0.48946 -0.13374,1.11266 -0.84519,1.20159c-0.57839,-0.35573 -0.40053,-0.88999 -0.40053,-1.37946c0.04413,-0.3116 0.26679,-0.57907 0.62252,-0.6232c0.35641,0.13374 0.57839,0.44534 0.6232,0.80106z" fill="#dcd2b4"/><path d="M544.91353,252.83094c-0.26679,-0.53427 -0.08893,-1.02373 -0.04413,-1.46907c0.04413,0 0.04413,-0.04413 0.04413,-0.04413c0.13374,-0.22267 0.48946,-0.3116 0.71213,-0.13374c0.17786,0.35573 0.26679,0.80106 0.22199,1.2464c-0.04413,0.17786 -0.08893,0.22267 -0.48878,0.57839z" fill="#dcd2b4"/><path d="M526.93917,250.87241c0.35641,0.13374 0.57839,0.44534 0.6232,0.80106c-0.08893,0.53427 -0.08893,1.11266 -0.84519,1.20159c-0.57839,-0.35573 -0.40053,-0.88999 -0.40053,-1.37946c0.04413,-0.3116 0.3116,-0.57907 0.62252,-0.6232z" fill="#000000"/><path d="M545.35886,253.0088l-0.48946,-0.22267c-0.26747,-0.53359 -0.08893,-1.02373 -0.04481,-1.46839c0.13374,-0.26747 0.44534,-0.35641 0.71213,-0.17854c0,0 0.04413,0 0.04413,0.04481c0.22267,0.40053 0.3116,0.84587 0.22267,1.2464c0,0.17786 -0.04481,0.22267 -0.44466,0.57839z" fill="#000000"/><path d="M539.57492,258.21707c-0.13374,0.17786 -0.17786,1.20159 -1.37946,0.57839c-1.20092,-0.6232 -1.06786,-1.82479 -1.91305,-1.69174c-0.84519,0.13374 -1.06786,1.82547 -2.31358,1.82547c-1.24572,0 -0.88999,-1.558 -0.75626,-2.27013c0.17786,-1.06854 0.48946,-2.09227 0.6232,-3.1608c0.17786,-1.02373 0.48878,-2.04746 0.93412,-2.98226c0.17786,-0.57839 0.71145,-0.97893 1.33465,-0.9348c2.13572,0.3116 3.51449,6.32093 3.47037,8.63587z" fill="#c8bea0"/></g><path d="M161.67211,29.48498v-11.93143" fill="#574431" stroke="#574431" stroke-width="10" stroke-linecap="round"/><path d="M185.60863,37.35736c0,8.48904 -5.07479,15.37076 -11.33486,15.37076c-6.26007,0 -11.33487,-6.88172 -11.33487,-15.37076c0,-8.48904 5.0748,-15.37076 11.33487,-15.37076c6.26007,0 11.33486,6.88172 11.33486,15.37076z" fill="url(#color-2)" stroke="none" stroke-width="0" stroke-linecap="butt"/><path d="M161.74577,37.35736c0,8.48904 -5.07479,15.37076 -11.33486,15.37076c-6.26007,0 -11.33486,-6.88172 -11.33486,-15.37076c0,-8.48904 5.07479,-15.37076 11.33486,-15.37076c6.26007,0 11.33486,6.88172 11.33486,15.37076z" fill="url(#color-3)" stroke="none" stroke-width="0" stroke-linecap="butt"/><path d="M179.06535,37.35736c0,9.82941 -7.48715,17.79772 -16.723,17.79772c-9.23587,0 -16.723,-7.96831 -16.723,-17.79772c0,-9.82941 7.48715,-17.79772 16.72301,-17.79772c9.23587,0 16.72301,7.96831 16.72301,17.79772z" fill="url(#color-4)" stroke="none" stroke-width="0" stroke-linecap="butt"/><path d="M175.42622,44.1245h-17.04663l-2.39898,1.96279l-2.18088,-1.96279h-4.54128c0,0 1.69999,7.54102 13.26816,7.3712c2.27976,-0.03347 3.75326,0.38347 5.70403,-0.73127c0.40972,-0.23413 0.7049,-2.43563 0.7049,-2.43563c0,0 2.37935,0.93634 2.82177,0.5254c2.0928,-1.94392 3.6689,-4.7297 3.6689,-4.7297z" fill="#ffde00" stroke="#000000" stroke-width="0.5" stroke-linecap="round"/><path d="M154.79375,26.13344l-5.24731,9.1074h10.199z" fill="#ffde00" stroke="#000000" stroke-width="0.5" stroke-linecap="round"/><path d="M170.18655,26.38999l-5.24731,8.85086h10.199z" fill="#ffde00" stroke="#000000" stroke-width="0.5" stroke-linecap="round"/><path d="M162.41951,36.09891l-2.73947,5.82621h5.32461z" fill="#ffde00" stroke="#000000" stroke-width="0.5" stroke-linecap="round"/><path d="M487.49793,29.48498v-11.93143" fill="#574431" stroke="#574431" stroke-width="10" stroke-linecap="round"/><path d="M511.43445,37.35736c0,8.48904 -5.07479,15.37076 -11.33486,15.37076c-6.26007,0 -11.33487,-6.88172 -11.33487,-15.37076c0,-8.48904 5.0748,-15.37076 11.33487,-15.37076c6.26007,0 11.33486,6.88172 11.33486,15.37076z" fill="url(#color-5)" stroke="none" stroke-width="0" stroke-linecap="butt"/><path d="M487.57159,37.35736c0,8.48904 -5.07479,15.37076 -11.33486,15.37076c-6.26007,0 -11.33486,-6.88172 -11.33486,-15.37076c0,-8.48904 5.07479,-15.37076 11.33486,-15.37076c6.26007,0 11.33486,6.88172 11.33486,15.37076z" fill="url(#color-6)" stroke="none" stroke-width="0" stroke-linecap="butt"/><path d="M504.89117,37.35736c0,9.82941 -7.48715,17.79772 -16.723,17.79772c-9.23587,0 -16.723,-7.96831 -16.723,-17.79772c0,-9.82941 7.48715,-17.79772 16.72301,-17.79772c9.23587,0 16.72301,7.96831 16.72301,17.79772z" fill="url(#color-7)" stroke="none" stroke-width="0" stroke-linecap="butt"/><path d="M501.25205,44.1245h-17.04662l-2.39898,1.96279l-2.18088,-1.96279h-4.54128c0,0 1.69999,7.54103 13.26816,7.3712c2.27976,-0.03347 3.75326,0.38347 5.70404,-0.73127c0.40972,-0.23412 0.7049,-2.43563 0.7049,-2.43563c0,0 2.37935,0.93634 2.82176,0.5254c2.0928,-1.94392 3.66889,-4.72971 3.66889,-4.72971z" fill="#ffde00" stroke="#000000" stroke-width="0.5" stroke-linecap="round"/><path d="M480.61958,26.13344l-5.24731,9.10741h10.199z" fill="#ffde00" stroke="#000000" stroke-width="0.5" stroke-linecap="round"/><path d="M496.01238,26.38999l-5.24731,8.85086h10.199z" fill="#ffde00" stroke="#000000" stroke-width="0.5" stroke-linecap="round"/><path d="M488.24533,36.09891l-2.73947,5.82621h5.32461z" fill="#ffde00" stroke="#000000" stroke-width="0.5" stroke-linecap="round"/></g></g></svg>