<svg version="1.1" xmlns="http://www.w3.org/2000/svg" xmlns:xlink="http://www.w3.org/1999/xlink" width="131" height="165.28423" viewBox="0,0,131,165.28423"><g transform="translate(-254.75,-95.71465)"><g data-paper-data="{&quot;isPaintingLayer&quot;:true}" stroke-miterlimit="10" stroke-dasharray="" stroke-dashoffset="0" style="mix-blend-mode: normal"><text transform="translate(255,232.67388) scale(0.5,0.5)" font-size="40" xml:space="preserve" fill="#ffffff" fill-rule="nonzero" stroke="#000000" stroke-width="1" stroke-linecap="butt" stroke-linejoin="miter" stroke-miterlimit="10" stroke-dasharray="" stroke-dashoffset="0" font-family="Pixel" font-weight="normal" text-anchor="start" style="mix-blend-mode: normal"><tspan x="0" dy="0">     Scratch </tspan><tspan x="0" dy="46.150000000000006px">Cloud Clicker</tspan></text><g fill-rule="evenodd"><path d="M302.12443,178.92905c0.94017,0.47009 2.93803,1.52777 0.11752,5.5235c-2.82051,3.99572 -10.92947,4.81837 -11.86964,4.81837c-3.64316,0.11752 -8.10896,0.11752 -13.04485,-1.52777c-14.33758,-4.70085 -14.4551,-20.09612 -9.87178,-22.56407c4.4658,-2.46794 6.46367,7.05128 12.92733,12.80981c2.82051,2.58546 6.22862,3.52563 9.04913,4.11324c3.99572,0.70513 11.63459,-3.76068 12.69229,-3.17307z" fill="#ffab19" stroke="#001026" stroke-width="2" stroke-linecap="round" stroke-linejoin="round"/><path d="M272.97918,169.40983c1.88034,3.17307 5.5235,7.63888 5.5235,7.63888c0,0 -4.34828,-1.05769 -6.81623,0.94017c-1.99786,1.52777 -1.52778,4.11324 -1.29273,4.93589c-1.52777,-1.52777 -3.40811,-3.64316 -4.58332,-7.7564c-1.17521,-4.11324 0,-9.04913 2.35043,-9.75426c2.35043,-0.47009 2.93803,1.29273 4.81837,3.99572z" fill="#ffffff" stroke="none" stroke-width="3.5" stroke-linecap="butt" stroke-linejoin="miter"/></g><path d="M308.00048,191.15125c-2.11538,1.41025 -9.40169,6.58119 -18.68587,9.51922l-0.47009,0.11752c-0.47009,0.11752 -0.70513,0.70513 -0.47009,1.17521c1.99786,2.82051 5.64102,8.46152 -0.82265,10.45939c-6.22862,1.99786 -17.86322,-14.57263 -12.92733,-18.92091c2.2329,-1.64529 4.23076,-0.82265 5.28845,-0.35256c0.58761,0.23504 1.17521,0.23504 1.76282,0.11752c1.41025,-0.47009 3.99572,-1.41025 5.99358,-2.46794c5.05341,-2.58546 6.22862,-3.64316 8.57905,-5.40597c2.35042,-1.76282 7.7564,-6.1111 12.10468,-2.35042c3.76068,3.17307 1.6453,6.6987 -0.35256,8.10896z" fill="#ffab19" fill-rule="evenodd" stroke="#001026" stroke-width="2" stroke-linecap="round" stroke-linejoin="round"/><path d="M326.68636,166.70684c0.58761,0.47009 7.7564,8.93161 10.10682,6.81623c2.82051,-2.46795 6.69871,-7.28632 10.92947,-3.40811c4.23076,3.8782 -3.76068,10.45939 -7.16879,12.22221c-8.10896,3.64316 -14.69015,-3.29059 -16.1004,-5.17093c-1.41025,-1.88034 -3.8782,-5.05341 -3.8782,-8.10896c0.11752,-3.29059 4.11324,-4.11324 6.1111,-2.35043z" fill="#ffab19" fill-rule="evenodd" stroke="#001026" stroke-width="2" stroke-linecap="round" stroke-linejoin="round"/><g fill-rule="evenodd"><path d="M326.80388,194.08928c2.46794,2.2329 7.87392,6.81623 7.87392,6.81623c0,0 16.80553,-2.93803 16.80553,5.5235c0,5.05341 -8.46152,6.22862 -19.86108,5.17093c-0.70513,-0.11752 -1.41025,-0.35257 -1.99786,-0.82265c-2.58546,-2.2329 -9.9893,-8.81409 -14.69015,-13.39741c-6.93375,-6.81623 -12.69229,-11.28203 -12.69229,-11.28203c-9.9893,-9.75426 -1.88034,-13.8675 1.29273,-19.50852c2.93803,-4.81837 4.23076,-3.8782 11.28203,-2.46794c3.99572,0.58761 6.34615,0.94017 8.93161,0.82265c3.8782,-0.11752 3.17307,5.5235 2.11538,8.46152c0,0 -1.64529,4.34829 -3.17307,6.58119c-1.88034,2.70299 -3.29059,4.4658 -4.70085,5.5235z" fill="#ffab19" stroke="#001026" stroke-width="2" stroke-linecap="round" stroke-linejoin="round"/><path d="M316.9321,185.39271c0,0 -1.76282,-1.41025 -3.64316,-3.17307c-2.35043,-2.11538 -4.70085,-3.8782 -2.35043,-7.52136c2.11538,-2.82051 4.11324,-6.58119 9.40169,-3.17307c5.05341,3.17307 2.82051,6.1111 2.82051,6.1111c-2.58546,5.28845 -6.22862,7.7564 -6.22862,7.7564z" fill="#ffffff" stroke="none" stroke-width="3.5" stroke-linecap="butt" stroke-linejoin="miter"/></g><path d="M299.1864,175.75598c2.58546,3.29059 6.58119,7.40384 1.52777,10.81195c-6.93375,3.8782 -12.69229,-7.87392 -13.8675,-11.98716c-1.05769,-3.64316 1.99786,-5.99358 4.58332,-7.99144c5.05341,-3.64316 9.28417,-6.93375 13.98502,-5.17093c5.87606,2.11538 1.64529,6.81623 -1.29273,8.93161c-1.76282,1.29273 -3.52564,2.70299 -4.81837,3.52564c-0.35256,0.58761 -0.47009,1.29273 -0.11752,1.88034z" fill="#ffab19" fill-rule="evenodd" stroke="#001026" stroke-width="2" stroke-linecap="round" stroke-linejoin="round"/><g fill-rule="evenodd"><path d="M336.20558,96.5467c0.35256,-0.23505 0.94017,-0.11752 1.05769,0.35257l3.05555,12.57477c0,0 7.52136,5.5235 9.75426,9.40169c3.76068,6.46366 3.8782,11.75212 3.8782,11.75212c0,0 8.344,2.46794 9.75426,9.16665c1.41025,6.69871 -3.76068,19.391 -25.85466,23.73928c-22.09398,4.34828 -39.83968,-1.6453 -48.18369,-15.04271c-8.344,-13.39741 4.81837,-29.3803 4.11324,-28.44013l-2.46794,-21.03629c-0.11752,-0.47009 0.47009,-0.82265 0.94017,-0.58761l14.22006,9.28417c0,0 5.28846,-1.99786 10.81195,-2.2329c3.29059,-0.23504 6.1111,0 8.81409,0.47009z" fill="#ffab19" stroke="#001026" stroke-width="2" stroke-linecap="butt" stroke-linejoin="miter"/><path d="M353.59871,131.09793c0,0 8.10896,2.11538 9.51922,8.81409c1.41025,6.69871 -4.23076,18.80339 -26.0897,23.03415c-28.44012,5.87606 -41.95506,-11.04699 -34.08114,-23.50423c7.87392,-12.57477 21.38886,-1.88034 31.26064,-2.58546c8.46152,-0.58761 9.40169,-7.99144 19.39099,-5.75854z" fill="#ffffff" stroke="none" stroke-width="3.5" stroke-linecap="butt" stroke-linejoin="miter"/><path d="M316.57954,143.67269c0,-0.47009 0.47009,-0.82265 0.94017,-0.70513c2.2329,0.82265 8.57905,2.70299 15.63032,3.17307c6.34614,0.35256 10.10682,0 11.86964,-0.35257c0.58761,-0.11752 1.05769,0.47009 0.82265,1.05769c-1.05769,3.17307 -5.5235,11.98716 -17.86322,11.28203c-10.69443,-1.17521 -11.75212,-8.69657 -11.39955,-14.45511z" fill="#ffffff" stroke="#001026" stroke-width="2" stroke-linecap="round" stroke-linejoin="round"/><path d="M375.22261,132.39066c-5.5235,4.46581 -13.98502,4.58333 -13.98502,4.58333" fill="none" stroke="#001026" stroke-width="2" stroke-linecap="round" stroke-linejoin="round"/><path d="M373.69484,145.55303c-7.40384,0.58761 -11.98716,-1.6453 -11.98716,-1.6453" fill="none" stroke="#001026" stroke-width="2" stroke-linecap="round" stroke-linejoin="round"/><path d="M333.73763,133.80091c2.46794,0 5.05341,0.23505 5.17093,1.05769c0.11752,1.64529 -1.64529,4.93589 -3.52564,5.05341c-2.11538,0.23504 -7.05127,-2.70299 -7.05127,-4.58333c-0.11752,-1.41025 3.05555,-1.52777 5.40598,-1.52777z" fill="#001026" stroke="#001026" stroke-width="2" stroke-linecap="round" stroke-linejoin="round"/><path d="M280.8531,132.0381c0,0 10.10682,3.29059 14.22007,6.93375" fill="none" stroke="#001026" stroke-width="2" stroke-linecap="round" stroke-linejoin="round"/><path d="M295.42572,143.08509c-5.05341,1.99786 -13.74998,0.70513 -13.74998,0.70513" fill="none" stroke="#001026" stroke-width="2" stroke-linecap="round" stroke-linejoin="round"/><g><path d="M347.60513,120.05093c3.40811,5.28846 3.52564,11.28203 0.23504,13.39741c-3.29059,2.11538 -8.69657,-0.35256 -12.2222,-5.64102c-3.40811,-5.28845 -3.52564,-11.28203 -0.23504,-13.39741c3.29059,-2.2329 8.81409,0.35256 12.2222,5.64102z" fill="#ffffff" stroke="#001026" stroke-width="2" stroke-linecap="round" stroke-linejoin="round"/><path d="M347.13505,126.74964c0,1.29273 -0.94017,2.35043 -2.11538,2.35043c-1.17521,0 -2.11538,-1.05769 -2.11538,-2.35043c0,-1.29273 0.94017,-2.35042 2.11538,-2.35042c1.17521,0 2.11538,1.05769 2.11538,2.35042" fill="#001026" stroke="none" stroke-width="3.5" stroke-linecap="butt" stroke-linejoin="miter"/></g><g><path d="M318.45987,123.34153c3.52564,5.17093 3.29059,11.51708 0.11752,13.74998c-3.8782,2.2329 -9.04913,0.58761 -12.57477,-4.58333c-3.64316,-5.17093 -3.8782,-11.86964 -0.23504,-14.4551c3.64316,-2.70299 9.16666,0.11752 12.69229,5.28845z" fill="#ffffff" stroke="#001026" stroke-width="2" stroke-linecap="round" stroke-linejoin="round"/><path d="M317.75475,130.15776c0,1.29273 -0.94017,2.35042 -2.11538,2.35042c-1.17521,0 -2.11538,-1.05769 -2.11538,-2.35042c0,-1.29273 0.94017,-2.35043 2.11538,-2.35043c1.17521,0.11752 2.11538,1.05769 2.11538,2.35043" fill="#001026" stroke="none" stroke-width="3.5" stroke-linecap="butt" stroke-linejoin="miter"/></g></g></g></g></svg>