<svg version="1.1" xmlns="http://www.w3.org/2000/svg" xmlns:xlink="http://www.w3.org/1999/xlink" width="647" height="372" viewBox="0,0,647,372"><defs><linearGradient x1="-3.5" y1="180" x2="643.5" y2="180" gradientUnits="userSpaceOnUse" id="color-1"><stop offset="0" stop-color="#074000"/><stop offset="1" stop-color="#850000"/></linearGradient><linearGradient x1="371.21865" y1="40.61508" x2="332.63995" y2="53.67163" gradientUnits="userSpaceOnUse" id="color-2"><stop offset="0" stop-color="#ff0000"/><stop offset="1" stop-color="#ffffff"/></linearGradient><radialGradient cx="163.56456" cy="39.77052" r="24.21032" gradientUnits="userSpaceOnUse" id="color-3"><stop offset="0" stop-color="#bdf5ff"/><stop offset="1" stop-color="#00daff"/></radialGradient><radialGradient cx="181.91828" cy="40.11111" r="5.3125" gradientUnits="userSpaceOnUse" id="color-4"><stop offset="0" stop-color="#bdf5ff"/><stop offset="1" stop-color="#00daff"/></radialGradient><radialGradient cx="145.12739" cy="39.77052" r="5.31249" gradientUnits="userSpaceOnUse" id="color-5"><stop offset="0" stop-color="#bdf5ff"/><stop offset="1" stop-color="#00daff"/></radialGradient><radialGradient cx="163.68498" cy="39.8204" r="17.11927" gradientUnits="userSpaceOnUse" id="color-6"><stop offset="0" stop-color="#bdf5ff"/><stop offset="1" stop-color="#00daff"/></radialGradient><radialGradient cx="178.26114" cy="54.87822" r="3.8351" gradientUnits="userSpaceOnUse" id="color-7"><stop offset="0" stop-color="#bdf5ff"/><stop offset="1" stop-color="#00daff"/></radialGradient><radialGradient cx="148.80897" cy="24.9444" r="3.83511" gradientUnits="userSpaceOnUse" id="color-8"><stop offset="0" stop-color="#bdf5ff"/><stop offset="1" stop-color="#00daff"/></radialGradient><radialGradient cx="163.70534" cy="39.95304" r="24.21032" gradientUnits="userSpaceOnUse" id="color-9"><stop offset="0" stop-color="#bdf5ff"/><stop offset="1" stop-color="#00daff"/></radialGradient><radialGradient cx="163.36476" cy="58.30675" r="5.3125" gradientUnits="userSpaceOnUse" id="color-10"><stop offset="0" stop-color="#bdf5ff"/><stop offset="1" stop-color="#00daff"/></radialGradient><radialGradient cx="163.70535" cy="21.51587" r="5.31249" gradientUnits="userSpaceOnUse" id="color-11"><stop offset="0" stop-color="#bdf5ff"/><stop offset="1" stop-color="#00daff"/></radialGradient><radialGradient cx="163.65547" cy="40.07345" r="17.11927" gradientUnits="userSpaceOnUse" id="color-12"><stop offset="0" stop-color="#bdf5ff"/><stop offset="1" stop-color="#00daff"/></radialGradient><radialGradient cx="148.59765" cy="54.64961" r="3.83511" gradientUnits="userSpaceOnUse" id="color-13"><stop offset="0" stop-color="#bdf5ff"/><stop offset="1" stop-color="#00daff"/></radialGradient><radialGradient cx="178.53146" cy="25.19745" r="3.83511" gradientUnits="userSpaceOnUse" id="color-14"><stop offset="0" stop-color="#bdf5ff"/><stop offset="1" stop-color="#00daff"/></radialGradient><radialGradient cx="163.56456" cy="39.77052" r="11.15625" gradientUnits="userSpaceOnUse" id="color-15"><stop offset="0" stop-color="#bdf5ff"/><stop offset="1" stop-color="#00daff"/></radialGradient><radialGradient cx="492.82391" cy="39.77053" r="24.21032" gradientUnits="userSpaceOnUse" id="color-16"><stop offset="0" stop-color="#bdf5ff"/><stop offset="1" stop-color="#00daff"/></radialGradient><radialGradient cx="511.17763" cy="40.11111" r="5.3125" gradientUnits="userSpaceOnUse" id="color-17"><stop offset="0" stop-color="#bdf5ff"/><stop offset="1" stop-color="#00daff"/></radialGradient><radialGradient cx="474.38674" cy="39.77053" r="5.31249" gradientUnits="userSpaceOnUse" id="color-18"><stop offset="0" stop-color="#bdf5ff"/><stop offset="1" stop-color="#00daff"/></radialGradient><radialGradient cx="492.94433" cy="39.8204" r="17.11927" gradientUnits="userSpaceOnUse" id="color-19"><stop offset="0" stop-color="#bdf5ff"/><stop offset="1" stop-color="#00daff"/></radialGradient><radialGradient cx="507.52049" cy="54.87822" r="3.8351" gradientUnits="userSpaceOnUse" id="color-20"><stop offset="0" stop-color="#bdf5ff"/><stop offset="1" stop-color="#00daff"/></radialGradient><radialGradient cx="478.06833" cy="24.9444" r="3.8351" gradientUnits="userSpaceOnUse" id="color-21"><stop offset="0" stop-color="#bdf5ff"/><stop offset="1" stop-color="#00daff"/></radialGradient><radialGradient cx="492.9647" cy="39.95304" r="24.21031" gradientUnits="userSpaceOnUse" id="color-22"><stop offset="0" stop-color="#bdf5ff"/><stop offset="1" stop-color="#00daff"/></radialGradient><radialGradient cx="492.62411" cy="58.30676" r="5.3125" gradientUnits="userSpaceOnUse" id="color-23"><stop offset="0" stop-color="#bdf5ff"/><stop offset="1" stop-color="#00daff"/></radialGradient><radialGradient cx="492.9647" cy="21.51587" r="5.31249" gradientUnits="userSpaceOnUse" id="color-24"><stop offset="0" stop-color="#bdf5ff"/><stop offset="1" stop-color="#00daff"/></radialGradient><radialGradient cx="492.91482" cy="40.07345" r="17.11927" gradientUnits="userSpaceOnUse" id="color-25"><stop offset="0" stop-color="#bdf5ff"/><stop offset="1" stop-color="#00daff"/></radialGradient><radialGradient cx="477.857" cy="54.64961" r="3.8351" gradientUnits="userSpaceOnUse" id="color-26"><stop offset="0" stop-color="#bdf5ff"/><stop offset="1" stop-color="#00daff"/></radialGradient><radialGradient cx="507.79082" cy="25.19745" r="3.83511" gradientUnits="userSpaceOnUse" id="color-27"><stop offset="0" stop-color="#bdf5ff"/><stop offset="1" stop-color="#00daff"/></radialGradient><radialGradient cx="492.82391" cy="39.77053" r="11.15626" gradientUnits="userSpaceOnUse" id="color-28"><stop offset="0" stop-color="#bdf5ff"/><stop offset="1" stop-color="#00daff"/></radialGradient></defs><g transform="translate(3.5,6)"><g data-paper-data="{&quot;isPaintingLayer&quot;:true}" fill-rule="nonzero" stroke-linejoin="miter" stroke-miterlimit="10" stroke-dasharray="" stroke-dashoffset="0" style="mix-blend-mode: normal"><path d="M-3.5,366v-372h647v372z" fill="url(#color-1)" stroke="none" stroke-width="0" stroke-linecap="butt"/><text transform="translate(190.05474,49.26876) scale(1.23673,1.23673)" font-size="40" xml:space="preserve" fill="#ffffff" fill-rule="nonzero" stroke="none" stroke-width="1" stroke-linecap="butt" stroke-linejoin="miter" stroke-miterlimit="10" stroke-dasharray="" stroke-dashoffset="0" font-family="Marker" font-weight="normal" text-anchor="start" style="mix-blend-mode: normal"><tspan x="0" dy="0">My Projects</tspan></text><text transform="translate(142.49857,85.76876) scale(0.5,0.5)" font-size="40" xml:space="preserve" fill="#ffffff" fill-rule="nonzero" stroke="none" stroke-width="1" stroke-linecap="butt" stroke-linejoin="miter" stroke-miterlimit="10" stroke-dasharray="" stroke-dashoffset="0" font-family="Marker" font-weight="normal" text-anchor="start" style="mix-blend-mode: normal"><tspan x="0" dy="0">Click one of the buttons to get a link</tspan></text><path d="M367.12587,28.522c0,0 -17.42981,41.30337 -28.93238,34.85583c-8.58604,-4.81274 -1.72409,-17.82286 -1.72409,-17.82286" fill="none" stroke="url(#color-2)" stroke-width="10" stroke-linecap="round"/><path d="M164.09599,260.70927v95.4799" fill="none" stroke="#543726" stroke-width="10" stroke-linecap="round"/><path d="M121.59931,344.42449c-0.69971,-1.04935 -0.08838,-1.83663 0.2617,-2.16513c3.28409,-4.76155 4.67578,-10.39387 8.22095,-15.07497c0,0 1.0186,-1.33929 2.35789,-0.32068c0.35472,0.26978 0.54404,0.56206 0.63068,0.84599c2.16366,-2.44585 4.29565,-4.76213 6.54391,-6.94941c0.02196,-0.03827 0.04398,-0.07655 0.06601,-0.11484c-0.4513,0.22435 -1.13146,0.34711 -1.83562,-0.31529c-1.22559,-1.1529 -0.07269,-2.37849 -0.07269,-2.37849c2.50219,-2.65996 5.52709,-5.14677 8.85938,-7.1771c-0.11273,-0.1552 -0.2096,-0.34816 -0.28167,-0.58731c-0.4855,-1.61106 1.12557,-2.09657 1.12557,-2.09657c2.38716,-0.71195 4.72433,-0.99975 7.02542,-0.97635c2.81714,-0.91565 5.72084,-1.43813 8.61379,-1.43941c-0.26783,-0.3127 -0.44663,-0.77582 -0.28214,-1.44709c0.40046,-1.63429 2.03474,-1.23382 2.03474,-1.23382c6.05475,1.48364 13.17712,2.74926 18.08551,6.88705c5.09985,4.29919 9.74034,11.55343 10.44593,18.58941c0.0877,0.15106 0.17464,0.30312 0.26079,0.45621l1.39919,2.7831c0,0 0.75493,1.50377 -0.74885,2.2587c-1.11209,0.55829 -1.81463,-0.11872 -2.10516,-0.50928l-0.29316,-0.01198l-0.55291,0.57226c-0.16238,-0.20423 -0.3236,-0.40913 -0.48381,-0.6146l-0.44482,-0.01817c0.00305,0.00317 0.00609,0.00634 0.00914,0.00951l0.64145,0.79076c0,0 0.76409,0.95503 0.17514,1.88806c0.9143,0.42458 1.83183,0.84857 2.74609,1.2816l0.48263,0.05867c0,0 1.64485,0.35455 1.2903,1.9994c-0.35455,1.64486 -1.9994,1.29031 -1.9994,1.29031l-0.94661,-0.23941c1.21577,1.73449 2.41127,3.48485 3.58498,5.25733c0.14159,-0.00509 0.29597,0.00638 0.46426,0.03821c1.65331,0.31276 1.34055,1.96607 1.34055,1.96607l-3.30324,1.85201c-2.65658,-4.11061 -5.43261,-8.08979 -8.30917,-12.0161c-1.3673,-0.67848 -2.70729,-1.38049 -4.00461,-2.13484l0.2488,0.55127c0,0 0.10395,0.2356 0.13834,0.56312c0.19711,0.4704 0.2895,1.18721 -0.46303,1.85125c-0.24524,0.2164 -0.48487,0.34307 -0.71181,0.40671l0.01703,0.06973c0,0 0.39276,1.63615 -1.24339,2.02891c-0.17776,0.04267 -0.34084,0.06139 -0.49034,0.06086c-0.1865,0.13674 -0.36867,0.22401 -0.54334,0.27389c2.09562,3.13804 4.5956,6.06628 6.59681,9.24066l0.17939,0.26806c0,0 0.93342,1.39999 -0.46657,2.33341c-1.39999,0.93342 -2.33341,-0.46657 -2.33341,-0.46657l-0.22654,-0.34078c-2.07466,-3.29383 -4.62588,-6.31464 -6.77636,-9.56301c0.30509,0.52953 0.59954,1.07463 0.88237,1.63759l1.30771,2.88424c0,0 0.69418,1.53277 -0.83858,2.22695c-1.53276,0.69418 -2.22694,-0.83858 -2.22694,-0.83858l-0.58613,-1.2957c-0.1816,0.14668 -0.42083,0.26793 -0.73479,0.34343c-1.636,0.39338 -2.02939,-1.24262 -2.02939,-1.24262l-0.31796,-1.40922c-1.16766,-2.83521 -2.60712,-5.49093 -4.10826,-8.13383c-0.64084,-0.68696 -1.29607,-1.36651 -1.96075,-2.04948c-0.48,-0.34567 -0.95969,-0.69143 -1.43882,-1.03773c-1.44212,1.74688 -2.78422,3.52863 -4.08164,5.34251c-2.21488,4.22811 -4.32944,8.52563 -7.70765,11.85427l-0.43487,0.3435c0,0 -1.34611,1.00956 -2.35568,-0.33655c-1.00956,-1.34611 0.33655,-2.35568 0.33655,-2.35568l0.10633,-0.06238c0.13094,-0.12562 0.25998,-0.2529 0.38717,-0.38178c-0.29225,-0.82699 0.31541,-1.59096 0.31541,-1.59096l1.129,-1.41118c0.89714,-1.329 1.77875,-2.64457 2.6626,-3.94581c-0.6117,0.47438 -1.2778,0.72948 -2.11452,0.70322c-1.21506,1.90431 -2.4327,3.80352 -3.71388,5.64688l-0.84729,1.13154c0,0 -1.00959,1.34611 -2.35568,0.33652c-1.3461,-1.00959 -0.33652,-2.35569 -0.33652,-2.35569l0.77621,-1.03312c0.97035,-1.39584 1.90553,-2.82065 2.83061,-4.25448c-0.17924,-0.93935 0.66578,-1.59435 0.66578,-1.59435l0.28737,-0.19717l-0.13085,-0.55423c-0.23867,0.44606 -0.47231,0.89572 -0.70053,1.34932l-0.24055,0.63478c0,0 -0.61313,1.56694 -2.18008,0.9538c-1.18655,-0.46429 -1.12302,-1.47551 -1.02225,-1.93911c-0.25353,0.43228 -0.50403,0.86275 -0.75166,1.29084l-1.28707,2.09375c0,0 -0.0898,0.14601 -0.25869,0.31615c1.20244,1.08099 0.14051,2.32831 0.14051,2.32831c-1.65281,1.93382 -2.89982,3.92869 -4.36187,5.96591c-0.35642,1.05237 -1.58699,1.05237 -1.58699,1.05237l-1.39234,-2.67541c1.63122,-2.22794 2.97735,-4.4009 4.7788,-6.52441c0,0 0.03494,-0.04104 0.09965,-0.10217c-1.0489,-0.88271 -0.28554,-2.12381 -0.28554,-2.12381l1.2405,-2.01569c1.29079,-2.2315 2.65275,-4.50391 4.10392,-6.75298c-0.12643,-0.64158 0.20755,-1.22798 0.20755,-1.22798l0.88061,-1.53939c1.18032,-1.79057 2.14262,-3.63131 3.13873,-5.4366c-0.02781,-0.0425 -0.05553,-0.0851 -0.08318,-0.1278c-3.47835,2.98908 -6.19788,6.98664 -8.28478,11.19214c0.09929,0.07923 0.19808,0.17491 0.29532,0.28952c1.08861,1.28304 -0.19443,2.37164 -0.19443,2.37164c-0.68981,0.58204 -1.32427,1.20023 -1.91954,1.84494l0.08822,-0.04722c0,0 0.43688,1.62493 -1.18806,2.0618c-0.24099,0.06479 -0.45584,0.08423 -0.64701,0.07035c-1.81164,2.35108 -3.3628,4.89454 -5.29417,7.24937l-1.46539,1.8435c0,0 -1.04715,1.31709 -2.36424,0.26995c-1.31709,-1.04715 -0.26995,-2.36424 -0.26995,-2.36424l1.49959,-1.88583c0.30605,-0.37164 0.60305,-0.74693 0.8933,-1.12469c-0.11014,0.14052 -0.22188,0.27965 -0.33537,0.41725l-1.74403,1.67888c0,0 -1.21785,1.16108 -2.37892,-0.05677c-1.16107,-1.21785 0.05677,-2.37892 0.05677,-2.37892l1.4736,-1.38876c1.47731,-1.7786 2.66112,-3.74971 3.87332,-5.69039c-1.4281,1.71273 -2.82597,3.44902 -4.15328,5.24041l0.03243,0.05088c0,0 -0.64717,1.5532 -2.20037,0.90602c-0.95773,-0.39906 -1.07884,-1.14261 -1.03093,-1.65408c-0.19203,0.30215 -0.39059,0.60135 -0.59668,0.89714l-0.54612,0.50225c0,0 -1.39995,0.93349 -2.33344,-0.46646zM133.80336,332.13849c-0.30631,0.07899 -0.67857,0.06272 -1.11993,-0.13905c-0.70806,-0.32368 -0.93874,-0.82521 -0.98221,-1.27071c-2.07882,3.20709 -3.389,6.7638 -5.12593,10.12817c2.3032,-2.98955 4.7757,-5.84588 7.22807,-8.71841zM136.98606,338.93136c0.26439,-0.66827 0.54163,-1.33588 0.8321,-2.00067c-2.2212,2.66979 -3.76723,5.94272 -5.83182,8.76963c1.69561,-2.27729 3.19741,-4.61814 4.99972,-6.76896zM140.0732,332.34915l-0.04065,0.03942c0,0 -0.02872,0.02779 -0.08159,0.07039c0.01274,0.01391 0.02546,0.02814 0.03815,0.04269c0.02794,-0.05088 0.05597,-0.10171 0.08409,-0.15249zM163.35991,328.22226c0,0 1.0969,-1.27595 2.37285,-0.17905c0.94049,0.80851 0.59181,1.7143 0.34346,2.1347c0.29951,0.31247 0.59813,0.62205 0.89551,0.92956c1.23708,-0.4276 1.93353,0.79489 1.93353,0.79489c0.30239,0.5308 0.60541,1.05948 0.9076,1.58726c0.75287,0.54246 1.50559,1.08627 2.25714,1.63326l2.06181,1.52402c-2.31118,-2.47118 -4.55127,-4.98424 -6.56184,-7.66831c-1.20807,-0.7401 -2.38333,-1.53292 -3.50923,-2.38094c-0.22678,0.55308 -0.4697,1.10501 -0.72549,1.65339c0.00821,-0.0096 0.01642,-0.0192 0.02464,-0.02878zM174.44534,339.17305c-0.04668,0.05482 -0.09397,0.10497 -0.14171,0.15076c0.33582,0.45389 0.66377,0.91743 0.98298,1.39266c-0.29453,-0.50645 -0.57596,-1.02035 -0.84127,-1.54342zM176.88133,319.94615c1.59369,-0.53981 2.1335,1.05388 2.1335,1.05388c0.46843,1.45211 1.29046,2.82941 2.24898,4.15299c2.54549,2.34869 5.33145,4.5287 7.81164,6.88939c0.02303,-0.21534 0.09782,-0.44227 0.25338,-0.66839c-2.50193,-3.34837 -4.88507,-6.752 -7.84209,-9.76149c-1.56398,-1.59173 -3.17262,-3.0419 -4.71554,-4.51933c-0.791,-0.29988 -1.58351,-0.61298 -2.37762,-0.9329c0.58675,1.39906 1.34006,2.68866 2.21265,3.89906c0.08376,-0.04145 0.17524,-0.07941 0.27509,-0.11322zM169.18948,309.38477c-1.24413,-0.49023 -2.64328,-0.27535 -3.9981,-0.27478c2.08027,0.67859 4.14819,1.47357 6.21518,2.29222c0.10139,-0.00863 0.20731,-0.00667 0.31686,0.00919c-0.21789,-0.31578 -0.4296,-0.63873 -0.6345,-0.96979c-0.71447,-0.46158 -1.39441,-0.85784 -1.89944,-1.05684zM148.21924,313.73042c0.48875,-0.15507 1.23146,-0.19074 1.82502,0.64722c0.14959,0.21119 0.24369,0.4129 0.29583,0.60306c0.19203,0.09984 0.3854,0.2531 0.57218,0.47782c1.07554,1.29402 -0.21848,2.36955 -0.21848,2.36955c-0.22371,0.18532 -0.44371,0.37286 -0.66028,0.5625c0.40521,-0.19261 0.81023,-0.3866 1.2155,-0.58065c1.99047,-1.37595 4.10607,-2.64283 6.41084,-3.79558c0,0 0.87997,-0.43999 1.6306,0.0258c0.1814,-0.16158 0.42641,-0.29753 0.75563,-0.38444c0.56338,-0.14873 0.98317,-0.05087 1.29126,0.14064c0.36936,-0.09158 0.74125,-0.17547 1.11591,-0.25086c-0.10433,-0.12553 -0.79426,-1.01453 -0.22114,-1.92964c-2.37823,-0.66109 -4.77421,-1.10427 -7.19028,-1.16936c-2.3673,0.81754 -4.66728,1.94818 -6.8226,3.28393zM142.29937,318.26651c1.26402,-1.1173 2.57786,-2.1977 3.96421,-3.24128c-1.42566,1.00585 -2.77046,2.09409 -4.00867,3.22884c0.01473,0.00392 0.02955,0.00806 0.04445,0.01244zM135.18697,330.39734l-0.06952,0.19596c0.56258,-0.665 1.12229,-1.33229 1.67679,-2.00368c-0.53437,0.59423 -1.06928,1.1968 -1.60727,1.80772zM169.65307,322.61331c-0.39869,-0.79995 -0.5701,-1.67434 -0.66853,-2.57221c-0.13208,-0.13599 -0.26504,-0.27129 -0.39873,-0.40599c-0.32681,0.46466 -0.65055,0.93166 -0.97266,1.39978c0.68955,0.59882 1.37137,1.20048 2.04621,1.80812c0.05,0.02603 0.10008,0.05199 0.15023,0.07792c-0.0531,-0.10227 -0.10529,-0.2048 -0.15653,-0.30761zM151.72128,337.23132c0.0132,0.0022 0.02628,0.00448 0.03923,0.00685c0.83471,-1.28696 1.68093,-2.56554 2.55683,-3.82127c-0.14464,-0.79015 0.44949,-1.44251 0.44949,-1.44251l1.06908,-1.17225c-0.26173,0.01308 -0.49598,-0.04951 -0.69515,-0.14282c-1.49729,2.14336 -2.929,4.33033 -4.23925,6.60395c0.22634,-0.06628 0.49688,-0.08576 0.81978,-0.03196zM157.73107,328.78359c-0.13028,-0.10071 -0.26042,-0.20162 -0.39041,-0.30276c0.06474,0.15975 0.12321,0.35845 0.13827,0.57694c0.08452,-0.09096 0.16855,-0.18235 0.25214,-0.27418zM158.926,325.45017c0.32081,0.25189 0.64258,0.50232 0.96522,0.75143c0.42254,-0.67483 0.84154,-1.35253 1.25851,-2.03237c-0.24964,-0.23158 -0.49546,-0.46659 -0.73721,-0.70504c-0.4963,0.66207 -0.99239,1.32361 -1.48651,1.98597zM180.79006,312.45941c0.72737,0.6775 1.4377,1.35193 2.12946,2.03095c-0.70149,-0.74801 -1.41737,-1.43018 -2.12946,-2.03095z" fill="#00ff15" stroke="#00ff21" stroke-width="5" stroke-linecap="butt"/><path d="M131.6463,317.13892c-0.58992,-0.88471 -0.07451,-1.54845 0.22064,-1.82541c2.7688,-4.01443 3.94212,-8.76298 6.93102,-12.70959c0,0 0.85878,-1.12915 1.98792,-0.27037c0.29906,0.22746 0.45867,0.47387 0.53172,0.71326c1.82416,-2.06207 3.62163,-4.01491 5.51712,-5.85899c0.01851,-0.03226 0.03707,-0.06454 0.05565,-0.09682c-0.38048,0.18915 -0.95392,0.29265 -1.5476,-0.26581c-1.03328,-0.972 -0.06128,-2.00529 -0.06128,-2.00529c2.10958,-2.24259 4.65985,-4.3392 7.46927,-6.05095c-0.09504,-0.13085 -0.17671,-0.29353 -0.23747,-0.49516c-0.40933,-1.35828 0.94896,-1.7676 0.94896,-1.7676c2.01259,-0.60024 3.98304,-0.84289 5.92307,-0.82316c2.37511,-0.77197 4.82319,-1.21248 7.26222,-1.21356c-0.22581,-0.26364 -0.37655,-0.65408 -0.23787,-1.22003c0.33763,-1.37786 1.71547,-1.04023 1.71547,-1.04023c5.10471,1.25085 11.10952,2.31788 15.24775,5.80642c4.29964,3.62462 8.212,9.74061 8.80688,15.67258c0.07394,0.12736 0.14724,0.25556 0.21987,0.38463l1.17965,2.34641c0,0 0.63647,1.26782 -0.63135,1.90429c-0.9376,0.47069 -1.5299,-0.1001 -1.77484,-0.42937l-0.24716,-0.01009l-0.46615,0.48247c-0.1369,-0.17219 -0.27283,-0.34494 -0.4079,-0.51817l-0.37502,-0.01532c0.00257,0.00268 0.00514,0.00534 0.00771,0.00802l0.54081,0.66668c0,0 0.64419,0.80518 0.14766,1.59181c0.77084,0.35796 1.5444,0.71542 2.31521,1.08051l0.4069,0.04946c0,0 1.38676,0.29892 1.08785,1.68569c-0.29892,1.38676 -1.68568,1.08785 -1.68568,1.08785l-0.79808,-0.20184c1.02501,1.46234 2.03292,2.93805 3.02247,4.43241c0.11937,-0.00428 0.24954,0.00538 0.39141,0.03222c1.39389,0.26369 1.1302,1.65757 1.1302,1.65757l-2.78493,1.56142c-2.23974,-3.46562 -4.5802,-6.82043 -7.0054,-10.13068c-1.15276,-0.57202 -2.2825,-1.16388 -3.37625,-1.79986l0.20976,0.46477c0,0 0.08763,0.19863 0.11663,0.47477c0.16619,0.39659 0.24407,1.00093 -0.39038,1.56077c-0.20676,0.18245 -0.40879,0.28924 -0.60012,0.34289l0.01436,0.05879c0,0 0.33113,1.37942 -1.04829,1.71056c-0.14987,0.03598 -0.28737,0.05176 -0.41341,0.05131c-0.15723,0.11529 -0.31082,0.18886 -0.45808,0.23092c1.7668,2.64565 3.87451,5.11443 5.56172,7.79073l0.15124,0.226c0,0 0.78696,1.18032 -0.39336,1.96728c-1.18032,0.78696 -1.96728,-0.39336 -1.96728,-0.39336l-0.19099,-0.28731c-1.74913,-2.777 -3.90005,-5.32383 -5.7131,-8.0625c0.25722,0.44645 0.50547,0.90601 0.74392,1.38064l1.10253,2.43168c0,0 0.58525,1.29226 -0.707,1.87752c-1.29226,0.58526 -1.87752,-0.707 -1.87752,-0.707l-0.49417,-1.09239c-0.15311,0.12367 -0.35479,0.22589 -0.6195,0.28954c-1.3793,0.33166 -1.71096,-1.04764 -1.71096,-1.04764l-0.26807,-1.18811c-0.98444,-2.39034 -2.19804,-4.62936 -3.46364,-6.85756c-0.54029,-0.57917 -1.09271,-1.1521 -1.6531,-1.7279c-0.40468,-0.29143 -0.80911,-0.58294 -1.21305,-0.8749c-1.21584,1.47278 -2.34735,2.97496 -3.4412,4.50423c-1.86735,3.56469 -3.65012,7.18789 -6.49826,9.99424l-0.36663,0.2896c0,0 -1.1349,0.85115 -1.98605,-0.28374c-0.85115,-1.1349 0.28374,-1.98606 0.28374,-1.98606l0.08964,-0.05259c0.1104,-0.10591 0.21919,-0.21322 0.32642,-0.32187c-0.2464,-0.69723 0.26592,-1.34132 0.26592,-1.34132l0.95184,-1.18975c0.75637,-1.12047 1.49965,-2.22962 2.24482,-3.32668c-0.51572,0.39994 -1.07731,0.61501 -1.78274,0.59288c-1.02441,1.60551 -2.05099,3.20672 -3.13115,4.76085l-0.71434,0.95399c0,0 -0.85117,1.13489 -1.98606,0.28372c-1.13489,-0.85118 -0.28372,-1.98606 -0.28372,-1.98606l0.65442,-0.87102c0.8181,-1.17682 1.60653,-2.37806 2.38646,-3.58692c-0.15112,-0.79196 0.56132,-1.34418 0.56132,-1.34418l0.24228,-0.16624l-0.11032,-0.46726c-0.20121,0.37607 -0.3982,0.75518 -0.59061,1.1376l-0.20281,0.53518c0,0 -0.51693,1.32108 -1.83801,0.80415c-1.00038,-0.39145 -0.94681,-1.244 -0.86185,-1.63486c-0.21375,0.36445 -0.42495,0.72738 -0.63372,1.0883l-1.08512,1.76522c0,0 -0.07571,0.1231 -0.21809,0.26655c1.01376,0.91138 0.11847,1.96298 0.11847,1.96298c-1.39347,1.63039 -2.44482,3.31225 -3.67746,5.02981c-0.30049,0.88725 -1.33798,0.88724 -1.33798,0.88724l-1.17387,-2.25562c1.37527,-1.87836 2.51018,-3.71037 4.02897,-5.50068c0,0 0.02946,-0.03459 0.08402,-0.08614c-0.88432,-0.7442 -0.24074,-1.79057 -0.24074,-1.79057l1.04586,-1.69941c1.08825,-1.88136 2.23652,-3.79721 3.45998,-5.69339c-0.10659,-0.54091 0.17499,-1.0353 0.17499,-1.0353l0.74243,-1.29785c0.99512,-1.50961 1.80643,-3.06152 2.64624,-4.58355c-0.02344,-0.03583 -0.04682,-0.07175 -0.07013,-0.10774c-2.93257,2.52006 -5.22539,5.89037 -6.98484,9.436c0.08371,0.06679 0.16701,0.14747 0.24898,0.24409c0.9178,1.08172 -0.16393,1.99951 -0.16393,1.99951c-0.58157,0.49072 -1.11648,1.01191 -1.61835,1.55546l0.07438,-0.03981c0,0 0.36833,1.36997 -1.00164,1.73829c-0.20317,0.05462 -0.38431,0.07101 -0.54549,0.05931c-1.52738,1.98218 -2.83515,4.12655 -4.46347,6.11189l-1.23545,1.55424c0,0 -0.88284,1.11043 -1.99327,0.22759c-1.11043,-0.88284 -0.22759,-1.99327 -0.22759,-1.99327l1.2643,-1.58992c0.25803,-0.31333 0.50842,-0.62974 0.75313,-0.94822c-0.09285,0.11847 -0.18706,0.23577 -0.28275,0.35178l-1.47038,1.41545c0,0 -1.02675,0.97889 -2.00565,-0.04786c-0.9789,-1.02675 0.04787,-2.00565 0.04787,-2.00565l1.24238,-1.17086c1.2455,-1.49952 2.24357,-3.16135 3.26556,-4.79752c-1.20402,1.44398 -2.38255,2.90783 -3.5016,4.41814l0.02734,0.0429c0,0 -0.54563,1.30949 -1.85511,0.76386c-0.80746,-0.33645 -0.90956,-0.96333 -0.86917,-1.39454c-0.1619,0.25474 -0.3293,0.50698 -0.50306,0.75636l-0.46043,0.42344c0,0 -1.18028,0.78701 -1.9673,-0.39327zM141.93544,306.78068c-0.25824,0.0666 -0.57209,0.05288 -0.9442,-0.11723c-0.59695,-0.27289 -0.79144,-0.69573 -0.8281,-1.07133c-1.75264,2.70387 -2.85724,5.70251 -4.32163,8.53898c1.94181,-2.52046 4.02635,-4.92862 6.09393,-7.35042zM144.61875,312.5077c0.22291,-0.56342 0.45665,-1.12627 0.70154,-1.68675c-1.87268,2.25088 -3.17612,5.01026 -4.91676,7.39361c1.42956,-1.91996 2.69571,-3.89352 4.21522,-5.70686zM147.22149,306.95829l-0.03426,0.03323c0,0 -0.02422,0.02344 -0.0688,0.05935c0.01074,0.01173 0.02146,0.02372 0.03217,0.03598c0.02355,-0.04289 0.04718,-0.08575 0.07089,-0.12856zM166.85433,303.47895c0,0 0.92479,-1.07574 2.00053,-0.15096c0.79291,0.68165 0.49896,1.44531 0.28957,1.79974c0.25251,0.26344 0.50428,0.52444 0.755,0.78371c1.04297,-0.36051 1.63014,0.67016 1.63014,0.67016c0.25494,0.44751 0.51041,0.89324 0.76519,1.33821c0.63474,0.45734 1.26936,0.91583 1.90298,1.37699l1.7383,1.28489c-1.94854,-2.08344 -3.83714,-4.20217 -5.53224,-6.46509c-1.01851,-0.62397 -2.00936,-1.2924 -2.9586,-2.00734c-0.19119,0.46629 -0.396,0.93162 -0.61165,1.39396c0.00692,-0.0081 0.01384,-0.01619 0.02077,-0.02427zM176.20037,312.71147c-0.03935,0.04622 -0.07922,0.0885 -0.11948,0.12711c0.28312,0.38267 0.55962,0.77347 0.82875,1.17414c-0.24832,-0.42699 -0.48559,-0.86025 -0.70927,-1.30124zM178.25414,296.50142c1.34362,-0.45511 1.79873,0.88852 1.79873,0.88852c0.39493,1.22426 1.08797,2.38545 1.8961,3.50135c2.14608,1.98017 4.4949,3.81812 6.58593,5.8084c0.01941,-0.18155 0.08247,-0.37288 0.21362,-0.56351c-2.10936,-2.82299 -4.11857,-5.69256 -6.61161,-8.22984c-1.31858,-1.34197 -2.67481,-2.5646 -3.97563,-3.81021c-0.66688,-0.25282 -1.33504,-0.5168 -2.00455,-0.78652c0.49468,1.17953 1.1298,2.26679 1.86546,3.28727c0.07062,-0.03494 0.14774,-0.06694 0.23193,-0.09546zM171.7692,287.5972c-1.04892,-0.41331 -2.22852,-0.23214 -3.37076,-0.23166c1.75386,0.57212 3.4973,1.24236 5.23996,1.93255c0.08549,-0.00727 0.17478,-0.00563 0.26714,0.00774c-0.1837,-0.26623 -0.36219,-0.53851 -0.53494,-0.81762c-0.60236,-0.38916 -1.17562,-0.72324 -1.6014,-0.89102zM154.08935,291.26099c0.41206,-0.13074 1.03824,-0.16082 1.53866,0.54566c0.12612,0.17806 0.20545,0.34812 0.24941,0.50844c0.16191,0.08418 0.32493,0.21338 0.4824,0.40285c0.90677,1.09097 -0.18421,1.99774 -0.18421,1.99774c-0.18861,0.15624 -0.37408,0.31436 -0.55668,0.47424c0.34163,-0.16239 0.68311,-0.32594 1.02478,-0.48954c1.67815,-1.16005 3.4618,-2.22815 5.40493,-3.20002c0,0 0.7419,-0.37095 1.37475,0.02175c0.15293,-0.13622 0.3595,-0.25084 0.63706,-0.32412c0.47498,-0.12539 0.82891,-0.04289 1.08866,0.11857c0.3114,-0.07721 0.62494,-0.14794 0.94082,-0.2115c-0.08796,-0.10583 -0.66964,-0.85534 -0.18644,-1.62687c-2.00507,-0.55736 -4.02509,-0.931 -6.06206,-0.98588c-1.99585,0.68926 -3.93496,1.64249 -5.75208,2.76866zM149.09836,295.08533c1.06569,-0.94199 2.17338,-1.85286 3.3422,-2.7327c-1.20196,0.84803 -2.33576,1.76551 -3.37968,2.72221c0.01243,0.00331 0.02491,0.0068 0.03748,0.01049zM143.10196,305.31273l-0.05862,0.16521c0.47431,-0.56065 0.94619,-1.12324 1.41369,-1.68929c-0.45052,0.50099 -0.9015,1.00901 -1.35507,1.52408zM172.16005,298.75008c-0.33613,-0.67442 -0.48065,-1.41162 -0.56363,-2.16861c-0.11136,-0.11465 -0.22345,-0.22872 -0.33616,-0.34229c-0.27553,0.39175 -0.54847,0.78547 -0.82004,1.18014c0.58136,0.50485 1.1562,1.01212 1.72515,1.52441c0.04215,0.02194 0.08438,0.04384 0.12666,0.06569c-0.04477,-0.08623 -0.08877,-0.17267 -0.13197,-0.25934zM157.0419,311.07441c0.01113,0.00185 0.02215,0.00378 0.03307,0.00578c0.70373,-1.08502 1.41717,-2.16298 2.15563,-3.22168c-0.12194,-0.66617 0.37897,-1.21617 0.37897,-1.21617l0.90132,-0.98831c-0.22066,0.01103 -0.41815,-0.04174 -0.58607,-0.12041c-1.26235,1.80705 -2.46942,3.65086 -3.57408,5.56774c0.19083,-0.05588 0.41892,-0.07231 0.69115,-0.02694zM162.1087,303.9522c-0.10984,-0.0849 -0.21956,-0.16998 -0.32916,-0.25526c0.05458,0.13468 0.10388,0.30221 0.11658,0.48641c0.07126,-0.07668 0.14211,-0.15374 0.21258,-0.23116zM163.11614,301.14182c0.27047,0.21236 0.54175,0.4235 0.81376,0.63352c0.35624,-0.56894 0.7095,-1.1403 1.06104,-1.71347c-0.21047,-0.19524 -0.41772,-0.39338 -0.62154,-0.59441c-0.41842,0.55818 -0.83667,1.11593 -1.25327,1.67436zM181.54956,290.18941c0.61325,0.57119 1.21212,1.1398 1.79534,1.71227c-0.59142,-0.63063 -1.19497,-1.20577 -1.79534,-1.71227z" fill="#00ff15" stroke="#00ff21" stroke-width="5" stroke-linecap="butt"/><path d="M141.10006,284.48832c-0.43135,-0.64689 -0.05449,-1.13222 0.16133,-1.33473c2.02454,-2.93534 2.88247,-6.40747 5.06795,-9.29322c0,0 0.62793,-0.82563 1.45356,-0.19769c0.21867,0.16631 0.33538,0.34649 0.38879,0.52153c1.33382,-1.50779 2.64813,-2.9357 4.03411,-4.28408c0.01354,-0.02359 0.02711,-0.04719 0.0407,-0.07079c-0.27821,0.1383 -0.69751,0.21398 -1.1316,-0.19437c-0.75554,-0.71072 -0.04481,-1.46626 -0.04481,-1.46626c1.54252,-1.63978 3.40727,-3.1728 5.46151,-4.42444c-0.0695,-0.09567 -0.12921,-0.21463 -0.17364,-0.36206c-0.29929,-0.99317 0.69388,-1.29246 0.69388,-1.29246c1.4716,-0.4389 2.91238,-0.61632 4.33093,-0.60189c1.73667,-0.56447 3.52671,-0.88656 5.31012,-0.88735c-0.16511,-0.19277 -0.27533,-0.47827 -0.17393,-0.89209c0.24687,-1.00748 1.25435,-0.76061 1.25435,-0.76061c3.73255,0.91461 8.12326,1.69483 11.14912,4.24564c3.14389,2.65031 6.00459,7.1223 6.43956,11.45975c0.05407,0.09312 0.10766,0.18687 0.16077,0.28124l0.86255,1.71569c0,0 0.46538,0.92703 -0.46164,1.39241c-0.68557,0.34417 -1.11866,-0.07319 -1.29776,-0.31395l-0.18073,-0.00738l-0.34084,0.35278c-0.1001,-0.1259 -0.19949,-0.25222 -0.29825,-0.37889l-0.27422,-0.0112c0.00188,0.00195 0.00376,0.00391 0.00563,0.00586l0.39544,0.48748c0,0 0.47104,0.58875 0.10797,1.16393c0.56363,0.26175 1.12925,0.52311 1.69287,0.79006l0.29753,0.03617c0,0 1.014,0.21857 0.79543,1.23257c-0.21857,1.014 -1.23257,0.79543 -1.23257,0.79543l-0.58355,-0.14758c0.74948,1.06925 1.48647,2.14829 2.21003,3.24096c0.08729,-0.00314 0.18245,0.00393 0.28619,0.02355c1.01921,0.19281 0.82641,1.21201 0.82641,1.21201l-2.03634,1.1417c-1.63769,-2.53405 -3.34902,-4.98708 -5.12233,-7.40752c-0.84289,-0.41826 -1.66896,-0.85103 -2.46871,-1.31606l0.15338,0.33983c0,0 0.06408,0.14525 0.08528,0.34715c0.12152,0.28999 0.17846,0.73188 -0.28544,1.14123c-0.15118,0.13341 -0.29891,0.21149 -0.43881,0.25072l0.0105,0.04298c0,0 0.24212,1.00864 -0.76651,1.25076c-0.10959,0.0263 -0.21013,0.03784 -0.30228,0.03752c-0.11497,0.08429 -0.22727,0.13809 -0.33495,0.16885c1.29188,1.93449 2.83303,3.73965 4.06672,5.69656l0.11058,0.16524c0,0 0.57542,0.86305 -0.28762,1.43847c-0.86305,0.57542 -1.43847,-0.28762 -1.43847,-0.28762l-0.13965,-0.21008c-1.27896,-2.03053 -2.8517,-3.89277 -4.1774,-5.89527c0.18808,0.32644 0.3696,0.66247 0.54396,1.00951l0.80616,1.77804c0,0 0.42793,0.9449 -0.51696,1.37284c-0.9449,0.42794 -1.37284,-0.51696 -1.37284,-0.51696l-0.36133,-0.79876c-0.11196,0.09043 -0.25942,0.16517 -0.45297,0.21171c-1.00854,0.24251 -1.25105,-0.76603 -1.25105,-0.76603l-0.19601,-0.86874c-0.71982,-1.74781 -1.6072,-3.38497 -2.5326,-5.01423c-0.39505,-0.42349 -0.79899,-0.84241 -1.20875,-1.26344c-0.2959,-0.2131 -0.59161,-0.42624 -0.88698,-0.63972c-0.88902,1.0769 -1.71638,2.17528 -2.5162,3.29348c-1.3654,2.60649 -2.66895,5.25576 -4.75151,7.30776l-0.26809,0.21176c0,0 -0.82984,0.62236 -1.45219,-0.20747c-0.62236,-0.82984 0.20747,-1.4522 0.20747,-1.4522l0.06555,-0.03845c0.08073,-0.07744 0.16027,-0.1559 0.23868,-0.23536c-0.18016,-0.50981 0.19444,-0.98077 0.19444,-0.98077l0.69598,-0.86995c0.55306,-0.81928 1.09654,-1.63029 1.64141,-2.43246c-0.3771,0.29243 -0.78772,0.4497 -1.30353,0.43351c-0.74904,1.17395 -1.49968,2.34475 -2.28949,3.48112l-0.52233,0.69755c0,0 -0.62238,0.82983 -1.4522,0.20745c-0.82983,-0.62238 -0.20745,-1.45221 -0.20745,-1.45221l0.47851,-0.63689c0.59819,-0.86048 1.17468,-1.73883 1.74497,-2.62274c-0.11049,-0.57908 0.41044,-0.98287 0.41044,-0.98287l0.17716,-0.12155l-0.08067,-0.34166c-0.14713,0.27498 -0.29116,0.55219 -0.43186,0.83181l-0.14829,0.39133c0,0 -0.37798,0.96596 -1.34395,0.58799c-0.73147,-0.28623 -0.69231,-0.90961 -0.63018,-1.1954c-0.1563,0.26648 -0.31072,0.53186 -0.46337,0.79576l-0.79344,1.29072c0,0 -0.05536,0.09001 -0.15947,0.1949c0.74126,0.6664 0.08662,1.43533 0.08662,1.43533c-1.0189,1.19214 -1.78764,2.42191 -2.68894,3.67778c-0.21972,0.64875 -0.97833,0.64874 -0.97833,0.64874l-0.85833,-1.6493c1.0056,-1.37346 1.83544,-2.71301 2.94598,-4.02208c0,0 0.02153,-0.0253 0.06143,-0.06298c-0.64661,-0.54416 -0.17603,-1.30926 -0.17603,-1.30926l0.76472,-1.24261c0.79573,-1.37564 1.63534,-2.77651 2.52994,-4.16299c-0.07794,-0.39551 0.12795,-0.75701 0.12795,-0.75701l0.54286,-0.94898c0.72763,-1.10383 1.32086,-2.23858 1.93493,-3.35148c-0.01714,-0.0262 -0.03423,-0.05246 -0.05128,-0.07879c-2.14429,1.84267 -3.82079,4.30703 -5.1073,6.89958c0.06121,0.04884 0.12211,0.10783 0.18205,0.17848c0.67109,0.79094 -0.11986,1.46204 -0.11986,1.46204c-0.42525,0.35881 -0.81637,0.7399 -1.18333,1.13734l0.05438,-0.02911c0,0 0.26932,1.00171 -0.7324,1.27103c-0.14856,0.03994 -0.28101,0.05192 -0.39886,0.04337c-1.11682,1.44936 -2.07305,3.01732 -3.26368,4.46899l-0.90336,1.13646c0,0 -0.64553,0.81194 -1.45748,0.16641c-0.81195,-0.64553 -0.16641,-1.45748 -0.16641,-1.45748l0.92445,-1.16254c0.18867,-0.22911 0.37176,-0.46047 0.55069,-0.69334c-0.0679,0.08662 -0.13678,0.17239 -0.20675,0.25722l-1.07514,1.03497c0,0 -0.75076,0.71577 -1.46652,-0.03499c-0.71577,-0.75076 0.035,-1.46653 0.035,-1.46653l0.90842,-0.85613c0.91071,-1.09645 1.64049,-2.31157 2.38777,-3.50793c-0.88038,1.05584 -1.74212,2.1262 -2.56036,3.23054l0.01999,0.03137c0,0 -0.39896,0.9575 -1.35645,0.55854c-0.59041,-0.24601 -0.66507,-0.70438 -0.63553,-1.01968c-0.11838,0.18627 -0.24078,0.37071 -0.36784,0.55305l-0.33667,0.30962c0,0 -0.86302,0.57546 -1.43848,-0.28756zM148.62345,276.91441c-0.18883,0.0487 -0.41831,0.03867 -0.69039,-0.08571c-0.43649,-0.19954 -0.5787,-0.50872 -0.6055,-0.78336c-1.28152,1.97706 -2.0892,4.16966 -3.15997,6.24368c1.41985,-1.84296 2.94406,-3.6038 4.45586,-5.37462zM150.58548,281.10199c0.16299,-0.41197 0.3339,-0.82353 0.51297,-1.23335c-1.3693,1.64584 -2.32237,3.66349 -3.59512,5.40619c1.04529,-1.40387 1.9711,-2.84693 3.08216,-4.17284zM152.4886,277.04428l-0.02505,0.0243c0,0 -0.0177,0.01713 -0.0503,0.04339c0.00786,0.00858 0.0157,0.01735 0.02352,0.02632c0.01723,-0.03137 0.0345,-0.0627 0.05183,-0.09401zM166.84408,274.50019c0,0 0.67621,-0.78658 1.46279,-0.11037c0.57978,0.49842 0.36483,1.05681 0.21173,1.31597c0.18464,0.19263 0.36873,0.38347 0.55205,0.57304c0.76261,-0.2636 1.19195,0.49002 1.19195,0.49002c0.18642,0.32722 0.37322,0.65314 0.55951,0.97849c0.46411,0.3344 0.92815,0.66965 1.39145,1.00685l1.27104,0.9395c-1.42476,-1.5234 -2.8057,-3.07261 -4.04516,-4.72725c-0.74473,-0.45625 -1.46925,-0.945 -2.16332,-1.46777c-0.1398,0.34096 -0.28956,0.6812 -0.44724,1.01926c0.00506,-0.00592 0.01012,-0.01184 0.01519,-0.01774zM173.67788,281.25098c-0.02877,0.0338 -0.05793,0.06471 -0.08737,0.09294c0.20702,0.27981 0.40919,0.56556 0.60597,0.85853c-0.18157,-0.31221 -0.35505,-0.62901 -0.51861,-0.95147zM175.17959,269.39824c0.98245,-0.33278 1.31523,0.64969 1.31523,0.64969c0.28877,0.89517 0.79552,1.74423 1.38642,2.56017c1.56921,1.44789 3.28666,2.7918 4.81561,4.24709c0.01419,-0.13274 0.0603,-0.27265 0.1562,-0.41204c-1.54236,-2.06416 -3.01148,-4.16238 -4.83439,-6.01763c-0.96414,-0.98125 -1.95582,-1.87523 -2.90697,-2.78601c-0.48762,-0.18487 -0.97618,-0.37789 -1.46572,-0.57511c0.36171,0.86247 0.8261,1.65747 1.36402,2.40364c0.05163,-0.02555 0.10803,-0.04895 0.16959,-0.0698zM170.43782,262.8875c-0.76697,-0.30221 -1.62949,-0.16974 -2.4647,-0.16939c1.28242,0.41834 2.55722,0.90841 3.83145,1.41308c0.06251,-0.00532 0.1278,-0.00411 0.19533,0.00566c-0.13432,-0.19466 -0.26483,-0.39375 -0.39115,-0.59784c-0.44045,-0.28455 -0.8596,-0.52884 -1.17094,-0.65151zM157.51036,265.56645c0.30129,-0.0956 0.75916,-0.11759 1.12506,0.39899c0.09222,0.13019 0.15023,0.25454 0.18237,0.37176c0.11838,0.06155 0.23759,0.15602 0.35273,0.29456c0.66303,0.79772 -0.13469,1.46074 -0.13469,1.46074c-0.13791,0.11424 -0.27353,0.22986 -0.40704,0.34677c0.2498,-0.11874 0.49949,-0.23832 0.74932,-0.35795c1.22706,-0.84823 2.53125,-1.62922 3.95207,-2.33985c0,0 0.54248,-0.27124 1.00522,0.01591c0.11183,-0.0996 0.26287,-0.18342 0.46582,-0.237c0.34731,-0.09169 0.60609,-0.03136 0.79602,0.0867c0.2277,-0.05646 0.45696,-0.10817 0.68792,-0.15465c-0.06431,-0.07738 -0.48964,-0.62543 -0.13633,-1.18956c-1.4661,-0.40754 -2.94314,-0.68075 -4.43256,-0.72087c-1.45936,0.50399 -2.87723,1.20098 -4.20591,2.02444zM153.86096,268.3628c0.77923,-0.68878 1.58917,-1.35481 2.44381,-1.99814c-0.87887,0.62008 -1.7079,1.29093 -2.47122,1.99047c0.00909,0.00241 0.01822,0.00497 0.02741,0.00767zM149.47641,275.84105l-0.04286,0.12081c0.34681,-0.40995 0.69185,-0.82131 1.03368,-1.23521c-0.32943,0.36633 -0.65917,0.73779 -0.99082,1.1144zM170.72361,271.04246c-0.24578,-0.49314 -0.35145,-1.03218 -0.41213,-1.58569c-0.08142,-0.08383 -0.16338,-0.16724 -0.2458,-0.25029c-0.20147,0.28645 -0.40105,0.57434 -0.59962,0.86292c0.42509,0.36915 0.84541,0.74006 1.26143,1.11464c0.03082,0.01604 0.06169,0.03205 0.09261,0.04803c-0.03274,-0.06304 -0.06491,-0.12625 -0.0965,-0.18962zM159.66926,280.05397c0.00814,0.00135 0.0162,0.00276 0.02419,0.00422c0.51457,-0.79336 1.03623,-1.58157 1.57619,-2.35568c-0.08916,-0.4871 0.27709,-0.88926 0.27709,-0.88926l0.65905,-0.72265c-0.16134,0.00806 -0.30575,-0.03052 -0.42854,-0.08804c-0.92302,1.32131 -1.80563,2.66949 -2.61336,4.07111c0.13954,-0.04086 0.30631,-0.05287 0.50537,-0.0197zM163.37409,274.84623c-0.08032,-0.06208 -0.16054,-0.12429 -0.24068,-0.18664c0.03991,0.09848 0.07595,0.22097 0.08524,0.35566c0.0521,-0.05607 0.10391,-0.11242 0.15544,-0.16902zM164.11073,272.79129c0.19777,0.15528 0.39612,0.30966 0.59502,0.46323c0.26048,-0.41601 0.51878,-0.83379 0.77583,-1.25289c-0.1539,-0.14276 -0.30543,-0.28764 -0.45447,-0.43463c-0.30595,0.40814 -0.61176,0.81597 -0.91638,1.22429zM177.58919,264.78291c0.4484,0.41765 0.88629,0.83342 1.31274,1.25201c-0.43245,-0.46112 -0.87376,-0.88166 -1.31274,-1.25201z" fill="#00ff15" stroke="#00ff21" stroke-width="5" stroke-linecap="butt"/><path d="M139.61587,325.36164c0,-2.76143 2.23858,-5 5,-5c2.76143,0 5,2.23857 5,5c0,2.76142 -2.23857,5 -5,5c-2.76143,0 -5,-2.23858 -5,-5z" fill="#ff0000" stroke="none" stroke-width="0.5" stroke-linecap="butt"/><path d="M172.15518,282.04336c0,-2.76142 2.23858,-5 5,-5c2.76142,0 5,2.23858 5,5c0,2.76142 -2.23858,5 -5,5c-2.76142,0 -5,-2.23858 -5,-5z" fill="#ff0000" stroke="none" stroke-width="0.5" stroke-linecap="butt"/><path d="M148.66153,272.77162c0,-2.76142 2.23858,-5 5,-5c2.76142,0 5,2.23858 5,5c0,2.76143 -2.23858,5 -5,5c-2.76142,0 -5,-2.23857 -5,-5z" fill="#ff0000" stroke="none" stroke-width="0.5" stroke-linecap="butt"/><path d="M180.97468,329.6834c0,-2.76143 2.23858,-5 5,-5c2.76142,0 5,2.23857 5,5c0,2.76142 -2.23858,5 -5,5c-2.76142,0 -5,-2.23858 -5,-5z" fill="#ff0000" stroke="none" stroke-width="0.5" stroke-linecap="butt"/><path d="M160.09425,301.76775c0,-2.76143 2.23858,-5 5,-5c2.76143,0 5,2.23857 5,5c0,2.76143 -2.23857,5 -5,5c-2.76142,0 -5,-2.23857 -5,-5z" fill="#ff0000" stroke="none" stroke-width="0.5" stroke-linecap="butt"/><path d="M141.02295,305.2352c0,-2.76142 2.23857,-5 5,-5c2.76142,0 5,2.23858 5,5c0,2.76143 -2.23858,5 -5,5c-2.76143,0 -5,-2.23857 -5,-5z" fill="#0077ff" stroke="none" stroke-width="0.5" stroke-linecap="butt"/><path d="M131.0476,338.1762c0,-2.76143 2.23858,-5 5,-5c2.76142,0 5,2.23857 5,5c0,2.76143 -2.23858,5 -5,5c-2.76142,0 -5,-2.23857 -5,-5z" fill="#0077ff" stroke="none" stroke-width="0.5" stroke-linecap="butt"/><path d="M160.34553,321.81877c0,-2.76143 2.23857,-5 5,-5c2.76142,0 5,2.23857 5,5c0,2.76143 -2.23858,5 -5,5c-2.76143,0 -5,-2.23857 -5,-5z" fill="#0077ff" stroke="none" stroke-width="0.5" stroke-linecap="butt"/><path d="M177.40669,295.25995c0,-2.76143 2.23858,-5 5,-5c2.76142,0 5,2.23857 5,5c0,2.76142 -2.23858,5 -5,5c-2.76142,0 -5,-2.23858 -5,-5z" fill="#0077ff" stroke="none" stroke-width="0.5" stroke-linecap="butt"/><path d="M151.95314,286.16413c0,-2.76143 2.23858,-5 5,-5c2.76142,0 5,2.23857 5,5c0,2.76142 -2.23858,5 -5,5c-2.76142,0 -5,-2.23858 -5,-5z" fill="#0077ff" stroke="none" stroke-width="0.5" stroke-linecap="butt"/><path d="M165.77296,263.8768c0,-2.76142 2.23858,-5 5,-5c2.76142,0 5,2.23858 5,5c0,2.76142 -2.23858,5 -5,5c-2.76142,0 -5,-2.23858 -5,-5z" fill="#0077ff" stroke="none" stroke-width="0.5" stroke-linecap="butt"/><path d="M182.28131,338.67871c0,-2.76143 2.23858,-5 5,-5c2.76142,0 5,2.23857 5,5c0,2.76143 -2.23858,5 -5,5c-2.76142,0 -5,-2.23857 -5,-5z" fill="#0077ff" stroke="none" stroke-width="0.5" stroke-linecap="butt"/><path d="M163.25478,237.74517l4.58229,7.57075l8.96535,1.19538l-6.17613,6.57459l0.99615,9.16458l-7.37151,-3.78537l-8.76612,4.78152l0.79692,-9.56304l-6.17613,-5.77767l9.56304,-1.9923z" fill="#fbff00" stroke="#000000" stroke-width="2.5" stroke-linecap="round"/><path d="M187.77488,39.77052h-48.42064" fill="none" stroke="url(#color-3)" stroke-width="2.5" stroke-linecap="round"/><path d="M184.40779,34.79861l-5.20133,5.20133l5.42366,5.42366" fill="none" stroke="url(#color-4)" stroke-width="2.5" stroke-linecap="round"/><path d="M142.63788,45.08302l5.20133,-5.20133l-5.42366,-5.42366" fill="none" stroke="url(#color-5)" stroke-width="2.5" stroke-linecap="round"/><path d="M180.80425,56.93968l-34.23856,-34.23856" fill="none" stroke="url(#color-6)" stroke-width="2.5" stroke-linecap="round"/><path d="M181.93903,51.04311h-7.35579v7.67022" fill="none" stroke="url(#color-7)" stroke-width="2.5" stroke-linecap="round"/><path d="M145.13108,28.77951h7.35579v-7.67022" fill="none" stroke="url(#color-8)" stroke-width="2.5" stroke-linecap="round"/><path d="M163.70534,64.16335v-48.42063" fill="none" stroke="url(#color-9)" stroke-width="2.5" stroke-linecap="round"/><path d="M168.67726,60.79626l-5.20133,-5.20133l-5.42366,5.42366" fill="none" stroke="url(#color-10)" stroke-width="2.5" stroke-linecap="round"/><path d="M158.39285,19.02636l5.20133,5.20133l5.42366,-5.42366" fill="none" stroke="url(#color-11)" stroke-width="2.5" stroke-linecap="round"/><path d="M146.53619,57.19272l34.23856,-34.23856" fill="none" stroke="url(#color-12)" stroke-width="2.5" stroke-linecap="round"/><path d="M152.43276,58.3275v-7.35579l-7.67021,0.00001" fill="none" stroke="url(#color-13)" stroke-width="2.5" stroke-linecap="round"/><path d="M174.69636,21.51956v7.35579l7.67021,-0.00001" fill="none" stroke="url(#color-14)" stroke-width="2.5" stroke-linecap="round"/><path d="M152.40831,40.41641l11.15625,-11.15625l11.15625,11.15625l-10.80395,9.86447z" fill="none" stroke="url(#color-15)" stroke-width="2.5" stroke-linecap="round"/><path d="M517.03423,39.77053h-48.42064" fill="none" stroke="url(#color-16)" stroke-width="2.5" stroke-linecap="round"/><path d="M513.66714,34.79861l-5.20133,5.20133l5.42365,5.42367" fill="none" stroke="url(#color-17)" stroke-width="2.5" stroke-linecap="round"/><path d="M471.89724,45.08302l5.20133,-5.20133l-5.42367,-5.42366" fill="none" stroke="url(#color-18)" stroke-width="2.5" stroke-linecap="round"/><path d="M510.0636,56.93968l-34.23855,-34.23856" fill="none" stroke="url(#color-19)" stroke-width="2.5" stroke-linecap="round"/><path d="M511.19838,51.04311h-7.35579v7.67021" fill="none" stroke="url(#color-20)" stroke-width="2.5" stroke-linecap="round"/><path d="M474.39043,28.77951h7.3558v-7.67021" fill="none" stroke="url(#color-21)" stroke-width="2.5" stroke-linecap="round"/><path d="M492.9647,64.16335v-48.42063" fill="none" stroke="url(#color-22)" stroke-width="2.5" stroke-linecap="round"/><path d="M497.93661,60.79626l-5.20134,-5.20133l-5.42365,5.42367" fill="none" stroke="url(#color-23)" stroke-width="2.5" stroke-linecap="round"/><path d="M487.65221,19.02636l5.20133,5.20133l5.42366,-5.42366" fill="none" stroke="url(#color-24)" stroke-width="2.5" stroke-linecap="round"/><path d="M475.79554,57.19272l34.23856,-34.23856" fill="none" stroke="url(#color-25)" stroke-width="2.5" stroke-linecap="round"/><path d="M481.69211,58.32751v-7.35579l-7.67021,0.00001" fill="none" stroke="url(#color-26)" stroke-width="2.5" stroke-linecap="round"/><path d="M503.95572,21.51956v7.3558l7.67021,-0.00001" fill="none" stroke="url(#color-27)" stroke-width="2.5" stroke-linecap="round"/><path d="M481.66766,40.41642l11.15625,-11.15626l11.15626,11.15626l-10.80396,9.86447z" fill="none" stroke="url(#color-28)" stroke-width="2.5" stroke-linecap="round"/></g></g></svg>