<svg version="1.1" xmlns="http://www.w3.org/2000/svg" xmlns:xlink="http://www.w3.org/1999/xlink" width="652.15165" height="384.88438" viewBox="0,0,652.15165,384.88438"><defs><linearGradient x1="317.80593" y1="180" x2="641.24775" y2="180" gradientUnits="userSpaceOnUse" id="color-1"><stop offset="0" stop-color="#9bff8f"/><stop offset="1" stop-color="#00a7ff"/></linearGradient><linearGradient x1="322.19405" y1="180" x2="-1.24775" y2="180" gradientUnits="userSpaceOnUse" id="color-2"><stop offset="0" stop-color="#9bff8f"/><stop offset="1" stop-color="#ff8b8b"/></linearGradient></defs><g transform="translate(6.07583,12.44219)"><g data-paper-data="{&quot;isPaintingLayer&quot;:true}" fill-rule="nonzero" stroke-linejoin="miter" stroke-miterlimit="10" stroke-dasharray="" stroke-dashoffset="0" style="mix-blend-mode: normal"><path d="M317.80593,366v-372h323.44181v372z" fill="url(#color-1)" stroke="none" stroke-width="0" stroke-linecap="butt"/><path d="M-1.24775,366v-372h323.4418v372z" data-paper-data="{&quot;index&quot;:null}" fill="url(#color-2)" stroke="none" stroke-width="0" stroke-linecap="butt"/><path d="M-5.82583,372.19219v-384.38438h651.65165v384.38438z" fill-opacity="0.37647" fill="#000000" stroke="#000000" stroke-width="0.5" stroke-linecap="butt"/><text transform="translate(190.05474,49.26876) scale(1.23673,1.23673)" font-size="40" xml:space="preserve" fill="#ffffff" fill-rule="nonzero" stroke="#000000" stroke-width="1" stroke-linecap="butt" stroke-linejoin="miter" stroke-miterlimit="10" stroke-dasharray="" stroke-dashoffset="0" font-family="Marker" font-weight="normal" text-anchor="start" style="mix-blend-mode: normal"><tspan x="0" dy="0">My Projects</tspan></text><text transform="translate(142.49857,85.76876) scale(0.5,0.5)" font-size="40" xml:space="preserve" fill="#ffffff" fill-rule="nonzero" stroke="#000000" stroke-width="1" stroke-linecap="butt" stroke-linejoin="miter" stroke-miterlimit="10" stroke-dasharray="" stroke-dashoffset="0" font-family="Marker" font-weight="normal" text-anchor="start" style="mix-blend-mode: normal"><tspan x="0" dy="0">Click one of the buttons to get a link</tspan></text><path d="M143.56755,8.1624c-9.22251,0.44632 -1.22851,27.43668 -1.22851,27.43668c0,0 -4.17809,6.25694 -5.22074,9.16146c-0.80775,2.25017 -0.51229,6.80914 -0.51229,6.80914c0,0 3.05121,6.65759 5.95353,8.31606c2.82883,1.61648 11.24558,1.51201 11.24558,1.51201c0,0 8.28498,0.06028 11.03855,-1.84604c2.5551,-1.76892 4.95841,-6.35129 4.93205,-11.25804c-0.02636,-4.90676 -3.51734,-4.29774 -5.04271,-9.34322c-2.20909,-7.30702 11.99135,-26.50311 0.94768,-29.96904c-12.37707,-2.23762 -6.1966,21.20154 -12.69459,20.47513c-5.28889,-0.59124 -0.06782,-21.54848 -9.41855,-21.29413z" fill="#aeaeae" stroke="#000000" stroke-width="0.5" stroke-linecap="round"/><path d="M158.59245,43.59041c5.42395,1.53088 5.63905,7.71171 2.37278,11.35189c-1.39633,1.55618 -2.69114,2.65332 -4.59286,3.516c-2.19218,0.33483 -3.84972,0.45138 -5.95494,-0.39201c-3.07761,-1.23295 -6.55189,-3.40095 -6.57921,-7.09696c-0.03688,-4.99033 6.92566,-10.65333 11.29755,-7.54602c0.14022,0.05352 0.26834,0.13155 0.3791,0.22886c0.82485,-0.31802 1.76307,-0.43278 3.07758,-0.06177zM154.42571,50.00963c-0.03129,-0.02498 -0.06203,-0.05076 -0.09222,-0.07727c0.00974,0.04919 0.02026,0.09746 0.03161,0.14428c0.02036,-0.02215 0.04056,-0.04449 0.06061,-0.06701zM152.3394,45.2852c-0.04011,0.00432 -0.08417,0.02161 -0.13122,0.04919c0.0442,-0.01606 0.08794,-0.03247 0.13122,-0.04919z" fill="#ffffff" stroke="#ffffff" stroke-width="0.5" stroke-linecap="butt"/><path d="M142.77679,15.29339l2.27344,14.33259" fill="none" stroke="#ffbfbf" stroke-width="5" stroke-linecap="round"/><path d="M165.85013,14.88388l-4.09503,15.1516" fill="none" stroke="#ffbfbf" stroke-width="5" stroke-linecap="round"/><path d="M149.32379,40.33851c0,1.50723 -0.96267,2.72908 -2.15018,2.72908c-1.18752,0 -2.15019,-1.22186 -2.15019,-2.72908c0,-1.50723 0.96267,-2.72908 2.15019,-2.72908c1.18752,0 2.15018,1.22185 2.15018,2.72908z" fill="#000000" stroke="none" stroke-width="0" stroke-linecap="butt"/><path d="M161.72871,40.50391c0,1.50723 -0.96267,2.72908 -2.15018,2.72908c-1.18752,0 -2.15019,-1.22186 -2.15019,-2.72908c0,-1.50723 0.96267,-2.72908 2.15019,-2.72908c1.18752,0 2.15018,1.22185 2.15018,2.72908z" fill="#000000" stroke="none" stroke-width="0" stroke-linecap="butt"/><path d="M159.13922,49.29587c0.88388,0.88388 0,1.76776 0,1.76776l-0.2544,0.24714c-1.59459,1.89936 -3.77074,3.71907 -5.74975,1.52451c-0.78701,0.73734 -1.97427,0.98472 -3.48284,0.23677c-1.43442,-0.71119 -1.96025,-2.07485 -2.63182,-3.34746l-0.11937,-0.30208c0,0 -0.41595,-1.17877 0.76282,-1.59472c1.17876,-0.41594 1.59471,0.76282 1.59471,0.76282l-0.01858,-0.01645c0.46481,0.9176 0.68527,1.60621 1.53494,2.26416c0.87528,0.67777 1.3457,-0.57813 0.98832,-1.35519c-0.87174,-0.39049 -1.47905,-1.26568 -1.47905,-2.28271c0,-1.38071 1.11929,-2.5 2.5,-2.5c1.38071,0 2.5,1.11929 2.5,2.5c0,0.79345 -0.36964,1.50057 -0.94612,1.95855c0.72319,2.12158 0.68805,2.89782 2.62619,0.55133l0.40719,-0.41445c0,0 0.88388,-0.88388 1.76776,0z" fill="#000000" stroke="none" stroke-width="0.5" stroke-linecap="butt"/><path d="M481.70083,3.72963c-9.22251,0.44632 -1.22851,27.43668 -1.22851,27.43668c0,0 -4.17809,6.25694 -5.22074,9.16146c-0.80775,2.25018 -0.51229,6.80915 -0.51229,6.80915c0,0 3.05122,6.65758 5.95353,8.31606c2.82883,1.61647 11.24558,1.51201 11.24558,1.51201c0,0 8.28498,0.06028 11.03855,-1.84604c2.55511,-1.76892 4.95841,-6.35129 4.93205,-11.25805c-0.02636,-4.90676 -3.51734,-4.29774 -5.04271,-9.34322c-2.20909,-7.30702 11.99136,-26.50311 0.94768,-29.96904c-12.37707,-2.23762 -6.1966,21.20154 -12.69459,20.47513c-5.28889,-0.59124 -0.06782,-21.54848 -9.41855,-21.29413z" fill="#aeaeae" stroke="#000000" stroke-width="0.5" stroke-linecap="round"/><path d="M496.72573,39.15763c5.42395,1.53088 5.63905,7.71171 2.37278,11.35189c-1.39633,1.55618 -2.69114,2.65332 -4.59285,3.516c-2.19218,0.33483 -3.84972,0.45138 -5.95494,-0.39201c-3.07761,-1.23294 -6.55189,-3.40095 -6.57921,-7.09696c-0.03688,-4.99033 6.92566,-10.65333 11.29755,-7.54602c0.14022,0.05352 0.26834,0.13155 0.3791,0.22886c0.82485,-0.31802 1.76307,-0.43278 3.07758,-0.06177zM492.55899,45.57686c-0.03129,-0.02498 -0.06203,-0.05076 -0.09222,-0.07727c0.00974,0.04919 0.02026,0.09746 0.03161,0.14428c0.02036,-0.02215 0.04056,-0.04449 0.06061,-0.06701zM490.47268,40.85242c-0.04011,0.00432 -0.08417,0.02161 -0.13122,0.04919c0.0442,-0.01606 0.08794,-0.03247 0.13122,-0.04919z" fill="#ffffff" stroke="#ffffff" stroke-width="0.5" stroke-linecap="butt"/><path d="M480.91007,10.86061l2.27344,14.33259" fill="none" stroke="#ffbfbf" stroke-width="5" stroke-linecap="round"/><path d="M503.98341,10.45111l-4.09503,15.1516" fill="none" stroke="#ffbfbf" stroke-width="5" stroke-linecap="round"/><path d="M487.45707,35.90574c0,1.50723 -0.96267,2.72908 -2.15018,2.72908c-1.18752,0 -2.15019,-1.22186 -2.15019,-2.72908c0,-1.50723 0.96267,-2.72908 2.15019,-2.72908c1.18752,0 2.15018,1.22185 2.15018,2.72908z" fill="#000000" stroke="none" stroke-width="0" stroke-linecap="butt"/><path d="M499.86199,36.07114c0,1.50723 -0.96267,2.72908 -2.15018,2.72908c-1.18752,0 -2.15019,-1.22186 -2.15019,-2.72908c0,-1.50723 0.96267,-2.72908 2.15019,-2.72908c1.18752,0 2.15018,1.22185 2.15018,2.72908z" fill="#000000" stroke="none" stroke-width="0" stroke-linecap="butt"/><path d="M497.2725,44.86309c0.88389,0.88389 0,1.76776 0,1.76776l-0.2544,0.24714c-1.59459,1.89936 -3.77074,3.71907 -5.74975,1.52451c-0.78701,0.73733 -1.97427,0.98472 -3.48284,0.23677c-1.43442,-0.71119 -1.96025,-2.07484 -2.63182,-3.34746l-0.11937,-0.30208c0,0 -0.41595,-1.17877 0.76282,-1.59471c1.17876,-0.41594 1.59471,0.76282 1.59471,0.76282l-0.01858,-0.01645c0.46481,0.9176 0.68527,1.60621 1.53494,2.26416c0.87528,0.67777 1.3457,-0.57813 0.98832,-1.35519c-0.87174,-0.39049 -1.47905,-1.26568 -1.47905,-2.28271c0,-1.38071 1.11929,-2.5 2.5,-2.5c1.38071,0 2.5,1.11929 2.5,2.5c0,0.79345 -0.36964,1.50057 -0.94612,1.95855c0.72319,2.12158 0.68805,2.89782 2.62619,0.55133l0.40719,-0.41445c0,0 0.88388,-0.88388 1.76776,0z" fill="#000000" stroke="none" stroke-width="0.5" stroke-linecap="butt"/></g></g></svg>