<svg version="1.1" xmlns="http://www.w3.org/2000/svg" xmlns:xlink="http://www.w3.org/1999/xlink" width="91.45438" height="46.82474" viewBox="0,0,91.45438,46.82474"><g transform="translate(-274.27282,-156.58764)"><g data-paper-data="{&quot;isPaintingLayer&quot;:true}" fill-rule="nonzero" stroke-linejoin="miter" stroke-miterlimit="10" stroke-dasharray="" stroke-dashoffset="0" style="mix-blend-mode: normal"><path d="M274.93902,180.00002c0,0 20.17449,-22.91237 45.06099,-22.91237c24.88649,0 45.06099,22.91237 45.06099,22.91237c0,0 -20.17449,22.91237 -45.06099,22.91237c-24.88649,0 -45.06099,-22.91237 -45.06099,-22.91237z" fill="#ffde00" stroke="#000000" stroke-width="1" stroke-linecap="butt"/><path d="M312.45062,163.63271c0,-0.27614 0.22386,-0.5 0.5,-0.5c0.27614,0 0.5,0.22386 0.5,0.5c0,0.27614 -0.22386,0.5 -0.5,0.5c-0.27614,0 -0.5,-0.22386 -0.5,-0.5z" fill="#e5c800" stroke="none" stroke-width="0.5" stroke-linecap="butt"/><path d="M346.91772,175.49654c0,-0.27614 0.22386,-0.5 0.5,-0.5c0.27614,0 0.5,0.22386 0.5,0.5c0,0.27614 -0.22386,0.5 -0.5,0.5c-0.27614,0 -0.5,-0.22386 -0.5,-0.5z" fill="#e5c800" stroke="none" stroke-width="0.5" stroke-linecap="butt"/><path d="M327.83561,163.36863c0,-0.27614 0.22386,-0.5 0.5,-0.5c0.27614,0 0.5,0.22386 0.5,0.5c0,0.27614 -0.22386,0.5 -0.5,0.5c-0.27614,0 -0.5,-0.22386 -0.5,-0.5z" fill="#e5c800" stroke="none" stroke-width="0.5" stroke-linecap="butt"/><path d="M304.85102,185.57052c0,-0.27614 0.22386,-0.5 0.5,-0.5c0.27614,0 0.5,0.22386 0.5,0.5c0,0.27614 -0.22386,0.5 -0.5,0.5c-0.27614,0 -0.5,-0.22386 -0.5,-0.5z" fill="#e5c800" stroke="none" stroke-width="0.5" stroke-linecap="butt"/><path d="M286.95239,179.09579c0,-0.27614 0.22386,-0.5 0.5,-0.5c0.27614,0 0.5,0.22386 0.5,0.5c0,0.27614 -0.22386,0.5 -0.5,0.5c-0.27614,0 -0.5,-0.22386 -0.5,-0.5z" fill="#e5c800" stroke="none" stroke-width="0.5" stroke-linecap="butt"/><path d="M302.88512,169.94118c0,-0.27614 0.22386,-0.5 0.5,-0.5c0.27614,0 0.5,0.22386 0.5,0.5c0,0.27614 -0.22386,0.5 -0.5,0.5c-0.27614,0 -0.5,-0.22386 -0.5,-0.5z" fill="#e5c800" stroke="none" stroke-width="0.5" stroke-linecap="butt"/><path d="M317.2236,181.83435c0,-0.27614 0.22386,-0.5 0.5,-0.5c0.27614,0 0.5,0.22386 0.5,0.5c0,0.27614 -0.22386,0.5 -0.5,0.5c-0.27614,0 -0.5,-0.22386 -0.5,-0.5z" fill="#e5c800" stroke="none" stroke-width="0.5" stroke-linecap="butt"/><path d="M333.24433,189.99134c0,-0.27614 0.22386,-0.5 0.5,-0.5c0.27614,0 0.5,0.22386 0.5,0.5c0,0.27614 -0.22386,0.5 -0.5,0.5c-0.27614,0 -0.5,-0.22386 -0.5,-0.5z" fill="#e5c800" stroke="none" stroke-width="0.5" stroke-linecap="butt"/><path d="M321.18476,195.10659c0,-0.27614 0.22386,-0.5 0.5,-0.5c0.27614,0 0.5,0.22386 0.5,0.5c0,0.27614 -0.22386,0.5 -0.5,0.5c-0.27614,0 -0.5,-0.22386 -0.5,-0.5z" fill="#e5c800" stroke="none" stroke-width="0.5" stroke-linecap="butt"/><path d="M342.28168,178.53829c0,-0.27614 0.22386,-0.5 0.5,-0.5c0.27614,0 0.5,0.22386 0.5,0.5c0,0.27614 -0.22386,0.5 -0.5,0.5c-0.27614,0 -0.5,-0.22386 -0.5,-0.5z" fill="#e5c800" stroke="none" stroke-width="0.5" stroke-linecap="butt"/><path d="M330.08518,174.34243c0,-0.27614 0.22386,-0.5 0.5,-0.5c0.27614,0 0.5,0.22386 0.5,0.5c0,0.27614 -0.22386,0.5 -0.5,0.5c-0.27614,0 -0.5,-0.22386 -0.5,-0.5z" fill="#e5c800" stroke="none" stroke-width="0.5" stroke-linecap="butt"/><path d="M319.30687,171.62344c0,-0.27614 0.22386,-0.5 0.5,-0.5c0.27614,0 0.5,0.22386 0.5,0.5c0,0.27614 -0.22386,0.5 -0.5,0.5c-0.27614,0 -0.5,-0.22386 -0.5,-0.5z" fill="#e5c800" stroke="none" stroke-width="0.5" stroke-linecap="butt"/><path d="M341.14712,168.99246c0,-0.27614 0.22386,-0.5 0.5,-0.5c0.27614,0 0.5,0.22386 0.5,0.5c0,0.27614 -0.22386,0.5 -0.5,0.5c-0.27614,0 -0.5,-0.22386 -0.5,-0.5z" fill="#e5c800" stroke="none" stroke-width="0.5" stroke-linecap="butt"/><path d="M357.46129,179.06645c0,-0.27614 0.22386,-0.5 0.5,-0.5c0.27614,0 0.5,0.22386 0.5,0.5c0,0.27614 -0.22386,0.5 -0.5,0.5c-0.27614,0 -0.5,-0.22386 -0.5,-0.5z" fill="#e5c800" stroke="none" stroke-width="0.5" stroke-linecap="butt"/><path d="M331.57184,182.87109c0,-0.27614 0.22386,-0.5 0.5,-0.5c0.27614,0 0.5,0.22386 0.5,0.5c0,0.27614 -0.22386,0.5 -0.5,0.5c-0.27614,0 -0.5,-0.22386 -0.5,-0.5z" fill="#e5c800" stroke="none" stroke-width="0.5" stroke-linecap="butt"/><path d="M347.83711,188.81768c0,-0.27614 0.22386,-0.5 0.5,-0.5c0.27614,0 0.5,0.22386 0.5,0.5c0,0.27614 -0.22386,0.5 -0.5,0.5c-0.27614,0 -0.5,-0.22386 -0.5,-0.5z" fill="#e5c800" stroke="none" stroke-width="0.5" stroke-linecap="butt"/><path d="M302.21025,197.46369c0,-0.27614 0.22386,-0.5 0.5,-0.5c0.27614,0 0.5,0.22386 0.5,0.5c0,0.27614 -0.22386,0.5 -0.5,0.5c-0.27614,0 -0.5,-0.22386 -0.5,-0.5z" fill="#e5c800" stroke="none" stroke-width="0.5" stroke-linecap="butt"/><path d="M294.63023,178.06883c0,-0.27614 0.22386,-0.5 0.5,-0.5c0.27614,0 0.5,0.22386 0.5,0.5c0,0.27614 -0.22386,0.5 -0.5,0.5c-0.27614,0 -0.5,-0.22386 -0.5,-0.5z" fill="#e5c800" stroke="none" stroke-width="0.5" stroke-linecap="butt"/><path d="M290.14089,185.24777c0,-0.27614 0.22386,-0.5 0.5,-0.5c0.27614,0 0.5,0.22386 0.5,0.5c0,0.27614 -0.22386,0.5 -0.5,0.5c-0.27614,0 -0.5,-0.22386 -0.5,-0.5z" fill="#e5c800" stroke="none" stroke-width="0.5" stroke-linecap="butt"/><path d="M291.19721,171.98531c0,-0.27614 0.22386,-0.5 0.5,-0.5c0.27614,0 0.5,0.22386 0.5,0.5c0,0.27614 -0.22386,0.5 -0.5,0.5c-0.27614,0 -0.5,-0.22386 -0.5,-0.5z" fill="#e5c800" stroke="none" stroke-width="0.5" stroke-linecap="butt"/><path d="M307.27664,177.57002c0,-0.27614 0.22386,-0.5 0.5,-0.5c0.27614,0 0.5,0.22386 0.5,0.5c0,0.27614 -0.22386,0.5 -0.5,0.5c-0.27614,0 -0.5,-0.22386 -0.5,-0.5z" fill="#e5c800" stroke="none" stroke-width="0.5" stroke-linecap="butt"/><path d="M295.41269,190.88139c0,-0.27614 0.22386,-0.5 0.5,-0.5c0.27614,0 0.5,0.22386 0.5,0.5c0,0.27614 -0.22386,0.5 -0.5,0.5c-0.27614,0 -0.5,-0.22386 -0.5,-0.5z" fill="#e5c800" stroke="none" stroke-width="0.5" stroke-linecap="butt"/><path d="M313.6732,197.52239c0,-0.27614 0.22386,-0.5 0.5,-0.5c0.27614,0 0.5,0.22386 0.5,0.5c0,0.27614 -0.22386,0.5 -0.5,0.5c-0.27614,0 -0.5,-0.22386 -0.5,-0.5z" fill="#e5c800" stroke="none" stroke-width="0.5" stroke-linecap="butt"/><path d="M310.87593,191.26281c0,-0.27614 0.22386,-0.5 0.5,-0.5c0.27614,0 0.5,0.22386 0.5,0.5c0,0.27614 -0.22386,0.5 -0.5,0.5c-0.27614,0 -0.5,-0.22386 -0.5,-0.5z" fill="#e5c800" stroke="none" stroke-width="0.5" stroke-linecap="butt"/><path d="M325.00901,187.75159c0,-0.27614 0.22386,-0.5 0.5,-0.5c0.27614,0 0.5,0.22386 0.5,0.5c0,0.27614 -0.22386,0.5 -0.5,0.5c-0.27614,0 -0.5,-0.22386 -0.5,-0.5z" fill="#e5c800" stroke="none" stroke-width="0.5" stroke-linecap="butt"/><path d="M324.64713,177.34507c0,-0.27614 0.22386,-0.5 0.5,-0.5c0.27614,0 0.5,0.22386 0.5,0.5c0,0.27614 -0.22386,0.5 -0.5,0.5c-0.27614,0 -0.5,-0.22386 -0.5,-0.5z" fill="#e5c800" stroke="none" stroke-width="0.5" stroke-linecap="butt"/><path d="M313.97962,172.0241c-0.3322,0.37369 -0.70589,0.04149 -0.70589,0.04149l-0.05858,-0.05402c-0.14997,-0.1141 -0.29994,-0.22821 -0.44991,-0.34231c0,0 -0.39792,-0.30275 -0.09516,-0.70067c0.30275,-0.39792 0.70067,-0.09517 0.70067,-0.09517c0.14997,0.1141 0.29994,0.22821 0.44991,0.34232l0.11747,0.10247c0,0 0.37369,0.3322 0.04149,0.70589z" fill="#e5c800" stroke="none" stroke-width="0.5" stroke-linecap="butt"/><path d="M324.08962,166.34193c0,-0.27614 0.22386,-0.5 0.5,-0.5c0.27614,0 0.5,0.22386 0.5,0.5c0,0.27614 -0.22386,0.5 -0.5,0.5c-0.27614,0 -0.5,-0.22386 -0.5,-0.5z" fill="#e5c800" stroke="none" stroke-width="0.5" stroke-linecap="butt"/><path d="M319.60222,162.19468c-0.49852,-0.03839 -0.46013,-0.53691 -0.46013,-0.53691l0.01148,-0.14498c0.01956,-0.17279 0.0391,-0.34558 0.05866,-0.51837c0,0 0.05623,-0.49683 0.55306,-0.44061c0.49683,0.05623 0.44061,0.55306 0.44061,0.55306c-0.01956,0.17279 -0.03911,0.34558 -0.05867,0.51837l-0.0081,0.10931c0,0 -0.03839,0.49852 -0.53691,0.46014z" fill="#e5c800" stroke="none" stroke-width="0.5" stroke-linecap="butt"/><path d="M303.47195,165.67684c0,-0.27614 0.22386,-0.5 0.5,-0.5c0.27614,0 0.5,0.22386 0.5,0.5c0,0.27614 -0.22386,0.5 -0.5,0.5c-0.27614,0 -0.5,-0.22386 -0.5,-0.5z" fill="#e5c800" stroke="none" stroke-width="0.5" stroke-linecap="butt"/><path d="M349.62697,169.99008c0,-0.27614 0.22386,-0.5 0.5,-0.5c0.27614,0 0.5,0.22386 0.5,0.5c0,0.27614 -0.22386,0.5 -0.5,0.5c-0.27614,0 -0.5,-0.22386 -0.5,-0.5z" fill="#e5c800" stroke="none" stroke-width="0.5" stroke-linecap="butt"/><path d="M342.05673,187.39949c0,-0.27614 0.22386,-0.5 0.5,-0.5c0.27614,0 0.5,0.22386 0.5,0.5c0,0.27614 -0.22386,0.5 -0.5,0.5c-0.27614,0 -0.5,-0.22386 -0.5,-0.5z" fill="#e5c800" stroke="none" stroke-width="0.5" stroke-linecap="butt"/><path d="M333.06041,194.12097c0.08125,0.12956 0.15092,0.34631 -0.05482,0.58138c-0.3293,0.37625 -0.70555,0.04694 -0.70555,0.04694l-0.24837,-0.4685c0.00978,-0.20539 0.01956,-0.41078 0.02934,-0.61616c0,0 0.02378,-0.49943 0.52321,-0.47565c0.49944,0.02378 0.47565,0.52321 0.47565,0.52321c-0.00649,0.13626 -0.01297,0.27253 -0.01946,0.40878z" fill="#e5c800" stroke="none" stroke-width="0.5" stroke-linecap="butt"/><path d="M338.92691,193.8938c0,-0.27614 0.22386,-0.5 0.5,-0.5c0.27614,0 0.5,0.22386 0.5,0.5c0,0.27614 -0.22386,0.5 -0.5,0.5c-0.27614,0 -0.5,-0.22386 -0.5,-0.5z" fill="#e5c800" stroke="none" stroke-width="0.5" stroke-linecap="butt"/><path d="M325.723,198.8232c0,-0.27614 0.22386,-0.5 0.5,-0.5c0.27614,0 0.5,0.22386 0.5,0.5c0,0.27614 -0.22386,0.5 -0.5,0.5c-0.27614,0 -0.5,-0.22386 -0.5,-0.5z" fill="#e5c800" stroke="none" stroke-width="0.5" stroke-linecap="butt"/><path d="M292.17923,173.58165c0,0 2.98549,-3.99223 7.97797,-6.66531c4.99248,-2.67308 9.75283,-3.5374 9.75283,-3.5374" fill="none" stroke="#ffffff" stroke-width="5" stroke-linecap="round"/></g></g></svg>